<?xml version="1.0" encoding="UTF-8" standalone="no"?>
<!DOCTYPE svg PUBLIC "-//W3C//DTD SVG 1.1//EN"
 "http://www.w3.org/Graphics/SVG/1.1/DTD/svg11.dtd">
<!-- Generated by graphviz version 12.2.0 (20241103.1931)
 -->
<!-- Title: crab::Slice::get Pages: 1 -->
<svg width="175pt" height="64pt"
 viewBox="0.00 0.00 175.00 64.25" xmlns="http://www.w3.org/2000/svg" xmlns:xlink="http://www.w3.org/1999/xlink">
<g id="graph0" class="graph" transform="scale(1 1) rotate(0) translate(4 60.25)">
<title>crab::Slice::get</title>
<!-- Node1 -->
<g id="Node000001" class="node">
<title>Node1</title>
<g id="a_Node000001"><a xlink:title=" ">
<polygon fill="#999999" stroke="#666666" points="79,-37.25 0,-37.25 0,-18 79,-18 79,-37.25"/>
<text text-anchor="middle" x="39.5" y="-23.75" font-family="Helvetica,sans-Serif" font-size="10.00">crab::Slice::get</text>
</a>
</g>
</g>
<!-- Node2 -->
<g id="Node000002" class="node">
<title>Node2</title>
<g id="a_Node000002"><a xlink:href="namespacecrab.html#a3745fae96ffff64db507a12f27498a39" target="_top" xlink:title="Factory function to create an Err result.">
<polygon fill="white" stroke="#666666" points="166.62,-56.25 115.38,-56.25 115.38,-37 166.62,-37 166.62,-56.25"/>
<text text-anchor="middle" x="141" y="-42.75" font-family="Helvetica,sans-Serif" font-size="10.00">crab::Err</text>
</a>
</g>
</g>
<!-- Node1&#45;&gt;Node2 -->
<g id="edge1_Node000001_Node000002" class="edge">
<title>Node1&#45;&gt;Node2</title>
<g id="a_edge1_Node000001_Node000002"><a xlink:title=" ">
<path fill="none" stroke="#63b8ff" d="M79.25,-35.03C87.32,-36.57 95.79,-38.18 103.76,-39.71"/>
<polygon fill="#63b8ff" stroke="#63b8ff" points="103.01,-43.12 113.49,-41.56 104.32,-36.25 103.01,-43.12"/>
</a>
</g>
</g>
<!-- Node3 -->
<g id="Node000003" class="node">
<title>Node3</title>
<g id="a_Node000003"><a xlink:href="namespacecrab.html#a9085393618393c23f64c2525f2c1961f" target="_top" xlink:title="Factory function for Ok with void/Unit result.">
<polygon fill="white" stroke="#666666" points="167,-19.25 115,-19.25 115,0 167,0 167,-19.25"/>
<text text-anchor="middle" x="141" y="-5.75" font-family="Helvetica,sans-Serif" font-size="10.00">crab::Ok</text>
</a>
</g>
</g>
<!-- Node1&#45;&gt;Node3 -->
<g id="edge2_Node000001_Node000003" class="edge">
<title>Node1&#45;&gt;Node3</title>
<g id="a_edge2_Node000001_Node000003"><a xlink:title=" ">
<path fill="none" stroke="#63b8ff" d="M79.25,-20.61C87.25,-19.17 95.64,-17.65 103.54,-16.22"/>
<polygon fill="#63b8ff" stroke="#63b8ff" points="103.97,-19.7 113.19,-14.47 102.73,-12.81 103.97,-19.7"/>
</a>
</g>
</g>
</g>
</svg>
