<?xml version="1.0" encoding="UTF-8" standalone="no"?>
<!DOCTYPE svg PUBLIC "-//W3C//DTD SVG 1.1//EN"
 "http://www.w3.org/Graphics/SVG/1.1/DTD/svg11.dtd">
<!-- Generated by graphviz version 12.2.0 (20241103.1931)
 -->
<!-- Title: crab::Result::map Pages: 1 -->
<svg width="186pt" height="64pt"
 viewBox="0.00 0.00 186.25 64.25" xmlns="http://www.w3.org/2000/svg" xmlns:xlink="http://www.w3.org/1999/xlink">
<g id="graph0" class="graph" transform="scale(1 1) rotate(0) translate(4 60.25)">
<title>crab::Result::map</title>
<!-- Node1 -->
<g id="Node000001" class="node">
<title>Node1</title>
<g id="a_Node000001"><a xlink:title="Transform the Ok value.">
<polygon fill="#999999" stroke="#666666" points="90.25,-37.25 0,-37.25 0,-18 90.25,-18 90.25,-37.25"/>
<text text-anchor="middle" x="45.12" y="-23.75" font-family="Helvetica,sans-Serif" font-size="10.00">crab::Result::map</text>
</a>
</g>
</g>
<!-- Node2 -->
<g id="Node000002" class="node">
<title>Node2</title>
<g id="a_Node000002"><a xlink:href="namespacecrab.html#a3745fae96ffff64db507a12f27498a39" target="_top" xlink:title="Factory function to create an Err result.">
<polygon fill="white" stroke="#666666" points="177.88,-56.25 126.62,-56.25 126.62,-37 177.88,-37 177.88,-56.25"/>
<text text-anchor="middle" x="152.25" y="-42.75" font-family="Helvetica,sans-Serif" font-size="10.00">crab::Err</text>
</a>
</g>
</g>
<!-- Node1&#45;&gt;Node2 -->
<g id="edge1_Node000001_Node000002" class="edge">
<title>Node1&#45;&gt;Node2</title>
<g id="a_edge1_Node000001_Node000002"><a xlink:title=" ">
<path fill="none" stroke="#63b8ff" d="M90.71,-35.68C98.9,-37.16 107.37,-38.69 115.27,-40.12"/>
<polygon fill="#63b8ff" stroke="#63b8ff" points="114.4,-43.52 124.87,-41.86 115.65,-36.63 114.4,-43.52"/>
</a>
</g>
</g>
<!-- Node3 -->
<g id="Node000003" class="node">
<title>Node3</title>
<g id="a_Node000003"><a xlink:href="namespacecrab.html#a9085393618393c23f64c2525f2c1961f" target="_top" xlink:title="Factory function for Ok with void/Unit result.">
<polygon fill="white" stroke="#666666" points="178.25,-19.25 126.25,-19.25 126.25,0 178.25,0 178.25,-19.25"/>
<text text-anchor="middle" x="152.25" y="-5.75" font-family="Helvetica,sans-Serif" font-size="10.00">crab::Ok</text>
</a>
</g>
</g>
<!-- Node1&#45;&gt;Node3 -->
<g id="edge2_Node000001_Node000003" class="edge">
<title>Node1&#45;&gt;Node3</title>
<g id="a_edge2_Node000001_Node000003"><a xlink:title=" ">
<path fill="none" stroke="#63b8ff" d="M90.71,-19.99C98.66,-18.63 106.86,-17.23 114.56,-15.91"/>
<polygon fill="#63b8ff" stroke="#63b8ff" points="115.01,-19.38 124.27,-14.24 113.83,-12.48 115.01,-19.38"/>
</a>
</g>
</g>
</g>
</svg>
