<?xml version="1.0" encoding="UTF-8" standalone="no"?>
<!DOCTYPE svg PUBLIC "-//W3C//DTD SVG 1.1//EN"
 "http://www.w3.org/Graphics/SVG/1.1/DTD/svg11.dtd">
<!-- Generated by graphviz version 12.2.0 (20241103.1931)
 -->
<!-- Title: crab::StaticVector::try_resize Pages: 1 -->
<svg width="189pt" height="64pt"
 viewBox="0.00 0.00 189.25 64.25" xmlns="http://www.w3.org/2000/svg" xmlns:xlink="http://www.w3.org/1999/xlink">
<g id="graph0" class="graph" transform="scale(1 1) rotate(0) translate(4 60.25)">
<title>crab::StaticVector::try_resize</title>
<!-- Node1 -->
<g id="Node000001" class="node">
<title>Node1</title>
<g id="a_Node000001"><a xlink:title="Resize the vector.">
<polygon fill="#999999" stroke="#666666" points="93.25,-42.88 0,-42.88 0,-12.37 93.25,-12.37 93.25,-42.88"/>
<text text-anchor="start" x="8" y="-29.38" font-family="Helvetica,sans-Serif" font-size="10.00">crab::StaticVector</text>
<text text-anchor="middle" x="46.62" y="-18.12" font-family="Helvetica,sans-Serif" font-size="10.00">::try_resize</text>
</a>
</g>
</g>
<!-- Node2 -->
<g id="Node000002" class="node">
<title>Node2</title>
<g id="a_Node000002"><a xlink:href="namespacecrab.html#a3745fae96ffff64db507a12f27498a39" target="_top" xlink:title="Factory function to create an Err result.">
<polygon fill="white" stroke="#666666" points="180.88,-56.25 129.62,-56.25 129.62,-37 180.88,-37 180.88,-56.25"/>
<text text-anchor="middle" x="155.25" y="-42.75" font-family="Helvetica,sans-Serif" font-size="10.00">crab::Err</text>
</a>
</g>
</g>
<!-- Node1&#45;&gt;Node2 -->
<g id="edge1_Node000001_Node000002" class="edge">
<title>Node1&#45;&gt;Node2</title>
<g id="a_edge1_Node000001_Node000002"><a xlink:title=" ">
<path fill="none" stroke="#63b8ff" d="M93.46,-35.79C101.73,-37.27 110.24,-38.78 118.18,-40.2"/>
<polygon fill="#63b8ff" stroke="#63b8ff" points="117.36,-43.61 127.82,-41.92 118.59,-36.72 117.36,-43.61"/>
</a>
</g>
</g>
<!-- Node3 -->
<g id="Node000003" class="node">
<title>Node3</title>
<g id="a_Node000003"><a xlink:href="namespacecrab.html#a9085393618393c23f64c2525f2c1961f" target="_top" xlink:title="Factory function for Ok with void/Unit result.">
<polygon fill="white" stroke="#666666" points="181.25,-19.25 129.25,-19.25 129.25,0 181.25,0 181.25,-19.25"/>
<text text-anchor="middle" x="155.25" y="-5.75" font-family="Helvetica,sans-Serif" font-size="10.00">crab::Ok</text>
</a>
</g>
</g>
<!-- Node1&#45;&gt;Node3 -->
<g id="edge2_Node000001_Node000003" class="edge">
<title>Node1&#45;&gt;Node3</title>
<g id="a_edge2_Node000001_Node000003"><a xlink:title=" ">
<path fill="none" stroke="#63b8ff" d="M93.46,-19.89C101.56,-18.52 109.89,-17.11 117.69,-15.8"/>
<polygon fill="#63b8ff" stroke="#63b8ff" points="118.24,-19.25 127.52,-14.14 117.08,-12.35 118.24,-19.25"/>
</a>
</g>
</g>
</g>
</svg>
