<?xml version="1.0" encoding="UTF-8" standalone="no"?>
<!DOCTYPE svg PUBLIC "-//W3C//DTD SVG 1.1//EN"
 "http://www.w3.org/Graphics/SVG/1.1/DTD/svg11.dtd">
<!-- Generated by graphviz version 12.2.0 (20241103.1931)
 -->
<!-- Title: crab::Mutex::lock Pages: 1 -->
<svg width="252pt" height="64pt"
 viewBox="0.00 0.00 252.25 64.25" xmlns="http://www.w3.org/2000/svg" xmlns:xlink="http://www.w3.org/1999/xlink">
<g id="graph0" class="graph" transform="scale(1 1) rotate(0) translate(4 60.25)">
<title>crab::Mutex::lock</title>
<!-- Node1 -->
<g id="Node000001" class="node">
<title>Node1</title>
<g id="a_Node000001"><a xlink:title="Acquire exclusive lock, blocking until available.">
<polygon fill="#999999" stroke="#666666" points="244.25,-37.25 156.25,-37.25 156.25,-18 244.25,-18 244.25,-37.25"/>
<text text-anchor="middle" x="200.25" y="-23.75" font-family="Helvetica,sans-Serif" font-size="10.00">crab::Mutex::lock</text>
</a>
</g>
</g>
<!-- Node2 -->
<g id="Node000002" class="node">
<title>Node2</title>
<g id="a_Node000002"><a xlink:href="classcrab_1_1Mutex.html#a368df75fc77a3bff0309d9b72d65c23e" target="_top" xlink:title="Try to acquire lock without blocking.">
<polygon fill="white" stroke="#666666" points="112,-56.25 8.25,-56.25 8.25,-37 112,-37 112,-56.25"/>
<text text-anchor="middle" x="60.12" y="-42.75" font-family="Helvetica,sans-Serif" font-size="10.00">crab::Mutex::try_lock</text>
</a>
</g>
</g>
<!-- Node1&#45;&gt;Node2 -->
<g id="edge1_Node000001_Node000002" class="edge">
<title>Node1&#45;&gt;Node2</title>
<g id="a_edge1_Node000001_Node000002"><a xlink:title=" ">
<path fill="none" stroke="#63b8ff" d="M144.54,-35.15C133.82,-36.63 122.62,-38.17 112.03,-39.62"/>
<polygon fill="#63b8ff" stroke="#63b8ff" points="145,-38.62 154.43,-33.79 144.04,-31.69 145,-38.62"/>
</a>
</g>
</g>
<!-- Node3 -->
<g id="Node000003" class="node">
<title>Node3</title>
<g id="a_Node000003"><a xlink:href="classcrab_1_1Mutex.html#a426edd639d6aeb60c972c86de81ddce4" target="_top" xlink:title="Try to acquire lock with timeout.">
<polygon fill="white" stroke="#666666" points="120.25,-19.25 0,-19.25 0,0 120.25,0 120.25,-19.25"/>
<text text-anchor="middle" x="60.12" y="-5.75" font-family="Helvetica,sans-Serif" font-size="10.00">crab::Mutex::try_lock_for</text>
</a>
</g>
</g>
<!-- Node1&#45;&gt;Node3 -->
<g id="edge2_Node000001_Node000003" class="edge">
<title>Node1&#45;&gt;Node3</title>
<g id="a_edge2_Node000001_Node000003"><a xlink:title=" ">
<path fill="none" stroke="#63b8ff" d="M144.66,-20.51C136.8,-19.49 128.69,-18.43 120.74,-17.39"/>
<polygon fill="#63b8ff" stroke="#63b8ff" points="144.06,-23.96 154.42,-21.78 144.96,-17.02 144.06,-23.96"/>
</a>
</g>
</g>
</g>
</svg>
