<?xml version="1.0" encoding="UTF-8" standalone="no"?>
<!DOCTYPE svg PUBLIC "-//W3C//DTD SVG 1.1//EN"
 "http://www.w3.org/Graphics/SVG/1.1/DTD/svg11.dtd">
<!-- Generated by graphviz version 12.2.0 (20241103.1931)
 -->
<!-- Title: crab::Result::map_err Pages: 1 -->
<svg width="203pt" height="64pt"
 viewBox="0.00 0.00 202.75 64.25" xmlns="http://www.w3.org/2000/svg" xmlns:xlink="http://www.w3.org/1999/xlink">
<g id="graph0" class="graph" transform="scale(1 1) rotate(0) translate(4 60.25)">
<title>crab::Result::map_err</title>
<!-- Node1 -->
<g id="Node000001" class="node">
<title>Node1</title>
<g id="a_Node000001"><a xlink:title=" ">
<polygon fill="#999999" stroke="#666666" points="106.75,-37.25 0,-37.25 0,-18 106.75,-18 106.75,-37.25"/>
<text text-anchor="middle" x="53.38" y="-23.75" font-family="Helvetica,sans-Serif" font-size="10.00">crab::Result::map_err</text>
</a>
</g>
</g>
<!-- Node2 -->
<g id="Node000002" class="node">
<title>Node2</title>
<g id="a_Node000002"><a xlink:href="namespacecrab.html#a3745fae96ffff64db507a12f27498a39" target="_top" xlink:title="Factory function to create an Err result.">
<polygon fill="white" stroke="#666666" points="194.38,-56.25 143.12,-56.25 143.12,-37 194.38,-37 194.38,-56.25"/>
<text text-anchor="middle" x="168.75" y="-42.75" font-family="Helvetica,sans-Serif" font-size="10.00">crab::Err</text>
</a>
</g>
</g>
<!-- Node1&#45;&gt;Node2 -->
<g id="edge1_Node000001_Node000002" class="edge">
<title>Node1&#45;&gt;Node2</title>
<g id="a_edge1_Node000001_Node000002"><a xlink:title=" ">
<path fill="none" stroke="#63b8ff" d="M107.08,-36.46C115.37,-37.85 123.78,-39.26 131.59,-40.57"/>
<polygon fill="#63b8ff" stroke="#63b8ff" points="130.95,-44.01 141.39,-42.21 132.11,-37.1 130.95,-44.01"/>
</a>
</g>
</g>
<!-- Node3 -->
<g id="Node000003" class="node">
<title>Node3</title>
<g id="a_Node000003"><a xlink:href="namespacecrab.html#a9085393618393c23f64c2525f2c1961f" target="_top" xlink:title="Factory function for Ok with void/Unit result.">
<polygon fill="white" stroke="#666666" points="194.75,-19.25 142.75,-19.25 142.75,0 194.75,0 194.75,-19.25"/>
<text text-anchor="middle" x="168.75" y="-5.75" font-family="Helvetica,sans-Serif" font-size="10.00">crab::Ok</text>
</a>
</g>
</g>
<!-- Node1&#45;&gt;Node3 -->
<g id="edge2_Node000001_Node000003" class="edge">
<title>Node1&#45;&gt;Node3</title>
<g id="a_edge2_Node000001_Node000003"><a xlink:title=" ">
<path fill="none" stroke="#63b8ff" d="M107.08,-19.26C115.22,-17.96 123.47,-16.65 131.16,-15.43"/>
<polygon fill="#63b8ff" stroke="#63b8ff" points="131.48,-18.93 140.8,-13.9 130.38,-12.01 131.48,-18.93"/>
</a>
</g>
</g>
</g>
</svg>
