<?xml version="1.0" encoding="UTF-8" standalone="no"?>
<!DOCTYPE svg PUBLIC "-//W3C//DTD SVG 1.1//EN"
 "http://www.w3.org/Graphics/SVG/1.1/DTD/svg11.dtd">
<!-- Generated by graphviz version 12.2.0 (20241103.1931)
 -->
<!-- Title: crab::Option::is_some Pages: 1 -->
<svg width="281pt" height="520pt"
 viewBox="0.00 0.00 280.75 519.88" xmlns="http://www.w3.org/2000/svg" xmlns:xlink="http://www.w3.org/1999/xlink">
<g id="graph0" class="graph" transform="scale(1 1) rotate(0) translate(4 515.88)">
<title>crab::Option::is_some</title>
<!-- Node1 -->
<g id="Node000001" class="node">
<title>Node1</title>
<g id="a_Node000001"><a xlink:title="Check if Option contains a value.">
<polygon fill="#999999" stroke="#666666" points="272.75,-270.88 163.75,-270.88 163.75,-251.62 272.75,-251.62 272.75,-270.88"/>
<text text-anchor="middle" x="218.25" y="-257.38" font-family="Helvetica,sans-Serif" font-size="10.00">crab::Option::is_some</text>
</a>
</g>
</g>
<!-- Node2 -->
<g id="Node000002" class="node">
<title>Node2</title>
<g id="a_Node000002"><a xlink:href="classcrab_1_1Option.html#ad81b79a803f53e136d83a665380d7bac" target="_top" xlink:title="Chain operations that return Option.">
<polygon fill="white" stroke="#666666" points="119.88,-511.88 7.88,-511.88 7.88,-492.62 119.88,-492.62 119.88,-511.88"/>
<text text-anchor="middle" x="63.88" y="-498.38" font-family="Helvetica,sans-Serif" font-size="10.00">crab::Option::and_then</text>
</a>
</g>
</g>
<!-- Node1&#45;&gt;Node2 -->
<g id="edge1_Node000001_Node000002" class="edge">
<title>Node1&#45;&gt;Node2</title>
<g id="a_edge1_Node000001_Node000002"><a xlink:title=" ">
<path fill="none" stroke="#63b8ff" d="M214.95,-282.21C208.98,-326.3 188.93,-429.06 127.75,-484.25 124.21,-487.44 120.14,-490.07 115.81,-492.24"/>
<polygon fill="#63b8ff" stroke="#63b8ff" points="218.4,-282.83 216.15,-272.48 211.45,-281.98 218.4,-282.83"/>
</a>
</g>
</g>
<!-- Node3 -->
<g id="Node000003" class="node">
<title>Node3</title>
<g id="a_Node000003"><a xlink:href="classcrab_1_1Option.html#a08db4db309bb9b21423705fcf14a6b66" target="_top" xlink:title=" ">
<polygon fill="white" stroke="#666666" points="113.5,-474.88 14.25,-474.88 14.25,-455.62 113.5,-455.62 113.5,-474.88"/>
<text text-anchor="middle" x="63.88" y="-461.38" font-family="Helvetica,sans-Serif" font-size="10.00">crab::Option::as_ptr</text>
</a>
</g>
</g>
<!-- Node1&#45;&gt;Node3 -->
<g id="edge2_Node000001_Node000003" class="edge">
<title>Node1&#45;&gt;Node3</title>
<g id="a_edge2_Node000001_Node000003"><a xlink:title=" ">
<path fill="none" stroke="#63b8ff" d="M213.1,-282.13C204.34,-320.63 180.29,-402.95 127.75,-447.25 123.58,-450.76 118.77,-453.59 113.7,-455.87"/>
<polygon fill="#63b8ff" stroke="#63b8ff" points="216.48,-283.06 215.15,-272.55 209.63,-281.59 216.48,-283.06"/>
</a>
</g>
</g>
<!-- Node4 -->
<g id="Node000004" class="node">
<title>Node4</title>
<g id="a_Node000004"><a xlink:href="classcrab_1_1Option.html#a95773e612dc5ca347b6ebaa01c667377" target="_top" xlink:title="Get pointer to value, or nullptr if None.">
<polygon fill="white" stroke="#666666" points="113.5,-437.88 14.25,-437.88 14.25,-418.62 113.5,-418.62 113.5,-437.88"/>
<text text-anchor="middle" x="63.88" y="-424.38" font-family="Helvetica,sans-Serif" font-size="10.00">crab::Option::as_ptr</text>
</a>
</g>
</g>
<!-- Node1&#45;&gt;Node4 -->
<g id="edge3_Node000001_Node000004" class="edge">
<title>Node1&#45;&gt;Node4</title>
<g id="a_edge3_Node000001_Node000004"><a xlink:title=" ">
<path fill="none" stroke="#63b8ff" d="M210.36,-282.2C198.63,-314.57 171.7,-376.54 127.75,-410.25 123.52,-413.5 118.72,-416.16 113.7,-418.34"/>
<polygon fill="#63b8ff" stroke="#63b8ff" points="213.65,-283.38 213.62,-272.79 207.04,-281.09 213.65,-283.38"/>
</a>
</g>
</g>
<!-- Node5 -->
<g id="Node000005" class="node">
<title>Node5</title>
<g id="a_Node000005"><a xlink:href="classcrab_1_1Option.html#abadf270577e555834fb1ae3993adedd8" target="_top" xlink:title="Filter the Option based on predicate.">
<polygon fill="white" stroke="#666666" points="109,-400.88 18.75,-400.88 18.75,-381.62 109,-381.62 109,-400.88"/>
<text text-anchor="middle" x="63.88" y="-387.38" font-family="Helvetica,sans-Serif" font-size="10.00">crab::Option::filter</text>
</a>
</g>
</g>
<!-- Node1&#45;&gt;Node5 -->
<g id="edge4_Node000001_Node000005" class="edge">
<title>Node1&#45;&gt;Node5</title>
<g id="a_edge4_Node000001_Node000005"><a xlink:title=" ">
<path fill="none" stroke="#63b8ff" d="M206.51,-281.25C191.97,-306.45 163.66,-349.33 127.75,-373.25 122.17,-376.96 115.83,-379.92 109.37,-382.28"/>
<polygon fill="#63b8ff" stroke="#63b8ff" points="209.49,-283.11 211.31,-272.67 203.38,-279.7 209.49,-283.11"/>
</a>
</g>
</g>
<!-- Node6 -->
<g id="Node000006" class="node">
<title>Node6</title>
<g id="a_Node000006"><a xlink:href="classcrab_1_1Option.html#ab68ee2531b0173b349f2b2aebca63aaf" target="_top" xlink:title="Transform the contained value.">
<polygon fill="white" stroke="#666666" points="109.38,-363.88 18.38,-363.88 18.38,-344.62 109.38,-344.62 109.38,-363.88"/>
<text text-anchor="middle" x="63.88" y="-350.38" font-family="Helvetica,sans-Serif" font-size="10.00">crab::Option::map</text>
</a>
</g>
</g>
<!-- Node1&#45;&gt;Node6 -->
<g id="edge5_Node000001_Node000006" class="edge">
<title>Node1&#45;&gt;Node6</title>
<g id="a_edge5_Node000001_Node000006"><a xlink:title=" ">
<path fill="none" stroke="#63b8ff" d="M200.23,-279.35C183.34,-296.33 155.96,-321.27 127.75,-336.25 121.93,-339.34 115.53,-341.95 109.09,-344.15"/>
<polygon fill="#63b8ff" stroke="#63b8ff" points="202.55,-281.99 207,-272.38 197.53,-277.12 202.55,-281.99"/>
</a>
</g>
</g>
<!-- Node7 -->
<g id="Node000007" class="node">
<title>Node7</title>
<g id="a_Node000007"><a xlink:href="classcrab_1_1Option.html#a496e8bb8dedb161f685cdc6277d167a1" target="_top" xlink:title="Pattern match on the Option.">
<polygon fill="white" stroke="#666666" points="113.5,-326.88 14.25,-326.88 14.25,-307.62 113.5,-307.62 113.5,-326.88"/>
<text text-anchor="middle" x="63.88" y="-313.38" font-family="Helvetica,sans-Serif" font-size="10.00">crab::Option::match</text>
</a>
</g>
</g>
<!-- Node1&#45;&gt;Node7 -->
<g id="edge6_Node000001_Node000007" class="edge">
<title>Node1&#45;&gt;Node7</title>
<g id="a_edge6_Node000001_Node000007"><a xlink:title=" ">
<path fill="none" stroke="#63b8ff" d="M185.41,-275.9C168.48,-283.39 147.2,-292.37 127.75,-299.25 119.83,-302.05 111.23,-304.74 103.02,-307.14"/>
<polygon fill="#63b8ff" stroke="#63b8ff" points="186.77,-279.12 194.46,-271.84 183.9,-272.73 186.77,-279.12"/>
</a>
</g>
</g>
<!-- Node8 -->
<g id="Node000008" class="node">
<title>Node8</title>
<g id="a_Node000008"><a xlink:href="classcrab_1_1Option.html#a565e83cc20ada533d847f634a2306641" target="_top" xlink:title=" ">
<polygon fill="white" stroke="#666666" points="113.5,-289.88 14.25,-289.88 14.25,-270.62 113.5,-270.62 113.5,-289.88"/>
<text text-anchor="middle" x="63.88" y="-276.38" font-family="Helvetica,sans-Serif" font-size="10.00">crab::Option::match</text>
</a>
</g>
</g>
<!-- Node1&#45;&gt;Node8 -->
<g id="edge7_Node000001_Node000008" class="edge">
<title>Node1&#45;&gt;Node8</title>
<g id="a_edge7_Node000001_Node000008"><a xlink:title=" ">
<path fill="none" stroke="#63b8ff" d="M152.33,-269.34C139.42,-270.96 126.06,-272.62 113.79,-274.15"/>
<polygon fill="#63b8ff" stroke="#63b8ff" points="152.54,-272.85 162.03,-268.14 151.67,-265.9 152.54,-272.85"/>
</a>
</g>
</g>
<!-- Node9 -->
<g id="Node000009" class="node">
<title>Node9</title>
<g id="a_Node000009"><a xlink:href="classcrab_1_1Option.html#a8ce135367df8d18704730ae4dd4981fd" target="_top" xlink:title="Boolean conversion: true if Some.">
<polygon fill="white" stroke="#666666" points="127.75,-252.88 0,-252.88 0,-233.62 127.75,-233.62 127.75,-252.88"/>
<text text-anchor="middle" x="63.88" y="-239.38" font-family="Helvetica,sans-Serif" font-size="10.00">crab::Option::operator bool</text>
</a>
</g>
</g>
<!-- Node1&#45;&gt;Node9 -->
<g id="edge8_Node000001_Node000009" class="edge">
<title>Node1&#45;&gt;Node9</title>
<g id="a_edge8_Node000001_Node000009"><a xlink:title=" ">
<path fill="none" stroke="#63b8ff" d="M152.3,-253.58C144.26,-252.63 136.04,-251.66 128.02,-250.71"/>
<polygon fill="#63b8ff" stroke="#63b8ff" points="151.68,-257.03 162.03,-254.73 152.5,-250.08 151.68,-257.03"/>
</a>
</g>
</g>
<!-- Node10 -->
<g id="Node000010" class="node">
<title>Node10</title>
<g id="a_Node000010"><a xlink:href="classcrab_1_1Option.html#a5c6a5a97a47de9f92c48d19693946c5d" target="_top" xlink:title=" ">
<polygon fill="white" stroke="#666666" points="122.12,-215.88 5.62,-215.88 5.62,-196.62 122.12,-196.62 122.12,-215.88"/>
<text text-anchor="middle" x="63.88" y="-202.38" font-family="Helvetica,sans-Serif" font-size="10.00">crab::Option::operator!=</text>
</a>
</g>
</g>
<!-- Node1&#45;&gt;Node10 -->
<g id="edge9_Node000001_Node000010" class="edge">
<title>Node1&#45;&gt;Node10</title>
<g id="a_edge9_Node000001_Node000010"><a xlink:title=" ">
<path fill="none" stroke="#63b8ff" d="M184.69,-246.75C167.86,-239.52 146.9,-230.92 127.75,-224.25 119.71,-221.45 110.98,-218.74 102.66,-216.32"/>
<polygon fill="#63b8ff" stroke="#63b8ff" points="183.13,-249.89 193.7,-250.66 185.92,-243.47 183.13,-249.89"/>
</a>
</g>
</g>
<!-- Node11 -->
<g id="Node000011" class="node">
<title>Node11</title>
<g id="a_Node000011"><a xlink:href="classcrab_1_1Option.html#abceab404f68c6d5a8101ae6a498f4067" target="_top" xlink:title="Extract the value, panicking if None.">
<polygon fill="white" stroke="#666666" points="115.75,-178.88 12,-178.88 12,-159.62 115.75,-159.62 115.75,-178.88"/>
<text text-anchor="middle" x="63.88" y="-165.38" font-family="Helvetica,sans-Serif" font-size="10.00">crab::Option::unwrap</text>
</a>
</g>
</g>
<!-- Node1&#45;&gt;Node11 -->
<g id="edge10_Node000001_Node000011" class="edge">
<title>Node1&#45;&gt;Node11</title>
<g id="a_edge10_Node000001_Node000011"><a xlink:title=" ">
<path fill="none" stroke="#63b8ff" d="M200.19,-243.4C183.26,-226.66 155.85,-202.05 127.75,-187.25 121.82,-184.13 115.29,-181.49 108.74,-179.28"/>
<polygon fill="#63b8ff" stroke="#63b8ff" points="197.45,-245.61 206.97,-250.27 202.43,-240.69 197.45,-245.61"/>
</a>
</g>
</g>
<!-- Node12 -->
<g id="Node000012" class="node">
<title>Node12</title>
<g id="a_Node000012"><a xlink:href="classcrab_1_1Option.html#ae2cab3ea5ae7575142ae0bbfd0fb7362" target="_top" xlink:title=" ">
<polygon fill="white" stroke="#666666" points="115.75,-141.88 12,-141.88 12,-122.62 115.75,-122.62 115.75,-141.88"/>
<text text-anchor="middle" x="63.88" y="-128.38" font-family="Helvetica,sans-Serif" font-size="10.00">crab::Option::unwrap</text>
</a>
</g>
</g>
<!-- Node1&#45;&gt;Node12 -->
<g id="edge11_Node000001_Node000012" class="edge">
<title>Node1&#45;&gt;Node12</title>
<g id="a_edge11_Node000001_Node000012"><a xlink:title=" ">
<path fill="none" stroke="#63b8ff" d="M206.47,-241.43C191.88,-216.46 163.51,-173.96 127.75,-150.25 123.02,-147.11 117.74,-144.51 112.3,-142.36"/>
<polygon fill="#63b8ff" stroke="#63b8ff" points="203.31,-242.94 211.28,-249.92 209.4,-239.5 203.31,-242.94"/>
</a>
</g>
</g>
<!-- Node13 -->
<g id="Node000013" class="node">
<title>Node13</title>
<g id="a_Node000013"><a xlink:href="classcrab_1_1Option.html#ad71ca449d1570ea1e6e31dda79615d80" target="_top" xlink:title=" ">
<polygon fill="white" stroke="#666666" points="115.75,-104.88 12,-104.88 12,-85.62 115.75,-85.62 115.75,-104.88"/>
<text text-anchor="middle" x="63.88" y="-91.38" font-family="Helvetica,sans-Serif" font-size="10.00">crab::Option::unwrap</text>
</a>
</g>
</g>
<!-- Node1&#45;&gt;Node13 -->
<g id="edge12_Node000001_Node000013" class="edge">
<title>Node1&#45;&gt;Node13</title>
<g id="a_edge12_Node000001_Node000013"><a xlink:title=" ">
<path fill="none" stroke="#63b8ff" d="M210.32,-240.44C198.54,-208.28 171.53,-146.73 127.75,-113.25 123.6,-110.08 118.91,-107.46 114.01,-105.31"/>
<polygon fill="#63b8ff" stroke="#63b8ff" points="206.98,-241.5 213.59,-249.78 213.59,-239.19 206.98,-241.5"/>
</a>
</g>
</g>
<!-- Node14 -->
<g id="Node000014" class="node">
<title>Node14</title>
<g id="a_Node000014"><a xlink:href="classcrab_1_1Option.html#a94e74cc9e08524d979e691d138949013" target="_top" xlink:title="Get value or return default.">
<polygon fill="white" stroke="#666666" points="122.5,-67.88 5.25,-67.88 5.25,-48.62 122.5,-48.62 122.5,-67.88"/>
<text text-anchor="middle" x="63.88" y="-54.38" font-family="Helvetica,sans-Serif" font-size="10.00">crab::Option::unwrap_or</text>
</a>
</g>
</g>
<!-- Node1&#45;&gt;Node14 -->
<g id="edge13_Node000001_Node000014" class="edge">
<title>Node1&#45;&gt;Node14</title>
<g id="a_edge13_Node000001_Node000014"><a xlink:title=" ">
<path fill="none" stroke="#63b8ff" d="M213.12,-240.73C204.35,-202.54 180.22,-120.4 127.75,-76.25 124.01,-73.11 119.76,-70.51 115.27,-68.37"/>
<polygon fill="#63b8ff" stroke="#63b8ff" points="209.59,-240.97 215.13,-250.01 216.43,-239.49 209.59,-240.97"/>
</a>
</g>
</g>
<!-- Node15 -->
<g id="Node000015" class="node">
<title>Node15</title>
<g id="a_Node000015"><a xlink:href="classcrab_1_1Option.html#a177567a7f5d02b77899423d411954512" target="_top" xlink:title="Get value or compute default from function.">
<polygon fill="white" stroke="#666666" points="115.75,-30.5 12,-30.5 12,0 115.75,0 115.75,-30.5"/>
<text text-anchor="start" x="20" y="-17" font-family="Helvetica,sans-Serif" font-size="10.00">crab::Option::unwrap</text>
<text text-anchor="middle" x="63.88" y="-5.75" font-family="Helvetica,sans-Serif" font-size="10.00">_or_else</text>
</a>
</g>
</g>
<!-- Node1&#45;&gt;Node15 -->
<g id="edge14_Node000001_Node000015" class="edge">
<title>Node1&#45;&gt;Node15</title>
<g id="a_edge14_Node000001_Node000015"><a xlink:title=" ">
<path fill="none" stroke="#63b8ff" d="M214.4,-239.9C207.5,-196.3 185.93,-96.36 127.75,-39.25 124.33,-35.89 120.39,-33 116.19,-30.5"/>
<polygon fill="#63b8ff" stroke="#63b8ff" points="210.94,-240.4 215.85,-249.79 217.87,-239.39 210.94,-240.4"/>
</a>
</g>
</g>
</g>
</svg>
