<?xml version="1.0" encoding="UTF-8" standalone="no"?>
<!DOCTYPE svg PUBLIC "-//W3C//DTD SVG 1.1//EN"
 "http://www.w3.org/Graphics/SVG/1.1/DTD/svg11.dtd">
<!-- Generated by graphviz version 12.2.0 (20241103.1931)
 -->
<!-- Title: crab::Mutex::try_lock Pages: 1 -->
<svg width="236pt" height="64pt"
 viewBox="0.00 0.00 235.75 64.25" xmlns="http://www.w3.org/2000/svg" xmlns:xlink="http://www.w3.org/1999/xlink">
<g id="graph0" class="graph" transform="scale(1 1) rotate(0) translate(4 60.25)">
<title>crab::Mutex::try_lock</title>
<!-- Node1 -->
<g id="Node000001" class="node">
<title>Node1</title>
<g id="a_Node000001"><a xlink:title="Try to acquire lock without blocking.">
<polygon fill="#999999" stroke="#666666" points="103.75,-37.25 0,-37.25 0,-18 103.75,-18 103.75,-37.25"/>
<text text-anchor="middle" x="51.88" y="-23.75" font-family="Helvetica,sans-Serif" font-size="10.00">crab::Mutex::try_lock</text>
</a>
</g>
</g>
<!-- Node2 -->
<g id="Node000002" class="node">
<title>Node2</title>
<g id="a_Node000002"><a xlink:href="classcrab_1_1Mutex.html#a6c22e94e6ff9f68874d39fc41b2c6bbc" target="_top" xlink:title="Acquire exclusive lock, blocking until available.">
<polygon fill="white" stroke="#666666" points="227.75,-56.25 139.75,-56.25 139.75,-37 227.75,-37 227.75,-56.25"/>
<text text-anchor="middle" x="183.75" y="-42.75" font-family="Helvetica,sans-Serif" font-size="10.00">crab::Mutex::lock</text>
</a>
</g>
</g>
<!-- Node1&#45;&gt;Node2 -->
<g id="edge1_Node000001_Node000002" class="edge">
<title>Node1&#45;&gt;Node2</title>
<g id="a_edge1_Node000001_Node000002"><a xlink:title=" ">
<path fill="none" stroke="#63b8ff" d="M104.21,-35.13C112.02,-36.28 120.11,-37.46 127.99,-38.61"/>
<polygon fill="#63b8ff" stroke="#63b8ff" points="127.44,-42.07 137.84,-40.05 128.45,-35.14 127.44,-42.07"/>
</a>
</g>
</g>
<!-- Node3 -->
<g id="Node000003" class="node">
<title>Node3</title>
<g id="a_Node000003"><a xlink:href="namespacecrab.html#ab1da763ed0c6f937fecc16e891b2015a" target="_top" xlink:title="Create an Option containing a value.">
<polygon fill="white" stroke="#666666" points="216.12,-19.25 151.38,-19.25 151.38,0 216.12,0 216.12,-19.25"/>
<text text-anchor="middle" x="183.75" y="-5.75" font-family="Helvetica,sans-Serif" font-size="10.00">crab::Some</text>
</a>
</g>
</g>
<!-- Node1&#45;&gt;Node3 -->
<g id="edge2_Node000001_Node000003" class="edge">
<title>Node1&#45;&gt;Node3</title>
<g id="a_edge2_Node000001_Node000003"><a xlink:title=" ">
<path fill="none" stroke="#63b8ff" d="M104.21,-20.51C116.12,-18.86 128.67,-17.12 140.16,-15.53"/>
<polygon fill="#63b8ff" stroke="#63b8ff" points="140.3,-19.04 149.73,-14.2 139.34,-12.11 140.3,-19.04"/>
</a>
</g>
</g>
</g>
</svg>
