<?xml version="1.0" encoding="UTF-8" standalone="no"?>
<!DOCTYPE svg PUBLIC "-//W3C//DTD SVG 1.1//EN"
 "http://www.w3.org/Graphics/SVG/1.1/DTD/svg11.dtd">
<!-- Generated by graphviz version 12.2.0 (20241103.1931)
 -->
<!-- Title: crab::Slice::copy_to Pages: 1 -->
<svg width="195pt" height="64pt"
 viewBox="0.00 0.00 195.25 64.25" xmlns="http://www.w3.org/2000/svg" xmlns:xlink="http://www.w3.org/1999/xlink">
<g id="graph0" class="graph" transform="scale(1 1) rotate(0) translate(4 60.25)">
<title>crab::Slice::copy_to</title>
<!-- Node1 -->
<g id="Node000001" class="node">
<title>Node1</title>
<g id="a_Node000001"><a xlink:title="Copy contents to another slice.">
<polygon fill="#999999" stroke="#666666" points="99.25,-37.25 0,-37.25 0,-18 99.25,-18 99.25,-37.25"/>
<text text-anchor="middle" x="49.62" y="-23.75" font-family="Helvetica,sans-Serif" font-size="10.00">crab::Slice::copy_to</text>
</a>
</g>
</g>
<!-- Node2 -->
<g id="Node000002" class="node">
<title>Node2</title>
<g id="a_Node000002"><a xlink:href="namespacecrab.html#a3745fae96ffff64db507a12f27498a39" target="_top" xlink:title="Factory function to create an Err result.">
<polygon fill="white" stroke="#666666" points="186.88,-56.25 135.62,-56.25 135.62,-37 186.88,-37 186.88,-56.25"/>
<text text-anchor="middle" x="161.25" y="-42.75" font-family="Helvetica,sans-Serif" font-size="10.00">crab::Err</text>
</a>
</g>
</g>
<!-- Node1&#45;&gt;Node2 -->
<g id="edge1_Node000001_Node000002" class="edge">
<title>Node1&#45;&gt;Node2</title>
<g id="a_edge1_Node000001_Node000002"><a xlink:title=" ">
<path fill="none" stroke="#63b8ff" d="M99.67,-36.12C107.84,-37.54 116.19,-38.99 123.98,-40.34"/>
<polygon fill="#63b8ff" stroke="#63b8ff" points="123.32,-43.78 133.77,-42.04 124.52,-36.88 123.32,-43.78"/>
</a>
</g>
</g>
<!-- Node3 -->
<g id="Node000003" class="node">
<title>Node3</title>
<g id="a_Node000003"><a xlink:href="namespacecrab.html#a9085393618393c23f64c2525f2c1961f" target="_top" xlink:title="Factory function for Ok with void/Unit result.">
<polygon fill="white" stroke="#666666" points="187.25,-19.25 135.25,-19.25 135.25,0 187.25,0 187.25,-19.25"/>
<text text-anchor="middle" x="161.25" y="-5.75" font-family="Helvetica,sans-Serif" font-size="10.00">crab::Ok</text>
</a>
</g>
</g>
<!-- Node1&#45;&gt;Node3 -->
<g id="edge2_Node000001_Node000003" class="edge">
<title>Node1&#45;&gt;Node3</title>
<g id="a_edge2_Node000001_Node000003"><a xlink:title=" ">
<path fill="none" stroke="#63b8ff" d="M99.67,-19.57C107.77,-18.24 116.04,-16.88 123.76,-15.62"/>
<polygon fill="#63b8ff" stroke="#63b8ff" points="124.17,-19.1 133.48,-14.02 123.04,-12.19 124.17,-19.1"/>
</a>
</g>
</g>
</g>
</svg>
