<?xml version="1.0" encoding="UTF-8" standalone="no"?>
<!DOCTYPE svg PUBLIC "-//W3C//DTD SVG 1.1//EN"
 "http://www.w3.org/Graphics/SVG/1.1/DTD/svg11.dtd">
<!-- Generated by graphviz version 12.2.0 (20241103.1931)
 -->
<!-- Title: crab::Slice::is_empty Pages: 1 -->
<svg width="235pt" height="138pt"
 viewBox="0.00 0.00 235.00 138.25" xmlns="http://www.w3.org/2000/svg" xmlns:xlink="http://www.w3.org/1999/xlink">

<svg id="main" version="1.1" xmlns="http://www.w3.org/2000/svg" xmlns:xlink="http://www.w3.org/1999/xlink" xml:space="preserve">

<style type="text/css"><![CDATA[
.node, .edge {opacity: 0.7;}
.node.selected, .edge.selected {opacity: 1;}
.edge:hover path { stroke: red; }
.edge:hover polygon { stroke: red; fill: red; }
]]></style>
<script type="application/ecmascript" xlink:href="svg.min.js"/>
<svg id="graph" class="graph">
<g id="graph0" class="graph" transform="scale(1 1) rotate(0) translate(4 134.25)">
<title>crab::Slice::is_empty</title>
<!-- Node1 -->
<g id="Node000001" class="node">
<title>Node1</title>
<g id="a_Node000001"><a xlink:title=" ">
<polygon fill="#999999" stroke="#666666" points="227,-74.25 122.5,-74.25 122.5,-55 227,-55 227,-74.25"/>
<text text-anchor="middle" x="174.75" y="-60.75" font-family="Helvetica,sans-Serif" font-size="10.00">crab::Slice::is_empty</text>
</a>
</g>
</g>
<!-- Node2 -->
<g id="Node000002" class="node">
<title>Node2</title>
<g id="a_Node000002"><a xlink:href="classcrab_1_1Slice.html#a65da2b99b33fac36c61ffdc1a9974121" target="_top" xlink:title=" ">
<polygon fill="white" stroke="#666666" points="86.5,-130.25 0,-130.25 0,-111 86.5,-111 86.5,-130.25"/>
<text text-anchor="middle" x="43.25" y="-116.75" font-family="Helvetica,sans-Serif" font-size="10.00">crab::Slice::back</text>
</a>
</g>
</g>
<!-- Node1&#45;&gt;Node2 -->
<g id="edge1_Node000001_Node000002" class="edge">
<title>Node1&#45;&gt;Node2</title>
<g id="a_edge1_Node000001_Node000002"><a xlink:title=" ">
<path fill="none" stroke="#63b8ff" d="M140.68,-79.1C124.38,-86.22 104.42,-94.9 86.5,-102.62 80.5,-105.21 74,-107.99 67.95,-110.57"/>
<polygon fill="#63b8ff" stroke="#63b8ff" points="141.66,-82.49 149.42,-75.28 138.86,-76.08 141.66,-82.49"/>
</a>
</g>
</g>
<!-- Node3 -->
<g id="Node000003" class="node">
<title>Node3</title>
<g id="a_Node000003"><a xlink:href="classcrab_1_1Slice.html#ae399a0b9ed05c16e734bfbae0a66660c" target="_top" xlink:title="Get last element (panics if empty in debug).">
<polygon fill="white" stroke="#666666" points="86.5,-93.25 0,-93.25 0,-74 86.5,-74 86.5,-93.25"/>
<text text-anchor="middle" x="43.25" y="-79.75" font-family="Helvetica,sans-Serif" font-size="10.00">crab::Slice::back</text>
</a>
</g>
</g>
<!-- Node1&#45;&gt;Node3 -->
<g id="edge2_Node000001_Node000003" class="edge">
<title>Node1&#45;&gt;Node3</title>
<g id="a_edge2_Node000001_Node000003"><a xlink:title=" ">
<path fill="none" stroke="#63b8ff" d="M110.81,-73.86C102.71,-75.05 94.56,-76.24 86.89,-77.37"/>
<polygon fill="#63b8ff" stroke="#63b8ff" points="111.31,-77.32 120.7,-72.41 110.3,-70.4 111.31,-77.32"/>
</a>
</g>
</g>
<!-- Node4 -->
<g id="Node000004" class="node">
<title>Node4</title>
<g id="a_Node000004"><a xlink:href="classcrab_1_1Slice.html#aab020cc70b1118206a6bbb4d8273f28c" target="_top" xlink:title=" ">
<polygon fill="white" stroke="#666666" points="85.75,-56.25 0.75,-56.25 0.75,-37 85.75,-37 85.75,-56.25"/>
<text text-anchor="middle" x="43.25" y="-42.75" font-family="Helvetica,sans-Serif" font-size="10.00">crab::Slice::front</text>
</a>
</g>
</g>
<!-- Node1&#45;&gt;Node4 -->
<g id="edge3_Node000001_Node000004" class="edge">
<title>Node1&#45;&gt;Node4</title>
<g id="a_edge3_Node000001_Node000004"><a xlink:title=" ">
<path fill="none" stroke="#63b8ff" d="M110.82,-55.88C102.43,-54.71 93.99,-53.54 86.07,-52.44"/>
<polygon fill="#63b8ff" stroke="#63b8ff" points="110.31,-59.34 120.7,-57.25 111.27,-52.41 110.31,-59.34"/>
</a>
</g>
</g>
<!-- Node5 -->
<g id="Node000005" class="node">
<title>Node5</title>
<g id="a_Node000005"><a xlink:href="classcrab_1_1Slice.html#ac38c31196c0bdc44ba5bf888532e251d" target="_top" xlink:title="Get first element (panics if empty in debug).">
<polygon fill="white" stroke="#666666" points="85.75,-19.25 0.75,-19.25 0.75,0 85.75,0 85.75,-19.25"/>
<text text-anchor="middle" x="43.25" y="-5.75" font-family="Helvetica,sans-Serif" font-size="10.00">crab::Slice::front</text>
</a>
</g>
</g>
<!-- Node1&#45;&gt;Node5 -->
<g id="edge4_Node000001_Node000005" class="edge">
<title>Node1&#45;&gt;Node5</title>
<g id="a_edge4_Node000001_Node000005"><a xlink:title=" ">
<path fill="none" stroke="#63b8ff" d="M139.49,-50.07C116.9,-40.48 87.89,-28.16 67.85,-19.65"/>
<polygon fill="#63b8ff" stroke="#63b8ff" points="138.03,-53.26 148.6,-53.95 140.77,-46.81 138.03,-53.26"/>
</a>
</g>
</g>
</g>
</svg>
</svg>

<style type='text/css'>
<![CDATA[
[data-mouse-over-selected='false'] { opacity: 0.7; }
[data-mouse-over-selected='true']  { opacity: 1.0; }
]]>
</style>
<script type="application/ecmascript"><![CDATA[
document.addEventListener('DOMContentLoaded', (event) => {
  highlightEdges();
  highlightAdjacentNodes();
});
]]></script>
</svg>
