<?xml version="1.0" encoding="UTF-8" standalone="no"?>
<!DOCTYPE svg PUBLIC "-//W3C//DTD SVG 1.1//EN"
 "http://www.w3.org/Graphics/SVG/1.1/DTD/svg11.dtd">
<!-- Generated by graphviz version 12.2.0 (20241103.1931)
 -->
<!-- Title: crab::Slice::subslice Pages: 1 -->
<svg width="233pt" height="138pt"
 viewBox="0.00 0.00 232.75 138.25" xmlns="http://www.w3.org/2000/svg" xmlns:xlink="http://www.w3.org/1999/xlink">
<g id="graph0" class="graph" transform="scale(1 1) rotate(0) translate(4 134.25)">
<title>crab::Slice::subslice</title>
<!-- Node1 -->
<g id="Node000001" class="node">
<title>Node1</title>
<g id="a_Node000001"><a xlink:title="Extract a subslice with bounds checking.">
<polygon fill="#999999" stroke="#666666" points="101.5,-74.25 0,-74.25 0,-55 101.5,-55 101.5,-74.25"/>
<text text-anchor="middle" x="50.75" y="-60.75" font-family="Helvetica,sans-Serif" font-size="10.00">crab::Slice::subslice</text>
</a>
</g>
</g>
<!-- Node2 -->
<g id="Node000002" class="node">
<title>Node2</title>
<g id="a_Node000002"><a xlink:href="classcrab_1_1Slice.html#a04667a9810c77e49f8dbf0f3a3822613" target="_top" xlink:title=" ">
<polygon fill="white" stroke="#666666" points="221.75,-130.25 140.5,-130.25 140.5,-111 221.75,-111 221.75,-130.25"/>
<text text-anchor="middle" x="181.12" y="-116.75" font-family="Helvetica,sans-Serif" font-size="10.00">crab::Slice::end</text>
</a>
</g>
</g>
<!-- Node1&#45;&gt;Node2 -->
<g id="edge1_Node000001_Node000002" class="edge">
<title>Node1&#45;&gt;Node2</title>
<g id="a_edge1_Node000001_Node000002"><a xlink:title=" ">
<path fill="none" stroke="#63b8ff" d="M74.27,-74.73C91.54,-82.45 115.98,-93.31 137.5,-102.62 140.14,-103.77 142.89,-104.95 145.64,-106.12"/>
<polygon fill="#63b8ff" stroke="#63b8ff" points="144.23,-109.33 154.8,-110.02 146.97,-102.88 144.23,-109.33"/>
</a>
</g>
</g>
<!-- Node3 -->
<g id="Node000003" class="node">
<title>Node3</title>
<g id="a_Node000003"><a xlink:href="namespacecrab.html#a3745fae96ffff64db507a12f27498a39" target="_top" xlink:title="Factory function to create an Err result.">
<polygon fill="white" stroke="#666666" points="206.75,-93.25 155.5,-93.25 155.5,-74 206.75,-74 206.75,-93.25"/>
<text text-anchor="middle" x="181.12" y="-79.75" font-family="Helvetica,sans-Serif" font-size="10.00">crab::Err</text>
</a>
</g>
</g>
<!-- Node1&#45;&gt;Node3 -->
<g id="edge2_Node000001_Node000003" class="edge">
<title>Node1&#45;&gt;Node3</title>
<g id="a_edge2_Node000001_Node000003"><a xlink:title=" ">
<path fill="none" stroke="#63b8ff" d="M101.75,-72.03C115.77,-74.1 130.73,-76.31 143.79,-78.25"/>
<polygon fill="#63b8ff" stroke="#63b8ff" points="143.26,-81.71 153.66,-79.71 144.28,-74.78 143.26,-81.71"/>
</a>
</g>
</g>
<!-- Node4 -->
<g id="Node000004" class="node">
<title>Node4</title>
<g id="a_Node000004"><a xlink:href="namespacecrab.html#a9085393618393c23f64c2525f2c1961f" target="_top" xlink:title="Factory function for Ok with void/Unit result.">
<polygon fill="white" stroke="#666666" points="207.12,-56.25 155.12,-56.25 155.12,-37 207.12,-37 207.12,-56.25"/>
<text text-anchor="middle" x="181.12" y="-42.75" font-family="Helvetica,sans-Serif" font-size="10.00">crab::Ok</text>
</a>
</g>
</g>
<!-- Node1&#45;&gt;Node4 -->
<g id="edge3_Node000001_Node000004" class="edge">
<title>Node1&#45;&gt;Node4</title>
<g id="a_edge3_Node000001_Node000004"><a xlink:title=" ">
<path fill="none" stroke="#63b8ff" d="M101.75,-57.61C115.66,-55.66 130.5,-53.58 143.48,-51.76"/>
<polygon fill="#63b8ff" stroke="#63b8ff" points="143.89,-55.24 153.31,-50.39 142.92,-48.31 143.89,-55.24"/>
</a>
</g>
</g>
<!-- Node5 -->
<g id="Node000005" class="node">
<title>Node5</title>
<g id="a_Node000005"><a xlink:href="classcrab_1_1Slice.html#a104ac005b0ae8237f1566742a9c3dc33" target="_top" xlink:title="Default constructor: empty slice.">
<polygon fill="white" stroke="#666666" points="224.75,-19.25 137.5,-19.25 137.5,0 224.75,0 224.75,-19.25"/>
<text text-anchor="middle" x="181.12" y="-5.75" font-family="Helvetica,sans-Serif" font-size="10.00">crab::Slice::Slice</text>
</a>
</g>
</g>
<!-- Node1&#45;&gt;Node5 -->
<g id="edge4_Node000001_Node000005" class="edge">
<title>Node1&#45;&gt;Node5</title>
<g id="a_edge4_Node000001_Node000005"><a xlink:title=" ">
<path fill="none" stroke="#63b8ff" d="M75.02,-54.53C92.26,-47.06 116.32,-36.66 137.5,-27.62 140.15,-26.49 142.9,-25.33 145.66,-24.15"/>
<polygon fill="#63b8ff" stroke="#63b8ff" points="146.98,-27.4 154.82,-20.27 144.25,-20.95 146.98,-27.4"/>
</a>
</g>
</g>
</g>
</svg>
