<?xml version="1.0" encoding="UTF-8" standalone="no"?>
<!DOCTYPE svg PUBLIC "-//W3C//DTD SVG 1.1//EN"
 "http://www.w3.org/Graphics/SVG/1.1/DTD/svg11.dtd">
<!-- Generated by graphviz version 12.2.0 (20241103.1931)
 -->
<!-- Title: crab::Slice::Slice Pages: 1 -->
<svg width="233pt" height="138pt"
 viewBox="0.00 0.00 232.75 138.25" xmlns="http://www.w3.org/2000/svg" xmlns:xlink="http://www.w3.org/1999/xlink">

<svg id="main" version="1.1" xmlns="http://www.w3.org/2000/svg" xmlns:xlink="http://www.w3.org/1999/xlink" xml:space="preserve">

<style type="text/css"><![CDATA[
.node, .edge {opacity: 0.7;}
.node.selected, .edge.selected {opacity: 1;}
.edge:hover path { stroke: red; }
.edge:hover polygon { stroke: red; fill: red; }
]]></style>
<script type="application/ecmascript" xlink:href="svg.min.js"/>
<svg id="graph" class="graph">
<g id="graph0" class="graph" transform="scale(1 1) rotate(0) translate(4 134.25)">
<title>crab::Slice::Slice</title>
<!-- Node1 -->
<g id="Node000001" class="node">
<title>Node1</title>
<g id="a_Node000001"><a xlink:title="Default constructor: empty slice.">
<polygon fill="#999999" stroke="#666666" points="224.75,-74.25 137.5,-74.25 137.5,-55 224.75,-55 224.75,-74.25"/>
<text text-anchor="middle" x="181.12" y="-60.75" font-family="Helvetica,sans-Serif" font-size="10.00">crab::Slice::Slice</text>
</a>
</g>
</g>
<!-- Node2 -->
<g id="Node000002" class="node">
<title>Node2</title>
<g id="a_Node000002"><a xlink:href="classcrab_1_1Slice.html#a4e4fb41a20d601668b9ea8c5fac58280" target="_top" xlink:title="Get first n elements (clamped to size).">
<polygon fill="white" stroke="#666666" points="91.38,-130.25 10.12,-130.25 10.12,-111 91.38,-111 91.38,-130.25"/>
<text text-anchor="middle" x="50.75" y="-116.75" font-family="Helvetica,sans-Serif" font-size="10.00">crab::Slice::first</text>
</a>
</g>
</g>
<!-- Node1&#45;&gt;Node2 -->
<g id="edge1_Node000001_Node000002" class="edge">
<title>Node1&#45;&gt;Node2</title>
<g id="a_edge1_Node000001_Node000002"><a xlink:title=" ">
<path fill="none" stroke="#63b8ff" d="M150.69,-79.74C136.07,-87.02 118.03,-95.66 101.5,-102.62 94.98,-105.37 87.88,-108.09 81.15,-110.56"/>
<polygon fill="#63b8ff" stroke="#63b8ff" points="151.96,-83.02 159.32,-75.4 148.81,-76.77 151.96,-83.02"/>
</a>
</g>
</g>
<!-- Node3 -->
<g id="Node000003" class="node">
<title>Node3</title>
<g id="a_Node000003"><a xlink:href="classcrab_1_1Slice.html#af481ed8b9f02cd535bacf083db83420a" target="_top" xlink:title="Get last n elements (clamped to size).">
<polygon fill="white" stroke="#666666" points="91.38,-93.25 10.12,-93.25 10.12,-74 91.38,-74 91.38,-93.25"/>
<text text-anchor="middle" x="50.75" y="-79.75" font-family="Helvetica,sans-Serif" font-size="10.00">crab::Slice::last</text>
</a>
</g>
</g>
<!-- Node1&#45;&gt;Node3 -->
<g id="edge2_Node000001_Node000003" class="edge">
<title>Node1&#45;&gt;Node3</title>
<g id="a_edge2_Node000001_Node000003"><a xlink:title=" ">
<path fill="none" stroke="#63b8ff" d="M125.73,-72.68C114.24,-74.38 102.32,-76.14 91.49,-77.74"/>
<polygon fill="#63b8ff" stroke="#63b8ff" points="126.14,-76.15 135.52,-71.23 125.12,-69.23 126.14,-76.15"/>
</a>
</g>
</g>
<!-- Node4 -->
<g id="Node000004" class="node">
<title>Node4</title>
<g id="a_Node000004"><a xlink:href="classcrab_1_1Slice.html#abcfaf7a61c6ff2623497583571701776" target="_top" xlink:title="Skip first n elements (clamped to size).">
<polygon fill="white" stroke="#666666" points="92.5,-56.25 9,-56.25 9,-37 92.5,-37 92.5,-56.25"/>
<text text-anchor="middle" x="50.75" y="-42.75" font-family="Helvetica,sans-Serif" font-size="10.00">crab::Slice::skip</text>
</a>
</g>
</g>
<!-- Node1&#45;&gt;Node4 -->
<g id="edge3_Node000001_Node000004" class="edge">
<title>Node1&#45;&gt;Node4</title>
<g id="a_edge3_Node000001_Node000004"><a xlink:title=" ">
<path fill="none" stroke="#63b8ff" d="M125.72,-57C114.69,-55.45 103.26,-53.85 92.79,-52.38"/>
<polygon fill="#63b8ff" stroke="#63b8ff" points="125.13,-60.45 135.52,-58.37 126.1,-53.52 125.13,-60.45"/>
</a>
</g>
</g>
<!-- Node5 -->
<g id="Node000005" class="node">
<title>Node5</title>
<g id="a_Node000005"><a xlink:href="classcrab_1_1Slice.html#a2b8adbd65659ca1af0e77ba2f9a1ef8a" target="_top" xlink:title="Extract a subslice with bounds checking.">
<polygon fill="white" stroke="#666666" points="101.5,-19.25 0,-19.25 0,0 101.5,0 101.5,-19.25"/>
<text text-anchor="middle" x="50.75" y="-5.75" font-family="Helvetica,sans-Serif" font-size="10.00">crab::Slice::subslice</text>
</a>
</g>
</g>
<!-- Node1&#45;&gt;Node5 -->
<g id="edge4_Node000001_Node000005" class="edge">
<title>Node1&#45;&gt;Node5</title>
<g id="a_edge4_Node000001_Node000005"><a xlink:title=" ">
<path fill="none" stroke="#63b8ff" d="M150.06,-49.67C135.53,-42.66 117.76,-34.37 101.5,-27.62 94.97,-24.91 87.86,-22.2 81.12,-19.74"/>
<polygon fill="#63b8ff" stroke="#63b8ff" points="148.11,-52.62 158.63,-53.86 151.18,-46.33 148.11,-52.62"/>
</a>
</g>
</g>
</g>
</svg>
</svg>

<style type='text/css'>
<![CDATA[
[data-mouse-over-selected='false'] { opacity: 0.7; }
[data-mouse-over-selected='true']  { opacity: 1.0; }
]]>
</style>
<script type="application/ecmascript"><![CDATA[
document.addEventListener('DOMContentLoaded', (event) => {
  highlightEdges();
  highlightAdjacentNodes();
});
]]></script>
</svg>
