<?xml version="1.0" encoding="UTF-8" standalone="no"?>
<!DOCTYPE svg PUBLIC "-//W3C//DTD SVG 1.1//EN"
 "http://www.w3.org/Graphics/SVG/1.1/DTD/svg11.dtd">
<!-- Generated by graphviz version 12.2.0 (20241103.1931)
 -->
<!-- Title: crab::Option::map Pages: 1 -->
<svg width="244pt" height="64pt"
 viewBox="0.00 0.00 244.00 64.25" xmlns="http://www.w3.org/2000/svg" xmlns:xlink="http://www.w3.org/1999/xlink">
<g id="graph0" class="graph" transform="scale(1 1) rotate(0) translate(4 60.25)">
<title>crab::Option::map</title>
<!-- Node1 -->
<g id="Node000001" class="node">
<title>Node1</title>
<g id="a_Node000001"><a xlink:title="Transform the contained value.">
<polygon fill="#999999" stroke="#666666" points="91,-37.25 0,-37.25 0,-18 91,-18 91,-37.25"/>
<text text-anchor="middle" x="45.5" y="-23.75" font-family="Helvetica,sans-Serif" font-size="10.00">crab::Option::map</text>
</a>
</g>
</g>
<!-- Node2 -->
<g id="Node000002" class="node">
<title>Node2</title>
<g id="a_Node000002"><a xlink:href="classcrab_1_1Option.html#ad0294686ce4ee356c447fa75174444b6" target="_top" xlink:title="Check if Option contains a value.">
<polygon fill="white" stroke="#666666" points="236,-56.25 127,-56.25 127,-37 236,-37 236,-56.25"/>
<text text-anchor="middle" x="181.5" y="-42.75" font-family="Helvetica,sans-Serif" font-size="10.00">crab::Option::is_some</text>
</a>
</g>
</g>
<!-- Node1&#45;&gt;Node2 -->
<g id="edge1_Node000001_Node000002" class="edge">
<title>Node1&#45;&gt;Node2</title>
<g id="a_edge1_Node000001_Node000002"><a xlink:title=" ">
<path fill="none" stroke="#63b8ff" d="M91.49,-34C99.14,-35.09 107.22,-36.23 115.26,-37.38"/>
<polygon fill="#63b8ff" stroke="#63b8ff" points="114.68,-40.83 125.07,-38.77 115.66,-33.9 114.68,-40.83"/>
</a>
</g>
</g>
<!-- Node3 -->
<g id="Node000003" class="node">
<title>Node3</title>
<g id="a_Node000003"><a xlink:href="namespacecrab.html#ab1da763ed0c6f937fecc16e891b2015a" target="_top" xlink:title="Create an Option containing a value.">
<polygon fill="white" stroke="#666666" points="213.88,-19.25 149.12,-19.25 149.12,0 213.88,0 213.88,-19.25"/>
<text text-anchor="middle" x="181.5" y="-5.75" font-family="Helvetica,sans-Serif" font-size="10.00">crab::Some</text>
</a>
</g>
</g>
<!-- Node1&#45;&gt;Node3 -->
<g id="edge2_Node000001_Node000003" class="edge">
<title>Node1&#45;&gt;Node3</title>
<g id="a_edge2_Node000001_Node000003"><a xlink:title=" ">
<path fill="none" stroke="#63b8ff" d="M91.49,-21.58C106.37,-19.58 122.88,-17.37 137.6,-15.39"/>
<polygon fill="#63b8ff" stroke="#63b8ff" points="138.01,-18.86 147.45,-14.06 137.07,-11.93 138.01,-18.86"/>
</a>
</g>
</g>
</g>
</svg>
