<?xml version="1.0" encoding="UTF-8" standalone="no"?>
<!DOCTYPE svg PUBLIC "-//W3C//DTD SVG 1.1//EN"
 "http://www.w3.org/Graphics/SVG/1.1/DTD/svg11.dtd">
<!-- Generated by graphviz version 12.2.0 (20241103.1931)
 -->
<!-- Title: crab/error_types.h Pages: 1 -->
<svg width="447pt" height="248pt"
 viewBox="0.00 0.00 447.11 248.25" xmlns="http://www.w3.org/2000/svg" xmlns:xlink="http://www.w3.org/1999/xlink">

<svg id="main" version="1.1" xmlns="http://www.w3.org/2000/svg" xmlns:xlink="http://www.w3.org/1999/xlink" xml:space="preserve">

<style type="text/css"><![CDATA[
.node, .edge {opacity: 0.7;}
.node.selected, .edge.selected {opacity: 1;}
.edge:hover path { stroke: red; }
.edge:hover polygon { stroke: red; fill: red; }
]]></style>
<script type="application/ecmascript" xlink:href="svg.min.js"/>
<svg id="graph" class="graph">
<g id="graph0" class="graph" transform="scale(1 1) rotate(0) translate(4 244.25)">
<title>crab/error_types.h</title>
<!-- Node1 -->
<g id="Node000001" class="node">
<title>Node1</title>
<g id="a_Node000001"><a xlink:title="Common error types for CrabLib Result&lt;T, E&gt;.">
<polygon fill="#999999" stroke="#666666" points="277.99,-240.25 184.74,-240.25 184.74,-221 277.99,-221 277.99,-240.25"/>
<text text-anchor="middle" x="231.36" y="-226.75" font-family="Helvetica,sans-Serif" font-size="10.00">crab/error_types.h</text>
</a>
</g>
</g>
<!-- Node2 -->
<g id="Node000002" class="node">
<title>Node2</title>
<g id="a_Node000002"><a xlink:href="option_8h.html" target="_top" xlink:title="Ergonomic Option&lt;T&gt; type with Rust&#45;inspired monadic interface.">
<polygon fill="white" stroke="#666666" points="201.11,-129.75 129.61,-129.75 129.61,-110.5 201.11,-110.5 201.11,-129.75"/>
<text text-anchor="middle" x="165.36" y="-116.25" font-family="Helvetica,sans-Serif" font-size="10.00">crab/option.h</text>
</a>
</g>
</g>
<!-- Node1&#45;&gt;Node2 -->
<g id="edge1_Node000001_Node000002" class="edge">
<title>Node1&#45;&gt;Node2</title>
<g id="a_edge1_Node000001_Node000002"><a xlink:title=" ">
<path fill="none" stroke="#63b8ff" d="M220.17,-211.22C205.85,-187.69 181.63,-147.87 170.84,-130.13"/>
<polygon fill="#63b8ff" stroke="#63b8ff" points="216.99,-212.73 225.18,-219.45 222.97,-209.09 216.99,-212.73"/>
</a>
</g>
</g>
<!-- Node4 -->
<g id="Node000004" class="node">
<title>Node4</title>
<g id="a_Node000004"><a xlink:href="prelude_8h.html" target="_top" xlink:title="Single&#45;include header for all CrabLib types.">
<polygon fill="white" stroke="#666666" points="196.74,-19.25 119.99,-19.25 119.99,0 196.74,0 196.74,-19.25"/>
<text text-anchor="middle" x="158.36" y="-5.75" font-family="Helvetica,sans-Serif" font-size="10.00">crab/prelude.h</text>
</a>
</g>
</g>
<!-- Node1&#45;&gt;Node4 -->
<g id="edge9_Node000001_Node000004" class="edge">
<title>Node1&#45;&gt;Node4</title>
<g id="a_edge9_Node000001_Node000004"><a xlink:title=" ">
<path fill="none" stroke="#63b8ff" d="M193.16,-216.56C139.6,-195.92 44.3,-150.17 4.36,-74.5 -20.02,-28.3 66.54,-15.49 119.72,-11.96"/>
<polygon fill="#63b8ff" stroke="#63b8ff" points="191.91,-219.83 202.5,-220.05 194.36,-213.27 191.91,-219.83"/>
</a>
</g>
</g>
<!-- Node6 -->
<g id="Node000006" class="node">
<title>Node6</title>
<g id="a_Node000006"><a xlink:href="static__vector_8h.html" target="_top" xlink:title="Fixed&#45;capacity vector with stack allocation (no heap).">
<polygon fill="white" stroke="#666666" points="323.11,-74.5 221.61,-74.5 221.61,-55.25 323.11,-55.25 323.11,-74.5"/>
<text text-anchor="middle" x="272.36" y="-61" font-family="Helvetica,sans-Serif" font-size="10.00">crab/static_vector.h</text>
</a>
</g>
</g>
<!-- Node1&#45;&gt;Node6 -->
<g id="edge17_Node000001_Node000006" class="edge">
<title>Node1&#45;&gt;Node6</title>
<g id="a_edge17_Node000001_Node000006"><a xlink:title=" ">
<path fill="none" stroke="#63b8ff" d="M236.29,-209.94C245.23,-174.25 263.77,-100.21 270.15,-74.72"/>
<polygon fill="#63b8ff" stroke="#63b8ff" points="232.97,-208.8 233.94,-219.35 239.76,-210.5 232.97,-208.8"/>
</a>
</g>
</g>
<!-- Node7 -->
<g id="Node000007" class="node">
<title>Node7</title>
<g id="a_Node000007"><a xlink:href="result_8h.html" target="_top" xlink:title="Rust&#45;inspired Result&lt;T, E&gt; type for error handling without exceptions.">
<polygon fill="white" stroke="#666666" points="328.99,-185 259.74,-185 259.74,-165.75 328.99,-165.75 328.99,-185"/>
<text text-anchor="middle" x="294.36" y="-171.5" font-family="Helvetica,sans-Serif" font-size="10.00">crab/result.h</text>
</a>
</g>
</g>
<!-- Node1&#45;&gt;Node7 -->
<g id="edge10_Node000001_Node000007" class="edge">
<title>Node1&#45;&gt;Node7</title>
<g id="a_edge10_Node000001_Node000007"><a xlink:title=" ">
<path fill="none" stroke="#63b8ff" d="M250.54,-213.41C261.48,-204.17 274.78,-192.93 283.83,-185.27"/>
<polygon fill="#63b8ff" stroke="#63b8ff" points="248.58,-210.49 243.21,-219.61 253.1,-215.83 248.58,-210.49"/>
</a>
</g>
</g>
<!-- Node8 -->
<g id="Node000008" class="node">
<title>Node8</title>
<g id="a_Node000008"><a xlink:href="slice_8h.html" target="_top" xlink:title="Bounds&#45;checked non&#45;owning view for contiguous memory.">
<polygon fill="white" stroke="#666666" points="439.11,-129.75 373.61,-129.75 373.61,-110.5 439.11,-110.5 439.11,-129.75"/>
<text text-anchor="middle" x="406.36" y="-116.25" font-family="Helvetica,sans-Serif" font-size="10.00">crab/slice.h</text>
</a>
</g>
</g>
<!-- Node1&#45;&gt;Node8 -->
<g id="edge16_Node000001_Node000008" class="edge">
<title>Node1&#45;&gt;Node8</title>
<g id="a_edge16_Node000001_Node000008"><a xlink:title=" ">
<path fill="none" stroke="#63b8ff" d="M271.65,-216.73C292.46,-209.12 317.74,-198.35 338.36,-185 363.11,-168.98 387.04,-143.45 398.81,-130.03"/>
<polygon fill="#63b8ff" stroke="#63b8ff" points="270.6,-213.38 262.34,-220.02 272.94,-219.98 270.6,-213.38"/>
</a>
</g>
</g>
<!-- Node3 -->
<g id="Node000003" class="node">
<title>Node3</title>
<g id="a_Node000003"><a xlink:href="mutex_8h.html" target="_top" xlink:title="Rust&#45;style data&#45;owning Mutex&lt;T&gt;.">
<polygon fill="white" stroke="#666666" points="95.11,-74.5 23.61,-74.5 23.61,-55.25 95.11,-55.25 95.11,-74.5"/>
<text text-anchor="middle" x="59.36" y="-61" font-family="Helvetica,sans-Serif" font-size="10.00">crab/mutex.h</text>
</a>
</g>
</g>
<!-- Node2&#45;&gt;Node3 -->
<g id="edge2_Node000002_Node000003" class="edge">
<title>Node2&#45;&gt;Node3</title>
<g id="a_edge2_Node000002_Node000003"><a xlink:title=" ">
<path fill="none" stroke="#63b8ff" d="M137.23,-104.99C118.27,-95.47 93.83,-83.19 77.43,-74.95"/>
<polygon fill="#63b8ff" stroke="#63b8ff" points="135.52,-108.05 146.03,-109.41 138.66,-101.8 135.52,-108.05"/>
</a>
</g>
</g>
<!-- Node2&#45;&gt;Node4 -->
<g id="edge4_Node000002_Node000004" class="edge">
<title>Node2&#45;&gt;Node4</title>
<g id="a_edge4_Node000002_Node000004"><a xlink:title=" ">
<path fill="none" stroke="#63b8ff" d="M117.94,-119.12C83.16,-116.3 38.03,-106.18 14.36,-74.5 -15.02,-35.17 67.6,-19.59 119.6,-13.79"/>
<polygon fill="#63b8ff" stroke="#63b8ff" points="117.59,-122.6 127.79,-119.72 118.02,-115.62 117.59,-122.6"/>
</a>
</g>
</g>
<!-- Node5 -->
<g id="Node000005" class="node">
<title>Node5</title>
<g id="a_Node000005"><a xlink:href="ring__buffer_8h.html" target="_top" xlink:title="Lock&#45;free SPSC (Single Producer Single Consumer) ring buffer.">
<polygon fill="white" stroke="#666666" points="203.49,-74.5 113.24,-74.5 113.24,-55.25 203.49,-55.25 203.49,-74.5"/>
<text text-anchor="middle" x="158.36" y="-61" font-family="Helvetica,sans-Serif" font-size="10.00">crab/ring_buffer.h</text>
</a>
</g>
</g>
<!-- Node2&#45;&gt;Node5 -->
<g id="edge5_Node000002_Node000005" class="edge">
<title>Node2&#45;&gt;Node5</title>
<g id="a_edge5_Node000002_Node000005"><a xlink:title=" ">
<path fill="none" stroke="#63b8ff" d="M162.74,-99.17C161.64,-90.8 160.42,-81.5 159.54,-74.86"/>
<polygon fill="#63b8ff" stroke="#63b8ff" points="159.24,-99.37 164.01,-108.83 166.18,-98.46 159.24,-99.37"/>
</a>
</g>
</g>
<!-- Node2&#45;&gt;Node6 -->
<g id="edge7_Node000002_Node000006" class="edge">
<title>Node2&#45;&gt;Node6</title>
<g id="a_edge7_Node000002_Node000006"><a xlink:title=" ">
<path fill="none" stroke="#63b8ff" d="M193.76,-104.99C212.9,-95.47 237.57,-83.19 254.12,-74.95"/>
<polygon fill="#63b8ff" stroke="#63b8ff" points="192.26,-101.83 184.87,-109.42 195.38,-108.1 192.26,-101.83"/>
</a>
</g>
</g>
<!-- Node3&#45;&gt;Node4 -->
<g id="edge3_Node000003_Node000004" class="edge">
<title>Node3&#45;&gt;Node4</title>
<g id="a_edge3_Node000003_Node000004"><a xlink:title=" ">
<path fill="none" stroke="#63b8ff" d="M85.89,-49.61C103.55,-40.11 126.24,-27.9 141.49,-19.7"/>
<polygon fill="#63b8ff" stroke="#63b8ff" points="84.64,-46.31 77.49,-54.12 87.96,-52.47 84.64,-46.31"/>
</a>
</g>
</g>
<!-- Node5&#45;&gt;Node4 -->
<g id="edge6_Node000005_Node000004" class="edge">
<title>Node5&#45;&gt;Node4</title>
<g id="a_edge6_Node000005_Node000004"><a xlink:title=" ">
<path fill="none" stroke="#63b8ff" d="M158.36,-43.63C158.36,-35.34 158.36,-26.17 158.36,-19.61"/>
<polygon fill="#63b8ff" stroke="#63b8ff" points="154.86,-43.57 158.36,-53.57 161.86,-43.57 154.86,-43.57"/>
</a>
</g>
</g>
<!-- Node6&#45;&gt;Node4 -->
<g id="edge8_Node000006_Node000004" class="edge">
<title>Node6&#45;&gt;Node4</title>
<g id="a_edge8_Node000006_Node000004"><a xlink:title=" ">
<path fill="none" stroke="#63b8ff" d="M242.67,-50.01C222.21,-40.45 195.6,-28.02 177.8,-19.7"/>
<polygon fill="#63b8ff" stroke="#63b8ff" points="241.11,-53.14 251.65,-54.2 244.07,-46.8 241.11,-53.14"/>
</a>
</g>
</g>
<!-- Node7&#45;&gt;Node2 -->
<g id="edge11_Node000007_Node000002" class="edge">
<title>Node7&#45;&gt;Node2</title>
<g id="a_edge11_Node000007_Node000002"><a xlink:title=" ">
<path fill="none" stroke="#63b8ff" d="M262.04,-161.03C238.73,-151.41 207.87,-138.67 187.35,-130.2"/>
<polygon fill="#63b8ff" stroke="#63b8ff" points="260.5,-164.18 271.08,-164.76 263.17,-157.71 260.5,-164.18"/>
</a>
</g>
</g>
<!-- Node7&#45;&gt;Node4 -->
<g id="edge12_Node000007_Node000004" class="edge">
<title>Node7&#45;&gt;Node4</title>
<g id="a_edge12_Node000007_Node000004"><a xlink:title=" ">
<path fill="none" stroke="#63b8ff" d="M309.29,-156.58C328.32,-131.61 356.09,-85.84 332.36,-55.25 315.92,-34.06 243.03,-21.2 196.96,-15.04"/>
<polygon fill="#63b8ff" stroke="#63b8ff" points="306.75,-154.15 303.25,-164.15 312.22,-158.51 306.75,-154.15"/>
</a>
</g>
</g>
<!-- Node7&#45;&gt;Node6 -->
<g id="edge15_Node000007_Node000006" class="edge">
<title>Node7&#45;&gt;Node6</title>
<g id="a_edge15_Node000007_Node000006"><a xlink:title=" ">
<path fill="none" stroke="#63b8ff" d="M290.3,-154.35C285.5,-130.65 277.71,-92.22 274.19,-74.88"/>
<polygon fill="#63b8ff" stroke="#63b8ff" points="286.84,-154.91 292.26,-164.01 293.71,-153.52 286.84,-154.91"/>
</a>
</g>
</g>
<!-- Node7&#45;&gt;Node8 -->
<g id="edge13_Node000007_Node000008" class="edge">
<title>Node7&#45;&gt;Node8</title>
<g id="a_edge13_Node000007_Node000008"><a xlink:title=" ">
<path fill="none" stroke="#63b8ff" d="M323.53,-160.51C343.64,-150.95 369.78,-138.52 387.27,-130.2"/>
<polygon fill="#63b8ff" stroke="#63b8ff" points="322.26,-157.24 314.73,-164.69 325.26,-163.56 322.26,-157.24"/>
</a>
</g>
</g>
<!-- Node8&#45;&gt;Node4 -->
<g id="edge14_Node000008_Node000004" class="edge">
<title>Node8&#45;&gt;Node4</title>
<g id="a_edge14_Node000008_Node000004"><a xlink:title=" ">
<path fill="none" stroke="#63b8ff" d="M398.81,-99.71C392.16,-85.23 381.09,-66.15 365.36,-55.25 314.61,-20.06 241.32,-11.84 196.93,-10.34"/>
<polygon fill="#63b8ff" stroke="#63b8ff" points="395.48,-100.84 402.6,-108.69 401.93,-98.12 395.48,-100.84"/>
</a>
</g>
</g>
</g>
</svg>
</svg>

<style type='text/css'>
<![CDATA[
[data-mouse-over-selected='false'] { opacity: 0.7; }
[data-mouse-over-selected='true']  { opacity: 1.0; }
]]>
</style>
<script type="application/ecmascript"><![CDATA[
document.addEventListener('DOMContentLoaded', (event) => {
  highlightEdges();
  highlightAdjacentNodes();
});
]]></script>
</svg>
