<?xml version="1.0" encoding="UTF-8" standalone="no"?>
<!DOCTYPE svg PUBLIC "-//W3C//DTD SVG 1.1//EN"
 "http://www.w3.org/Graphics/SVG/1.1/DTD/svg11.dtd">
<!-- Generated by graphviz version 12.2.0 (20241103.1931)
 -->
<!-- Title: crab/macros.h Pages: 1 -->
<svg width="473pt" height="248pt"
 viewBox="0.00 0.00 473.50 248.25" xmlns="http://www.w3.org/2000/svg" xmlns:xlink="http://www.w3.org/1999/xlink">

<svg id="main" version="1.1" xmlns="http://www.w3.org/2000/svg" xmlns:xlink="http://www.w3.org/1999/xlink" xml:space="preserve">

<style type="text/css"><![CDATA[
.node, .edge {opacity: 0.7;}
.node.selected, .edge.selected {opacity: 1;}
.edge:hover path { stroke: red; }
.edge:hover polygon { stroke: red; fill: red; }
]]></style>
<script type="application/ecmascript" xlink:href="svg.min.js"/>
<svg id="graph" class="graph">
<g id="graph0" class="graph" transform="scale(1 1) rotate(0) translate(4 244.25)">
<title>crab/macros.h</title>
<!-- Node1 -->
<g id="Node000001" class="node">
<title>Node1</title>
<g id="a_Node000001"><a xlink:title="CrabLib assertion and utility macros.">
<polygon fill="#999999" stroke="#666666" points="304.5,-240.25 227,-240.25 227,-221 304.5,-221 304.5,-240.25"/>
<text text-anchor="middle" x="265.75" y="-226.75" font-family="Helvetica,sans-Serif" font-size="10.00">crab/macros.h</text>
</a>
</g>
</g>
<!-- Node2 -->
<g id="Node000002" class="node">
<title>Node2</title>
<g id="a_Node000002"><a xlink:href="option_8h.html" target="_top" xlink:title="Ergonomic Option&lt;T&gt; type with Rust&#45;inspired monadic interface.">
<polygon fill="white" stroke="#666666" points="256.5,-129.75 185,-129.75 185,-110.5 256.5,-110.5 256.5,-129.75"/>
<text text-anchor="middle" x="220.75" y="-116.25" font-family="Helvetica,sans-Serif" font-size="10.00">crab/option.h</text>
</a>
</g>
</g>
<!-- Node1&#45;&gt;Node2 -->
<g id="edge1_Node000001_Node000002" class="edge">
<title>Node1&#45;&gt;Node2</title>
<g id="a_edge1_Node000001_Node000002"><a xlink:title=" ">
<path fill="none" stroke="#63b8ff" d="M257.71,-210.26C247.91,-186.62 231.74,-147.63 224.48,-130.13"/>
<polygon fill="#63b8ff" stroke="#63b8ff" points="254.42,-211.45 261.49,-219.35 260.89,-208.77 254.42,-211.45"/>
</a>
</g>
</g>
<!-- Node4 -->
<g id="Node000004" class="node">
<title>Node4</title>
<g id="a_Node000004"><a xlink:href="prelude_8h.html" target="_top" xlink:title="Single&#45;include header for all CrabLib types.">
<polygon fill="white" stroke="#666666" points="259.12,-19.25 182.37,-19.25 182.37,0 259.12,0 259.12,-19.25"/>
<text text-anchor="middle" x="220.75" y="-5.75" font-family="Helvetica,sans-Serif" font-size="10.00">crab/prelude.h</text>
</a>
</g>
</g>
<!-- Node1&#45;&gt;Node4 -->
<g id="edge9_Node000001_Node000004" class="edge">
<title>Node1&#45;&gt;Node4</title>
<g id="a_edge9_Node000001_Node000004"><a xlink:title=" ">
<path fill="none" stroke="#63b8ff" d="M218.22,-217.41C155.9,-198.53 49.16,-155.66 3.75,-74.5 -0.43,-67.03 -1.66,-61.88 3.75,-55.25 25.8,-28.2 125.66,-17.07 181.91,-12.89"/>
<polygon fill="#63b8ff" stroke="#63b8ff" points="216.91,-220.68 227.49,-220.13 218.88,-213.96 216.91,-220.68"/>
</a>
</g>
</g>
<!-- Node5 -->
<g id="Node000005" class="node">
<title>Node5</title>
<g id="a_Node000005"><a xlink:href="ring__buffer_8h.html" target="_top" xlink:title="Lock&#45;free SPSC (Single Producer Single Consumer) ring buffer.">
<polygon fill="white" stroke="#666666" points="102.87,-74.5 12.62,-74.5 12.62,-55.25 102.87,-55.25 102.87,-74.5"/>
<text text-anchor="middle" x="57.75" y="-61" font-family="Helvetica,sans-Serif" font-size="10.00">crab/ring_buffer.h</text>
</a>
</g>
</g>
<!-- Node1&#45;&gt;Node5 -->
<g id="edge16_Node000001_Node000005" class="edge">
<title>Node1&#45;&gt;Node5</title>
<g id="a_edge16_Node000001_Node000005"><a xlink:title=" ">
<path fill="none" stroke="#63b8ff" d="M245.25,-213.49C202.06,-179.48 102.88,-101.41 69.19,-74.88"/>
<polygon fill="#63b8ff" stroke="#63b8ff" points="243.06,-216.22 253.08,-219.65 247.39,-210.72 243.06,-216.22"/>
</a>
</g>
</g>
<!-- Node6 -->
<g id="Node000006" class="node">
<title>Node6</title>
<g id="a_Node000006"><a xlink:href="static__vector_8h.html" target="_top" xlink:title="Fixed&#45;capacity vector with stack allocation (no heap).">
<polygon fill="white" stroke="#666666" points="350.5,-74.5 249,-74.5 249,-55.25 350.5,-55.25 350.5,-74.5"/>
<text text-anchor="middle" x="299.75" y="-61" font-family="Helvetica,sans-Serif" font-size="10.00">crab/static_vector.h</text>
</a>
</g>
</g>
<!-- Node1&#45;&gt;Node6 -->
<g id="edge18_Node000001_Node000006" class="edge">
<title>Node1&#45;&gt;Node6</title>
<g id="a_edge18_Node000001_Node000006"><a xlink:title=" ">
<path fill="none" stroke="#63b8ff" d="M269.83,-209.94C277.24,-174.25 292.62,-100.21 297.91,-74.72"/>
<polygon fill="#63b8ff" stroke="#63b8ff" points="266.49,-208.84 267.88,-219.34 273.34,-210.26 266.49,-208.84"/>
</a>
</g>
</g>
<!-- Node7 -->
<g id="Node000007" class="node">
<title>Node7</title>
<g id="a_Node000007"><a xlink:href="result_8h.html" target="_top" xlink:title="Rust&#45;inspired Result&lt;T, E&gt; type for error handling without exceptions.">
<polygon fill="white" stroke="#666666" points="382.37,-185 313.12,-185 313.12,-165.75 382.37,-165.75 382.37,-185"/>
<text text-anchor="middle" x="347.75" y="-171.5" font-family="Helvetica,sans-Serif" font-size="10.00">crab/result.h</text>
</a>
</g>
</g>
<!-- Node1&#45;&gt;Node7 -->
<g id="edge10_Node000001_Node000007" class="edge">
<title>Node1&#45;&gt;Node7</title>
<g id="a_edge10_Node000001_Node000007"><a xlink:title=" ">
<path fill="none" stroke="#63b8ff" d="M288.96,-214.55C303.4,-205.17 321.5,-193.42 333.77,-185.45"/>
<polygon fill="#63b8ff" stroke="#63b8ff" points="287.41,-211.39 280.93,-219.77 291.22,-217.26 287.41,-211.39"/>
</a>
</g>
</g>
<!-- Node8 -->
<g id="Node000008" class="node">
<title>Node8</title>
<g id="a_Node000008"><a xlink:href="slice_8h.html" target="_top" xlink:title="Bounds&#45;checked non&#45;owning view for contiguous memory.">
<polygon fill="white" stroke="#666666" points="465.5,-129.75 400,-129.75 400,-110.5 465.5,-110.5 465.5,-129.75"/>
<text text-anchor="middle" x="432.75" y="-116.25" font-family="Helvetica,sans-Serif" font-size="10.00">crab/slice.h</text>
</a>
</g>
</g>
<!-- Node1&#45;&gt;Node8 -->
<g id="edge17_Node000001_Node000008" class="edge">
<title>Node1&#45;&gt;Node8</title>
<g id="a_edge17_Node000001_Node000008"><a xlink:title=" ">
<path fill="none" stroke="#63b8ff" d="M315.84,-219.96C340.61,-213.28 369.83,-202.38 391.75,-185 410.75,-169.94 423.62,-143.53 429.35,-129.87"/>
<polygon fill="#63b8ff" stroke="#63b8ff" points="315.12,-216.53 306.27,-222.37 316.83,-223.32 315.12,-216.53"/>
</a>
</g>
</g>
<!-- Node3 -->
<g id="Node000003" class="node">
<title>Node3</title>
<g id="a_Node000003"><a xlink:href="mutex_8h.html" target="_top" xlink:title="Rust&#45;style data&#45;owning Mutex&lt;T&gt;.">
<polygon fill="white" stroke="#666666" points="192.5,-74.5 121,-74.5 121,-55.25 192.5,-55.25 192.5,-74.5"/>
<text text-anchor="middle" x="156.75" y="-61" font-family="Helvetica,sans-Serif" font-size="10.00">crab/mutex.h</text>
</a>
</g>
</g>
<!-- Node2&#45;&gt;Node3 -->
<g id="edge2_Node000002_Node000003" class="edge">
<title>Node2&#45;&gt;Node3</title>
<g id="a_edge2_Node000002_Node000003"><a xlink:title=" ">
<path fill="none" stroke="#63b8ff" d="M201.26,-102.91C190.15,-93.67 176.64,-82.43 167.44,-74.77"/>
<polygon fill="#63b8ff" stroke="#63b8ff" points="198.8,-105.42 208.73,-109.12 203.28,-100.04 198.8,-105.42"/>
</a>
</g>
</g>
<!-- Node2&#45;&gt;Node4 -->
<g id="edge4_Node000002_Node000004" class="edge">
<title>Node2&#45;&gt;Node4</title>
<g id="a_edge4_Node000002_Node000004"><a xlink:title=" ">
<path fill="none" stroke="#63b8ff" d="M220.75,-98.78C220.75,-75.05 220.75,-36.89 220.75,-19.63"/>
<polygon fill="#63b8ff" stroke="#63b8ff" points="217.25,-98.73 220.75,-108.73 224.25,-98.73 217.25,-98.73"/>
</a>
</g>
</g>
<!-- Node2&#45;&gt;Node5 -->
<g id="edge5_Node000002_Node000005" class="edge">
<title>Node2&#45;&gt;Node5</title>
<g id="a_edge5_Node000002_Node000005"><a xlink:title=" ">
<path fill="none" stroke="#63b8ff" d="M182.28,-106.56C152.57,-96.85 112.16,-83.65 85.53,-74.95"/>
<polygon fill="#63b8ff" stroke="#63b8ff" points="181.07,-109.84 191.66,-109.62 183.24,-103.19 181.07,-109.84"/>
</a>
</g>
</g>
<!-- Node2&#45;&gt;Node6 -->
<g id="edge7_Node000002_Node000006" class="edge">
<title>Node2&#45;&gt;Node6</title>
<g id="a_edge7_Node000002_Node000006"><a xlink:title=" ">
<path fill="none" stroke="#63b8ff" d="M243.51,-103.78C257.36,-94.45 274.57,-82.85 286.28,-74.95"/>
<polygon fill="#63b8ff" stroke="#63b8ff" points="241.74,-100.75 235.4,-109.25 245.65,-106.56 241.74,-100.75"/>
</a>
</g>
</g>
<!-- Node3&#45;&gt;Node4 -->
<g id="edge3_Node000003_Node000004" class="edge">
<title>Node3&#45;&gt;Node4</title>
<g id="a_edge3_Node000003_Node000004"><a xlink:title=" ">
<path fill="none" stroke="#63b8ff" d="M176.23,-47.66C187.34,-38.42 200.85,-27.18 210.05,-19.52"/>
<polygon fill="#63b8ff" stroke="#63b8ff" points="174.22,-44.79 168.77,-53.87 178.69,-50.17 174.22,-44.79"/>
</a>
</g>
</g>
<!-- Node5&#45;&gt;Node4 -->
<g id="edge6_Node000005_Node000004" class="edge">
<title>Node5&#45;&gt;Node4</title>
<g id="a_edge6_Node000005_Node000004"><a xlink:title=" ">
<path fill="none" stroke="#63b8ff" d="M96.21,-51.31C125.92,-41.6 166.34,-28.4 192.96,-19.7"/>
<polygon fill="#63b8ff" stroke="#63b8ff" points="95.26,-47.94 86.84,-54.37 97.43,-54.59 95.26,-47.94"/>
</a>
</g>
</g>
<!-- Node6&#45;&gt;Node4 -->
<g id="edge8_Node000006_Node000004" class="edge">
<title>Node6&#45;&gt;Node4</title>
<g id="a_edge8_Node000006_Node000004"><a xlink:title=" ">
<path fill="none" stroke="#63b8ff" d="M276.99,-48.53C263.14,-39.2 245.92,-27.6 234.21,-19.7"/>
<polygon fill="#63b8ff" stroke="#63b8ff" points="274.84,-51.31 285.09,-54 278.76,-45.5 274.84,-51.31"/>
</a>
</g>
</g>
<!-- Node7&#45;&gt;Node2 -->
<g id="edge11_Node000007_Node000002" class="edge">
<title>Node7&#45;&gt;Node2</title>
<g id="a_edge11_Node000007_Node000002"><a xlink:title=" ">
<path fill="none" stroke="#63b8ff" d="M315.61,-160.9C292.7,-151.29 262.5,-138.63 242.4,-130.2"/>
<polygon fill="#63b8ff" stroke="#63b8ff" points="314.23,-164.12 324.81,-164.76 316.94,-157.66 314.23,-164.12"/>
</a>
</g>
</g>
<!-- Node7&#45;&gt;Node4 -->
<g id="edge12_Node000007_Node000004" class="edge">
<title>Node7&#45;&gt;Node4</title>
<g id="a_edge12_Node000007_Node000004"><a xlink:title=" ">
<path fill="none" stroke="#63b8ff" d="M356.98,-155.08C367.66,-129.64 381.21,-84.68 359.75,-55.25 336.97,-24.02 292.01,-14.16 259.37,-11.3"/>
<polygon fill="#63b8ff" stroke="#63b8ff" points="353.8,-153.62 352.89,-164.17 360.19,-156.49 353.8,-153.62"/>
</a>
</g>
</g>
<!-- Node7&#45;&gt;Node6 -->
<g id="edge15_Node000007_Node000006" class="edge">
<title>Node7&#45;&gt;Node6</title>
<g id="a_edge15_Node000007_Node000006"><a xlink:title=" ">
<path fill="none" stroke="#63b8ff" d="M339.18,-155.01C328.72,-131.37 311.47,-92.38 303.73,-74.88"/>
<polygon fill="#63b8ff" stroke="#63b8ff" points="335.96,-156.38 343.21,-164.11 342.36,-153.55 335.96,-156.38"/>
</a>
</g>
</g>
<!-- Node7&#45;&gt;Node8 -->
<g id="edge13_Node000007_Node000008" class="edge">
<title>Node7&#45;&gt;Node8</title>
<g id="a_edge13_Node000007_Node000008"><a xlink:title=" ">
<path fill="none" stroke="#63b8ff" d="M371.81,-159.3C386.78,-149.92 405.54,-138.17 418.26,-130.2"/>
<polygon fill="#63b8ff" stroke="#63b8ff" points="370.07,-156.26 363.45,-164.54 373.78,-162.2 370.07,-156.26"/>
</a>
</g>
</g>
<!-- Node8&#45;&gt;Node4 -->
<g id="edge14_Node000008_Node000004" class="edge">
<title>Node8&#45;&gt;Node4</title>
<g id="a_edge14_Node000008_Node000004"><a xlink:title=" ">
<path fill="none" stroke="#63b8ff" d="M425.36,-99.89C418.88,-85.52 408.07,-66.48 392.75,-55.25 353.31,-26.34 296.78,-16.12 259.43,-12.53"/>
<polygon fill="#63b8ff" stroke="#63b8ff" points="421.99,-100.9 429.06,-108.79 428.45,-98.21 421.99,-100.9"/>
</a>
</g>
</g>
</g>
</svg>
</svg>

<style type='text/css'>
<![CDATA[
[data-mouse-over-selected='false'] { opacity: 0.7; }
[data-mouse-over-selected='true']  { opacity: 1.0; }
]]>
</style>
<script type="application/ecmascript"><![CDATA[
document.addEventListener('DOMContentLoaded', (event) => {
  highlightEdges();
  highlightAdjacentNodes();
});
]]></script>
</svg>
