<?xml version="1.0" encoding="UTF-8" standalone="no"?>
<!DOCTYPE svg PUBLIC "-//W3C//DTD SVG 1.1//EN"
 "http://www.w3.org/Graphics/SVG/1.1/DTD/svg11.dtd">
<!-- Generated by graphviz version 12.2.0 (20241103.1931)
 -->
<!-- Title: crab/macros.h Pages: 1 -->
<svg width="484pt" height="248pt"
 viewBox="0.00 0.00 483.94 248.25" xmlns="http://www.w3.org/2000/svg" xmlns:xlink="http://www.w3.org/1999/xlink">

<svg id="main" version="1.1" xmlns="http://www.w3.org/2000/svg" xmlns:xlink="http://www.w3.org/1999/xlink" xml:space="preserve">

<style type="text/css"><![CDATA[
.node, .edge {opacity: 0.7;}
.node.selected, .edge.selected {opacity: 1;}
.edge:hover path { stroke: red; }
.edge:hover polygon { stroke: red; fill: red; }
]]></style>
<script type="application/ecmascript" xlink:href="svg.min.js"/>
<svg id="graph" class="graph">
<g id="graph0" class="graph" transform="scale(1 1) rotate(0) translate(4 244.25)">
<title>crab/macros.h</title>
<!-- Node1 -->
<g id="Node000001" class="node">
<title>Node1</title>
<g id="a_Node000001"><a xlink:title="CrabLib assertion and utility macros.">
<polygon fill="#999999" stroke="#666666" points="260.94,-240.25 183.44,-240.25 183.44,-221 260.94,-221 260.94,-240.25"/>
<text text-anchor="middle" x="222.19" y="-226.75" font-family="Helvetica,sans-Serif" font-size="10.00">crab/macros.h</text>
</a>
</g>
</g>
<!-- Node2 -->
<g id="Node000002" class="node">
<title>Node2</title>
<g id="a_Node000002"><a xlink:href="mutex_8h.html" target="_top" xlink:title="Rust&#45;style data&#45;owning Mutex&lt;T&gt;.">
<polygon fill="white" stroke="#666666" points="93.94,-74.5 22.44,-74.5 22.44,-55.25 93.94,-55.25 93.94,-74.5"/>
<text text-anchor="middle" x="58.19" y="-61" font-family="Helvetica,sans-Serif" font-size="10.00">crab/mutex.h</text>
</a>
</g>
</g>
<!-- Node1&#45;&gt;Node2 -->
<g id="edge1_Node000001_Node000002" class="edge">
<title>Node1&#45;&gt;Node2</title>
<g id="a_edge1_Node000001_Node000002"><a xlink:title=" ">
<path fill="none" stroke="#63b8ff" d="M205.65,-213.1C171.32,-178.83 93.36,-100.99 67.05,-74.72"/>
<polygon fill="#63b8ff" stroke="#63b8ff" points="202.75,-215.16 212.3,-219.75 207.7,-210.21 202.75,-215.16"/>
</a>
</g>
</g>
<!-- Node3 -->
<g id="Node000003" class="node">
<title>Node3</title>
<g id="a_Node000003"><a xlink:href="prelude_8h.html" target="_top" xlink:title="Single&#45;include header for all CrabLib types.">
<polygon fill="white" stroke="#666666" points="268.57,-19.25 191.82,-19.25 191.82,0 268.57,0 268.57,-19.25"/>
<text text-anchor="middle" x="230.19" y="-5.75" font-family="Helvetica,sans-Serif" font-size="10.00">crab/prelude.h</text>
</a>
</g>
</g>
<!-- Node1&#45;&gt;Node3 -->
<g id="edge10_Node000001_Node000003" class="edge">
<title>Node1&#45;&gt;Node3</title>
<g id="a_edge10_Node000001_Node000003"><a xlink:title=" ">
<path fill="none" stroke="#63b8ff" d="M182.78,-216.96C107.32,-190.72 -45.15,-126.81 13.19,-55.25 35.25,-28.2 135.11,-17.07 191.36,-12.89"/>
<polygon fill="#63b8ff" stroke="#63b8ff" points="181.3,-220.16 191.89,-220.07 183.56,-213.53 181.3,-220.16"/>
</a>
</g>
</g>
<!-- Node4 -->
<g id="Node000004" class="node">
<title>Node4</title>
<g id="a_Node000004"><a xlink:href="option_8h.html" target="_top" xlink:title="Ergonomic Option&lt;T&gt; type with Rust&#45;inspired monadic interface.">
<polygon fill="white" stroke="#666666" points="257.94,-129.75 186.44,-129.75 186.44,-110.5 257.94,-110.5 257.94,-129.75"/>
<text text-anchor="middle" x="222.19" y="-116.25" font-family="Helvetica,sans-Serif" font-size="10.00">crab/option.h</text>
</a>
</g>
</g>
<!-- Node1&#45;&gt;Node4 -->
<g id="edge3_Node000001_Node000004" class="edge">
<title>Node1&#45;&gt;Node4</title>
<g id="a_edge3_Node000001_Node000004"><a xlink:title=" ">
<path fill="none" stroke="#63b8ff" d="M222.19,-209.28C222.19,-185.55 222.19,-147.39 222.19,-130.13"/>
<polygon fill="#63b8ff" stroke="#63b8ff" points="218.69,-209.23 222.19,-219.23 225.69,-209.23 218.69,-209.23"/>
</a>
</g>
</g>
<!-- Node5 -->
<g id="Node000005" class="node">
<title>Node5</title>
<g id="a_Node000005"><a xlink:href="ring__buffer_8h.html" target="_top" xlink:title="Lock&#45;free SPSC (Single Producer Single Consumer) ring buffer.">
<polygon fill="white" stroke="#666666" points="202.32,-74.5 112.07,-74.5 112.07,-55.25 202.32,-55.25 202.32,-74.5"/>
<text text-anchor="middle" x="157.19" y="-61" font-family="Helvetica,sans-Serif" font-size="10.00">crab/ring_buffer.h</text>
</a>
</g>
</g>
<!-- Node1&#45;&gt;Node5 -->
<g id="edge17_Node000001_Node000005" class="edge">
<title>Node1&#45;&gt;Node5</title>
<g id="a_edge17_Node000001_Node000005"><a xlink:title=" ">
<path fill="none" stroke="#63b8ff" d="M212.76,-210.52C203.13,-190.63 188.1,-158.43 177.19,-129.75 169.84,-110.42 163.04,-87.09 159.58,-74.67"/>
<polygon fill="#63b8ff" stroke="#63b8ff" points="209.53,-211.88 217.06,-219.33 215.82,-208.81 209.53,-211.88"/>
</a>
</g>
</g>
<!-- Node6 -->
<g id="Node000006" class="node">
<title>Node6</title>
<g id="a_Node000006"><a xlink:href="static__vector_8h.html" target="_top" xlink:title="Fixed&#45;capacity vector with stack allocation (no heap).">
<polygon fill="white" stroke="#666666" points="359.94,-74.5 258.44,-74.5 258.44,-55.25 359.94,-55.25 359.94,-74.5"/>
<text text-anchor="middle" x="309.19" y="-61" font-family="Helvetica,sans-Serif" font-size="10.00">crab/static_vector.h</text>
</a>
</g>
</g>
<!-- Node1&#45;&gt;Node6 -->
<g id="edge19_Node000001_Node000006" class="edge">
<title>Node1&#45;&gt;Node6</title>
<g id="a_edge19_Node000001_Node000006"><a xlink:title=" ">
<path fill="none" stroke="#63b8ff" d="M232.16,-210.87C250.92,-175.55 290.83,-100.43 304.49,-74.72"/>
<polygon fill="#63b8ff" stroke="#63b8ff" points="229.18,-209.01 227.58,-219.48 235.36,-212.3 229.18,-209.01"/>
</a>
</g>
</g>
<!-- Node7 -->
<g id="Node000007" class="node">
<title>Node7</title>
<g id="a_Node000007"><a xlink:href="result_8h.html" target="_top" xlink:title="Rust&#45;inspired Result&lt;T, E&gt; type for error handling without exceptions.">
<polygon fill="white" stroke="#666666" points="383.82,-185 314.57,-185 314.57,-165.75 383.82,-165.75 383.82,-185"/>
<text text-anchor="middle" x="349.19" y="-171.5" font-family="Helvetica,sans-Serif" font-size="10.00">crab/result.h</text>
</a>
</g>
</g>
<!-- Node1&#45;&gt;Node7 -->
<g id="edge11_Node000001_Node000007" class="edge">
<title>Node1&#45;&gt;Node7</title>
<g id="a_edge11_Node000001_Node000007"><a xlink:title=" ">
<path fill="none" stroke="#63b8ff" d="M254.33,-216.15C277.24,-206.54 307.44,-193.88 327.54,-185.45"/>
<polygon fill="#63b8ff" stroke="#63b8ff" points="253,-212.91 245.13,-220.01 255.71,-219.37 253,-212.91"/>
</a>
</g>
</g>
<!-- Node8 -->
<g id="Node000008" class="node">
<title>Node8</title>
<g id="a_Node000008"><a xlink:href="slice_8h.html" target="_top" xlink:title="Bounds&#45;checked non&#45;owning view for contiguous memory.">
<polygon fill="white" stroke="#666666" points="475.94,-129.75 410.44,-129.75 410.44,-110.5 475.94,-110.5 475.94,-129.75"/>
<text text-anchor="middle" x="443.19" y="-116.25" font-family="Helvetica,sans-Serif" font-size="10.00">crab/slice.h</text>
</a>
</g>
</g>
<!-- Node1&#45;&gt;Node8 -->
<g id="edge18_Node000001_Node000008" class="edge">
<title>Node1&#45;&gt;Node8</title>
<g id="a_edge18_Node000001_Node000008"><a xlink:title=" ">
<path fill="none" stroke="#63b8ff" d="M272.65,-225.1C308.68,-219.9 356.97,-208.78 393.19,-185 414.85,-170.78 431.21,-144 438.69,-130.07"/>
<polygon fill="#63b8ff" stroke="#63b8ff" points="272.37,-221.6 262.92,-226.39 273.29,-228.54 272.37,-221.6"/>
</a>
</g>
</g>
<!-- Node2&#45;&gt;Node3 -->
<g id="edge2_Node000002_Node000003" class="edge">
<title>Node2&#45;&gt;Node3</title>
<g id="a_edge2_Node000002_Node000003"><a xlink:title=" ">
<path fill="none" stroke="#63b8ff" d="M98.37,-51.44C129.76,-41.72 172.65,-28.44 200.87,-19.7"/>
<polygon fill="#63b8ff" stroke="#63b8ff" points="97.33,-48.09 88.82,-54.39 99.4,-54.78 97.33,-48.09"/>
</a>
</g>
</g>
<!-- Node4&#45;&gt;Node2 -->
<g id="edge4_Node000004_Node000002" class="edge">
<title>Node4&#45;&gt;Node2</title>
<g id="a_edge4_Node000004_Node000002"><a xlink:title=" ">
<path fill="none" stroke="#63b8ff" d="M183.49,-106.56C153.6,-96.85 112.94,-83.65 86.15,-74.95"/>
<polygon fill="#63b8ff" stroke="#63b8ff" points="182.34,-109.87 192.93,-109.62 184.5,-103.21 182.34,-109.87"/>
</a>
</g>
</g>
<!-- Node4&#45;&gt;Node3 -->
<g id="edge5_Node000004_Node000003" class="edge">
<title>Node4&#45;&gt;Node3</title>
<g id="a_edge5_Node000004_Node000003"><a xlink:title=" ">
<path fill="none" stroke="#63b8ff" d="M223.69,-98.78C225.44,-75.05 228.26,-36.89 229.53,-19.63"/>
<polygon fill="#63b8ff" stroke="#63b8ff" points="220.2,-98.51 222.96,-108.74 227.18,-99.02 220.2,-98.51"/>
</a>
</g>
</g>
<!-- Node4&#45;&gt;Node5 -->
<g id="edge6_Node000004_Node000005" class="edge">
<title>Node4&#45;&gt;Node5</title>
<g id="a_edge6_Node000004_Node000005"><a xlink:title=" ">
<path fill="none" stroke="#63b8ff" d="M202.41,-102.91C191.12,-93.67 177.4,-82.43 168.06,-74.77"/>
<polygon fill="#63b8ff" stroke="#63b8ff" points="200.04,-105.5 210,-109.13 204.48,-100.09 200.04,-105.5"/>
</a>
</g>
</g>
<!-- Node4&#45;&gt;Node6 -->
<g id="edge8_Node000004_Node000006" class="edge">
<title>Node4&#45;&gt;Node6</title>
<g id="a_edge8_Node000004_Node000006"><a xlink:title=" ">
<path fill="none" stroke="#63b8ff" d="M246.38,-104.32C261.77,-94.9 281.22,-83 294.36,-74.95"/>
<polygon fill="#63b8ff" stroke="#63b8ff" points="244.94,-101.1 238.24,-109.3 248.6,-107.07 244.94,-101.1"/>
</a>
</g>
</g>
<!-- Node5&#45;&gt;Node3 -->
<g id="edge7_Node000005_Node000003" class="edge">
<title>Node5&#45;&gt;Node3</title>
<g id="a_edge7_Node000005_Node000003"><a xlink:title=" ">
<path fill="none" stroke="#63b8ff" d="M178.66,-48.22C191.48,-38.87 207.29,-27.33 217.99,-19.52"/>
<polygon fill="#63b8ff" stroke="#63b8ff" points="176.82,-45.23 170.8,-53.95 180.94,-50.88 176.82,-45.23"/>
</a>
</g>
</g>
<!-- Node6&#45;&gt;Node3 -->
<g id="edge9_Node000006_Node000003" class="edge">
<title>Node6&#45;&gt;Node3</title>
<g id="a_edge9_Node000006_Node000003"><a xlink:title=" ">
<path fill="none" stroke="#63b8ff" d="M286.43,-48.53C272.58,-39.2 255.37,-27.6 243.66,-19.7"/>
<polygon fill="#63b8ff" stroke="#63b8ff" points="284.29,-51.31 294.54,-54 288.2,-45.5 284.29,-51.31"/>
</a>
</g>
</g>
<!-- Node7&#45;&gt;Node3 -->
<g id="edge13_Node000007_Node000003" class="edge">
<title>Node7&#45;&gt;Node3</title>
<g id="a_edge13_Node000007_Node000003"><a xlink:title=" ">
<path fill="none" stroke="#63b8ff" d="M360.21,-155.47C373.34,-130.17 390.93,-85.07 369.19,-55.25 346.42,-24.02 301.45,-14.16 268.82,-11.3"/>
<polygon fill="#63b8ff" stroke="#63b8ff" points="357.3,-153.5 355.55,-163.95 363.43,-156.87 357.3,-153.5"/>
</a>
</g>
</g>
<!-- Node7&#45;&gt;Node4 -->
<g id="edge12_Node000007_Node000004" class="edge">
<title>Node7&#45;&gt;Node4</title>
<g id="a_edge12_Node000007_Node000004"><a xlink:title=" ">
<path fill="none" stroke="#63b8ff" d="M317.06,-160.9C294.14,-151.29 263.95,-138.63 243.84,-130.2"/>
<polygon fill="#63b8ff" stroke="#63b8ff" points="315.68,-164.12 326.25,-164.76 318.38,-157.66 315.68,-164.12"/>
</a>
</g>
</g>
<!-- Node7&#45;&gt;Node6 -->
<g id="edge16_Node000007_Node000006" class="edge">
<title>Node7&#45;&gt;Node6</title>
<g id="a_edge16_Node000007_Node000006"><a xlink:title=" ">
<path fill="none" stroke="#63b8ff" d="M342.05,-155.01C333.34,-131.37 318.97,-92.38 312.51,-74.88"/>
<polygon fill="#63b8ff" stroke="#63b8ff" points="338.65,-155.9 345.4,-164.08 345.22,-153.48 338.65,-155.9"/>
</a>
</g>
</g>
<!-- Node7&#45;&gt;Node8 -->
<g id="edge14_Node000007_Node000008" class="edge">
<title>Node7&#45;&gt;Node8</title>
<g id="a_edge14_Node000007_Node000008"><a xlink:title=" ">
<path fill="none" stroke="#63b8ff" d="M374.85,-159.84C391.55,-150.38 412.83,-138.33 427.17,-130.2"/>
<polygon fill="#63b8ff" stroke="#63b8ff" points="373.43,-156.62 366.46,-164.6 376.88,-162.71 373.43,-156.62"/>
</a>
</g>
</g>
<!-- Node8&#45;&gt;Node3 -->
<g id="edge15_Node000008_Node000003" class="edge">
<title>Node8&#45;&gt;Node3</title>
<g id="a_edge15_Node000008_Node000003"><a xlink:title=" ">
<path fill="none" stroke="#63b8ff" d="M435.51,-99.89C428.79,-85.51 417.69,-66.47 402.19,-55.25 362.6,-26.56 306.1,-16.29 268.81,-12.63"/>
<polygon fill="#63b8ff" stroke="#63b8ff" points="432.17,-101 439.35,-108.8 438.6,-98.23 432.17,-101"/>
</a>
</g>
</g>
</g>
</svg>
</svg>

<style type='text/css'>
<![CDATA[
[data-mouse-over-selected='false'] { opacity: 0.7; }
[data-mouse-over-selected='true']  { opacity: 1.0; }
]]>
</style>
<script type="application/ecmascript"><![CDATA[
document.addEventListener('DOMContentLoaded', (event) => {
  highlightEdges();
  highlightAdjacentNodes();
});
]]></script>
</svg>
