<?xml version="1.0" encoding="UTF-8" standalone="no"?>
<!DOCTYPE svg PUBLIC "-//W3C//DTD SVG 1.1//EN"
 "http://www.w3.org/Graphics/SVG/1.1/DTD/svg11.dtd">
<!-- Generated by graphviz version 12.2.0 (20241103.1931)
 -->
<!-- Title: crab/mutex.h Pages: 1 -->
<svg width="493pt" height="248pt"
 viewBox="0.00 0.00 492.62 248.25" xmlns="http://www.w3.org/2000/svg" xmlns:xlink="http://www.w3.org/1999/xlink">
<g id="graph0" class="graph" transform="scale(1 1) rotate(0) translate(4 244.25)">
<title>crab/mutex.h</title>
<!-- Node1 -->
<g id="Node000001" class="node">
<title>Node1</title>
<g id="a_Node000001"><a xlink:title="Rust&#45;style data&#45;owning Mutex&lt;T&gt;.">
<polygon fill="#999999" stroke="#666666" points="450.25,-240.25 378.75,-240.25 378.75,-221 450.25,-221 450.25,-240.25"/>
<text text-anchor="middle" x="414.5" y="-226.75" font-family="Helvetica,sans-Serif" font-size="10.00">crab/mutex.h</text>
</a>
</g>
</g>
<!-- Node2 -->
<g id="Node000002" class="node">
<title>Node2</title>
<g id="a_Node000002"><a xlink:href="option_8h.html" target="_top" xlink:title="Ergonomic Option&lt;T&gt; type with Rust&#45;inspired monadic interface.">
<polygon fill="white" stroke="#666666" points="285.25,-185 213.75,-185 213.75,-165.75 285.25,-165.75 285.25,-185"/>
<text text-anchor="middle" x="249.5" y="-171.5" font-family="Helvetica,sans-Serif" font-size="10.00">crab/option.h</text>
</a>
</g>
</g>
<!-- Node1&#45;&gt;Node2 -->
<g id="edge1_Node000001_Node000002" class="edge">
<title>Node1&#45;&gt;Node2</title>
<g id="a_edge1_Node000001_Node000002"><a xlink:title=" ">
<path fill="none" stroke="#63b8ff" d="M386.51,-220.59C359.49,-211.87 318.34,-198.59 288.19,-188.86"/>
<polygon fill="#63b8ff" stroke="#63b8ff" points="289.66,-185.66 279.07,-185.92 287.51,-192.32 289.66,-185.66"/>
</a>
</g>
</g>
<!-- Node12 -->
<g id="Node000012" class="node">
<title>Node12</title>
<g id="a_Node000012"><a xlink:title=" ">
<polygon fill="#e0e0e0" stroke="#999999" points="395.75,-74.5 357.25,-74.5 357.25,-55.25 395.75,-55.25 395.75,-74.5"/>
<text text-anchor="middle" x="376.5" y="-61" font-family="Helvetica,sans-Serif" font-size="10.00">utility</text>
</a>
</g>
</g>
<!-- Node1&#45;&gt;Node12 -->
<g id="edge19_Node000001_Node000012" class="edge">
<title>Node1&#45;&gt;Node12</title>
<g id="a_edge19_Node000001_Node000012"><a xlink:title=" ">
<path fill="none" stroke="#63b8ff" d="M412.46,-220.82C406.55,-195.39 389.37,-121.35 381.08,-85.62"/>
<polygon fill="#63b8ff" stroke="#63b8ff" points="384.57,-85.15 378.9,-76.2 377.75,-86.73 384.57,-85.15"/>
</a>
</g>
</g>
<!-- Node15 -->
<g id="Node000015" class="node">
<title>Node15</title>
<g id="a_Node000015"><a xlink:title=" ">
<polygon fill="#e0e0e0" stroke="#999999" points="484.62,-185 442.38,-185 442.38,-165.75 484.62,-165.75 484.62,-185"/>
<text text-anchor="middle" x="463.5" y="-171.5" font-family="Helvetica,sans-Serif" font-size="10.00">mutex</text>
</a>
</g>
</g>
<!-- Node1&#45;&gt;Node15 -->
<g id="edge18_Node000001_Node000015" class="edge">
<title>Node1&#45;&gt;Node15</title>
<g id="a_edge18_Node000001_Node000015"><a xlink:title=" ">
<path fill="none" stroke="#63b8ff" d="M422.59,-220.83C429.36,-213.48 439.22,-202.76 447.56,-193.69"/>
<polygon fill="#63b8ff" stroke="#63b8ff" points="450.01,-196.2 454.21,-186.47 444.86,-191.46 450.01,-196.2"/>
</a>
</g>
</g>
<!-- Node3 -->
<g id="Node000003" class="node">
<title>Node3</title>
<g id="a_Node000003"><a xlink:href="macros_8h.html" target="_top" xlink:title="CrabLib assertion and utility macros.">
<polygon fill="white" stroke="#666666" points="156.25,-74.5 78.75,-74.5 78.75,-55.25 156.25,-55.25 156.25,-74.5"/>
<text text-anchor="middle" x="117.5" y="-61" font-family="Helvetica,sans-Serif" font-size="10.00">crab/macros.h</text>
</a>
</g>
</g>
<!-- Node2&#45;&gt;Node3 -->
<g id="edge2_Node000002_Node000003" class="edge">
<title>Node2&#45;&gt;Node3</title>
<g id="a_edge2_Node000002_Node000003"><a xlink:title=" ">
<path fill="none" stroke="#63b8ff" d="M213.53,-169.56C170.61,-162.99 102.7,-149.71 87.5,-129.75 76.54,-115.36 88.2,-96.32 100.04,-82.78"/>
<polygon fill="#63b8ff" stroke="#63b8ff" points="102.23,-85.55 106.56,-75.88 97.15,-80.74 102.23,-85.55"/>
</a>
</g>
</g>
<!-- Node6 -->
<g id="Node000006" class="node">
<title>Node6</title>
<g id="a_Node000006"><a xlink:href="error__types_8h.html" target="_top" xlink:title="Common error types for CrabLib Result&lt;T, E&gt;.">
<polygon fill="white" stroke="#666666" points="335.12,-74.5 241.88,-74.5 241.88,-55.25 335.12,-55.25 335.12,-74.5"/>
<text text-anchor="middle" x="288.5" y="-61" font-family="Helvetica,sans-Serif" font-size="10.00">crab/error_types.h</text>
</a>
</g>
</g>
<!-- Node2&#45;&gt;Node6 -->
<g id="edge5_Node000002_Node000006" class="edge">
<title>Node2&#45;&gt;Node6</title>
<g id="a_edge5_Node000002_Node000006"><a xlink:title=" ">
<path fill="none" stroke="#63b8ff" d="M275.36,-165.32C291.19,-158.29 310.14,-146.81 319.5,-129.75 328.07,-114.12 317.06,-95.76 305.86,-82.75"/>
<polygon fill="#63b8ff" stroke="#63b8ff" points="308.74,-80.7 299.35,-75.8 303.63,-85.49 308.74,-80.7"/>
</a>
</g>
</g>
<!-- Node9 -->
<g id="Node000009" class="node">
<title>Node9</title>
<g id="a_Node000009"><a xlink:title=" ">
<polygon fill="#e0e0e0" stroke="#999999" points="242.5,-129.75 184.5,-129.75 184.5,-110.5 242.5,-110.5 242.5,-129.75"/>
<text text-anchor="middle" x="213.5" y="-116.25" font-family="Helvetica,sans-Serif" font-size="10.00">functional</text>
</a>
</g>
</g>
<!-- Node2&#45;&gt;Node9 -->
<g id="edge8_Node000002_Node000009" class="edge">
<title>Node2&#45;&gt;Node9</title>
<g id="a_edge8_Node000002_Node000009"><a xlink:title=" ">
<path fill="none" stroke="#63b8ff" d="M243.56,-165.58C238.79,-158.53 231.94,-148.4 225.98,-139.58"/>
<polygon fill="#63b8ff" stroke="#63b8ff" points="228.92,-137.69 220.42,-131.36 223.12,-141.61 228.92,-137.69"/>
</a>
</g>
</g>
<!-- Node10 -->
<g id="Node000010" class="node">
<title>Node10</title>
<g id="a_Node000010"><a xlink:title=" ">
<polygon fill="#e0e0e0" stroke="#999999" points="310.38,-129.75 260.62,-129.75 260.62,-110.5 310.38,-110.5 310.38,-129.75"/>
<text text-anchor="middle" x="285.5" y="-116.25" font-family="Helvetica,sans-Serif" font-size="10.00">optional</text>
</a>
</g>
</g>
<!-- Node2&#45;&gt;Node10 -->
<g id="edge9_Node000002_Node000010" class="edge">
<title>Node2&#45;&gt;Node10</title>
<g id="a_edge9_Node000002_Node000010"><a xlink:title=" ">
<path fill="none" stroke="#63b8ff" d="M255.44,-165.58C260.21,-158.53 267.06,-148.4 273.02,-139.58"/>
<polygon fill="#63b8ff" stroke="#63b8ff" points="275.88,-141.61 278.58,-131.36 270.08,-137.69 275.88,-141.61"/>
</a>
</g>
</g>
<!-- Node11 -->
<g id="Node000011" class="node">
<title>Node11</title>
<g id="a_Node000011"><a xlink:title=" ">
<polygon fill="#e0e0e0" stroke="#999999" points="61,-74.5 0,-74.5 0,-55.25 61,-55.25 61,-74.5"/>
<text text-anchor="middle" x="30.5" y="-61" font-family="Helvetica,sans-Serif" font-size="10.00">type_traits</text>
</a>
</g>
</g>
<!-- Node2&#45;&gt;Node11 -->
<g id="edge10_Node000002_Node000011" class="edge">
<title>Node2&#45;&gt;Node11</title>
<g id="a_edge10_Node000002_Node000011"><a xlink:title=" ">
<path fill="none" stroke="#63b8ff" d="M213.55,-171.73C177.11,-167.58 120.42,-156.94 79.5,-129.75 62.43,-118.41 48.84,-99.1 40.34,-84.68"/>
<polygon fill="#63b8ff" stroke="#63b8ff" points="43.51,-83.18 35.6,-76.14 37.39,-86.58 43.51,-83.18"/>
</a>
</g>
</g>
<!-- Node2&#45;&gt;Node12 -->
<g id="edge11_Node000002_Node000012" class="edge">
<title>Node2&#45;&gt;Node12</title>
<g id="a_edge11_Node000002_Node000012"><a xlink:title=" ">
<path fill="none" stroke="#63b8ff" d="M274.97,-165.28C293.32,-157.81 317.85,-145.85 335.5,-129.75 349.34,-117.12 360.46,-98.82 367.6,-85.04"/>
<polygon fill="#63b8ff" stroke="#63b8ff" points="370.72,-86.63 371.98,-76.11 364.44,-83.55 370.72,-86.63"/>
</a>
</g>
</g>
<!-- Node13 -->
<g id="Node000013" class="node">
<title>Node13</title>
<g id="a_Node000013"><a xlink:href="result_8h.html" target="_top" xlink:title="Rust&#45;inspired Result&lt;T, E&gt; type for error handling without exceptions.">
<polygon fill="white" stroke="#666666" points="166.12,-129.75 96.88,-129.75 96.88,-110.5 166.12,-110.5 166.12,-129.75"/>
<text text-anchor="middle" x="131.5" y="-116.25" font-family="Helvetica,sans-Serif" font-size="10.00">crab/result.h</text>
</a>
</g>
</g>
<!-- Node2&#45;&gt;Node13 -->
<g id="edge12_Node000002_Node000013" class="edge">
<title>Node2&#45;&gt;Node13</title>
<g id="a_edge12_Node000002_Node000013"><a xlink:title=" ">
<path fill="none" stroke="#63b8ff" d="M229.48,-165.34C211.01,-157 183.29,-144.5 162.05,-134.91"/>
<polygon fill="#63b8ff" stroke="#63b8ff" points="163.55,-131.75 152.99,-130.83 160.67,-138.13 163.55,-131.75"/>
</a>
</g>
</g>
<!-- Node4 -->
<g id="Node000004" class="node">
<title>Node4</title>
<g id="a_Node000004"><a xlink:title=" ">
<polygon fill="#e0e0e0" stroke="#999999" points="98.62,-19.25 56.38,-19.25 56.38,0 98.62,0 98.62,-19.25"/>
<text text-anchor="middle" x="77.5" y="-5.75" font-family="Helvetica,sans-Serif" font-size="10.00">cstdio</text>
</a>
</g>
</g>
<!-- Node3&#45;&gt;Node4 -->
<g id="edge3_Node000003_Node000004" class="edge">
<title>Node3&#45;&gt;Node4</title>
<g id="a_edge3_Node000003_Node000004"><a xlink:title=" ">
<path fill="none" stroke="#63b8ff" d="M110.89,-55.08C105.54,-47.96 97.82,-37.68 91.15,-28.8"/>
<polygon fill="#63b8ff" stroke="#63b8ff" points="93.96,-26.71 85.16,-20.82 88.37,-30.92 93.96,-26.71"/>
</a>
</g>
</g>
<!-- Node5 -->
<g id="Node000005" class="node">
<title>Node5</title>
<g id="a_Node000005"><a xlink:title=" ">
<polygon fill="#e0e0e0" stroke="#999999" points="160.75,-19.25 116.25,-19.25 116.25,0 160.75,0 160.75,-19.25"/>
<text text-anchor="middle" x="138.5" y="-5.75" font-family="Helvetica,sans-Serif" font-size="10.00">cstdlib</text>
</a>
</g>
</g>
<!-- Node3&#45;&gt;Node5 -->
<g id="edge4_Node000003_Node000005" class="edge">
<title>Node3&#45;&gt;Node5</title>
<g id="a_edge4_Node000003_Node000005"><a xlink:title=" ">
<path fill="none" stroke="#63b8ff" d="M120.97,-55.08C123.63,-48.34 127.4,-38.77 130.76,-30.24"/>
<polygon fill="#63b8ff" stroke="#63b8ff" points="133.99,-31.6 134.4,-21.02 127.48,-29.04 133.99,-31.6"/>
</a>
</g>
</g>
<!-- Node7 -->
<g id="Node000007" class="node">
<title>Node7</title>
<g id="a_Node000007"><a xlink:title=" ">
<polygon fill="#e0e0e0" stroke="#999999" points="279.62,-19.25 231.38,-19.25 231.38,0 279.62,0 279.62,-19.25"/>
<text text-anchor="middle" x="255.5" y="-5.75" font-family="Helvetica,sans-Serif" font-size="10.00">cstddef</text>
</a>
</g>
</g>
<!-- Node6&#45;&gt;Node7 -->
<g id="edge6_Node000006_Node000007" class="edge">
<title>Node6&#45;&gt;Node7</title>
<g id="a_edge6_Node000006_Node000007"><a xlink:title=" ">
<path fill="none" stroke="#63b8ff" d="M283.05,-55.08C278.73,-48.11 272.54,-38.12 267.12,-29.37"/>
<polygon fill="#63b8ff" stroke="#63b8ff" points="270.11,-27.55 261.86,-20.9 264.16,-31.24 270.11,-27.55"/>
</a>
</g>
</g>
<!-- Node8 -->
<g id="Node000008" class="node">
<title>Node8</title>
<g id="a_Node000008"><a xlink:title=" ">
<polygon fill="#e0e0e0" stroke="#999999" points="343.12,-19.25 297.88,-19.25 297.88,0 343.12,0 343.12,-19.25"/>
<text text-anchor="middle" x="320.5" y="-5.75" font-family="Helvetica,sans-Serif" font-size="10.00">cstdint</text>
</a>
</g>
</g>
<!-- Node6&#45;&gt;Node8 -->
<g id="edge7_Node000006_Node000008" class="edge">
<title>Node6&#45;&gt;Node8</title>
<g id="a_edge7_Node000006_Node000008"><a xlink:title=" ">
<path fill="none" stroke="#63b8ff" d="M293.78,-55.08C297.97,-48.11 303.98,-38.12 309.23,-29.37"/>
<polygon fill="#63b8ff" stroke="#63b8ff" points="312.17,-31.28 314.32,-20.91 306.17,-27.68 312.17,-31.28"/>
</a>
</g>
</g>
<!-- Node13&#45;&gt;Node3 -->
<g id="edge13_Node000013_Node000003" class="edge">
<title>Node13&#45;&gt;Node3</title>
<g id="a_edge13_Node000013_Node000003"><a xlink:title=" ">
<path fill="none" stroke="#63b8ff" d="M129.19,-110.33C127.44,-103.67 124.96,-94.24 122.73,-85.78"/>
<polygon fill="#63b8ff" stroke="#63b8ff" points="126.17,-85.1 120.25,-76.32 119.4,-86.88 126.17,-85.1"/>
</a>
</g>
</g>
<!-- Node13&#45;&gt;Node6 -->
<g id="edge14_Node000013_Node000006" class="edge">
<title>Node13&#45;&gt;Node6</title>
<g id="a_edge14_Node000013_Node000006"><a xlink:title=" ">
<path fill="none" stroke="#63b8ff" d="M158.13,-110.09C183.62,-101.45 222.31,-88.32 250.93,-78.62"/>
<polygon fill="#63b8ff" stroke="#63b8ff" points="251.96,-81.97 260.3,-75.44 249.71,-75.34 251.96,-81.97"/>
</a>
</g>
</g>
<!-- Node13&#45;&gt;Node11 -->
<g id="edge15_Node000013_Node000011" class="edge">
<title>Node13&#45;&gt;Node11</title>
<g id="a_edge15_Node000013_Node000011"><a xlink:title=" ">
<path fill="none" stroke="#63b8ff" d="M114.37,-110.09C98.84,-101.91 75.7,-89.71 57.66,-80.19"/>
<polygon fill="#63b8ff" stroke="#63b8ff" points="59.53,-77.23 49.06,-75.66 56.27,-83.42 59.53,-77.23"/>
</a>
</g>
</g>
<!-- Node13&#45;&gt;Node12 -->
<g id="edge16_Node000013_Node000012" class="edge">
<title>Node13&#45;&gt;Node12</title>
<g id="a_edge16_Node000013_Node000012"><a xlink:title=" ">
<path fill="none" stroke="#63b8ff" d="M166.22,-112.1C217.51,-101.68 311.06,-82.5 344.5,-74.5 345,-74.38 345.51,-74.26 346.02,-74.13"/>
<polygon fill="#63b8ff" stroke="#63b8ff" points="346.63,-77.59 355.45,-71.72 344.89,-70.81 346.63,-77.59"/>
</a>
</g>
</g>
<!-- Node14 -->
<g id="Node000014" class="node">
<title>Node14</title>
<g id="a_Node000014"><a xlink:title=" ">
<polygon fill="#e0e0e0" stroke="#999999" points="219.12,-74.5 173.88,-74.5 173.88,-55.25 219.12,-55.25 219.12,-74.5"/>
<text text-anchor="middle" x="196.5" y="-61" font-family="Helvetica,sans-Serif" font-size="10.00">variant</text>
</a>
</g>
</g>
<!-- Node13&#45;&gt;Node14 -->
<g id="edge17_Node000013_Node000014" class="edge">
<title>Node13&#45;&gt;Node14</title>
<g id="a_edge17_Node000013_Node000014"><a xlink:title=" ">
<path fill="none" stroke="#63b8ff" d="M142.53,-110.09C151.92,-102.4 165.65,-91.15 176.91,-81.93"/>
<polygon fill="#63b8ff" stroke="#63b8ff" points="178.95,-84.78 184.47,-75.73 174.51,-79.36 178.95,-84.78"/>
</a>
</g>
</g>
</g>
</svg>
