<?xml version="1.0" encoding="UTF-8" standalone="no"?>
<!DOCTYPE svg PUBLIC "-//W3C//DTD SVG 1.1//EN"
 "http://www.w3.org/Graphics/SVG/1.1/DTD/svg11.dtd">
<!-- Generated by graphviz version 12.2.0 (20241103.1931)
 -->
<!-- Title: crab/mutex.h Pages: 1 -->
<!--zoomable 248 -->

<svg id="main" version="1.1" xmlns="http://www.w3.org/2000/svg" xmlns:xlink="http://www.w3.org/1999/xlink" xml:space="preserve" onload="init(evt)">

<style type="text/css"><![CDATA[
.node, .edge {opacity: 0.7;}
.node.selected, .edge.selected {opacity: 1;}
.edge:hover path { stroke: red; }
.edge:hover polygon { stroke: red; fill: red; }
]]></style>

<defs>
  <circle id="rim" cx="0" cy="0" r="7"/>
  <circle id="rim2" cx="0" cy="0" r="3.5"/>
  <g id="zoomPlus">
    <use xlink:href="#rim" fill="#404040"><set attributeName="fill" to="#808080" begin="zoomplus.mouseover" end="zoomplus.mouseout"/></use>
    <path d="M-4,0h8M0,-4v8" fill="none" stroke="white" stroke-width="1.5" pointer-events="none"/>
  </g>
  <g id="zoomMin">
    <use xlink:href="#rim" fill="#404040"><set attributeName="fill" to="#808080" begin="zoomminus.mouseover" end="zoomminus.mouseout"/></use>
    <path d="M-4,0h8" fill="none" stroke="white" stroke-width="1.5" pointer-events="none"/>
  </g>
  <g id="arrowUp" transform="translate(30 24)">
    <use xlink:href="#rim"/>
    <path pointer-events="none" fill="none" stroke="white" stroke-width="1.5" d="M0,-3.0v7 M-2.5,-0.5L0,-3.0L2.5,-0.5"/>
  </g>
  <g id="arrowRight" transform="rotate(90) translate(36 -43)">
    <use xlink:href="#rim"/>
    <path pointer-events="none" fill="none" stroke="white" stroke-width="1.5" d="M0,-3.0v7 M-2.5,-0.5L0,-3.0L2.5,-0.5"/>
  </g>
  <g id="arrowDown" transform="rotate(180) translate(-30 -48)">
    <use xlink:href="#rim"/>
    <path pointer-events="none" fill="none" stroke="white" stroke-width="1.5" d="M0,-3.0v7 M-2.5,-0.5L0,-3.0L2.5,-0.5"/>
  </g>
  <g id="arrowLeft" transform="rotate(270) translate(-36 17)">
    <use xlink:href="#rim"/>
    <path pointer-events="none" fill="none" stroke="white" stroke-width="1.5" d="M0,-3.0v7 M-2.5,-0.5L0,-3.0L2.5,-0.5"/>
  </g>
  <g id="resetDef">
    <use xlink:href="#rim2" fill="#404040"><set attributeName="fill" to="#808080" begin="reset.mouseover" end="reset.mouseout"/></use>
  </g>
</defs>
<script type="application/ecmascript">
var viewWidth = 577;
var viewHeight = 248;
var sectionId = 'dynsection-0';
</script>
<script type="application/ecmascript" xlink:href="svg.min.js"/>
<svg id="graph" class="graph">
<g id="viewport">
<title>crab/mutex.h</title>
<!-- Node1 -->
<g id="Node000001" class="node">
<title>Node1</title>
<g id="a_Node000001"><a xlink:title="Rust&#45;style data&#45;owning Mutex&lt;T&gt;.">
<polygon fill="#999999" stroke="#666666" points="470.88,-240.25 399.38,-240.25 399.38,-221 470.88,-221 470.88,-240.25"/>
<text text-anchor="middle" x="435.12" y="-226.75" font-family="Helvetica,sans-Serif" font-size="10.00">crab/mutex.h</text>
</a>
</g>
</g>
<!-- Node2 -->
<g id="Node000002" class="node">
<title>Node2</title>
<g id="a_Node000002"><a xlink:href="option_8h.html" target="_top" xlink:title="Ergonomic Option&lt;T&gt; type with Rust&#45;inspired monadic interface.">
<polygon fill="white" stroke="#666666" points="300.88,-185 229.38,-185 229.38,-165.75 300.88,-165.75 300.88,-185"/>
<text text-anchor="middle" x="265.12" y="-171.5" font-family="Helvetica,sans-Serif" font-size="10.00">crab/option.h</text>
</a>
</g>
</g>
<!-- Node1&#45;&gt;Node2 -->
<g id="edge1_Node000001_Node000002" class="edge">
<title>Node1&#45;&gt;Node2</title>
<g id="a_edge1_Node000001_Node000002"><a xlink:title=" ">
<path fill="none" stroke="#63b8ff" d="M406.29,-220.59C378.45,-211.87 336.05,-198.59 304.99,-188.86"/>
<polygon fill="#63b8ff" stroke="#63b8ff" points="306.14,-185.55 295.55,-185.9 304.05,-192.23 306.14,-185.55"/>
</a>
</g>
</g>
<!-- Node3 -->
<g id="Node000003" class="node">
<title>Node3</title>
<g id="a_Node000003"><a xlink:href="macros_8h.html" target="_top" xlink:title="CrabLib assertion and utility macros.">
<polygon fill="white" stroke="#666666" points="89.88,-74.5 12.38,-74.5 12.38,-55.25 89.88,-55.25 89.88,-74.5"/>
<text text-anchor="middle" x="51.12" y="-61" font-family="Helvetica,sans-Serif" font-size="10.00">crab/macros.h</text>
</a>
</g>
</g>
<!-- Node1&#45;&gt;Node3 -->
<g id="edge18_Node000001_Node000003" class="edge">
<title>Node1&#45;&gt;Node3</title>
<g id="a_edge18_Node000001_Node000003"><a xlink:title=" ">
<path fill="none" stroke="#63b8ff" d="M398.93,-225.74C312.11,-215.61 96.13,-185.21 54.12,-129.75 44.79,-117.42 44.72,-99.59 46.61,-85.9"/>
<polygon fill="#63b8ff" stroke="#63b8ff" points="50.01,-86.72 48.4,-76.25 43.13,-85.44 50.01,-86.72"/>
</a>
</g>
</g>
<!-- Node12 -->
<g id="Node000012" class="node">
<title>Node12</title>
<g id="a_Node000012"><a xlink:title=" ">
<polygon fill="#e0e0e0" stroke="#999999" points="450.38,-74.5 411.88,-74.5 411.88,-55.25 450.38,-55.25 450.38,-74.5"/>
<text text-anchor="middle" x="431.12" y="-61" font-family="Helvetica,sans-Serif" font-size="10.00">utility</text>
</a>
</g>
</g>
<!-- Node1&#45;&gt;Node12 -->
<g id="edge21_Node000001_Node000012" class="edge">
<title>Node1&#45;&gt;Node12</title>
<g id="a_edge21_Node000001_Node000012"><a xlink:title=" ">
<path fill="none" stroke="#63b8ff" d="M434.91,-220.82C434.29,-195.5 432.5,-122 431.62,-86.09"/>
<polygon fill="#63b8ff" stroke="#63b8ff" points="435.12,-86.15 431.38,-76.24 428.12,-86.32 435.12,-86.15"/>
</a>
</g>
</g>
<!-- Node15 -->
<g id="Node000015" class="node">
<title>Node15</title>
<g id="a_Node000015"><a xlink:title=" ">
<polygon fill="#e0e0e0" stroke="#999999" points="508.75,-185 463.5,-185 463.5,-165.75 508.75,-165.75 508.75,-185"/>
<text text-anchor="middle" x="486.12" y="-171.5" font-family="Helvetica,sans-Serif" font-size="10.00">chrono</text>
</a>
</g>
</g>
<!-- Node1&#45;&gt;Node15 -->
<g id="edge19_Node000001_Node000015" class="edge">
<title>Node1&#45;&gt;Node15</title>
<g id="a_edge19_Node000001_Node000015"><a xlink:title=" ">
<path fill="none" stroke="#63b8ff" d="M443.55,-220.83C450.66,-213.4 461.07,-202.54 469.81,-193.41"/>
<polygon fill="#63b8ff" stroke="#63b8ff" points="472.08,-196.1 476.47,-186.45 467.03,-191.25 472.08,-196.1"/>
</a>
</g>
</g>
<!-- Node16 -->
<g id="Node000016" class="node">
<title>Node16</title>
<g id="a_Node000016"><a xlink:title=" ">
<polygon fill="#e0e0e0" stroke="#999999" points="569.25,-185 527,-185 527,-165.75 569.25,-165.75 569.25,-185"/>
<text text-anchor="middle" x="548.12" y="-171.5" font-family="Helvetica,sans-Serif" font-size="10.00">mutex</text>
</a>
</g>
</g>
<!-- Node1&#45;&gt;Node16 -->
<g id="edge20_Node000001_Node000016" class="edge">
<title>Node1&#45;&gt;Node16</title>
<g id="a_edge20_Node000001_Node000016"><a xlink:title=" ">
<path fill="none" stroke="#63b8ff" d="M454.29,-220.59C471.91,-212.29 498.28,-199.86 518.59,-190.29"/>
<polygon fill="#63b8ff" stroke="#63b8ff" points="519.94,-193.53 527.49,-186.1 516.95,-187.19 519.94,-193.53"/>
</a>
</g>
</g>
<!-- Node2&#45;&gt;Node3 -->
<g id="edge2_Node000002_Node000003" class="edge">
<title>Node2&#45;&gt;Node3</title>
<g id="a_edge2_Node000002_Node000003"><a xlink:title=" ">
<path fill="none" stroke="#63b8ff" d="M228.97,-170.46C179.1,-164.36 92.8,-151.01 70.12,-129.75 58.12,-118.49 53.59,-100.01 51.93,-85.81"/>
<polygon fill="#63b8ff" stroke="#63b8ff" points="55.45,-85.96 51.22,-76.24 48.47,-86.48 55.45,-85.96"/>
</a>
</g>
</g>
<!-- Node6 -->
<g id="Node000006" class="node">
<title>Node6</title>
<g id="a_Node000006"><a xlink:href="error__types_8h.html" target="_top" xlink:title="Common error types for CrabLib Result&lt;T, E&gt;.">
<polygon fill="white" stroke="#666666" points="251.75,-74.5 158.5,-74.5 158.5,-55.25 251.75,-55.25 251.75,-74.5"/>
<text text-anchor="middle" x="205.12" y="-61" font-family="Helvetica,sans-Serif" font-size="10.00">crab/error_types.h</text>
</a>
</g>
</g>
<!-- Node2&#45;&gt;Node6 -->
<g id="edge5_Node000002_Node000006" class="edge">
<title>Node2&#45;&gt;Node6</title>
<g id="a_edge5_Node000002_Node000006"><a xlink:title=" ">
<path fill="none" stroke="#63b8ff" d="M260.21,-165.5C250.5,-147.93 228.65,-108.41 215.57,-84.77"/>
<polygon fill="#63b8ff" stroke="#63b8ff" points="218.74,-83.26 210.84,-76.2 212.61,-86.65 218.74,-83.26"/>
</a>
</g>
</g>
<!-- Node9 -->
<g id="Node000009" class="node">
<title>Node9</title>
<g id="a_Node000009"><a xlink:title=" ">
<polygon fill="#e0e0e0" stroke="#999999" points="137.12,-129.75 79.12,-129.75 79.12,-110.5 137.12,-110.5 137.12,-129.75"/>
<text text-anchor="middle" x="108.12" y="-116.25" font-family="Helvetica,sans-Serif" font-size="10.00">functional</text>
</a>
</g>
</g>
<!-- Node2&#45;&gt;Node9 -->
<g id="edge8_Node000002_Node000009" class="edge">
<title>Node2&#45;&gt;Node9</title>
<g id="a_edge8_Node000002_Node000009"><a xlink:title=" ">
<path fill="none" stroke="#63b8ff" d="M238.49,-165.34C213,-156.7 174.31,-143.57 145.7,-133.87"/>
<polygon fill="#63b8ff" stroke="#63b8ff" points="146.92,-130.59 136.32,-130.69 144.67,-137.22 146.92,-130.59"/>
</a>
</g>
</g>
<!-- Node10 -->
<g id="Node000010" class="node">
<title>Node10</title>
<g id="a_Node000010"><a xlink:title=" ">
<polygon fill="#e0e0e0" stroke="#999999" points="205,-129.75 155.25,-129.75 155.25,-110.5 205,-110.5 205,-129.75"/>
<text text-anchor="middle" x="180.12" y="-116.25" font-family="Helvetica,sans-Serif" font-size="10.00">optional</text>
</a>
</g>
</g>
<!-- Node2&#45;&gt;Node10 -->
<g id="edge9_Node000002_Node000010" class="edge">
<title>Node2&#45;&gt;Node10</title>
<g id="a_edge9_Node000002_Node000010"><a xlink:title=" ">
<path fill="none" stroke="#63b8ff" d="M250.71,-165.34C238.01,-157.39 219.25,-145.64 204.27,-136.25"/>
<polygon fill="#63b8ff" stroke="#63b8ff" points="206.23,-133.35 195.9,-131.01 202.51,-139.28 206.23,-133.35"/>
</a>
</g>
</g>
<!-- Node11 -->
<g id="Node000011" class="node">
<title>Node11</title>
<g id="a_Node000011"><a xlink:title=" ">
<polygon fill="#e0e0e0" stroke="#999999" points="393.62,-74.5 332.62,-74.5 332.62,-55.25 393.62,-55.25 393.62,-74.5"/>
<text text-anchor="middle" x="363.12" y="-61" font-family="Helvetica,sans-Serif" font-size="10.00">type_traits</text>
</a>
</g>
</g>
<!-- Node2&#45;&gt;Node11 -->
<g id="edge10_Node000002_Node000011" class="edge">
<title>Node2&#45;&gt;Node11</title>
<g id="a_edge10_Node000002_Node000011"><a xlink:title=" ">
<path fill="none" stroke="#63b8ff" d="M289.05,-165.27C305.46,-157.92 326.63,-146.11 340.12,-129.75 350.58,-117.08 356.47,-99.28 359.66,-85.69"/>
<polygon fill="#63b8ff" stroke="#63b8ff" points="363.04,-86.63 361.59,-76.14 356.18,-85.24 363.04,-86.63"/>
</a>
</g>
</g>
<!-- Node2&#45;&gt;Node12 -->
<g id="edge11_Node000002_Node000012" class="edge">
<title>Node2&#45;&gt;Node12</title>
<g id="a_edge11_Node000002_Node000012"><a xlink:title=" ">
<path fill="none" stroke="#63b8ff" d="M289.18,-165.37C309.03,-157.42 337.5,-144.76 360.12,-129.75 380.75,-116.06 401.47,-96.62 415.15,-82.78"/>
<polygon fill="#63b8ff" stroke="#63b8ff" points="417.56,-85.32 422.01,-75.71 412.54,-80.45 417.56,-85.32"/>
</a>
</g>
</g>
<!-- Node13 -->
<g id="Node000013" class="node">
<title>Node13</title>
<g id="a_Node000013"><a xlink:href="result_8h.html" target="_top" xlink:title="Rust&#45;inspired Result&lt;T, E&gt; type for error handling without exceptions.">
<polygon fill="white" stroke="#666666" points="330.75,-129.75 261.5,-129.75 261.5,-110.5 330.75,-110.5 330.75,-129.75"/>
<text text-anchor="middle" x="296.12" y="-116.25" font-family="Helvetica,sans-Serif" font-size="10.00">crab/result.h</text>
</a>
</g>
</g>
<!-- Node2&#45;&gt;Node13 -->
<g id="edge12_Node000002_Node000013" class="edge">
<title>Node2&#45;&gt;Node13</title>
<g id="a_edge12_Node000002_Node000013"><a xlink:title=" ">
<path fill="none" stroke="#63b8ff" d="M270.24,-165.58C274.3,-158.61 280.12,-148.62 285.21,-139.87"/>
<polygon fill="#63b8ff" stroke="#63b8ff" points="288.13,-141.82 290.13,-131.42 282.08,-138.3 288.13,-141.82"/>
</a>
</g>
</g>
<!-- Node4 -->
<g id="Node000004" class="node">
<title>Node4</title>
<g id="a_Node000004"><a xlink:title=" ">
<polygon fill="#e0e0e0" stroke="#999999" points="42.25,-19.25 0,-19.25 0,0 42.25,0 42.25,-19.25"/>
<text text-anchor="middle" x="21.12" y="-5.75" font-family="Helvetica,sans-Serif" font-size="10.00">cstdio</text>
</a>
</g>
</g>
<!-- Node3&#45;&gt;Node4 -->
<g id="edge3_Node000003_Node000004" class="edge">
<title>Node3&#45;&gt;Node4</title>
<g id="a_edge3_Node000003_Node000004"><a xlink:title=" ">
<path fill="none" stroke="#63b8ff" d="M46.17,-55.08C42.24,-48.11 36.61,-38.12 31.69,-29.37"/>
<polygon fill="#63b8ff" stroke="#63b8ff" points="34.89,-27.92 26.93,-20.93 28.79,-31.36 34.89,-27.92"/>
</a>
</g>
</g>
<!-- Node5 -->
<g id="Node000005" class="node">
<title>Node5</title>
<g id="a_Node000005"><a xlink:title=" ">
<polygon fill="#e0e0e0" stroke="#999999" points="104.38,-19.25 59.88,-19.25 59.88,0 104.38,0 104.38,-19.25"/>
<text text-anchor="middle" x="82.12" y="-5.75" font-family="Helvetica,sans-Serif" font-size="10.00">cstdlib</text>
</a>
</g>
</g>
<!-- Node3&#45;&gt;Node5 -->
<g id="edge4_Node000003_Node000005" class="edge">
<title>Node3&#45;&gt;Node5</title>
<g id="a_edge4_Node000003_Node000005"><a xlink:title=" ">
<path fill="none" stroke="#63b8ff" d="M56.24,-55.08C60.3,-48.11 66.12,-38.12 71.21,-29.37"/>
<polygon fill="#63b8ff" stroke="#63b8ff" points="74.13,-31.32 76.13,-20.92 68.08,-27.8 74.13,-31.32"/>
</a>
</g>
</g>
<!-- Node7 -->
<g id="Node000007" class="node">
<title>Node7</title>
<g id="a_Node000007"><a xlink:title=" ">
<polygon fill="#e0e0e0" stroke="#999999" points="200.25,-19.25 152,-19.25 152,0 200.25,0 200.25,-19.25"/>
<text text-anchor="middle" x="176.12" y="-5.75" font-family="Helvetica,sans-Serif" font-size="10.00">cstddef</text>
</a>
</g>
</g>
<!-- Node6&#45;&gt;Node7 -->
<g id="edge6_Node000006_Node000007" class="edge">
<title>Node6&#45;&gt;Node7</title>
<g id="a_edge6_Node000006_Node000007"><a xlink:title=" ">
<path fill="none" stroke="#63b8ff" d="M200.34,-55.08C196.58,-48.19 191.22,-38.34 186.49,-29.66"/>
<polygon fill="#63b8ff" stroke="#63b8ff" points="189.6,-28.05 181.74,-20.94 183.45,-31.39 189.6,-28.05"/>
</a>
</g>
</g>
<!-- Node8 -->
<g id="Node000008" class="node">
<title>Node8</title>
<g id="a_Node000008"><a xlink:title=" ">
<polygon fill="#e0e0e0" stroke="#999999" points="263.75,-19.25 218.5,-19.25 218.5,0 263.75,0 263.75,-19.25"/>
<text text-anchor="middle" x="241.12" y="-5.75" font-family="Helvetica,sans-Serif" font-size="10.00">cstdint</text>
</a>
</g>
</g>
<!-- Node6&#45;&gt;Node8 -->
<g id="edge7_Node000006_Node000008" class="edge">
<title>Node6&#45;&gt;Node8</title>
<g id="a_edge7_Node000006_Node000008"><a xlink:title=" ">
<path fill="none" stroke="#63b8ff" d="M211.07,-55.08C215.84,-48.03 222.69,-37.9 228.65,-29.08"/>
<polygon fill="#63b8ff" stroke="#63b8ff" points="231.5,-31.11 234.2,-20.86 225.7,-27.19 231.5,-31.11"/>
</a>
</g>
</g>
<!-- Node13&#45;&gt;Node3 -->
<g id="edge13_Node000013_Node000003" class="edge">
<title>Node13&#45;&gt;Node3</title>
<g id="a_edge13_Node000013_Node000003"><a xlink:title=" ">
<path fill="none" stroke="#63b8ff" d="M261.02,-111.5C219.13,-102.39 148.78,-87.1 101.19,-76.76"/>
<polygon fill="#63b8ff" stroke="#63b8ff" points="102.21,-73.4 91.69,-74.69 100.72,-80.24 102.21,-73.4"/>
</a>
</g>
</g>
<!-- Node13&#45;&gt;Node6 -->
<g id="edge14_Node000013_Node000006" class="edge">
<title>Node13&#45;&gt;Node6</title>
<g id="a_edge14_Node000013_Node000006"><a xlink:title=" ">
<path fill="none" stroke="#63b8ff" d="M280.69,-110.09C266.96,-102.06 246.63,-90.16 230.51,-80.73"/>
<polygon fill="#63b8ff" stroke="#63b8ff" points="232.34,-77.75 221.94,-75.72 228.81,-83.79 232.34,-77.75"/>
</a>
</g>
</g>
<!-- Node13&#45;&gt;Node11 -->
<g id="edge15_Node000013_Node000011" class="edge">
<title>Node13&#45;&gt;Node11</title>
<g id="a_edge15_Node000013_Node000011"><a xlink:title=" ">
<path fill="none" stroke="#63b8ff" d="M307.49,-110.09C317.17,-102.4 331.32,-91.15 342.93,-81.93"/>
<polygon fill="#63b8ff" stroke="#63b8ff" points="345.09,-84.68 350.74,-75.72 340.74,-79.2 345.09,-84.68"/>
</a>
</g>
</g>
<!-- Node13&#45;&gt;Node12 -->
<g id="edge16_Node000013_Node000012" class="edge">
<title>Node13&#45;&gt;Node12</title>
<g id="a_edge16_Node000013_Node000012"><a xlink:title=" ">
<path fill="none" stroke="#63b8ff" d="M319.03,-110.09C341.6,-101.19 376.21,-87.54 401,-77.76"/>
<polygon fill="#63b8ff" stroke="#63b8ff" points="402.2,-81.05 410.22,-74.12 399.63,-74.54 402.2,-81.05"/>
</a>
</g>
</g>
<!-- Node14 -->
<g id="Node000014" class="node">
<title>Node14</title>
<g id="a_Node000014"><a xlink:title=" ">
<polygon fill="#e0e0e0" stroke="#999999" points="314.75,-74.5 269.5,-74.5 269.5,-55.25 314.75,-55.25 314.75,-74.5"/>
<text text-anchor="middle" x="292.12" y="-61" font-family="Helvetica,sans-Serif" font-size="10.00">variant</text>
</a>
</g>
</g>
<!-- Node13&#45;&gt;Node14 -->
<g id="edge17_Node000013_Node000014" class="edge">
<title>Node13&#45;&gt;Node14</title>
<g id="a_edge17_Node000013_Node000014"><a xlink:title=" ">
<path fill="none" stroke="#63b8ff" d="M295.46,-110.33C294.97,-103.74 294.27,-94.46 293.64,-86.07"/>
<polygon fill="#63b8ff" stroke="#63b8ff" points="297.15,-86.08 292.91,-76.37 290.17,-86.6 297.15,-86.08"/>
</a>
</g>
</g>
</g>
</svg>

<g id="navigator" transform="translate(0 0)" fill="#404254">
  <rect fill="#f2f5e9" fill-opacity="0.5" stroke="#606060" stroke-width=".5" x="0" y="0" width="60" height="60"/>
  <use id="zoomplus" xlink:href="#zoomPlus" x="17" y="9" onmousedown="handleZoom(evt,'in')"/>
  <use id="zoomminus" xlink:href="#zoomMin" x="42" y="9" onmousedown="handleZoom(evt,'out')"/>
  <use id="reset" xlink:href="#resetDef" x="30" y="36" onmousedown="handleReset()"/>
   <use id="arrowup" xlink:href="#arrowUp" x="0" y="0" onmousedown="handlePan(0,-1)"/>
  <use id="arrowright" xlink:href="#arrowRight" x="0" y="0" onmousedown="handlePan(1,0)"/>
  <use id="arrowdown" xlink:href="#arrowDown" x="0" y="0" onmousedown="handlePan(0,1)"/>
  <use id="arrowleft" xlink:href="#arrowLeft" x="0" y="0" onmousedown="handlePan(-1,0)"/>
</g>
<svg viewBox="0 0 15 15" width="100%" height="30px" preserveAspectRatio="xMaxYMin meet">
 <g id="arrow_out" transform="scale(0.3 0.3)">
  <a xlink:href="mutex_8h__incl_org.svg" target="_base">
   <rect id="button" ry="5" rx="5" y="6" x="6" height="38" width="38"
        fill="#f2f5e9" fill-opacity="0.5" stroke="#606060" stroke-width="1.0"/>
   <path id="arrow"
     d="M 11.500037,31.436501 C 11.940474,20.09759 22.043105,11.32322 32.158766,21.979434 L 37.068811,17.246167 C 37.068811,17.246167 37.088388,32 37.088388,32 L 22.160133,31.978069 C 22.160133,31.978069 26.997745,27.140456 26.997745,27.140456 C 18.528582,18.264221 13.291696,25.230495 11.500037,31.436501 z"
     style="fill:#404040;"/>
  </a>
 </g>
</svg>

<style type='text/css'>
<![CDATA[
[data-mouse-over-selected='false'] { opacity: 0.7; }
[data-mouse-over-selected='true']  { opacity: 1.0; }
]]>
</style>
<script type="application/ecmascript"><![CDATA[
document.addEventListener('DOMContentLoaded', (event) => {
  highlightEdges();
  highlightAdjacentNodes();
});
]]></script>
</svg>
