<?xml version="1.0" encoding="UTF-8" standalone="no"?>
<!DOCTYPE svg PUBLIC "-//W3C//DTD SVG 1.1//EN"
 "http://www.w3.org/Graphics/SVG/1.1/DTD/svg11.dtd">
<!-- Generated by graphviz version 12.2.0 (20241103.1931)
 -->
<!-- Title: crab::Ok Pages: 1 -->
<!--zoomable 679 -->

<svg id="main" version="1.1" xmlns="http://www.w3.org/2000/svg" xmlns:xlink="http://www.w3.org/1999/xlink" xml:space="preserve" onload="init(evt)">

<style type="text/css"><![CDATA[
.node, .edge {opacity: 0.7;}
.node.selected, .edge.selected {opacity: 1;}
.edge:hover path { stroke: red; }
.edge:hover polygon { stroke: red; fill: red; }
]]></style>

<defs>
  <circle id="rim" cx="0" cy="0" r="7"/>
  <circle id="rim2" cx="0" cy="0" r="3.5"/>
  <g id="zoomPlus">
    <use xlink:href="#rim" fill="#404040"><set attributeName="fill" to="#808080" begin="zoomplus.mouseover" end="zoomplus.mouseout"/></use>
    <path d="M-4,0h8M0,-4v8" fill="none" stroke="white" stroke-width="1.5" pointer-events="none"/>
  </g>
  <g id="zoomMin">
    <use xlink:href="#rim" fill="#404040"><set attributeName="fill" to="#808080" begin="zoomminus.mouseover" end="zoomminus.mouseout"/></use>
    <path d="M-4,0h8" fill="none" stroke="white" stroke-width="1.5" pointer-events="none"/>
  </g>
  <g id="arrowUp" transform="translate(30 24)">
    <use xlink:href="#rim"/>
    <path pointer-events="none" fill="none" stroke="white" stroke-width="1.5" d="M0,-3.0v7 M-2.5,-0.5L0,-3.0L2.5,-0.5"/>
  </g>
  <g id="arrowRight" transform="rotate(90) translate(36 -43)">
    <use xlink:href="#rim"/>
    <path pointer-events="none" fill="none" stroke="white" stroke-width="1.5" d="M0,-3.0v7 M-2.5,-0.5L0,-3.0L2.5,-0.5"/>
  </g>
  <g id="arrowDown" transform="rotate(180) translate(-30 -48)">
    <use xlink:href="#rim"/>
    <path pointer-events="none" fill="none" stroke="white" stroke-width="1.5" d="M0,-3.0v7 M-2.5,-0.5L0,-3.0L2.5,-0.5"/>
  </g>
  <g id="arrowLeft" transform="rotate(270) translate(-36 17)">
    <use xlink:href="#rim"/>
    <path pointer-events="none" fill="none" stroke="white" stroke-width="1.5" d="M0,-3.0v7 M-2.5,-0.5L0,-3.0L2.5,-0.5"/>
  </g>
  <g id="resetDef">
    <use xlink:href="#rim2" fill="#404040"><set attributeName="fill" to="#808080" begin="reset.mouseover" end="reset.mouseout"/></use>
  </g>
</defs>
<script type="application/ecmascript">
var viewWidth = 216;
var viewHeight = 679;
var sectionId = 'dynsection-1';
</script>
<script type="application/ecmascript" xlink:href="svg.min.js"/>
<svg id="graph" class="graph">
<g id="viewport">
<title>crab::Ok</title>
<!-- Node1 -->
<g id="Node000001" class="node">
<title>Node1</title>
<g id="a_Node000001"><a xlink:title="Factory function for Ok with void/Unit result.">
<polygon fill="#999999" stroke="#666666" points="207.5,-374.88 155.5,-374.88 155.5,-355.62 207.5,-355.62 207.5,-374.88"/>
<text text-anchor="middle" x="181.5" y="-361.38" font-family="Helvetica,sans-Serif" font-size="10.00">crab::Ok</text>
</a>
</g>
</g>
<!-- Node2 -->
<g id="Node000002" class="node">
<title>Node2</title>
<g id="a_Node000002"><a xlink:href="classcrab_1_1Slice.html#ad3f4a3d68c44d5a3bc865f4e4c087882" target="_top" xlink:title="Copy from another slice into this one.">
<polygon fill="white" stroke="#666666" points="115,-670.88 4.5,-670.88 4.5,-651.62 115,-651.62 115,-670.88"/>
<text text-anchor="middle" x="59.75" y="-657.38" font-family="Helvetica,sans-Serif" font-size="10.00">crab::Slice::copy_from</text>
</a>
</g>
</g>
<!-- Node1&#45;&gt;Node2 -->
<g id="edge1_Node000001_Node000002" class="edge">
<title>Node1&#45;&gt;Node2</title>
<g id="a_edge1_Node000001_Node000002"><a xlink:title=" ">
<path fill="none" stroke="#63b8ff" d="M178.56,-386.71C172.88,-445.17 154.37,-605.42 119.5,-643.25 116.61,-646.39 113.19,-648.98 109.47,-651.13"/>
<polygon fill="#63b8ff" stroke="#63b8ff" points="182.05,-387.08 179.5,-376.79 175.08,-386.42 182.05,-387.08"/>
</a>
</g>
</g>
<!-- Node3 -->
<g id="Node000003" class="node">
<title>Node3</title>
<g id="a_Node000003"><a xlink:href="classcrab_1_1Slice.html#a9a92f0ef4f8d96bc31f0b73ffd110c5e" target="_top" xlink:title="Copy contents to another slice.">
<polygon fill="white" stroke="#666666" points="109.38,-633.88 10.12,-633.88 10.12,-614.62 109.38,-614.62 109.38,-633.88"/>
<text text-anchor="middle" x="59.75" y="-620.38" font-family="Helvetica,sans-Serif" font-size="10.00">crab::Slice::copy_to</text>
</a>
</g>
</g>
<!-- Node1&#45;&gt;Node3 -->
<g id="edge2_Node000001_Node000003" class="edge">
<title>Node1&#45;&gt;Node3</title>
<g id="a_edge2_Node000001_Node000003"><a xlink:title=" ">
<path fill="none" stroke="#63b8ff" d="M177.79,-386.61C170.69,-439.43 149.94,-574.26 119.5,-606.25 116.48,-609.42 112.93,-612.03 109.08,-614.19"/>
<polygon fill="#63b8ff" stroke="#63b8ff" points="181.25,-387.18 179.07,-376.82 174.31,-386.28 181.25,-387.18"/>
</a>
</g>
</g>
<!-- Node4 -->
<g id="Node000004" class="node">
<title>Node4</title>
<g id="a_Node000004"><a xlink:href="classcrab_1_1Slice.html#aa7d93746087031a239ad7498e3fc40ae" target="_top" xlink:title=" ">
<polygon fill="white" stroke="#666666" points="99.25,-596.88 20.25,-596.88 20.25,-577.62 99.25,-577.62 99.25,-596.88"/>
<text text-anchor="middle" x="59.75" y="-583.38" font-family="Helvetica,sans-Serif" font-size="10.00">crab::Slice::get</text>
</a>
</g>
</g>
<!-- Node1&#45;&gt;Node4 -->
<g id="edge3_Node000001_Node000004" class="edge">
<title>Node1&#45;&gt;Node4</title>
<g id="a_edge3_Node000001_Node000004"><a xlink:title=" ">
<path fill="none" stroke="#63b8ff" d="M180.39,-386.4C179.01,-427.45 170.04,-518.37 119.5,-569.25 114.01,-574.78 106.88,-578.61 99.48,-581.28"/>
<polygon fill="#63b8ff" stroke="#63b8ff" points="183.89,-386.51 180.59,-376.45 176.89,-386.38 183.89,-386.51"/>
</a>
</g>
</g>
<!-- Node5 -->
<g id="Node000005" class="node">
<title>Node5</title>
<g id="a_Node000005"><a xlink:href="classcrab_1_1Slice.html#af2c91da11311a6356400f592dddc047e" target="_top" xlink:title="Get element with bounds checking, returning Result.">
<polygon fill="white" stroke="#666666" points="99.25,-559.88 20.25,-559.88 20.25,-540.62 99.25,-540.62 99.25,-559.88"/>
<text text-anchor="middle" x="59.75" y="-546.38" font-family="Helvetica,sans-Serif" font-size="10.00">crab::Slice::get</text>
</a>
</g>
</g>
<!-- Node1&#45;&gt;Node5 -->
<g id="edge4_Node000001_Node000005" class="edge">
<title>Node1&#45;&gt;Node5</title>
<g id="a_edge4_Node000001_Node000005"><a xlink:title=" ">
<path fill="none" stroke="#63b8ff" d="M178.72,-386.43C174.63,-421.71 161.39,-492.52 119.5,-532.25 113.93,-537.54 106.84,-541.27 99.54,-543.91"/>
<polygon fill="#63b8ff" stroke="#63b8ff" points="182.19,-386.97 179.7,-376.67 175.22,-386.27 182.19,-386.97"/>
</a>
</g>
</g>
<!-- Node6 -->
<g id="Node000006" class="node">
<title>Node6</title>
<g id="a_Node000006"><a xlink:href="classcrab_1_1StaticVector.html#a0bcb3167ad24abc5702bb4c62c4d5312" target="_top" xlink:title=" ">
<polygon fill="white" stroke="#666666" points="115.38,-522.88 4.12,-522.88 4.12,-503.62 115.38,-503.62 115.38,-522.88"/>
<text text-anchor="middle" x="59.75" y="-509.38" font-family="Helvetica,sans-Serif" font-size="10.00">crab::StaticVector::get</text>
</a>
</g>
</g>
<!-- Node1&#45;&gt;Node6 -->
<g id="edge5_Node000001_Node000006" class="edge">
<title>Node1&#45;&gt;Node6</title>
<g id="a_edge5_Node000001_Node000006"><a xlink:title=" ">
<path fill="none" stroke="#63b8ff" d="M176.26,-386.15C169.36,-414.85 152.96,-466.22 119.5,-495.25 115.87,-498.4 111.71,-500.99 107.3,-503.13"/>
<polygon fill="#63b8ff" stroke="#63b8ff" points="179.65,-387.03 178.4,-376.51 172.82,-385.52 179.65,-387.03"/>
</a>
</g>
</g>
<!-- Node7 -->
<g id="Node000007" class="node">
<title>Node7</title>
<g id="a_Node000007"><a xlink:href="classcrab_1_1StaticVector.html#afe957ae73c8c56d29d881483d9fd17a8" target="_top" xlink:title="Access element with bounds checking, returning Result.">
<polygon fill="white" stroke="#666666" points="115.38,-485.88 4.12,-485.88 4.12,-466.62 115.38,-466.62 115.38,-485.88"/>
<text text-anchor="middle" x="59.75" y="-472.38" font-family="Helvetica,sans-Serif" font-size="10.00">crab::StaticVector::get</text>
</a>
</g>
</g>
<!-- Node1&#45;&gt;Node7 -->
<g id="edge6_Node000001_Node000007" class="edge">
<title>Node1&#45;&gt;Node7</title>
<g id="a_edge6_Node000001_Node000007"><a xlink:title=" ">
<path fill="none" stroke="#63b8ff" d="M172.14,-385.73C162.49,-406.88 144.65,-439.38 119.5,-458.25 115.32,-461.39 110.59,-463.98 105.67,-466.13"/>
<polygon fill="#63b8ff" stroke="#63b8ff" points="175.29,-387.27 176.05,-376.7 168.86,-384.49 175.29,-387.27"/>
</a>
</g>
</g>
<!-- Node8 -->
<g id="Node000008" class="node">
<title>Node8</title>
<g id="a_Node000008"><a xlink:href="classcrab_1_1Result.html#aa08cb687a10dd2001de662e4aa790075" target="_top" xlink:title="Transform the Ok value.">
<polygon fill="white" stroke="#666666" points="104.88,-448.88 14.62,-448.88 14.62,-429.62 104.88,-429.62 104.88,-448.88"/>
<text text-anchor="middle" x="59.75" y="-435.38" font-family="Helvetica,sans-Serif" font-size="10.00">crab::Result::map</text>
</a>
</g>
</g>
<!-- Node1&#45;&gt;Node8 -->
<g id="edge7_Node000001_Node000008" class="edge">
<title>Node1&#45;&gt;Node8</title>
<g id="a_edge7_Node000001_Node000008"><a xlink:title=" ">
<path fill="none" stroke="#63b8ff" d="M164.7,-383.52C153.25,-395.74 136.8,-411.35 119.5,-421.25 114.04,-424.38 107.97,-427.02 101.87,-429.23"/>
<polygon fill="#63b8ff" stroke="#63b8ff" points="167.3,-385.87 171.4,-376.1 162.1,-381.18 167.3,-385.87"/>
</a>
</g>
</g>
<!-- Node9 -->
<g id="Node000009" class="node">
<title>Node9</title>
<g id="a_Node000009"><a xlink:href="classcrab_1_1Result.html#aef6f3c26a03ce5ff94c4f5307f711aa8" target="_top" xlink:title="Transform the Err value.">
<polygon fill="white" stroke="#666666" points="113.12,-411.88 6.38,-411.88 6.38,-392.62 113.12,-392.62 113.12,-411.88"/>
<text text-anchor="middle" x="59.75" y="-398.38" font-family="Helvetica,sans-Serif" font-size="10.00">crab::Result::map_err</text>
</a>
</g>
</g>
<!-- Node1&#45;&gt;Node9 -->
<g id="edge8_Node000001_Node000009" class="edge">
<title>Node1&#45;&gt;Node9</title>
<g id="a_edge8_Node000001_Node000009"><a xlink:title=" ">
<path fill="none" stroke="#63b8ff" d="M144.48,-376.5C136.27,-379.05 127.59,-381.75 119.5,-384.25 111.14,-386.83 102.11,-389.61 93.7,-392.19"/>
<polygon fill="#63b8ff" stroke="#63b8ff" points="145.33,-379.9 153.84,-373.58 143.25,-373.22 145.33,-379.9"/>
</a>
</g>
</g>
<!-- Node10 -->
<g id="Node000010" class="node">
<title>Node10</title>
<g id="a_Node000010"><a xlink:href="classcrab_1_1Option.html#aebd6edb5be68600c06359059d5d56c20" target="_top" xlink:title="Convert to Result, using provided error if None.">
<polygon fill="white" stroke="#666666" points="107.88,-374.88 11.62,-374.88 11.62,-355.62 107.88,-355.62 107.88,-374.88"/>
<text text-anchor="middle" x="59.75" y="-361.38" font-family="Helvetica,sans-Serif" font-size="10.00">crab::Option::ok_or</text>
</a>
</g>
</g>
<!-- Node1&#45;&gt;Node10 -->
<g id="edge9_Node000001_Node000010" class="edge">
<title>Node1&#45;&gt;Node10</title>
<g id="a_edge9_Node000001_Node000010"><a xlink:title=" ">
<path fill="none" stroke="#63b8ff" d="M143.6,-365.25C132.46,-365.25 120.08,-365.25 108.35,-365.25"/>
<polygon fill="#63b8ff" stroke="#63b8ff" points="143.59,-368.75 153.59,-365.25 143.59,-361.75 143.59,-368.75"/>
</a>
</g>
</g>
<!-- Node11 -->
<g id="Node000011" class="node">
<title>Node11</title>
<g id="a_Node000011"><a xlink:href="classcrab_1_1Option.html#aba045676dc5b8119e3fdf28e25acc42d" target="_top" xlink:title="Convert to Result, computing error from function if None.">
<polygon fill="white" stroke="#666666" points="119.5,-337.88 0,-337.88 0,-318.62 119.5,-318.62 119.5,-337.88"/>
<text text-anchor="middle" x="59.75" y="-324.38" font-family="Helvetica,sans-Serif" font-size="10.00">crab::Option::ok_or_else</text>
</a>
</g>
</g>
<!-- Node1&#45;&gt;Node11 -->
<g id="edge10_Node000001_Node000011" class="edge">
<title>Node1&#45;&gt;Node11</title>
<g id="a_edge10_Node000001_Node000011"><a xlink:title=" ">
<path fill="none" stroke="#63b8ff" d="M144.48,-354C136.27,-351.45 127.59,-348.75 119.5,-346.25 111.14,-343.67 102.11,-340.89 93.7,-338.31"/>
<polygon fill="#63b8ff" stroke="#63b8ff" points="143.25,-357.28 153.84,-356.92 145.33,-350.6 143.25,-357.28"/>
</a>
</g>
</g>
<!-- Node12 -->
<g id="Node000012" class="node">
<title>Node12</title>
<g id="a_Node000012"><a xlink:href="classcrab_1_1Result.html#a43b6bd6e1e2c676285eadfd00637a841" target="_top" xlink:title="Provide alternative on Err.">
<polygon fill="white" stroke="#666666" points="111.25,-300.88 8.25,-300.88 8.25,-281.62 111.25,-281.62 111.25,-300.88"/>
<text text-anchor="middle" x="59.75" y="-287.38" font-family="Helvetica,sans-Serif" font-size="10.00">crab::Result::or_else</text>
</a>
</g>
</g>
<!-- Node1&#45;&gt;Node12 -->
<g id="edge11_Node000001_Node000012" class="edge">
<title>Node1&#45;&gt;Node12</title>
<g id="a_edge11_Node000001_Node000012"><a xlink:title=" ">
<path fill="none" stroke="#63b8ff" d="M164.7,-346.98C153.25,-334.76 136.8,-319.15 119.5,-309.25 114.04,-306.12 107.97,-303.48 101.87,-301.27"/>
<polygon fill="#63b8ff" stroke="#63b8ff" points="162.1,-349.32 171.4,-354.4 167.3,-344.63 162.1,-349.32"/>
</a>
</g>
</g>
<!-- Node13 -->
<g id="Node000013" class="node">
<title>Node13</title>
<g id="a_Node000013"><a xlink:href="classcrab_1_1Slice.html#a2b8adbd65659ca1af0e77ba2f9a1ef8a" target="_top" xlink:title="Extract a subslice with bounds checking.">
<polygon fill="white" stroke="#666666" points="110.5,-263.88 9,-263.88 9,-244.62 110.5,-244.62 110.5,-263.88"/>
<text text-anchor="middle" x="59.75" y="-250.38" font-family="Helvetica,sans-Serif" font-size="10.00">crab::Slice::subslice</text>
</a>
</g>
</g>
<!-- Node1&#45;&gt;Node13 -->
<g id="edge12_Node000001_Node000013" class="edge">
<title>Node1&#45;&gt;Node13</title>
<g id="a_edge12_Node000001_Node000013"><a xlink:title=" ">
<path fill="none" stroke="#63b8ff" d="M172.14,-344.77C162.49,-323.62 144.65,-291.12 119.5,-272.25 115.32,-269.11 110.59,-266.52 105.67,-264.37"/>
<polygon fill="#63b8ff" stroke="#63b8ff" points="168.86,-346.01 176.05,-353.8 175.29,-343.23 168.86,-346.01"/>
</a>
</g>
</g>
<!-- Node14 -->
<g id="Node000014" class="node">
<title>Node14</title>
<g id="a_Node000014"><a xlink:href="classcrab_1_1StaticVector.html#a12b6faeca0b0a235efcdf9b574c5258e" target="_top" xlink:title="Construct element in&#45;place (checked).">
<polygon fill="white" stroke="#666666" points="109.38,-226.5 10.12,-226.5 10.12,-196 109.38,-196 109.38,-226.5"/>
<text text-anchor="start" x="18.12" y="-213" font-family="Helvetica,sans-Serif" font-size="10.00">crab::StaticVector</text>
<text text-anchor="middle" x="59.75" y="-201.75" font-family="Helvetica,sans-Serif" font-size="10.00">::try_emplace_back</text>
</a>
</g>
</g>
<!-- Node1&#45;&gt;Node14 -->
<g id="edge13_Node000001_Node000014" class="edge">
<title>Node1&#45;&gt;Node14</title>
<g id="a_edge13_Node000001_Node000014"><a xlink:title=" ">
<path fill="none" stroke="#63b8ff" d="M175.78,-344.35C168.37,-316.06 151.46,-265.62 119.5,-235.25 116.15,-232.06 112.31,-229.27 108.24,-226.84"/>
<polygon fill="#63b8ff" stroke="#63b8ff" points="172.32,-344.97 178.1,-353.85 179.12,-343.31 172.32,-344.97"/>
</a>
</g>
</g>
<!-- Node15 -->
<g id="Node000015" class="node">
<title>Node15</title>
<g id="a_Node000015"><a xlink:href="classcrab_1_1StaticVector.html#ad0cb121c197c9382a2de9017a7f58c7f" target="_top" xlink:title="Add element by copy (checked).">
<polygon fill="white" stroke="#666666" points="106.38,-177.5 13.12,-177.5 13.12,-147 106.38,-147 106.38,-177.5"/>
<text text-anchor="start" x="21.12" y="-164" font-family="Helvetica,sans-Serif" font-size="10.00">crab::StaticVector</text>
<text text-anchor="middle" x="59.75" y="-152.75" font-family="Helvetica,sans-Serif" font-size="10.00">::try_push_back</text>
</a>
</g>
</g>
<!-- Node1&#45;&gt;Node15 -->
<g id="edge14_Node000001_Node000015" class="edge">
<title>Node1&#45;&gt;Node15</title>
<g id="a_edge14_Node000001_Node000015"><a xlink:title=" ">
<path fill="none" stroke="#63b8ff" d="M178.78,-344.2C174.73,-307.73 161.5,-232.39 119.5,-187.25 115.8,-183.27 111.36,-179.9 106.61,-177.05"/>
<polygon fill="#63b8ff" stroke="#63b8ff" points="175.27,-344.24 179.71,-353.86 182.23,-343.56 175.27,-344.24"/>
</a>
</g>
</g>
<!-- Node16 -->
<g id="Node000016" class="node">
<title>Node16</title>
<g id="a_Node000016"><a xlink:href="classcrab_1_1StaticVector.html#a9e05dd30d9cdd69b69c09f68c1609583" target="_top" xlink:title="Add element by move (checked).">
<polygon fill="white" stroke="#666666" points="106.38,-128.5 13.12,-128.5 13.12,-98 106.38,-98 106.38,-128.5"/>
<text text-anchor="start" x="21.12" y="-115" font-family="Helvetica,sans-Serif" font-size="10.00">crab::StaticVector</text>
<text text-anchor="middle" x="59.75" y="-103.75" font-family="Helvetica,sans-Serif" font-size="10.00">::try_push_back</text>
</a>
</g>
</g>
<!-- Node1&#45;&gt;Node16 -->
<g id="edge15_Node000001_Node000016" class="edge">
<title>Node1&#45;&gt;Node16</title>
<g id="a_edge15_Node000001_Node000016"><a xlink:title=" ">
<path fill="none" stroke="#63b8ff" d="M180.67,-343.75C179.87,-299.79 172.01,-198.67 119.5,-138.25 115.86,-134.07 111.41,-130.56 106.59,-127.64"/>
<polygon fill="#63b8ff" stroke="#63b8ff" points="177.17,-343.74 180.72,-353.72 184.17,-343.7 177.17,-343.74"/>
</a>
</g>
</g>
<!-- Node17 -->
<g id="Node000017" class="node">
<title>Node17</title>
<g id="a_Node000017"><a xlink:href="classcrab_1_1StaticVector.html#acff5fdd8d064794ad1be5bb78dfe3d53" target="_top" xlink:title="Reserve capacity (no&#45;op for StaticVector).">
<polygon fill="white" stroke="#666666" points="106.38,-79.5 13.12,-79.5 13.12,-49 106.38,-49 106.38,-79.5"/>
<text text-anchor="start" x="21.12" y="-66" font-family="Helvetica,sans-Serif" font-size="10.00">crab::StaticVector</text>
<text text-anchor="middle" x="59.75" y="-54.75" font-family="Helvetica,sans-Serif" font-size="10.00">::try_reserve</text>
</a>
</g>
</g>
<!-- Node1&#45;&gt;Node17 -->
<g id="edge16_Node000001_Node000017" class="edge">
<title>Node1&#45;&gt;Node17</title>
<g id="a_edge16_Node000001_Node000017"><a xlink:title=" ">
<path fill="none" stroke="#63b8ff" d="M178.33,-344.13C172.04,-286.56 152.14,-128.56 119.5,-89.25 115.96,-84.99 111.56,-81.43 106.77,-78.48"/>
<polygon fill="#63b8ff" stroke="#63b8ff" points="174.83,-344.29 179.37,-353.87 181.79,-343.55 174.83,-344.29"/>
</a>
</g>
</g>
<!-- Node18 -->
<g id="Node000018" class="node">
<title>Node18</title>
<g id="a_Node000018"><a xlink:href="classcrab_1_1StaticVector.html#af97f85cef5d59566c87d78ed2a3eee96" target="_top" xlink:title="Resize the vector.">
<polygon fill="white" stroke="#666666" points="106.38,-30.5 13.12,-30.5 13.12,0 106.38,0 106.38,-30.5"/>
<text text-anchor="start" x="21.12" y="-17" font-family="Helvetica,sans-Serif" font-size="10.00">crab::StaticVector</text>
<text text-anchor="middle" x="59.75" y="-5.75" font-family="Helvetica,sans-Serif" font-size="10.00">::try_resize</text>
</a>
</g>
</g>
<!-- Node1&#45;&gt;Node18 -->
<g id="edge17_Node000001_Node000018" class="edge">
<title>Node1&#45;&gt;Node18</title>
<g id="a_edge17_Node000001_Node000018"><a xlink:title=" ">
<path fill="none" stroke="#63b8ff" d="M179.09,-343.86C174.42,-279.26 157.6,-87.66 119.5,-40.25 115.96,-35.84 111.5,-32.2 106.62,-29.19"/>
<polygon fill="#63b8ff" stroke="#63b8ff" points="175.59,-344.07 179.77,-353.81 182.57,-343.59 175.59,-344.07"/>
</a>
</g>
</g>
</g>
</svg>

<g id="navigator" transform="translate(0 0)" fill="#404254">
  <rect fill="#f2f5e9" fill-opacity="0.5" stroke="#606060" stroke-width=".5" x="0" y="0" width="60" height="60"/>
  <use id="zoomplus" xlink:href="#zoomPlus" x="17" y="9" onmousedown="handleZoom(evt,'in')"/>
  <use id="zoomminus" xlink:href="#zoomMin" x="42" y="9" onmousedown="handleZoom(evt,'out')"/>
  <use id="reset" xlink:href="#resetDef" x="30" y="36" onmousedown="handleReset()"/>
   <use id="arrowup" xlink:href="#arrowUp" x="0" y="0" onmousedown="handlePan(0,-1)"/>
  <use id="arrowright" xlink:href="#arrowRight" x="0" y="0" onmousedown="handlePan(1,0)"/>
  <use id="arrowdown" xlink:href="#arrowDown" x="0" y="0" onmousedown="handlePan(0,1)"/>
  <use id="arrowleft" xlink:href="#arrowLeft" x="0" y="0" onmousedown="handlePan(-1,0)"/>
</g>
<svg viewBox="0 0 15 15" width="100%" height="30px" preserveAspectRatio="xMaxYMin meet">
 <g id="arrow_out" transform="scale(0.3 0.3)">
  <a xlink:href="namespacecrab_a9085393618393c23f64c2525f2c1961f_icgraph_org.svg" target="_base">
   <rect id="button" ry="5" rx="5" y="6" x="6" height="38" width="38"
        fill="#f2f5e9" fill-opacity="0.5" stroke="#606060" stroke-width="1.0"/>
   <path id="arrow"
     d="M 11.500037,31.436501 C 11.940474,20.09759 22.043105,11.32322 32.158766,21.979434 L 37.068811,17.246167 C 37.068811,17.246167 37.088388,32 37.088388,32 L 22.160133,31.978069 C 22.160133,31.978069 26.997745,27.140456 26.997745,27.140456 C 18.528582,18.264221 13.291696,25.230495 11.500037,31.436501 z"
     style="fill:#404040;"/>
  </a>
 </g>
</svg>

<style type='text/css'>
<![CDATA[
[data-mouse-over-selected='false'] { opacity: 0.7; }
[data-mouse-over-selected='true']  { opacity: 1.0; }
]]>
</style>
<script type="application/ecmascript"><![CDATA[
document.addEventListener('DOMContentLoaded', (event) => {
  highlightEdges();
  highlightAdjacentNodes();
});
]]></script>
</svg>
