<?xml version="1.0" encoding="UTF-8" standalone="no"?>
<!DOCTYPE svg PUBLIC "-//W3C//DTD SVG 1.1//EN"
 "http://www.w3.org/Graphics/SVG/1.1/DTD/svg11.dtd">
<!-- Generated by graphviz version 12.2.0 (20241103.1931)
 -->
<!-- Title: crab::Some Pages: 1 -->
<svg width="229pt" height="297pt"
 viewBox="0.00 0.00 229.00 296.50" xmlns="http://www.w3.org/2000/svg" xmlns:xlink="http://www.w3.org/1999/xlink">
<g id="graph0" class="graph" transform="scale(1 1) rotate(0) translate(4 292.5)">
<title>crab::Some</title>
<!-- Node1 -->
<g id="Node000001" class="node">
<title>Node1</title>
<g id="a_Node000001"><a xlink:title="Create an Option containing a value.">
<polygon fill="#999999" stroke="#666666" points="221,-147.88 156.25,-147.88 156.25,-128.62 221,-128.62 221,-147.88"/>
<text text-anchor="middle" x="188.62" y="-134.38" font-family="Helvetica,sans-Serif" font-size="10.00">crab::Some</text>
</a>
</g>
</g>
<!-- Node2 -->
<g id="Node000002" class="node">
<title>Node2</title>
<g id="a_Node000002"><a xlink:href="classcrab_1_1StaticVector.html#a963619ac1732243ad4879fa5c497a7ec" target="_top" xlink:title="Access last element.">
<polygon fill="white" stroke="#666666" points="106.75,-288.5 13.5,-288.5 13.5,-258 106.75,-258 106.75,-288.5"/>
<text text-anchor="start" x="21.5" y="-275" font-family="Helvetica,sans-Serif" font-size="10.00">crab::StaticVector</text>
<text text-anchor="middle" x="60.12" y="-263.75" font-family="Helvetica,sans-Serif" font-size="10.00">::back_opt</text>
</a>
</g>
</g>
<!-- Node1&#45;&gt;Node2 -->
<g id="edge1_Node000001_Node000002" class="edge">
<title>Node1&#45;&gt;Node2</title>
<g id="a_edge1_Node000001_Node000002"><a xlink:title=" ">
<path fill="none" stroke="#63b8ff" d="M179.72,-158.68C169.39,-182.98 149.13,-223.39 120.25,-248.25 116.11,-251.81 111.39,-254.93 106.46,-257.63"/>
<polygon fill="#63b8ff" stroke="#63b8ff" points="182.9,-160.16 183.42,-149.58 176.41,-157.52 182.9,-160.16"/>
</a>
</g>
</g>
<!-- Node3 -->
<g id="Node000003" class="node">
<title>Node3</title>
<g id="a_Node000003"><a xlink:href="classcrab_1_1StaticVector.html#a4110e761e8bfce4e596cbb1a10986539" target="_top" xlink:title="Access first element.">
<polygon fill="white" stroke="#666666" points="106.75,-239.5 13.5,-239.5 13.5,-209 106.75,-209 106.75,-239.5"/>
<text text-anchor="start" x="21.5" y="-226" font-family="Helvetica,sans-Serif" font-size="10.00">crab::StaticVector</text>
<text text-anchor="middle" x="60.12" y="-214.75" font-family="Helvetica,sans-Serif" font-size="10.00">::front_opt</text>
</a>
</g>
</g>
<!-- Node1&#45;&gt;Node3 -->
<g id="edge2_Node000001_Node000003" class="edge">
<title>Node1&#45;&gt;Node3</title>
<g id="a_edge2_Node000001_Node000003"><a xlink:title=" ">
<path fill="none" stroke="#63b8ff" d="M171.42,-156.33C158.59,-169.82 139.64,-187.97 120.25,-200.25 115.48,-203.27 110.26,-206.05 104.96,-208.55"/>
<polygon fill="#63b8ff" stroke="#63b8ff" points="173.66,-159.07 177.89,-149.35 168.53,-154.31 173.66,-159.07"/>
</a>
</g>
</g>
<!-- Node4 -->
<g id="Node000004" class="node">
<title>Node4</title>
<g id="a_Node000004"><a xlink:href="classcrab_1_1Option.html#ab68ee2531b0173b349f2b2aebca63aaf" target="_top" xlink:title="Transform the contained value.">
<polygon fill="white" stroke="#666666" points="105.62,-190.88 14.62,-190.88 14.62,-171.62 105.62,-171.62 105.62,-190.88"/>
<text text-anchor="middle" x="60.12" y="-177.38" font-family="Helvetica,sans-Serif" font-size="10.00">crab::Option::map</text>
</a>
</g>
</g>
<!-- Node1&#45;&gt;Node4 -->
<g id="edge3_Node000001_Node000004" class="edge">
<title>Node1&#45;&gt;Node4</title>
<g id="a_edge3_Node000001_Node000004"><a xlink:title=" ">
<path fill="none" stroke="#63b8ff" d="M149.14,-152.19C139.71,-155.54 129.63,-159.07 120.25,-162.25 111.47,-165.22 101.91,-168.34 93.1,-171.18"/>
<polygon fill="#63b8ff" stroke="#63b8ff" points="150.17,-155.54 158.4,-148.88 147.81,-148.95 150.17,-155.54"/>
</a>
</g>
</g>
<!-- Node5 -->
<g id="Node000005" class="node">
<title>Node5</title>
<g id="a_Node000005"><a xlink:href="classcrab_1_1StaticVector.html#a7dfbeaf1783535704f641cf12e381d78" target="_top" xlink:title="Remove last element.">
<polygon fill="white" stroke="#666666" points="106.75,-153.5 13.5,-153.5 13.5,-123 106.75,-123 106.75,-153.5"/>
<text text-anchor="start" x="21.5" y="-140" font-family="Helvetica,sans-Serif" font-size="10.00">crab::StaticVector</text>
<text text-anchor="middle" x="60.12" y="-128.75" font-family="Helvetica,sans-Serif" font-size="10.00">::pop_back</text>
</a>
</g>
</g>
<!-- Node1&#45;&gt;Node5 -->
<g id="edge4_Node000001_Node000005" class="edge">
<title>Node1&#45;&gt;Node5</title>
<g id="a_edge4_Node000001_Node000005"><a xlink:title=" ">
<path fill="none" stroke="#63b8ff" d="M144.81,-138.25C132.68,-138.25 119.42,-138.25 107.11,-138.25"/>
<polygon fill="#63b8ff" stroke="#63b8ff" points="144.52,-141.75 154.52,-138.25 144.52,-134.75 144.52,-141.75"/>
</a>
</g>
</g>
<!-- Node6 -->
<g id="Node000006" class="node">
<title>Node6</title>
<g id="a_Node000006"><a xlink:href="classcrab_1_1Mutex.html#ad33e648cd122aca4f9e99d2000d0ae63" target="_top" xlink:title="Try to acquire lock without blocking.">
<polygon fill="white" stroke="#666666" points="112,-104.88 8.25,-104.88 8.25,-85.62 112,-85.62 112,-104.88"/>
<text text-anchor="middle" x="60.12" y="-91.38" font-family="Helvetica,sans-Serif" font-size="10.00">crab::Mutex::try_lock</text>
</a>
</g>
</g>
<!-- Node1&#45;&gt;Node6 -->
<g id="edge5_Node000001_Node000006" class="edge">
<title>Node1&#45;&gt;Node6</title>
<g id="a_edge5_Node000001_Node000006"><a xlink:title=" ">
<path fill="none" stroke="#63b8ff" d="M149.14,-124.31C139.71,-120.96 129.63,-117.43 120.25,-114.25 111.47,-111.28 101.91,-108.16 93.1,-105.32"/>
<polygon fill="#63b8ff" stroke="#63b8ff" points="147.81,-127.55 158.4,-127.62 150.17,-120.96 147.81,-127.55"/>
</a>
</g>
</g>
<!-- Node7 -->
<g id="Node000007" class="node">
<title>Node7</title>
<g id="a_Node000007"><a xlink:href="classcrab_1_1Mutex.html#afd1a9224375ca45a12036c21ad2ce9ba" target="_top" xlink:title="Try to acquire lock with timeout.">
<polygon fill="white" stroke="#666666" points="120.25,-67.88 0,-67.88 0,-48.62 120.25,-48.62 120.25,-67.88"/>
<text text-anchor="middle" x="60.12" y="-54.38" font-family="Helvetica,sans-Serif" font-size="10.00">crab::Mutex::try_lock_for</text>
</a>
</g>
</g>
<!-- Node1&#45;&gt;Node7 -->
<g id="edge6_Node000001_Node000007" class="edge">
<title>Node1&#45;&gt;Node7</title>
<g id="a_edge6_Node000001_Node000007"><a xlink:title=" ">
<path fill="none" stroke="#63b8ff" d="M172.16,-120.13C159.48,-106.32 140.4,-87.78 120.25,-76.25 114.85,-73.16 108.86,-70.55 102.83,-68.35"/>
<polygon fill="#63b8ff" stroke="#63b8ff" points="169.25,-122.13 178.51,-127.27 174.48,-117.47 169.25,-122.13"/>
</a>
</g>
</g>
<!-- Node8 -->
<g id="Node000008" class="node">
<title>Node8</title>
<g id="a_Node000008"><a xlink:href="classcrab_1_1StaticRingBuffer.html#a69f24bd18175788df17d858c360f1a6d" target="_top" xlink:title="Try to pop an element (consumer only).">
<polygon fill="white" stroke="#666666" points="115,-30.5 5.25,-30.5 5.25,0 115,0 115,-30.5"/>
<text text-anchor="start" x="13.25" y="-17" font-family="Helvetica,sans-Serif" font-size="10.00">crab::StaticRingBuffer</text>
<text text-anchor="middle" x="60.12" y="-5.75" font-family="Helvetica,sans-Serif" font-size="10.00">::try_pop</text>
</a>
</g>
</g>
<!-- Node1&#45;&gt;Node8 -->
<g id="edge7_Node000001_Node000008" class="edge">
<title>Node1&#45;&gt;Node8</title>
<g id="a_edge7_Node000001_Node000008"><a xlink:title=" ">
<path fill="none" stroke="#63b8ff" d="M178.46,-118.21C167.47,-96.15 147.11,-60.94 120.25,-39.25 116.37,-36.12 112.03,-33.34 107.51,-30.9"/>
<polygon fill="#63b8ff" stroke="#63b8ff" points="175.22,-119.53 182.69,-127.04 181.53,-116.51 175.22,-119.53"/>
</a>
</g>
</g>
</g>
</svg>
