<?xml version="1.0" encoding="UTF-8" standalone="no"?>
<!DOCTYPE svg PUBLIC "-//W3C//DTD SVG 1.1//EN"
 "http://www.w3.org/Graphics/SVG/1.1/DTD/svg11.dtd">
<!-- Generated by graphviz version 12.2.0 (20241103.1931)
 -->
<!-- Title: crab::Err Pages: 1 -->
<svg width="215pt" height="790pt"
 viewBox="0.00 0.00 214.75 789.88" xmlns="http://www.w3.org/2000/svg" xmlns:xlink="http://www.w3.org/1999/xlink">
<g id="graph0" class="graph" transform="scale(1 1) rotate(0) translate(4 785.88)">
<title>crab::Err</title>
<!-- Node1 -->
<g id="Node000001" class="node">
<title>Node1</title>
<g id="a_Node000001"><a xlink:title="Factory function to create an Err result.">
<polygon fill="#999999" stroke="#666666" points="206.75,-429.88 155.5,-429.88 155.5,-410.62 206.75,-410.62 206.75,-429.88"/>
<text text-anchor="middle" x="181.12" y="-416.38" font-family="Helvetica,sans-Serif" font-size="10.00">crab::Err</text>
</a>
</g>
</g>
<!-- Node2 -->
<g id="Node000002" class="node">
<title>Node2</title>
<g id="a_Node000002"><a xlink:href="classcrab_1_1Result.html#a677d72af67e086097bd24f85a7c87a7c" target="_top" xlink:title="Chain operations that return Result.">
<polygon fill="white" stroke="#666666" points="115.38,-781.88 4.12,-781.88 4.12,-762.62 115.38,-762.62 115.38,-781.88"/>
<text text-anchor="middle" x="59.75" y="-768.38" font-family="Helvetica,sans-Serif" font-size="10.00">crab::Result::and_then</text>
</a>
</g>
</g>
<!-- Node1&#45;&gt;Node2 -->
<g id="edge1_Node000001_Node000002" class="edge">
<title>Node1&#45;&gt;Node2</title>
<g id="a_edge1_Node000001_Node000002"><a xlink:title=" ">
<path fill="none" stroke="#63b8ff" d="M179.09,-441.56C175.45,-507.62 161.16,-707.38 119.5,-754.25 116.67,-757.44 113.28,-760.07 109.59,-762.24"/>
<polygon fill="#63b8ff" stroke="#63b8ff" points="182.57,-441.89 179.6,-431.72 175.58,-441.53 182.57,-441.89"/>
</a>
</g>
</g>
<!-- Node3 -->
<g id="Node000003" class="node">
<title>Node3</title>
<g id="a_Node000003"><a xlink:href="classcrab_1_1Result.html#ab3ed7a463ff3cb7c4a000994a0d39ae1" target="_top" xlink:title=" ">
<polygon fill="white" stroke="#666666" points="115.38,-744.88 4.12,-744.88 4.12,-725.62 115.38,-725.62 115.38,-744.88"/>
<text text-anchor="middle" x="59.75" y="-731.38" font-family="Helvetica,sans-Serif" font-size="10.00">crab::Result::and_then</text>
</a>
</g>
</g>
<!-- Node1&#45;&gt;Node3 -->
<g id="edge2_Node000001_Node000003" class="edge">
<title>Node1&#45;&gt;Node3</title>
<g id="a_edge2_Node000001_Node000003"><a xlink:title=" ">
<path fill="none" stroke="#63b8ff" d="M178.56,-441.56C173.66,-502.6 156.66,-676.34 119.5,-717.25 116.63,-720.41 113.22,-723.02 109.52,-725.18"/>
<polygon fill="#63b8ff" stroke="#63b8ff" points="182.03,-442.08 179.31,-431.84 175.05,-441.54 182.03,-442.08"/>
</a>
</g>
</g>
<!-- Node4 -->
<g id="Node000004" class="node">
<title>Node4</title>
<g id="a_Node000004"><a xlink:href="classcrab_1_1Slice.html#a822c315c02c1b3a40139c536b6d2b220" target="_top" xlink:title="Copy from another slice into this one.">
<polygon fill="white" stroke="#666666" points="115,-707.88 4.5,-707.88 4.5,-688.62 115,-688.62 115,-707.88"/>
<text text-anchor="middle" x="59.75" y="-694.38" font-family="Helvetica,sans-Serif" font-size="10.00">crab::Slice::copy_from</text>
</a>
</g>
</g>
<!-- Node1&#45;&gt;Node4 -->
<g id="edge3_Node000001_Node000004" class="edge">
<title>Node1&#45;&gt;Node4</title>
<g id="a_edge3_Node000001_Node000004"><a xlink:title=" ">
<path fill="none" stroke="#63b8ff" d="M177.9,-441.42C171.65,-497 152.23,-645.21 119.5,-680.25 116.51,-683.45 112.98,-686.08 109.14,-688.25"/>
<polygon fill="#63b8ff" stroke="#63b8ff" points="181.35,-442.04 178.96,-431.72 174.39,-441.28 181.35,-442.04"/>
</a>
</g>
</g>
<!-- Node5 -->
<g id="Node000005" class="node">
<title>Node5</title>
<g id="a_Node000005"><a xlink:href="classcrab_1_1Slice.html#a9a92f0ef4f8d96bc31f0b73ffd110c5e" target="_top" xlink:title="Copy contents to another slice.">
<polygon fill="white" stroke="#666666" points="109.38,-670.88 10.12,-670.88 10.12,-651.62 109.38,-651.62 109.38,-670.88"/>
<text text-anchor="middle" x="59.75" y="-657.38" font-family="Helvetica,sans-Serif" font-size="10.00">crab::Slice::copy_to</text>
</a>
</g>
</g>
<!-- Node1&#45;&gt;Node5 -->
<g id="edge4_Node000001_Node000005" class="edge">
<title>Node1&#45;&gt;Node5</title>
<g id="a_edge4_Node000001_Node000005"><a xlink:title=" ">
<path fill="none" stroke="#63b8ff" d="M180.71,-441.83C180.69,-485.88 174.26,-586.72 119.5,-643.25 116.46,-646.39 112.88,-648.99 109.02,-651.13"/>
<polygon fill="#63b8ff" stroke="#63b8ff" points="184.21,-441.79 180.58,-431.84 177.21,-441.88 184.21,-441.79"/>
</a>
</g>
</g>
<!-- Node6 -->
<g id="Node000006" class="node">
<title>Node6</title>
<g id="a_Node000006"><a xlink:href="classcrab_1_1Slice.html#aa7d93746087031a239ad7498e3fc40ae" target="_top" xlink:title=" ">
<polygon fill="white" stroke="#666666" points="99.25,-633.88 20.25,-633.88 20.25,-614.62 99.25,-614.62 99.25,-633.88"/>
<text text-anchor="middle" x="59.75" y="-620.38" font-family="Helvetica,sans-Serif" font-size="10.00">crab::Slice::get</text>
</a>
</g>
</g>
<!-- Node1&#45;&gt;Node6 -->
<g id="edge5_Node000001_Node000006" class="edge">
<title>Node1&#45;&gt;Node6</title>
<g id="a_edge5_Node000001_Node000006"><a xlink:title=" ">
<path fill="none" stroke="#63b8ff" d="M179.31,-441.66C176.69,-480.08 165.65,-560.92 119.5,-606.25 114.02,-611.63 106.98,-615.41 99.68,-618.06"/>
<polygon fill="#63b8ff" stroke="#63b8ff" points="182.8,-442.06 179.84,-431.88 175.81,-441.68 182.8,-442.06"/>
</a>
</g>
</g>
<!-- Node7 -->
<g id="Node000007" class="node">
<title>Node7</title>
<g id="a_Node000007"><a xlink:href="classcrab_1_1Slice.html#af2c91da11311a6356400f592dddc047e" target="_top" xlink:title="Get element with bounds checking, returning Result.">
<polygon fill="white" stroke="#666666" points="99.25,-596.88 20.25,-596.88 20.25,-577.62 99.25,-577.62 99.25,-596.88"/>
<text text-anchor="middle" x="59.75" y="-583.38" font-family="Helvetica,sans-Serif" font-size="10.00">crab::Slice::get</text>
</a>
</g>
</g>
<!-- Node1&#45;&gt;Node7 -->
<g id="edge6_Node000001_Node000007" class="edge">
<title>Node1&#45;&gt;Node7</title>
<g id="a_edge6_Node000001_Node000007"><a xlink:title=" ">
<path fill="none" stroke="#63b8ff" d="M177.32,-441.41C171.95,-473.61 157.16,-534.81 119.5,-569.25 113.91,-574.36 106.9,-578.02 99.69,-580.64"/>
<polygon fill="#63b8ff" stroke="#63b8ff" points="180.75,-442.15 178.78,-431.75 173.83,-441.11 180.75,-442.15"/>
</a>
</g>
</g>
<!-- Node8 -->
<g id="Node000008" class="node">
<title>Node8</title>
<g id="a_Node000008"><a xlink:href="classcrab_1_1StaticVector.html#a0bcb3167ad24abc5702bb4c62c4d5312" target="_top" xlink:title=" ">
<polygon fill="white" stroke="#666666" points="115.38,-559.88 4.12,-559.88 4.12,-540.62 115.38,-540.62 115.38,-559.88"/>
<text text-anchor="middle" x="59.75" y="-546.38" font-family="Helvetica,sans-Serif" font-size="10.00">crab::StaticVector::get</text>
</a>
</g>
</g>
<!-- Node1&#45;&gt;Node8 -->
<g id="edge7_Node000001_Node000008" class="edge">
<title>Node1&#45;&gt;Node8</title>
<g id="a_edge7_Node000001_Node000008"><a xlink:title=" ">
<path fill="none" stroke="#63b8ff" d="M174.19,-441.17C165.98,-466.37 148.76,-508.3 119.5,-532.25 115.62,-535.43 111.18,-538.04 106.53,-540.2"/>
<polygon fill="#63b8ff" stroke="#63b8ff" points="177.5,-442.32 177.07,-431.74 170.8,-440.28 177.5,-442.32"/>
</a>
</g>
</g>
<!-- Node9 -->
<g id="Node000009" class="node">
<title>Node9</title>
<g id="a_Node000009"><a xlink:href="classcrab_1_1StaticVector.html#afe957ae73c8c56d29d881483d9fd17a8" target="_top" xlink:title="Access element with bounds checking, returning Result.">
<polygon fill="white" stroke="#666666" points="115.38,-522.88 4.12,-522.88 4.12,-503.62 115.38,-503.62 115.38,-522.88"/>
<text text-anchor="middle" x="59.75" y="-509.38" font-family="Helvetica,sans-Serif" font-size="10.00">crab::StaticVector::get</text>
</a>
</g>
</g>
<!-- Node1&#45;&gt;Node9 -->
<g id="edge8_Node000001_Node000009" class="edge">
<title>Node1&#45;&gt;Node9</title>
<g id="a_edge8_Node000001_Node000009"><a xlink:title=" ">
<path fill="none" stroke="#63b8ff" d="M168.93,-439.87C158.28,-456.86 140.75,-480.89 119.5,-495.25 114.82,-498.42 109.55,-501.04 104.15,-503.22"/>
<polygon fill="#63b8ff" stroke="#63b8ff" points="171.72,-442.03 173.87,-431.65 165.72,-438.42 171.72,-442.03"/>
</a>
</g>
</g>
<!-- Node10 -->
<g id="Node000010" class="node">
<title>Node10</title>
<g id="a_Node000010"><a xlink:href="classcrab_1_1Result.html#aa08cb687a10dd2001de662e4aa790075" target="_top" xlink:title="Transform the Ok value.">
<polygon fill="white" stroke="#666666" points="104.88,-485.88 14.62,-485.88 14.62,-466.62 104.88,-466.62 104.88,-485.88"/>
<text text-anchor="middle" x="59.75" y="-472.38" font-family="Helvetica,sans-Serif" font-size="10.00">crab::Result::map</text>
</a>
</g>
</g>
<!-- Node1&#45;&gt;Node10 -->
<g id="edge9_Node000001_Node000010" class="edge">
<title>Node1&#45;&gt;Node10</title>
<g id="a_edge9_Node000001_Node000010"><a xlink:title=" ">
<path fill="none" stroke="#63b8ff" d="M157.43,-436.47C146.37,-443.84 132.65,-452.24 119.5,-458.25 113,-461.22 105.88,-463.87 98.9,-466.16"/>
<polygon fill="#63b8ff" stroke="#63b8ff" points="159.22,-439.48 165.49,-430.94 155.27,-433.71 159.22,-439.48"/>
</a>
</g>
</g>
<!-- Node11 -->
<g id="Node000011" class="node">
<title>Node11</title>
<g id="a_Node000011"><a xlink:href="classcrab_1_1Result.html#a3c4c914d2a79249c504a8215d4ebbe38" target="_top" xlink:title=" ">
<polygon fill="white" stroke="#666666" points="104.88,-448.88 14.62,-448.88 14.62,-429.62 104.88,-429.62 104.88,-448.88"/>
<text text-anchor="middle" x="59.75" y="-435.38" font-family="Helvetica,sans-Serif" font-size="10.00">crab::Result::map</text>
</a>
</g>
</g>
<!-- Node1&#45;&gt;Node11 -->
<g id="edge10_Node000001_Node000011" class="edge">
<title>Node1&#45;&gt;Node11</title>
<g id="a_edge10_Node000001_Node000011"><a xlink:title=" ">
<path fill="none" stroke="#63b8ff" d="M143.92,-426.01C131.67,-427.96 117.85,-430.16 105.04,-432.2"/>
<polygon fill="#63b8ff" stroke="#63b8ff" points="144.28,-429.5 153.61,-424.47 143.18,-422.59 144.28,-429.5"/>
</a>
</g>
</g>
<!-- Node12 -->
<g id="Node000012" class="node">
<title>Node12</title>
<g id="a_Node000012"><a xlink:href="classcrab_1_1Result.html#aef6f3c26a03ce5ff94c4f5307f711aa8" target="_top" xlink:title="Transform the Err value.">
<polygon fill="white" stroke="#666666" points="113.12,-411.88 6.38,-411.88 6.38,-392.62 113.12,-392.62 113.12,-411.88"/>
<text text-anchor="middle" x="59.75" y="-398.38" font-family="Helvetica,sans-Serif" font-size="10.00">crab::Result::map_err</text>
</a>
</g>
</g>
<!-- Node1&#45;&gt;Node12 -->
<g id="edge11_Node000001_Node000012" class="edge">
<title>Node1&#45;&gt;Node12</title>
<g id="a_edge11_Node000001_Node000012"><a xlink:title=" ">
<path fill="none" stroke="#63b8ff" d="M143.89,-414.79C134.24,-413.33 123.62,-411.73 113.28,-410.17"/>
<polygon fill="#63b8ff" stroke="#63b8ff" points="143.19,-418.22 153.6,-416.25 144.24,-411.3 143.19,-418.22"/>
</a>
</g>
</g>
<!-- Node13 -->
<g id="Node000013" class="node">
<title>Node13</title>
<g id="a_Node000013"><a xlink:href="classcrab_1_1Result.html#a893a2bcde9c83de0684d9fb713c5f2bd" target="_top" xlink:title=" ">
<polygon fill="white" stroke="#666666" points="113.12,-374.88 6.38,-374.88 6.38,-355.62 113.12,-355.62 113.12,-374.88"/>
<text text-anchor="middle" x="59.75" y="-361.38" font-family="Helvetica,sans-Serif" font-size="10.00">crab::Result::map_err</text>
</a>
</g>
</g>
<!-- Node1&#45;&gt;Node13 -->
<g id="edge12_Node000001_Node000013" class="edge">
<title>Node1&#45;&gt;Node13</title>
<g id="a_edge12_Node000001_Node000013"><a xlink:title=" ">
<path fill="none" stroke="#63b8ff" d="M156.94,-404.21C145.94,-397.1 132.41,-389.06 119.5,-383.25 112.88,-380.27 105.64,-377.61 98.56,-375.3"/>
<polygon fill="#63b8ff" stroke="#63b8ff" points="154.7,-406.92 164.97,-409.54 158.57,-401.09 154.7,-406.92"/>
</a>
</g>
</g>
<!-- Node14 -->
<g id="Node000014" class="node">
<title>Node14</title>
<g id="a_Node000014"><a xlink:href="classcrab_1_1Option.html#aebd6edb5be68600c06359059d5d56c20" target="_top" xlink:title="Convert to Result, using provided error if None.">
<polygon fill="white" stroke="#666666" points="107.88,-337.88 11.62,-337.88 11.62,-318.62 107.88,-318.62 107.88,-337.88"/>
<text text-anchor="middle" x="59.75" y="-324.38" font-family="Helvetica,sans-Serif" font-size="10.00">crab::Option::ok_or</text>
</a>
</g>
</g>
<!-- Node1&#45;&gt;Node14 -->
<g id="edge13_Node000001_Node000014" class="edge">
<title>Node1&#45;&gt;Node14</title>
<g id="a_edge13_Node000001_Node000014"><a xlink:title=" ">
<path fill="none" stroke="#63b8ff" d="M168.87,-400.89C158.18,-384.14 140.63,-360.42 119.5,-346.25 114.8,-343.1 109.54,-340.48 104.13,-338.31"/>
<polygon fill="#63b8ff" stroke="#63b8ff" points="165.62,-402.28 173.82,-408.99 171.59,-398.63 165.62,-402.28"/>
</a>
</g>
</g>
<!-- Node15 -->
<g id="Node000015" class="node">
<title>Node15</title>
<g id="a_Node000015"><a xlink:href="classcrab_1_1Option.html#aba045676dc5b8119e3fdf28e25acc42d" target="_top" xlink:title="Convert to Result, computing error from function if None.">
<polygon fill="white" stroke="#666666" points="119.5,-300.88 0,-300.88 0,-281.62 119.5,-281.62 119.5,-300.88"/>
<text text-anchor="middle" x="59.75" y="-287.38" font-family="Helvetica,sans-Serif" font-size="10.00">crab::Option::ok_or_else</text>
</a>
</g>
</g>
<!-- Node1&#45;&gt;Node15 -->
<g id="edge14_Node000001_Node000015" class="edge">
<title>Node1&#45;&gt;Node15</title>
<g id="a_edge14_Node000001_Node000015"><a xlink:title=" ">
<path fill="none" stroke="#63b8ff" d="M174.14,-399.52C165.88,-374.54 148.6,-332.98 119.5,-309.25 115.61,-306.08 111.18,-303.47 106.52,-301.32"/>
<polygon fill="#63b8ff" stroke="#63b8ff" points="170.73,-400.34 177.03,-408.85 177.41,-398.27 170.73,-400.34"/>
</a>
</g>
</g>
<!-- Node16 -->
<g id="Node000016" class="node">
<title>Node16</title>
<g id="a_Node000016"><a xlink:href="classcrab_1_1Slice.html#a2b8adbd65659ca1af0e77ba2f9a1ef8a" target="_top" xlink:title="Extract a subslice with bounds checking.">
<polygon fill="white" stroke="#666666" points="110.5,-263.88 9,-263.88 9,-244.62 110.5,-244.62 110.5,-263.88"/>
<text text-anchor="middle" x="59.75" y="-250.38" font-family="Helvetica,sans-Serif" font-size="10.00">crab::Slice::subslice</text>
</a>
</g>
</g>
<!-- Node1&#45;&gt;Node16 -->
<g id="edge15_Node000001_Node000016" class="edge">
<title>Node1&#45;&gt;Node16</title>
<g id="a_edge15_Node000001_Node000016"><a xlink:title=" ">
<path fill="none" stroke="#63b8ff" d="M177.28,-399.23C171.84,-367.24 156.98,-306.45 119.5,-272.25 116.03,-269.09 112.02,-266.48 107.76,-264.33"/>
<polygon fill="#63b8ff" stroke="#63b8ff" points="173.78,-399.47 178.75,-408.82 180.7,-398.41 173.78,-399.47"/>
</a>
</g>
</g>
<!-- Node17 -->
<g id="Node000017" class="node">
<title>Node17</title>
<g id="a_Node000017"><a xlink:href="classcrab_1_1StaticVector.html#a12b6faeca0b0a235efcdf9b574c5258e" target="_top" xlink:title="Construct element in&#45;place (checked).">
<polygon fill="white" stroke="#666666" points="109.38,-226.5 10.12,-226.5 10.12,-196 109.38,-196 109.38,-226.5"/>
<text text-anchor="start" x="18.12" y="-213" font-family="Helvetica,sans-Serif" font-size="10.00">crab::StaticVector</text>
<text text-anchor="middle" x="59.75" y="-201.75" font-family="Helvetica,sans-Serif" font-size="10.00">::try_emplace_back</text>
</a>
</g>
</g>
<!-- Node1&#45;&gt;Node17 -->
<g id="edge16_Node000001_Node000017" class="edge">
<title>Node1&#45;&gt;Node17</title>
<g id="a_edge16_Node000001_Node000017"><a xlink:title=" ">
<path fill="none" stroke="#63b8ff" d="M178.87,-399.35C175.52,-361.78 163.37,-282.36 119.5,-235.25 116.57,-232.11 113.17,-229.36 109.51,-226.97"/>
<polygon fill="#63b8ff" stroke="#63b8ff" points="175.34,-399.16 179.58,-408.87 182.32,-398.64 175.34,-399.16"/>
</a>
</g>
</g>
<!-- Node18 -->
<g id="Node000018" class="node">
<title>Node18</title>
<g id="a_Node000018"><a xlink:href="classcrab_1_1StaticVector.html#ad0cb121c197c9382a2de9017a7f58c7f" target="_top" xlink:title="Add element by copy (checked).">
<polygon fill="white" stroke="#666666" points="106.38,-177.5 13.12,-177.5 13.12,-147 106.38,-147 106.38,-177.5"/>
<text text-anchor="start" x="21.12" y="-164" font-family="Helvetica,sans-Serif" font-size="10.00">crab::StaticVector</text>
<text text-anchor="middle" x="59.75" y="-152.75" font-family="Helvetica,sans-Serif" font-size="10.00">::try_push_back</text>
</a>
</g>
</g>
<!-- Node1&#45;&gt;Node18 -->
<g id="edge17_Node000001_Node000018" class="edge">
<title>Node1&#45;&gt;Node18</title>
<g id="a_edge17_Node000001_Node000018"><a xlink:title=" ">
<path fill="none" stroke="#63b8ff" d="M180.52,-399.11C180.22,-354.51 173.41,-249.77 119.5,-187.25 115.88,-183.05 111.43,-179.54 106.62,-176.61"/>
<polygon fill="#63b8ff" stroke="#63b8ff" points="177.02,-398.93 180.46,-408.94 184.02,-398.96 177.02,-398.93"/>
</a>
</g>
</g>
<!-- Node19 -->
<g id="Node000019" class="node">
<title>Node19</title>
<g id="a_Node000019"><a xlink:href="classcrab_1_1StaticVector.html#a9e05dd30d9cdd69b69c09f68c1609583" target="_top" xlink:title="Add element by move (checked).">
<polygon fill="white" stroke="#666666" points="106.38,-128.5 13.12,-128.5 13.12,-98 106.38,-98 106.38,-128.5"/>
<text text-anchor="start" x="21.12" y="-115" font-family="Helvetica,sans-Serif" font-size="10.00">crab::StaticVector</text>
<text text-anchor="middle" x="59.75" y="-103.75" font-family="Helvetica,sans-Serif" font-size="10.00">::try_push_back</text>
</a>
</g>
</g>
<!-- Node1&#45;&gt;Node19 -->
<g id="edge18_Node000001_Node000019" class="edge">
<title>Node1&#45;&gt;Node19</title>
<g id="a_edge18_Node000001_Node000019"><a xlink:title=" ">
<path fill="none" stroke="#63b8ff" d="M178.09,-399.04C172.08,-340.54 152.77,-178.55 119.5,-138.25 115.97,-133.98 111.58,-130.42 106.8,-127.46"/>
<polygon fill="#63b8ff" stroke="#63b8ff" points="174.57,-399.05 179.04,-408.65 181.54,-398.36 174.57,-399.05"/>
</a>
</g>
</g>
<!-- Node20 -->
<g id="Node000020" class="node">
<title>Node20</title>
<g id="a_Node000020"><a xlink:href="classcrab_1_1StaticVector.html#acff5fdd8d064794ad1be5bb78dfe3d53" target="_top" xlink:title="Reserve capacity (no&#45;op for StaticVector).">
<polygon fill="white" stroke="#666666" points="106.38,-79.5 13.12,-79.5 13.12,-49 106.38,-49 106.38,-79.5"/>
<text text-anchor="start" x="21.12" y="-66" font-family="Helvetica,sans-Serif" font-size="10.00">crab::StaticVector</text>
<text text-anchor="middle" x="59.75" y="-54.75" font-family="Helvetica,sans-Serif" font-size="10.00">::try_reserve</text>
</a>
</g>
</g>
<!-- Node1&#45;&gt;Node20 -->
<g id="edge19_Node000001_Node000020" class="edge">
<title>Node1&#45;&gt;Node20</title>
<g id="a_edge19_Node000001_Node000020"><a xlink:title=" ">
<path fill="none" stroke="#63b8ff" d="M178.82,-398.88C174.43,-333.5 158.25,-137.68 119.5,-89.25 115.97,-84.84 111.51,-81.19 106.64,-78.18"/>
<polygon fill="#63b8ff" stroke="#63b8ff" points="175.31,-398.87 179.44,-408.62 182.3,-398.42 175.31,-398.87"/>
</a>
</g>
</g>
<!-- Node21 -->
<g id="Node000021" class="node">
<title>Node21</title>
<g id="a_Node000021"><a xlink:href="classcrab_1_1StaticVector.html#af97f85cef5d59566c87d78ed2a3eee96" target="_top" xlink:title="Resize the vector.">
<polygon fill="white" stroke="#666666" points="106.38,-30.5 13.12,-30.5 13.12,0 106.38,0 106.38,-30.5"/>
<text text-anchor="start" x="21.12" y="-17" font-family="Helvetica,sans-Serif" font-size="10.00">crab::StaticVector</text>
<text text-anchor="middle" x="59.75" y="-5.75" font-family="Helvetica,sans-Serif" font-size="10.00">::try_resize</text>
</a>
</g>
</g>
<!-- Node1&#45;&gt;Node21 -->
<g id="edge20_Node000001_Node000021" class="edge">
<title>Node1&#45;&gt;Node21</title>
<g id="a_edge20_Node000001_Node000021"><a xlink:title=" ">
<path fill="none" stroke="#63b8ff" d="M179.38,-399.07C176.49,-327.65 163.84,-96.99 119.5,-40.25 116.02,-35.8 111.59,-32.12 106.74,-29.1"/>
<polygon fill="#63b8ff" stroke="#63b8ff" points="175.88,-399.1 179.76,-408.96 182.88,-398.83 175.88,-399.1"/>
</a>
</g>
</g>
</g>
</svg>
