<?xml version="1.0" encoding="UTF-8" standalone="no"?>
<!DOCTYPE svg PUBLIC "-//W3C//DTD SVG 1.1//EN"
 "http://www.w3.org/Graphics/SVG/1.1/DTD/svg11.dtd">
<!-- Generated by graphviz version 12.2.0 (20241103.1931)
 -->
<!-- Title: crab::Err Pages: 1 -->
<!--zoomable 679 -->

<svg id="main" version="1.1" xmlns="http://www.w3.org/2000/svg" xmlns:xlink="http://www.w3.org/1999/xlink" xml:space="preserve" onload="init(evt)">

<style type="text/css"><![CDATA[
.node, .edge {opacity: 0.7;}
.node.selected, .edge.selected {opacity: 1;}
.edge:hover path { stroke: red; }
.edge:hover polygon { stroke: red; fill: red; }
]]></style>

<defs>
  <circle id="rim" cx="0" cy="0" r="7"/>
  <circle id="rim2" cx="0" cy="0" r="3.5"/>
  <g id="zoomPlus">
    <use xlink:href="#rim" fill="#404040"><set attributeName="fill" to="#808080" begin="zoomplus.mouseover" end="zoomplus.mouseout"/></use>
    <path d="M-4,0h8M0,-4v8" fill="none" stroke="white" stroke-width="1.5" pointer-events="none"/>
  </g>
  <g id="zoomMin">
    <use xlink:href="#rim" fill="#404040"><set attributeName="fill" to="#808080" begin="zoomminus.mouseover" end="zoomminus.mouseout"/></use>
    <path d="M-4,0h8" fill="none" stroke="white" stroke-width="1.5" pointer-events="none"/>
  </g>
  <g id="arrowUp" transform="translate(30 24)">
    <use xlink:href="#rim"/>
    <path pointer-events="none" fill="none" stroke="white" stroke-width="1.5" d="M0,-3.0v7 M-2.5,-0.5L0,-3.0L2.5,-0.5"/>
  </g>
  <g id="arrowRight" transform="rotate(90) translate(36 -43)">
    <use xlink:href="#rim"/>
    <path pointer-events="none" fill="none" stroke="white" stroke-width="1.5" d="M0,-3.0v7 M-2.5,-0.5L0,-3.0L2.5,-0.5"/>
  </g>
  <g id="arrowDown" transform="rotate(180) translate(-30 -48)">
    <use xlink:href="#rim"/>
    <path pointer-events="none" fill="none" stroke="white" stroke-width="1.5" d="M0,-3.0v7 M-2.5,-0.5L0,-3.0L2.5,-0.5"/>
  </g>
  <g id="arrowLeft" transform="rotate(270) translate(-36 17)">
    <use xlink:href="#rim"/>
    <path pointer-events="none" fill="none" stroke="white" stroke-width="1.5" d="M0,-3.0v7 M-2.5,-0.5L0,-3.0L2.5,-0.5"/>
  </g>
  <g id="resetDef">
    <use xlink:href="#rim2" fill="#404040"><set attributeName="fill" to="#808080" begin="reset.mouseover" end="reset.mouseout"/></use>
  </g>
</defs>
<script type="application/ecmascript">
var viewWidth = 215;
var viewHeight = 679;
var sectionId = 'dynsection-0';
</script>
<script type="application/ecmascript" xlink:href="svg.min.js"/>
<svg id="graph" class="graph">
<g id="viewport">
<title>crab::Err</title>
<!-- Node1 -->
<g id="Node000001" class="node">
<title>Node1</title>
<g id="a_Node000001"><a xlink:title="Factory function to create an Err result.">
<polygon fill="#999999" stroke="#666666" points="206.75,-374.88 155.5,-374.88 155.5,-355.62 206.75,-355.62 206.75,-374.88"/>
<text text-anchor="middle" x="181.12" y="-361.38" font-family="Helvetica,sans-Serif" font-size="10.00">crab::Err</text>
</a>
</g>
</g>
<!-- Node2 -->
<g id="Node000002" class="node">
<title>Node2</title>
<g id="a_Node000002"><a xlink:href="classcrab_1_1Result.html#a677d72af67e086097bd24f85a7c87a7c" target="_top" xlink:title="Chain operations that return Result.">
<polygon fill="white" stroke="#666666" points="115.38,-670.88 4.12,-670.88 4.12,-651.62 115.38,-651.62 115.38,-670.88"/>
<text text-anchor="middle" x="59.75" y="-657.38" font-family="Helvetica,sans-Serif" font-size="10.00">crab::Result::and_then</text>
</a>
</g>
</g>
<!-- Node1&#45;&gt;Node2 -->
<g id="edge1_Node000001_Node000002" class="edge">
<title>Node1&#45;&gt;Node2</title>
<g id="a_edge1_Node000001_Node000002"><a xlink:title=" ">
<path fill="none" stroke="#63b8ff" d="M178.22,-386.71C172.61,-445.17 154.34,-605.41 119.5,-643.25 116.61,-646.39 113.19,-648.99 109.47,-651.14"/>
<polygon fill="#63b8ff" stroke="#63b8ff" points="181.7,-387.07 179.14,-376.79 174.73,-386.43 181.7,-387.07"/>
</a>
</g>
</g>
<!-- Node3 -->
<g id="Node000003" class="node">
<title>Node3</title>
<g id="a_Node000003"><a xlink:href="classcrab_1_1Slice.html#a822c315c02c1b3a40139c536b6d2b220" target="_top" xlink:title="Copy from another slice into this one.">
<polygon fill="white" stroke="#666666" points="115,-633.88 4.5,-633.88 4.5,-614.62 115,-614.62 115,-633.88"/>
<text text-anchor="middle" x="59.75" y="-620.38" font-family="Helvetica,sans-Serif" font-size="10.00">crab::Slice::copy_from</text>
</a>
</g>
</g>
<!-- Node1&#45;&gt;Node3 -->
<g id="edge2_Node000001_Node000003" class="edge">
<title>Node1&#45;&gt;Node3</title>
<g id="a_edge2_Node000001_Node000003"><a xlink:title=" ">
<path fill="none" stroke="#63b8ff" d="M177.45,-386.6C170.44,-439.43 149.91,-574.25 119.5,-606.25 116.49,-609.42 112.93,-612.04 109.09,-614.2"/>
<polygon fill="#63b8ff" stroke="#63b8ff" points="180.91,-387.18 178.72,-376.82 173.97,-386.28 180.91,-387.18"/>
</a>
</g>
</g>
<!-- Node4 -->
<g id="Node000004" class="node">
<title>Node4</title>
<g id="a_Node000004"><a xlink:href="classcrab_1_1Slice.html#a9a92f0ef4f8d96bc31f0b73ffd110c5e" target="_top" xlink:title="Copy contents to another slice.">
<polygon fill="white" stroke="#666666" points="109.38,-596.88 10.12,-596.88 10.12,-577.62 109.38,-577.62 109.38,-596.88"/>
<text text-anchor="middle" x="59.75" y="-583.38" font-family="Helvetica,sans-Serif" font-size="10.00">crab::Slice::copy_to</text>
</a>
</g>
</g>
<!-- Node1&#45;&gt;Node4 -->
<g id="edge3_Node000001_Node000004" class="edge">
<title>Node1&#45;&gt;Node4</title>
<g id="a_edge3_Node000001_Node000004"><a xlink:title=" ">
<path fill="none" stroke="#63b8ff" d="M180.06,-386.39C178.76,-427.44 169.97,-518.35 119.5,-569.25 116.35,-572.43 112.64,-575.05 108.66,-577.21"/>
<polygon fill="#63b8ff" stroke="#63b8ff" points="183.56,-386.5 180.24,-376.44 176.56,-386.38 183.56,-386.5"/>
</a>
</g>
</g>
<!-- Node5 -->
<g id="Node000005" class="node">
<title>Node5</title>
<g id="a_Node000005"><a xlink:href="classcrab_1_1Slice.html#aa7d93746087031a239ad7498e3fc40ae" target="_top" xlink:title=" ">
<polygon fill="white" stroke="#666666" points="99.25,-559.88 20.25,-559.88 20.25,-540.62 99.25,-540.62 99.25,-559.88"/>
<text text-anchor="middle" x="59.75" y="-546.38" font-family="Helvetica,sans-Serif" font-size="10.00">crab::Slice::get</text>
</a>
</g>
</g>
<!-- Node1&#45;&gt;Node5 -->
<g id="edge4_Node000001_Node000005" class="edge">
<title>Node1&#45;&gt;Node5</title>
<g id="a_edge4_Node000001_Node000005"><a xlink:title=" ">
<path fill="none" stroke="#63b8ff" d="M178.4,-386.43C174.39,-421.7 161.32,-492.51 119.5,-532.25 113.93,-537.54 106.85,-541.28 99.54,-543.92"/>
<polygon fill="#63b8ff" stroke="#63b8ff" points="181.86,-386.97 179.36,-376.67 174.9,-386.28 181.86,-386.97"/>
</a>
</g>
</g>
<!-- Node6 -->
<g id="Node000006" class="node">
<title>Node6</title>
<g id="a_Node000006"><a xlink:href="classcrab_1_1Slice.html#af2c91da11311a6356400f592dddc047e" target="_top" xlink:title="Get element with bounds checking, returning Result.">
<polygon fill="white" stroke="#666666" points="99.25,-522.88 20.25,-522.88 20.25,-503.62 99.25,-503.62 99.25,-522.88"/>
<text text-anchor="middle" x="59.75" y="-509.38" font-family="Helvetica,sans-Serif" font-size="10.00">crab::Slice::get</text>
</a>
</g>
</g>
<!-- Node1&#45;&gt;Node6 -->
<g id="edge5_Node000001_Node000006" class="edge">
<title>Node1&#45;&gt;Node6</title>
<g id="a_edge5_Node000001_Node000006"><a xlink:title=" ">
<path fill="none" stroke="#63b8ff" d="M175.95,-386.14C169.14,-414.84 152.89,-466.21 119.5,-495.25 113.79,-500.22 106.72,-503.82 99.5,-506.42"/>
<polygon fill="#63b8ff" stroke="#63b8ff" points="179.34,-387.03 178.06,-376.51 172.5,-385.53 179.34,-387.03"/>
</a>
</g>
</g>
<!-- Node7 -->
<g id="Node000007" class="node">
<title>Node7</title>
<g id="a_Node000007"><a xlink:href="classcrab_1_1StaticVector.html#a0bcb3167ad24abc5702bb4c62c4d5312" target="_top" xlink:title=" ">
<polygon fill="white" stroke="#666666" points="115.38,-485.88 4.12,-485.88 4.12,-466.62 115.38,-466.62 115.38,-485.88"/>
<text text-anchor="middle" x="59.75" y="-472.38" font-family="Helvetica,sans-Serif" font-size="10.00">crab::StaticVector::get</text>
</a>
</g>
</g>
<!-- Node1&#45;&gt;Node7 -->
<g id="edge6_Node000001_Node000007" class="edge">
<title>Node1&#45;&gt;Node7</title>
<g id="a_edge6_Node000001_Node000007"><a xlink:title=" ">
<path fill="none" stroke="#63b8ff" d="M171.85,-385.73C162.28,-406.88 144.58,-439.38 119.5,-458.25 115.32,-461.39 110.59,-463.99 105.67,-466.14"/>
<polygon fill="#63b8ff" stroke="#63b8ff" points="174.99,-387.27 175.72,-376.7 168.56,-384.51 174.99,-387.27"/>
</a>
</g>
</g>
<!-- Node8 -->
<g id="Node000008" class="node">
<title>Node8</title>
<g id="a_Node000008"><a xlink:href="classcrab_1_1StaticVector.html#afe957ae73c8c56d29d881483d9fd17a8" target="_top" xlink:title="Access element with bounds checking, returning Result.">
<polygon fill="white" stroke="#666666" points="115.38,-448.88 4.12,-448.88 4.12,-429.62 115.38,-429.62 115.38,-448.88"/>
<text text-anchor="middle" x="59.75" y="-435.38" font-family="Helvetica,sans-Serif" font-size="10.00">crab::StaticVector::get</text>
</a>
</g>
</g>
<!-- Node1&#45;&gt;Node8 -->
<g id="edge7_Node000001_Node000008" class="edge">
<title>Node1&#45;&gt;Node8</title>
<g id="a_edge7_Node000001_Node000008"><a xlink:title=" ">
<path fill="none" stroke="#63b8ff" d="M164.45,-383.52C153.08,-395.75 136.73,-411.35 119.5,-421.25 114.14,-424.33 108.19,-426.94 102.19,-429.14"/>
<polygon fill="#63b8ff" stroke="#63b8ff" points="167.02,-385.89 171.09,-376.11 161.81,-381.22 167.02,-385.89"/>
</a>
</g>
</g>
<!-- Node9 -->
<g id="Node000009" class="node">
<title>Node9</title>
<g id="a_Node000009"><a xlink:href="classcrab_1_1Result.html#aa08cb687a10dd2001de662e4aa790075" target="_top" xlink:title="Transform the Ok value.">
<polygon fill="white" stroke="#666666" points="104.88,-411.88 14.62,-411.88 14.62,-392.62 104.88,-392.62 104.88,-411.88"/>
<text text-anchor="middle" x="59.75" y="-398.38" font-family="Helvetica,sans-Serif" font-size="10.00">crab::Result::map</text>
</a>
</g>
</g>
<!-- Node1&#45;&gt;Node9 -->
<g id="edge8_Node000001_Node000009" class="edge">
<title>Node1&#45;&gt;Node9</title>
<g id="a_edge8_Node000001_Node000009"><a xlink:title=" ">
<path fill="none" stroke="#63b8ff" d="M144.33,-376.51C136.17,-379.06 127.54,-381.76 119.5,-384.25 111.14,-386.84 102.11,-389.62 93.7,-392.2"/>
<polygon fill="#63b8ff" stroke="#63b8ff" points="145.13,-379.93 153.62,-373.6 143.03,-373.25 145.13,-379.93"/>
</a>
</g>
</g>
<!-- Node10 -->
<g id="Node000010" class="node">
<title>Node10</title>
<g id="a_Node000010"><a xlink:href="classcrab_1_1Result.html#aef6f3c26a03ce5ff94c4f5307f711aa8" target="_top" xlink:title="Transform the Err value.">
<polygon fill="white" stroke="#666666" points="113.12,-374.88 6.38,-374.88 6.38,-355.62 113.12,-355.62 113.12,-374.88"/>
<text text-anchor="middle" x="59.75" y="-361.38" font-family="Helvetica,sans-Serif" font-size="10.00">crab::Result::map_err</text>
</a>
</g>
</g>
<!-- Node1&#45;&gt;Node10 -->
<g id="edge9_Node000001_Node000010" class="edge">
<title>Node1&#45;&gt;Node10</title>
<g id="a_edge9_Node000001_Node000010"><a xlink:title=" ">
<path fill="none" stroke="#63b8ff" d="M143.89,-365.25C134.24,-365.25 123.62,-365.25 113.28,-365.25"/>
<polygon fill="#63b8ff" stroke="#63b8ff" points="143.59,-368.75 153.59,-365.25 143.59,-361.75 143.59,-368.75"/>
</a>
</g>
</g>
<!-- Node11 -->
<g id="Node000011" class="node">
<title>Node11</title>
<g id="a_Node000011"><a xlink:href="classcrab_1_1Option.html#aebd6edb5be68600c06359059d5d56c20" target="_top" xlink:title="Convert to Result, using provided error if None.">
<polygon fill="white" stroke="#666666" points="107.88,-337.88 11.62,-337.88 11.62,-318.62 107.88,-318.62 107.88,-337.88"/>
<text text-anchor="middle" x="59.75" y="-324.38" font-family="Helvetica,sans-Serif" font-size="10.00">crab::Option::ok_or</text>
</a>
</g>
</g>
<!-- Node1&#45;&gt;Node11 -->
<g id="edge10_Node000001_Node000011" class="edge">
<title>Node1&#45;&gt;Node11</title>
<g id="a_edge10_Node000001_Node000011"><a xlink:title=" ">
<path fill="none" stroke="#63b8ff" d="M144.33,-353.99C136.17,-351.44 127.54,-348.74 119.5,-346.25 111.14,-343.66 102.11,-340.88 93.7,-338.3"/>
<polygon fill="#63b8ff" stroke="#63b8ff" points="143.03,-357.25 153.62,-356.9 145.13,-350.57 143.03,-357.25"/>
</a>
</g>
</g>
<!-- Node12 -->
<g id="Node000012" class="node">
<title>Node12</title>
<g id="a_Node000012"><a xlink:href="classcrab_1_1Option.html#aba045676dc5b8119e3fdf28e25acc42d" target="_top" xlink:title="Convert to Result, computing error from function if None.">
<polygon fill="white" stroke="#666666" points="119.5,-300.88 0,-300.88 0,-281.62 119.5,-281.62 119.5,-300.88"/>
<text text-anchor="middle" x="59.75" y="-287.38" font-family="Helvetica,sans-Serif" font-size="10.00">crab::Option::ok_or_else</text>
</a>
</g>
</g>
<!-- Node1&#45;&gt;Node12 -->
<g id="edge11_Node000001_Node000012" class="edge">
<title>Node1&#45;&gt;Node12</title>
<g id="a_edge11_Node000001_Node000012"><a xlink:title=" ">
<path fill="none" stroke="#63b8ff" d="M164.45,-346.98C153.08,-334.75 136.73,-319.15 119.5,-309.25 114.14,-306.17 108.19,-303.56 102.19,-301.36"/>
<polygon fill="#63b8ff" stroke="#63b8ff" points="161.81,-349.28 171.09,-354.39 167.02,-344.61 161.81,-349.28"/>
</a>
</g>
</g>
<!-- Node13 -->
<g id="Node000013" class="node">
<title>Node13</title>
<g id="a_Node000013"><a xlink:href="classcrab_1_1Slice.html#a2b8adbd65659ca1af0e77ba2f9a1ef8a" target="_top" xlink:title="Extract a subslice with bounds checking.">
<polygon fill="white" stroke="#666666" points="110.5,-263.88 9,-263.88 9,-244.62 110.5,-244.62 110.5,-263.88"/>
<text text-anchor="middle" x="59.75" y="-250.38" font-family="Helvetica,sans-Serif" font-size="10.00">crab::Slice::subslice</text>
</a>
</g>
</g>
<!-- Node1&#45;&gt;Node13 -->
<g id="edge12_Node000001_Node000013" class="edge">
<title>Node1&#45;&gt;Node13</title>
<g id="a_edge12_Node000001_Node000013"><a xlink:title=" ">
<path fill="none" stroke="#63b8ff" d="M171.85,-344.77C162.28,-323.62 144.58,-291.12 119.5,-272.25 115.32,-269.11 110.59,-266.51 105.67,-264.36"/>
<polygon fill="#63b8ff" stroke="#63b8ff" points="168.56,-345.99 175.72,-353.8 174.99,-343.23 168.56,-345.99"/>
</a>
</g>
</g>
<!-- Node14 -->
<g id="Node000014" class="node">
<title>Node14</title>
<g id="a_Node000014"><a xlink:href="classcrab_1_1StaticVector.html#a12b6faeca0b0a235efcdf9b574c5258e" target="_top" xlink:title="Construct element in&#45;place (checked).">
<polygon fill="white" stroke="#666666" points="109.38,-226.5 10.12,-226.5 10.12,-196 109.38,-196 109.38,-226.5"/>
<text text-anchor="start" x="18.12" y="-213" font-family="Helvetica,sans-Serif" font-size="10.00">crab::StaticVector</text>
<text text-anchor="middle" x="59.75" y="-201.75" font-family="Helvetica,sans-Serif" font-size="10.00">::try_emplace_back</text>
</a>
</g>
</g>
<!-- Node1&#45;&gt;Node14 -->
<g id="edge13_Node000001_Node000014" class="edge">
<title>Node1&#45;&gt;Node14</title>
<g id="a_edge13_Node000001_Node000014"><a xlink:title=" ">
<path fill="none" stroke="#63b8ff" d="M175.47,-344.36C168.15,-316.06 151.39,-265.62 119.5,-235.25 116.15,-232.06 112.32,-229.27 108.25,-226.83"/>
<polygon fill="#63b8ff" stroke="#63b8ff" points="172.01,-344.95 177.76,-353.85 178.81,-343.31 172.01,-344.95"/>
</a>
</g>
</g>
<!-- Node15 -->
<g id="Node000015" class="node">
<title>Node15</title>
<g id="a_Node000015"><a xlink:href="classcrab_1_1StaticVector.html#ad0cb121c197c9382a2de9017a7f58c7f" target="_top" xlink:title="Add element by copy (checked).">
<polygon fill="white" stroke="#666666" points="106.38,-177.5 13.12,-177.5 13.12,-147 106.38,-147 106.38,-177.5"/>
<text text-anchor="start" x="21.12" y="-164" font-family="Helvetica,sans-Serif" font-size="10.00">crab::StaticVector</text>
<text text-anchor="middle" x="59.75" y="-152.75" font-family="Helvetica,sans-Serif" font-size="10.00">::try_push_back</text>
</a>
</g>
</g>
<!-- Node1&#45;&gt;Node15 -->
<g id="edge14_Node000001_Node000015" class="edge">
<title>Node1&#45;&gt;Node15</title>
<g id="a_edge14_Node000001_Node000015"><a xlink:title=" ">
<path fill="none" stroke="#63b8ff" d="M178.45,-344.2C174.49,-307.73 161.43,-232.4 119.5,-187.25 115.8,-183.27 111.37,-179.9 106.62,-177.05"/>
<polygon fill="#63b8ff" stroke="#63b8ff" points="174.94,-344.23 179.37,-353.86 181.91,-343.57 174.94,-344.23"/>
</a>
</g>
</g>
<!-- Node16 -->
<g id="Node000016" class="node">
<title>Node16</title>
<g id="a_Node000016"><a xlink:href="classcrab_1_1StaticVector.html#a9e05dd30d9cdd69b69c09f68c1609583" target="_top" xlink:title="Add element by move (checked).">
<polygon fill="white" stroke="#666666" points="106.38,-128.5 13.12,-128.5 13.12,-98 106.38,-98 106.38,-128.5"/>
<text text-anchor="start" x="21.12" y="-115" font-family="Helvetica,sans-Serif" font-size="10.00">crab::StaticVector</text>
<text text-anchor="middle" x="59.75" y="-103.75" font-family="Helvetica,sans-Serif" font-size="10.00">::try_push_back</text>
</a>
</g>
</g>
<!-- Node1&#45;&gt;Node16 -->
<g id="edge15_Node000001_Node000016" class="edge">
<title>Node1&#45;&gt;Node16</title>
<g id="a_edge15_Node000001_Node000016"><a xlink:title=" ">
<path fill="none" stroke="#63b8ff" d="M180.33,-343.75C179.61,-299.8 171.95,-198.69 119.5,-138.25 115.87,-134.06 111.41,-130.56 106.6,-127.63"/>
<polygon fill="#63b8ff" stroke="#63b8ff" points="176.83,-343.73 180.37,-353.72 183.83,-343.7 176.83,-343.73"/>
</a>
</g>
</g>
<!-- Node17 -->
<g id="Node000017" class="node">
<title>Node17</title>
<g id="a_Node000017"><a xlink:href="classcrab_1_1StaticVector.html#acff5fdd8d064794ad1be5bb78dfe3d53" target="_top" xlink:title="Reserve capacity (no&#45;op for StaticVector).">
<polygon fill="white" stroke="#666666" points="106.38,-79.5 13.12,-79.5 13.12,-49 106.38,-49 106.38,-79.5"/>
<text text-anchor="start" x="21.12" y="-66" font-family="Helvetica,sans-Serif" font-size="10.00">crab::StaticVector</text>
<text text-anchor="middle" x="59.75" y="-54.75" font-family="Helvetica,sans-Serif" font-size="10.00">::try_reserve</text>
</a>
</g>
</g>
<!-- Node1&#45;&gt;Node17 -->
<g id="edge16_Node000001_Node000017" class="edge">
<title>Node1&#45;&gt;Node17</title>
<g id="a_edge16_Node000001_Node000017"><a xlink:title=" ">
<path fill="none" stroke="#63b8ff" d="M177.99,-344.13C171.78,-286.56 152.11,-128.57 119.5,-89.25 115.96,-84.98 111.56,-81.43 106.78,-78.47"/>
<polygon fill="#63b8ff" stroke="#63b8ff" points="174.48,-344.29 179.01,-353.87 181.45,-343.56 174.48,-344.29"/>
</a>
</g>
</g>
<!-- Node18 -->
<g id="Node000018" class="node">
<title>Node18</title>
<g id="a_Node000018"><a xlink:href="classcrab_1_1StaticVector.html#af97f85cef5d59566c87d78ed2a3eee96" target="_top" xlink:title="Resize the vector.">
<polygon fill="white" stroke="#666666" points="106.38,-30.5 13.12,-30.5 13.12,0 106.38,0 106.38,-30.5"/>
<text text-anchor="start" x="21.12" y="-17" font-family="Helvetica,sans-Serif" font-size="10.00">crab::StaticVector</text>
<text text-anchor="middle" x="59.75" y="-5.75" font-family="Helvetica,sans-Serif" font-size="10.00">::try_resize</text>
</a>
</g>
</g>
<!-- Node1&#45;&gt;Node18 -->
<g id="edge17_Node000001_Node000018" class="edge">
<title>Node1&#45;&gt;Node18</title>
<g id="a_edge17_Node000001_Node000018"><a xlink:title=" ">
<path fill="none" stroke="#63b8ff" d="M178.74,-343.86C174.15,-279.26 157.57,-87.67 119.5,-40.25 115.96,-35.84 111.5,-32.2 106.63,-29.19"/>
<polygon fill="#63b8ff" stroke="#63b8ff" points="175.24,-344.07 179.41,-353.81 182.23,-343.59 175.24,-344.07"/>
</a>
</g>
</g>
</g>
</svg>

<g id="navigator" transform="translate(0 0)" fill="#404254">
  <rect fill="#f2f5e9" fill-opacity="0.5" stroke="#606060" stroke-width=".5" x="0" y="0" width="60" height="60"/>
  <use id="zoomplus" xlink:href="#zoomPlus" x="17" y="9" onmousedown="handleZoom(evt,'in')"/>
  <use id="zoomminus" xlink:href="#zoomMin" x="42" y="9" onmousedown="handleZoom(evt,'out')"/>
  <use id="reset" xlink:href="#resetDef" x="30" y="36" onmousedown="handleReset()"/>
   <use id="arrowup" xlink:href="#arrowUp" x="0" y="0" onmousedown="handlePan(0,-1)"/>
  <use id="arrowright" xlink:href="#arrowRight" x="0" y="0" onmousedown="handlePan(1,0)"/>
  <use id="arrowdown" xlink:href="#arrowDown" x="0" y="0" onmousedown="handlePan(0,1)"/>
  <use id="arrowleft" xlink:href="#arrowLeft" x="0" y="0" onmousedown="handlePan(-1,0)"/>
</g>
<svg viewBox="0 0 15 15" width="100%" height="30px" preserveAspectRatio="xMaxYMin meet">
 <g id="arrow_out" transform="scale(0.3 0.3)">
  <a xlink:href="namespacecrab_a3745fae96ffff64db507a12f27498a39_icgraph_org.svg" target="_base">
   <rect id="button" ry="5" rx="5" y="6" x="6" height="38" width="38"
        fill="#f2f5e9" fill-opacity="0.5" stroke="#606060" stroke-width="1.0"/>
   <path id="arrow"
     d="M 11.500037,31.436501 C 11.940474,20.09759 22.043105,11.32322 32.158766,21.979434 L 37.068811,17.246167 C 37.068811,17.246167 37.088388,32 37.088388,32 L 22.160133,31.978069 C 22.160133,31.978069 26.997745,27.140456 26.997745,27.140456 C 18.528582,18.264221 13.291696,25.230495 11.500037,31.436501 z"
     style="fill:#404040;"/>
  </a>
 </g>
</svg>

<style type='text/css'>
<![CDATA[
[data-mouse-over-selected='false'] { opacity: 0.7; }
[data-mouse-over-selected='true']  { opacity: 1.0; }
]]>
</style>
<script type="application/ecmascript"><![CDATA[
document.addEventListener('DOMContentLoaded', (event) => {
  highlightEdges();
  highlightAdjacentNodes();
});
]]></script>
</svg>
