<?xml version="1.0" encoding="UTF-8" standalone="no"?>
<!DOCTYPE svg PUBLIC "-//W3C//DTD SVG 1.1//EN"
 "http://www.w3.org/Graphics/SVG/1.1/DTD/svg11.dtd">
<!-- Generated by graphviz version 12.2.0 (20241103.1931)
 -->
<!-- Title: crab::Some Pages: 1 -->
<svg width="219pt" height="260pt"
 viewBox="0.00 0.00 218.50 259.50" xmlns="http://www.w3.org/2000/svg" xmlns:xlink="http://www.w3.org/1999/xlink">
<g id="graph0" class="graph" transform="scale(1 1) rotate(0) translate(4 255.5)">
<title>crab::Some</title>
<!-- Node1 -->
<g id="Node000001" class="node">
<title>Node1</title>
<g id="a_Node000001"><a xlink:title="Create an Option containing a value.">
<polygon fill="#999999" stroke="#666666" points="210.5,-131.88 145.75,-131.88 145.75,-112.62 210.5,-112.62 210.5,-131.88"/>
<text text-anchor="middle" x="178.12" y="-118.38" font-family="Helvetica,sans-Serif" font-size="10.00">crab::Some</text>
</a>
</g>
</g>
<!-- Node2 -->
<g id="Node000002" class="node">
<title>Node2</title>
<g id="a_Node000002"><a xlink:href="classcrab_1_1StaticVector.html#a963619ac1732243ad4879fa5c497a7ec" target="_top" xlink:title="Access last element.">
<polygon fill="white" stroke="#666666" points="101.5,-251.5 8.25,-251.5 8.25,-221 101.5,-221 101.5,-251.5"/>
<text text-anchor="start" x="16.25" y="-238" font-family="Helvetica,sans-Serif" font-size="10.00">crab::StaticVector</text>
<text text-anchor="middle" x="54.88" y="-226.75" font-family="Helvetica,sans-Serif" font-size="10.00">::back_opt</text>
</a>
</g>
</g>
<!-- Node1&#45;&gt;Node2 -->
<g id="edge1_Node000001_Node000002" class="edge">
<title>Node1&#45;&gt;Node2</title>
<g id="a_edge1_Node000001_Node000002"><a xlink:title=" ">
<path fill="none" stroke="#63b8ff" d="M166.06,-142.08C154.25,-161.77 133.93,-191.75 109.75,-211.25 105.42,-214.75 100.51,-217.88 95.47,-220.65"/>
<polygon fill="#63b8ff" stroke="#63b8ff" points="168.96,-144.05 170.96,-133.65 162.91,-140.54 168.96,-144.05"/>
</a>
</g>
</g>
<!-- Node3 -->
<g id="Node000003" class="node">
<title>Node3</title>
<g id="a_Node000003"><a xlink:href="classcrab_1_1StaticVector.html#a4110e761e8bfce4e596cbb1a10986539" target="_top" xlink:title="Access first element.">
<polygon fill="white" stroke="#666666" points="101.5,-202.5 8.25,-202.5 8.25,-172 101.5,-172 101.5,-202.5"/>
<text text-anchor="start" x="16.25" y="-189" font-family="Helvetica,sans-Serif" font-size="10.00">crab::StaticVector</text>
<text text-anchor="middle" x="54.88" y="-177.75" font-family="Helvetica,sans-Serif" font-size="10.00">::front_opt</text>
</a>
</g>
</g>
<!-- Node1&#45;&gt;Node3 -->
<g id="edge2_Node000001_Node000003" class="edge">
<title>Node1&#45;&gt;Node3</title>
<g id="a_edge2_Node000001_Node000003"><a xlink:title=" ">
<path fill="none" stroke="#63b8ff" d="M152.58,-138.22C140,-146.14 124.29,-155.62 109.75,-163.25 104.31,-166.1 98.46,-168.94 92.69,-171.6"/>
<polygon fill="#63b8ff" stroke="#63b8ff" points="154.1,-141.41 160.65,-133.08 150.34,-135.5 154.1,-141.41"/>
</a>
</g>
</g>
<!-- Node4 -->
<g id="Node000004" class="node">
<title>Node4</title>
<g id="a_Node000004"><a xlink:href="classcrab_1_1Option.html#ab68ee2531b0173b349f2b2aebca63aaf" target="_top" xlink:title="Transform the contained value.">
<polygon fill="white" stroke="#666666" points="100.38,-153.88 9.38,-153.88 9.38,-134.62 100.38,-134.62 100.38,-153.88"/>
<text text-anchor="middle" x="54.88" y="-140.38" font-family="Helvetica,sans-Serif" font-size="10.00">crab::Option::map</text>
</a>
</g>
</g>
<!-- Node1&#45;&gt;Node4 -->
<g id="edge3_Node000001_Node000004" class="edge">
<title>Node1&#45;&gt;Node4</title>
<g id="a_edge3_Node000001_Node000004"><a xlink:title=" ">
<path fill="none" stroke="#63b8ff" d="M133.96,-130.08C123.18,-132.04 111.6,-134.14 100.74,-136.11"/>
<polygon fill="#63b8ff" stroke="#63b8ff" points="134.56,-133.53 143.78,-128.3 133.31,-126.64 134.56,-133.53"/>
</a>
</g>
</g>
<!-- Node5 -->
<g id="Node000005" class="node">
<title>Node5</title>
<g id="a_Node000005"><a xlink:href="classcrab_1_1StaticVector.html#a7dfbeaf1783535704f641cf12e381d78" target="_top" xlink:title="Remove last element.">
<polygon fill="white" stroke="#666666" points="101.5,-116.5 8.25,-116.5 8.25,-86 101.5,-86 101.5,-116.5"/>
<text text-anchor="start" x="16.25" y="-103" font-family="Helvetica,sans-Serif" font-size="10.00">crab::StaticVector</text>
<text text-anchor="middle" x="54.88" y="-91.75" font-family="Helvetica,sans-Serif" font-size="10.00">::pop_back</text>
</a>
</g>
</g>
<!-- Node1&#45;&gt;Node5 -->
<g id="edge4_Node000001_Node000005" class="edge">
<title>Node1&#45;&gt;Node5</title>
<g id="a_edge4_Node000001_Node000005"><a xlink:title=" ">
<path fill="none" stroke="#63b8ff" d="M134.2,-114.82C123.66,-112.99 112.33,-111.03 101.66,-109.18"/>
<polygon fill="#63b8ff" stroke="#63b8ff" points="133.33,-118.22 143.78,-116.47 134.52,-111.32 133.33,-118.22"/>
</a>
</g>
</g>
<!-- Node6 -->
<g id="Node000006" class="node">
<title>Node6</title>
<g id="a_Node000006"><a xlink:href="classcrab_1_1Mutex.html#a368df75fc77a3bff0309d9b72d65c23e" target="_top" xlink:title="Try to acquire lock without blocking.">
<polygon fill="white" stroke="#666666" points="106.75,-67.88 3,-67.88 3,-48.62 106.75,-48.62 106.75,-67.88"/>
<text text-anchor="middle" x="54.88" y="-54.38" font-family="Helvetica,sans-Serif" font-size="10.00">crab::Mutex::try_lock</text>
</a>
</g>
</g>
<!-- Node1&#45;&gt;Node6 -->
<g id="edge5_Node000001_Node000006" class="edge">
<title>Node1&#45;&gt;Node6</title>
<g id="a_edge5_Node000001_Node000006"><a xlink:title=" ">
<path fill="none" stroke="#63b8ff" d="M155.36,-105.68C142.56,-96.47 125.79,-85.28 109.75,-77.25 103.1,-73.92 95.72,-70.91 88.61,-68.32"/>
<polygon fill="#63b8ff" stroke="#63b8ff" points="152.95,-108.25 163.08,-111.36 157.1,-102.62 152.95,-108.25"/>
</a>
</g>
</g>
<!-- Node7 -->
<g id="Node000007" class="node">
<title>Node7</title>
<g id="a_Node000007"><a xlink:href="classcrab_1_1StaticRingBuffer.html#a21a09b8f16dc6f603afd76d57039e74a" target="_top" xlink:title="Try to pop an element (consumer only).">
<polygon fill="white" stroke="#666666" points="109.75,-30.5 0,-30.5 0,0 109.75,0 109.75,-30.5"/>
<text text-anchor="start" x="8" y="-17" font-family="Helvetica,sans-Serif" font-size="10.00">crab::StaticRingBuffer</text>
<text text-anchor="middle" x="54.88" y="-5.75" font-family="Helvetica,sans-Serif" font-size="10.00">::try_pop</text>
</a>
</g>
</g>
<!-- Node1&#45;&gt;Node7 -->
<g id="edge6_Node000001_Node000007" class="edge">
<title>Node1&#45;&gt;Node7</title>
<g id="a_edge6_Node000001_Node000007"><a xlink:title=" ">
<path fill="none" stroke="#63b8ff" d="M165.1,-102.62C153.02,-84.23 132.9,-56.99 109.75,-39.25 105.77,-36.2 101.34,-33.43 96.77,-30.96"/>
<polygon fill="#63b8ff" stroke="#63b8ff" points="162.12,-104.45 170.44,-111.01 168.02,-100.69 162.12,-104.45"/>
</a>
</g>
</g>
</g>
</svg>
