<?xml version="1.0" encoding="UTF-8" standalone="no"?>
<!DOCTYPE svg PUBLIC "-//W3C//DTD SVG 1.1//EN"
 "http://www.w3.org/Graphics/SVG/1.1/DTD/svg11.dtd">
<!-- Generated by graphviz version 12.2.0 (20241103.1931)
 -->
<!-- Title: crab/option.h Pages: 1 -->
<svg width="525pt" height="193pt"
 viewBox="0.00 0.00 525.00 193.00" xmlns="http://www.w3.org/2000/svg" xmlns:xlink="http://www.w3.org/1999/xlink">
<g id="graph0" class="graph" transform="scale(1 1) rotate(0) translate(4 189)">
<title>crab/option.h</title>
<!-- Node1 -->
<g id="Node000001" class="node">
<title>Node1</title>
<g id="a_Node000001"><a xlink:title="Ergonomic Option&lt;T&gt; type with Rust&#45;inspired monadic interface.">
<polygon fill="#999999" stroke="#666666" points="360.88,-185 289.38,-185 289.38,-165.75 360.88,-165.75 360.88,-185"/>
<text text-anchor="middle" x="325.12" y="-171.5" font-family="Helvetica,sans-Serif" font-size="10.00">crab/option.h</text>
</a>
</g>
</g>
<!-- Node2 -->
<g id="Node000002" class="node">
<title>Node2</title>
<g id="a_Node000002"><a xlink:href="macros_8h.html" target="_top" xlink:title="CrabLib assertion and utility macros.">
<polygon fill="white" stroke="#666666" points="110.88,-74.5 33.38,-74.5 33.38,-55.25 110.88,-55.25 110.88,-74.5"/>
<text text-anchor="middle" x="72.12" y="-61" font-family="Helvetica,sans-Serif" font-size="10.00">crab/macros.h</text>
</a>
</g>
</g>
<!-- Node1&#45;&gt;Node2 -->
<g id="edge1_Node000001_Node000002" class="edge">
<title>Node1&#45;&gt;Node2</title>
<g id="a_edge1_Node000001_Node000002"><a xlink:title=" ">
<path fill="none" stroke="#63b8ff" d="M295.46,-165.31C269.23,-156.99 230.13,-143.86 197.12,-129.75 161.83,-114.66 122.65,-93.96 97.73,-80.27"/>
<polygon fill="#63b8ff" stroke="#63b8ff" points="99.74,-77.38 89.29,-75.6 96.34,-83.5 99.74,-77.38"/>
</a>
</g>
</g>
<!-- Node5 -->
<g id="Node000005" class="node">
<title>Node5</title>
<g id="a_Node000005"><a xlink:href="error__types_8h.html" target="_top" xlink:title="Common error types for CrabLib Result&lt;T, E&gt;.">
<polygon fill="white" stroke="#666666" points="221.75,-74.5 128.5,-74.5 128.5,-55.25 221.75,-55.25 221.75,-74.5"/>
<text text-anchor="middle" x="175.12" y="-61" font-family="Helvetica,sans-Serif" font-size="10.00">crab/error_types.h</text>
</a>
</g>
</g>
<!-- Node1&#45;&gt;Node5 -->
<g id="edge4_Node000001_Node000005" class="edge">
<title>Node1&#45;&gt;Node5</title>
<g id="a_edge4_Node000001_Node000005"><a xlink:title=" ">
<path fill="none" stroke="#63b8ff" d="M289.59,-165.28C267.32,-158.27 238.98,-146.85 218.12,-129.75 203.28,-117.58 191.56,-98.96 184.13,-84.96"/>
<polygon fill="#63b8ff" stroke="#63b8ff" points="187.39,-83.67 179.79,-76.29 181.13,-86.8 187.39,-83.67"/>
</a>
</g>
</g>
<!-- Node8 -->
<g id="Node000008" class="node">
<title>Node8</title>
<g id="a_Node000008"><a xlink:title=" ">
<polygon fill="#e0e0e0" stroke="#999999" points="449.12,-129.75 391.12,-129.75 391.12,-110.5 449.12,-110.5 449.12,-129.75"/>
<text text-anchor="middle" x="420.12" y="-116.25" font-family="Helvetica,sans-Serif" font-size="10.00">functional</text>
</a>
</g>
</g>
<!-- Node1&#45;&gt;Node8 -->
<g id="edge7_Node000001_Node000008" class="edge">
<title>Node1&#45;&gt;Node8</title>
<g id="a_edge7_Node000001_Node000008"><a xlink:title=" ">
<path fill="none" stroke="#63b8ff" d="M341.24,-165.34C355.71,-157.23 377.2,-145.18 394.11,-135.71"/>
<polygon fill="#63b8ff" stroke="#63b8ff" points="395.6,-138.89 402.61,-130.94 392.18,-132.78 395.6,-138.89"/>
</a>
</g>
</g>
<!-- Node9 -->
<g id="Node000009" class="node">
<title>Node9</title>
<g id="a_Node000009"><a xlink:title=" ">
<polygon fill="#e0e0e0" stroke="#999999" points="517,-129.75 467.25,-129.75 467.25,-110.5 517,-110.5 517,-129.75"/>
<text text-anchor="middle" x="492.12" y="-116.25" font-family="Helvetica,sans-Serif" font-size="10.00">optional</text>
</a>
</g>
</g>
<!-- Node1&#45;&gt;Node9 -->
<g id="edge8_Node000001_Node000009" class="edge">
<title>Node1&#45;&gt;Node9</title>
<g id="a_edge8_Node000001_Node000009"><a xlink:title=" ">
<path fill="none" stroke="#63b8ff" d="M353.45,-165.34C381.8,-156.3 425.5,-142.37 456.25,-132.56"/>
<polygon fill="#63b8ff" stroke="#63b8ff" points="457.03,-135.99 465.5,-129.62 454.91,-129.32 457.03,-135.99"/>
</a>
</g>
</g>
<!-- Node10 -->
<g id="Node000010" class="node">
<title>Node10</title>
<g id="a_Node000010"><a xlink:title=" ">
<polygon fill="#e0e0e0" stroke="#999999" points="363.62,-74.5 302.62,-74.5 302.62,-55.25 363.62,-55.25 363.62,-74.5"/>
<text text-anchor="middle" x="333.12" y="-61" font-family="Helvetica,sans-Serif" font-size="10.00">type_traits</text>
</a>
</g>
</g>
<!-- Node1&#45;&gt;Node10 -->
<g id="edge9_Node000001_Node000010" class="edge">
<title>Node1&#45;&gt;Node10</title>
<g id="a_edge9_Node000001_Node000010"><a xlink:title=" ">
<path fill="none" stroke="#63b8ff" d="M325.78,-165.5C327.05,-148.25 329.88,-109.83 331.64,-86.06"/>
<polygon fill="#63b8ff" stroke="#63b8ff" points="335.11,-86.62 332.35,-76.39 328.12,-86.1 335.11,-86.62"/>
</a>
</g>
</g>
<!-- Node11 -->
<g id="Node000011" class="node">
<title>Node11</title>
<g id="a_Node000011"><a xlink:title=" ">
<polygon fill="#e0e0e0" stroke="#999999" points="420.38,-74.5 381.88,-74.5 381.88,-55.25 420.38,-55.25 420.38,-74.5"/>
<text text-anchor="middle" x="401.12" y="-61" font-family="Helvetica,sans-Serif" font-size="10.00">utility</text>
</a>
</g>
</g>
<!-- Node1&#45;&gt;Node11 -->
<g id="edge10_Node000001_Node000011" class="edge">
<title>Node1&#45;&gt;Node11</title>
<g id="a_edge10_Node000001_Node000011"><a xlink:title=" ">
<path fill="none" stroke="#63b8ff" d="M331.34,-165.5C343.76,-147.77 371.83,-107.69 388.34,-84.13"/>
<polygon fill="#63b8ff" stroke="#63b8ff" points="391.08,-86.31 393.95,-76.12 385.35,-82.3 391.08,-86.31"/>
</a>
</g>
</g>
<!-- Node12 -->
<g id="Node000012" class="node">
<title>Node12</title>
<g id="a_Node000012"><a xlink:href="result_8h.html" target="_top" xlink:title="Rust&#45;inspired Result&lt;T, E&gt; type for error handling without exceptions.">
<polygon fill="white" stroke="#666666" points="296.75,-129.75 227.5,-129.75 227.5,-110.5 296.75,-110.5 296.75,-129.75"/>
<text text-anchor="middle" x="262.12" y="-116.25" font-family="Helvetica,sans-Serif" font-size="10.00">crab/result.h</text>
</a>
</g>
</g>
<!-- Node1&#45;&gt;Node12 -->
<g id="edge11_Node000001_Node000012" class="edge">
<title>Node1&#45;&gt;Node12</title>
<g id="a_edge11_Node000001_Node000012"><a xlink:title=" ">
<path fill="none" stroke="#63b8ff" d="M314.44,-165.34C305.42,-157.72 292.29,-146.62 281.44,-137.45"/>
<polygon fill="#63b8ff" stroke="#63b8ff" points="283.71,-134.78 273.81,-131 279.19,-140.13 283.71,-134.78"/>
</a>
</g>
</g>
<!-- Node3 -->
<g id="Node000003" class="node">
<title>Node3</title>
<g id="a_Node000003"><a xlink:title=" ">
<polygon fill="#e0e0e0" stroke="#999999" points="42.25,-19.25 0,-19.25 0,0 42.25,0 42.25,-19.25"/>
<text text-anchor="middle" x="21.12" y="-5.75" font-family="Helvetica,sans-Serif" font-size="10.00">cstdio</text>
</a>
</g>
</g>
<!-- Node2&#45;&gt;Node3 -->
<g id="edge2_Node000002_Node000003" class="edge">
<title>Node2&#45;&gt;Node3</title>
<g id="a_edge2_Node000002_Node000003"><a xlink:title=" ">
<path fill="none" stroke="#63b8ff" d="M63.7,-55.08C56.59,-47.65 46.18,-36.79 37.44,-27.66"/>
<polygon fill="#63b8ff" stroke="#63b8ff" points="40.22,-25.5 30.78,-20.7 35.17,-30.35 40.22,-25.5"/>
</a>
</g>
</g>
<!-- Node4 -->
<g id="Node000004" class="node">
<title>Node4</title>
<g id="a_Node000004"><a xlink:title=" ">
<polygon fill="#e0e0e0" stroke="#999999" points="104.38,-19.25 59.88,-19.25 59.88,0 104.38,0 104.38,-19.25"/>
<text text-anchor="middle" x="82.12" y="-5.75" font-family="Helvetica,sans-Serif" font-size="10.00">cstdlib</text>
</a>
</g>
</g>
<!-- Node2&#45;&gt;Node4 -->
<g id="edge3_Node000002_Node000004" class="edge">
<title>Node2&#45;&gt;Node4</title>
<g id="a_edge3_Node000002_Node000004"><a xlink:title=" ">
<path fill="none" stroke="#63b8ff" d="M73.78,-55.08C75.01,-48.49 76.76,-39.21 78.33,-30.82"/>
<polygon fill="#63b8ff" stroke="#63b8ff" points="81.75,-31.57 80.16,-21.1 74.87,-30.28 81.75,-31.57"/>
</a>
</g>
</g>
<!-- Node6 -->
<g id="Node000006" class="node">
<title>Node6</title>
<g id="a_Node000006"><a xlink:title=" ">
<polygon fill="#e0e0e0" stroke="#999999" points="189.25,-19.25 141,-19.25 141,0 189.25,0 189.25,-19.25"/>
<text text-anchor="middle" x="165.12" y="-5.75" font-family="Helvetica,sans-Serif" font-size="10.00">cstddef</text>
</a>
</g>
</g>
<!-- Node5&#45;&gt;Node6 -->
<g id="edge5_Node000005_Node000006" class="edge">
<title>Node5&#45;&gt;Node6</title>
<g id="a_edge5_Node000005_Node000006"><a xlink:title=" ">
<path fill="none" stroke="#63b8ff" d="M173.47,-55.08C172.24,-48.49 170.49,-39.21 168.92,-30.82"/>
<polygon fill="#63b8ff" stroke="#63b8ff" points="172.38,-30.28 167.09,-21.1 165.5,-31.57 172.38,-30.28"/>
</a>
</g>
</g>
<!-- Node7 -->
<g id="Node000007" class="node">
<title>Node7</title>
<g id="a_Node000007"><a xlink:title=" ">
<polygon fill="#e0e0e0" stroke="#999999" points="252.75,-19.25 207.5,-19.25 207.5,0 252.75,0 252.75,-19.25"/>
<text text-anchor="middle" x="230.12" y="-5.75" font-family="Helvetica,sans-Serif" font-size="10.00">cstdint</text>
</a>
</g>
</g>
<!-- Node5&#45;&gt;Node7 -->
<g id="edge6_Node000005_Node000007" class="edge">
<title>Node5&#45;&gt;Node7</title>
<g id="a_edge6_Node000005_Node000007"><a xlink:title=" ">
<path fill="none" stroke="#63b8ff" d="M184.21,-55.08C191.96,-47.57 203.34,-36.56 212.82,-27.38"/>
<polygon fill="#63b8ff" stroke="#63b8ff" points="215.01,-30.13 219.76,-20.66 210.14,-25.1 215.01,-30.13"/>
</a>
</g>
</g>
<!-- Node12&#45;&gt;Node2 -->
<g id="edge12_Node000012_Node000002" class="edge">
<title>Node12&#45;&gt;Node2</title>
<g id="a_edge12_Node000012_Node000002"><a xlink:title=" ">
<path fill="none" stroke="#63b8ff" d="M229.89,-110.09C198.37,-101.26 150.15,-87.74 115.31,-77.98"/>
<polygon fill="#63b8ff" stroke="#63b8ff" points="116.54,-74.69 105.97,-75.36 114.66,-81.43 116.54,-74.69"/>
</a>
</g>
</g>
<!-- Node12&#45;&gt;Node5 -->
<g id="edge13_Node000012_Node000005" class="edge">
<title>Node12&#45;&gt;Node5</title>
<g id="a_edge13_Node000012_Node000005"><a xlink:title=" ">
<path fill="none" stroke="#63b8ff" d="M247.37,-110.09C234.24,-102.06 214.8,-90.16 199.39,-80.73"/>
<polygon fill="#63b8ff" stroke="#63b8ff" points="201.6,-77.98 191.25,-75.74 197.95,-83.95 201.6,-77.98"/>
</a>
</g>
</g>
<!-- Node12&#45;&gt;Node10 -->
<g id="edge14_Node000012_Node000010" class="edge">
<title>Node12&#45;&gt;Node10</title>
<g id="a_edge14_Node000012_Node000010"><a xlink:title=" ">
<path fill="none" stroke="#63b8ff" d="M274.17,-110.09C284.53,-102.32 299.73,-90.92 312.09,-81.65"/>
<polygon fill="#63b8ff" stroke="#63b8ff" points="314.15,-84.48 320.05,-75.68 309.95,-78.88 314.15,-84.48"/>
</a>
</g>
</g>
<!-- Node12&#45;&gt;Node11 -->
<g id="edge15_Node000012_Node000011" class="edge">
<title>Node12&#45;&gt;Node11</title>
<g id="a_edge15_Node000012_Node000011"><a xlink:title=" ">
<path fill="none" stroke="#63b8ff" d="M285.7,-110.09C309.18,-101.1 345.32,-87.25 370.9,-77.46"/>
<polygon fill="#63b8ff" stroke="#63b8ff" points="371.98,-80.79 380.07,-73.94 369.48,-74.25 371.98,-80.79"/>
</a>
</g>
</g>
<!-- Node13 -->
<g id="Node000013" class="node">
<title>Node13</title>
<g id="a_Node000013"><a xlink:title=" ">
<polygon fill="#e0e0e0" stroke="#999999" points="284.75,-74.5 239.5,-74.5 239.5,-55.25 284.75,-55.25 284.75,-74.5"/>
<text text-anchor="middle" x="262.12" y="-61" font-family="Helvetica,sans-Serif" font-size="10.00">variant</text>
</a>
</g>
</g>
<!-- Node12&#45;&gt;Node13 -->
<g id="edge16_Node000012_Node000013" class="edge">
<title>Node12&#45;&gt;Node13</title>
<g id="a_edge16_Node000012_Node000013"><a xlink:title=" ">
<path fill="none" stroke="#63b8ff" d="M262.12,-110.33C262.12,-103.82 262.12,-94.67 262.12,-86.37"/>
<polygon fill="#63b8ff" stroke="#63b8ff" points="265.63,-86.37 262.13,-76.37 258.63,-86.37 265.63,-86.37"/>
</a>
</g>
</g>
</g>
</svg>
