<?xml version="1.0" encoding="UTF-8" standalone="no"?>
<!DOCTYPE svg PUBLIC "-//W3C//DTD SVG 1.1//EN"
 "http://www.w3.org/Graphics/SVG/1.1/DTD/svg11.dtd">
<!-- Generated by graphviz version 12.2.0 (20241103.1931)
 -->
<!-- Title: crab/option.h Pages: 1 -->
<svg width="346pt" height="138pt"
 viewBox="0.00 0.00 345.50 137.75" xmlns="http://www.w3.org/2000/svg" xmlns:xlink="http://www.w3.org/1999/xlink">

<svg id="main" version="1.1" xmlns="http://www.w3.org/2000/svg" xmlns:xlink="http://www.w3.org/1999/xlink" xml:space="preserve">

<style type="text/css"><![CDATA[
.node, .edge {opacity: 0.7;}
.node.selected, .edge.selected {opacity: 1;}
.edge:hover path { stroke: red; }
.edge:hover polygon { stroke: red; fill: red; }
]]></style>
<script type="application/ecmascript" xlink:href="svg.min.js"/>
<svg id="graph" class="graph">
<g id="graph0" class="graph" transform="scale(1 1) rotate(0) translate(4 133.75)">
<title>crab/option.h</title>
<!-- Node1 -->
<g id="Node000001" class="node">
<title>Node1</title>
<g id="a_Node000001"><a xlink:title="Ergonomic Option&lt;T&gt; type with Rust&#45;inspired monadic interface.">
<polygon fill="#999999" stroke="#666666" points="171.5,-129.75 100,-129.75 100,-110.5 171.5,-110.5 171.5,-129.75"/>
<text text-anchor="middle" x="135.75" y="-116.25" font-family="Helvetica,sans-Serif" font-size="10.00">crab/option.h</text>
</a>
</g>
</g>
<!-- Node2 -->
<g id="Node000002" class="node">
<title>Node2</title>
<g id="a_Node000002"><a xlink:href="mutex_8h.html" target="_top" xlink:title="Rust&#45;style data&#45;owning Mutex&lt;T&gt;.">
<polygon fill="white" stroke="#666666" points="71.5,-74.5 0,-74.5 0,-55.25 71.5,-55.25 71.5,-74.5"/>
<text text-anchor="middle" x="35.75" y="-61" font-family="Helvetica,sans-Serif" font-size="10.00">crab/mutex.h</text>
</a>
</g>
</g>
<!-- Node1&#45;&gt;Node2 -->
<g id="edge1_Node000001_Node000002" class="edge">
<title>Node1&#45;&gt;Node2</title>
<g id="a_edge1_Node000001_Node000002"><a xlink:title=" ">
<path fill="none" stroke="#63b8ff" d="M108.71,-104.73C90.9,-95.24 68.12,-83.11 52.8,-74.95"/>
<polygon fill="#63b8ff" stroke="#63b8ff" points="106.98,-107.77 117.45,-109.38 110.27,-101.59 106.98,-107.77"/>
</a>
</g>
</g>
<!-- Node3 -->
<g id="Node000003" class="node">
<title>Node3</title>
<g id="a_Node000003"><a xlink:href="prelude_8h.html" target="_top" xlink:title="Single&#45;include header for all CrabLib types.">
<polygon fill="white" stroke="#666666" points="174.12,-19.25 97.38,-19.25 97.38,0 174.12,0 174.12,-19.25"/>
<text text-anchor="middle" x="135.75" y="-5.75" font-family="Helvetica,sans-Serif" font-size="10.00">crab/prelude.h</text>
</a>
</g>
</g>
<!-- Node1&#45;&gt;Node3 -->
<g id="edge3_Node000001_Node000003" class="edge">
<title>Node1&#45;&gt;Node3</title>
<g id="a_edge3_Node000001_Node000003"><a xlink:title=" ">
<path fill="none" stroke="#63b8ff" d="M126.62,-99.78C123.46,-92.09 120.32,-83.05 118.75,-74.5 115.09,-54.64 124.5,-31.89 130.74,-19.62"/>
<polygon fill="#63b8ff" stroke="#63b8ff" points="123.36,-101.07 130.61,-108.79 129.76,-98.23 123.36,-101.07"/>
</a>
</g>
</g>
<!-- Node4 -->
<g id="Node000004" class="node">
<title>Node4</title>
<g id="a_Node000004"><a xlink:href="ring__buffer_8h.html" target="_top" xlink:title="Lock&#45;free SPSC (Single Producer Single Consumer) ring buffer.">
<polygon fill="white" stroke="#666666" points="217.88,-74.5 127.62,-74.5 127.62,-55.25 217.88,-55.25 217.88,-74.5"/>
<text text-anchor="middle" x="172.75" y="-61" font-family="Helvetica,sans-Serif" font-size="10.00">crab/ring_buffer.h</text>
</a>
</g>
</g>
<!-- Node1&#45;&gt;Node4 -->
<g id="edge4_Node000001_Node000004" class="edge">
<title>Node1&#45;&gt;Node4</title>
<g id="a_edge4_Node000001_Node000004"><a xlink:title=" ">
<path fill="none" stroke="#63b8ff" d="M148.41,-100.9C154.52,-92.11 161.57,-81.96 166.51,-74.86"/>
<polygon fill="#63b8ff" stroke="#63b8ff" points="145.56,-98.88 142.72,-109.09 151.3,-102.87 145.56,-98.88"/>
</a>
</g>
</g>
<!-- Node5 -->
<g id="Node000005" class="node">
<title>Node5</title>
<g id="a_Node000005"><a xlink:href="static__vector_8h.html" target="_top" xlink:title="Fixed&#45;capacity vector with stack allocation (no heap).">
<polygon fill="white" stroke="#666666" points="337.5,-74.5 236,-74.5 236,-55.25 337.5,-55.25 337.5,-74.5"/>
<text text-anchor="middle" x="286.75" y="-61" font-family="Helvetica,sans-Serif" font-size="10.00">crab/static_vector.h</text>
</a>
</g>
</g>
<!-- Node1&#45;&gt;Node5 -->
<g id="edge6_Node000001_Node000005" class="edge">
<title>Node1&#45;&gt;Node5</title>
<g id="a_edge6_Node000001_Node000005"><a xlink:title=" ">
<path fill="none" stroke="#63b8ff" d="M172.11,-106.3C199.56,-96.62 236.56,-83.57 261.01,-74.95"/>
<polygon fill="#63b8ff" stroke="#63b8ff" points="171.06,-102.96 162.79,-109.59 173.39,-109.56 171.06,-102.96"/>
</a>
</g>
</g>
<!-- Node2&#45;&gt;Node3 -->
<g id="edge2_Node000002_Node000003" class="edge">
<title>Node2&#45;&gt;Node3</title>
<g id="a_edge2_Node000002_Node000003"><a xlink:title=" ">
<path fill="none" stroke="#63b8ff" d="M62.79,-49.48C80.6,-39.99 103.38,-27.86 118.7,-19.7"/>
<polygon fill="#63b8ff" stroke="#63b8ff" points="61.23,-46.34 54.05,-54.13 64.52,-52.52 61.23,-46.34"/>
</a>
</g>
</g>
<!-- Node4&#45;&gt;Node3 -->
<g id="edge5_Node000004_Node000003" class="edge">
<title>Node4&#45;&gt;Node3</title>
<g id="a_edge5_Node000004_Node000003"><a xlink:title=" ">
<path fill="none" stroke="#63b8ff" d="M160.09,-45.65C153.98,-36.86 146.93,-26.71 141.99,-19.61"/>
<polygon fill="#63b8ff" stroke="#63b8ff" points="157.2,-47.62 165.78,-53.84 162.94,-43.63 157.2,-47.62"/>
</a>
</g>
</g>
<!-- Node5&#45;&gt;Node3 -->
<g id="edge7_Node000005_Node000003" class="edge">
<title>Node5&#45;&gt;Node3</title>
<g id="a_edge7_Node000005_Node000003"><a xlink:title=" ">
<path fill="none" stroke="#63b8ff" d="M250.39,-51.05C222.94,-41.37 185.94,-28.32 161.49,-19.7"/>
<polygon fill="#63b8ff" stroke="#63b8ff" points="249.11,-54.31 259.71,-54.34 251.44,-47.71 249.11,-54.31"/>
</a>
</g>
</g>
</g>
</svg>
</svg>

<style type='text/css'>
<![CDATA[
[data-mouse-over-selected='false'] { opacity: 0.7; }
[data-mouse-over-selected='true']  { opacity: 1.0; }
]]>
</style>
<script type="application/ecmascript"><![CDATA[
document.addEventListener('DOMContentLoaded', (event) => {
  highlightEdges();
  highlightAdjacentNodes();
});
]]></script>
</svg>
