<?xml version="1.0" encoding="UTF-8" standalone="no"?>
<!DOCTYPE svg PUBLIC "-//W3C//DTD SVG 1.1//EN"
 "http://www.w3.org/Graphics/SVG/1.1/DTD/svg11.dtd">
<!-- Generated by graphviz version 12.2.0 (20241103.1931)
 -->
<!-- Title: crab/prelude.h Pages: 1 -->
<!--zoomable 304 -->

<svg id="main" version="1.1" xmlns="http://www.w3.org/2000/svg" xmlns:xlink="http://www.w3.org/1999/xlink" xml:space="preserve" onload="init(evt)">

<style type="text/css"><![CDATA[
.node, .edge {opacity: 0.7;}
.node.selected, .edge.selected {opacity: 1;}
.edge:hover path { stroke: red; }
.edge:hover polygon { stroke: red; fill: red; }
]]></style>

<defs>
  <circle id="rim" cx="0" cy="0" r="7"/>
  <circle id="rim2" cx="0" cy="0" r="3.5"/>
  <g id="zoomPlus">
    <use xlink:href="#rim" fill="#404040"><set attributeName="fill" to="#808080" begin="zoomplus.mouseover" end="zoomplus.mouseout"/></use>
    <path d="M-4,0h8M0,-4v8" fill="none" stroke="white" stroke-width="1.5" pointer-events="none"/>
  </g>
  <g id="zoomMin">
    <use xlink:href="#rim" fill="#404040"><set attributeName="fill" to="#808080" begin="zoomminus.mouseover" end="zoomminus.mouseout"/></use>
    <path d="M-4,0h8" fill="none" stroke="white" stroke-width="1.5" pointer-events="none"/>
  </g>
  <g id="arrowUp" transform="translate(30 24)">
    <use xlink:href="#rim"/>
    <path pointer-events="none" fill="none" stroke="white" stroke-width="1.5" d="M0,-3.0v7 M-2.5,-0.5L0,-3.0L2.5,-0.5"/>
  </g>
  <g id="arrowRight" transform="rotate(90) translate(36 -43)">
    <use xlink:href="#rim"/>
    <path pointer-events="none" fill="none" stroke="white" stroke-width="1.5" d="M0,-3.0v7 M-2.5,-0.5L0,-3.0L2.5,-0.5"/>
  </g>
  <g id="arrowDown" transform="rotate(180) translate(-30 -48)">
    <use xlink:href="#rim"/>
    <path pointer-events="none" fill="none" stroke="white" stroke-width="1.5" d="M0,-3.0v7 M-2.5,-0.5L0,-3.0L2.5,-0.5"/>
  </g>
  <g id="arrowLeft" transform="rotate(270) translate(-36 17)">
    <use xlink:href="#rim"/>
    <path pointer-events="none" fill="none" stroke="white" stroke-width="1.5" d="M0,-3.0v7 M-2.5,-0.5L0,-3.0L2.5,-0.5"/>
  </g>
  <g id="resetDef">
    <use xlink:href="#rim2" fill="#404040"><set attributeName="fill" to="#808080" begin="reset.mouseover" end="reset.mouseout"/></use>
  </g>
</defs>
<script type="application/ecmascript">
var viewWidth = 1069;
var viewHeight = 304;
var sectionId = 'dynsection-0';
</script>
<script type="application/ecmascript" xlink:href="svg.min.js"/>
<svg id="graph" class="graph">
<g id="viewport">
<title>crab/prelude.h</title>
<!-- Node1 -->
<g id="Node000001" class="node">
<title>Node1</title>
<g id="a_Node000001"><a xlink:title="Single&#45;include header for all CrabLib types.">
<polygon fill="#999999" stroke="#666666" points="603.47,-295.5 526.72,-295.5 526.72,-276.25 603.47,-276.25 603.47,-295.5"/>
<text text-anchor="middle" x="565.1" y="-282" font-family="Helvetica,sans-Serif" font-size="10.00">crab/prelude.h</text>
</a>
</g>
</g>
<!-- Node2 -->
<g id="Node000002" class="node">
<title>Node2</title>
<g id="a_Node000002"><a xlink:href="result_8h.html" target="_top" xlink:title="Rust&#45;inspired Result&lt;T, E&gt; type for error handling without exceptions.">
<polygon fill="white" stroke="#666666" points="378.72,-129.75 309.47,-129.75 309.47,-110.5 378.72,-110.5 378.72,-129.75"/>
<text text-anchor="middle" x="344.1" y="-116.25" font-family="Helvetica,sans-Serif" font-size="10.00">crab/result.h</text>
</a>
</g>
</g>
<!-- Node1&#45;&gt;Node2 -->
<g id="edge1_Node000001_Node000002" class="edge">
<title>Node1&#45;&gt;Node2</title>
<g id="a_edge1_Node000001_Node000002"><a xlink:title=" ">
<path fill="none" stroke="#63b8ff" d="M526.33,-279.84C490.81,-274.05 437.62,-262.35 396.1,-240.25 363.22,-222.75 348.47,-218.92 333.1,-185 326.77,-171.03 330.29,-153.83 334.98,-140.8"/>
<polygon fill="#63b8ff" stroke="#63b8ff" points="338.19,-142.2 338.77,-131.62 331.72,-139.52 338.19,-142.2"/>
</a>
</g>
</g>
<!-- Node3 -->
<g id="Node000003" class="node">
<title>Node3</title>
<g id="a_Node000003"><a xlink:href="macros_8h.html" target="_top" xlink:title="CrabLib assertion and utility macros.">
<polygon fill="white" stroke="#666666" points="874.85,-74.5 797.35,-74.5 797.35,-55.25 874.85,-55.25 874.85,-74.5"/>
<text text-anchor="middle" x="836.1" y="-61" font-family="Helvetica,sans-Serif" font-size="10.00">crab/macros.h</text>
</a>
</g>
</g>
<!-- Node1&#45;&gt;Node3 -->
<g id="edge49_Node000001_Node000003" class="edge">
<title>Node1&#45;&gt;Node3</title>
<g id="a_edge49_Node000001_Node000003"><a xlink:title=" ">
<path fill="none" stroke="#63b8ff" d="M603.9,-283.72C710.78,-279.55 1004.78,-261.24 1053.1,-185 1095.71,-117.75 963.03,-85.45 886.43,-72.73"/>
<polygon fill="#63b8ff" stroke="#63b8ff" points="887.03,-69.29 876.61,-71.17 885.93,-76.2 887.03,-69.29"/>
</a>
</g>
</g>
<!-- Node6 -->
<g id="Node000006" class="node">
<title>Node6</title>
<g id="a_Node000006"><a xlink:href="error__types_8h.html" target="_top" xlink:title="Common error types for CrabLib Result&lt;T, E&gt;.">
<polygon fill="white" stroke="#666666" points="93.72,-74.5 0.47,-74.5 0.47,-55.25 93.72,-55.25 93.72,-74.5"/>
<text text-anchor="middle" x="47.1" y="-61" font-family="Helvetica,sans-Serif" font-size="10.00">crab/error_types.h</text>
</a>
</g>
</g>
<!-- Node1&#45;&gt;Node6 -->
<g id="edge50_Node000001_Node000006" class="edge">
<title>Node1&#45;&gt;Node6</title>
<g id="a_edge50_Node000001_Node000006"><a xlink:title=" ">
<path fill="none" stroke="#63b8ff" d="M526.45,-282.95C459.56,-278.98 318.23,-267.86 202.1,-240.25 131.35,-223.43 107.22,-227.33 48.1,-185 16.83,-162.61 -10.29,-146.16 4.1,-110.5 8.53,-99.51 17.11,-89.71 25.45,-82.12"/>
<polygon fill="#63b8ff" stroke="#63b8ff" points="27.61,-84.87 33.03,-75.77 23.12,-79.51 27.61,-84.87"/>
</a>
</g>
</g>
<!-- Node12 -->
<g id="Node000012" class="node">
<title>Node12</title>
<g id="a_Node000012"><a xlink:href="option_8h.html" target="_top" xlink:title="Ergonomic Option&lt;T&gt; type with Rust&#45;inspired monadic interface.">
<polygon fill="white" stroke="#666666" points="674.85,-185 603.35,-185 603.35,-165.75 674.85,-165.75 674.85,-185"/>
<text text-anchor="middle" x="639.1" y="-171.5" font-family="Helvetica,sans-Serif" font-size="10.00">crab/option.h</text>
</a>
</g>
</g>
<!-- Node1&#45;&gt;Node12 -->
<g id="edge11_Node000001_Node000012" class="edge">
<title>Node1&#45;&gt;Node12</title>
<g id="a_edge11_Node000001_Node000012"><a xlink:title=" ">
<path fill="none" stroke="#63b8ff" d="M571.15,-276C583.24,-258.27 610.58,-218.19 626.65,-194.63"/>
<polygon fill="#63b8ff" stroke="#63b8ff" points="629.36,-196.86 632.1,-186.63 623.58,-192.92 629.36,-196.86"/>
</a>
</g>
</g>
<!-- Node15 -->
<g id="Node000015" class="node">
<title>Node15</title>
<g id="a_Node000015"><a xlink:href="slice_8h.html" target="_top" xlink:title="Bounds&#45;checked non&#45;owning view for contiguous memory.">
<polygon fill="white" stroke="#666666" points="207.85,-185 142.35,-185 142.35,-165.75 207.85,-165.75 207.85,-185"/>
<text text-anchor="middle" x="175.1" y="-171.5" font-family="Helvetica,sans-Serif" font-size="10.00">crab/slice.h</text>
</a>
</g>
</g>
<!-- Node1&#45;&gt;Node15 -->
<g id="edge19_Node000001_Node000015" class="edge">
<title>Node1&#45;&gt;Node15</title>
<g id="a_edge19_Node000001_Node000015"><a xlink:title=" ">
<path fill="none" stroke="#63b8ff" d="M526.42,-283.22C449.34,-279.35 279.63,-267.89 229.1,-240.25 210.03,-229.82 194.8,-209.75 185.44,-194.88"/>
<polygon fill="#63b8ff" stroke="#63b8ff" points="188.57,-193.3 180.46,-186.49 182.55,-196.87 188.57,-193.3"/>
</a>
</g>
</g>
<!-- Node18 -->
<g id="Node000018" class="node">
<title>Node18</title>
<g id="a_Node000018"><a xlink:href="static__vector_8h.html" target="_top" xlink:title="Fixed&#45;capacity vector with stack allocation (no heap).">
<polygon fill="white" stroke="#666666" points="506.85,-240.25 405.35,-240.25 405.35,-221 506.85,-221 506.85,-240.25"/>
<text text-anchor="middle" x="456.1" y="-226.75" font-family="Helvetica,sans-Serif" font-size="10.00">crab/static_vector.h</text>
</a>
</g>
</g>
<!-- Node1&#45;&gt;Node18 -->
<g id="edge27_Node000001_Node000018" class="edge">
<title>Node1&#45;&gt;Node18</title>
<g id="a_edge27_Node000001_Node000018"><a xlink:title=" ">
<path fill="none" stroke="#63b8ff" d="M546.61,-275.84C529.69,-267.58 504.41,-255.23 484.86,-245.68"/>
<polygon fill="#63b8ff" stroke="#63b8ff" points="486.56,-242.61 476.04,-241.37 483.49,-248.9 486.56,-242.61"/>
</a>
</g>
</g>
<!-- Node21 -->
<g id="Node000021" class="node">
<title>Node21</title>
<g id="a_Node000021"><a xlink:href="ring__buffer_8h.html" target="_top" xlink:title="Lock&#45;free SPSC (Single Producer Single Consumer) ring buffer.">
<polygon fill="white" stroke="#666666" points="791.22,-240.25 700.97,-240.25 700.97,-221 791.22,-221 791.22,-240.25"/>
<text text-anchor="middle" x="746.1" y="-226.75" font-family="Helvetica,sans-Serif" font-size="10.00">crab/ring_buffer.h</text>
</a>
</g>
</g>
<!-- Node1&#45;&gt;Node21 -->
<g id="edge37_Node000001_Node000021" class="edge">
<title>Node1&#45;&gt;Node21</title>
<g id="a_edge37_Node000001_Node000021"><a xlink:title=" ">
<path fill="none" stroke="#63b8ff" d="M595.8,-275.84C625.7,-267.04 671.37,-253.61 704.52,-243.86"/>
<polygon fill="#63b8ff" stroke="#63b8ff" points="705.18,-247.31 713.79,-241.13 703.21,-240.59 705.18,-247.31"/>
</a>
</g>
</g>
<!-- Node24 -->
<g id="Node000024" class="node">
<title>Node24</title>
<g id="a_Node000024"><a xlink:href="mutex_8h.html" target="_top" xlink:title="Rust&#45;style data&#45;owning Mutex&lt;T&gt;.">
<polygon fill="white" stroke="#666666" points="926.85,-240.25 855.35,-240.25 855.35,-221 926.85,-221 926.85,-240.25"/>
<text text-anchor="middle" x="891.1" y="-226.75" font-family="Helvetica,sans-Serif" font-size="10.00">crab/mutex.h</text>
</a>
</g>
</g>
<!-- Node1&#45;&gt;Node24 -->
<g id="edge45_Node000001_Node000024" class="edge">
<title>Node1&#45;&gt;Node24</title>
<g id="a_edge45_Node000001_Node000024"><a xlink:title=" ">
<path fill="none" stroke="#63b8ff" d="M603.77,-278.56C663.76,-268.76 779.04,-249.93 843.86,-239.34"/>
<polygon fill="#63b8ff" stroke="#63b8ff" points="844.17,-242.84 853.47,-237.77 843.04,-235.93 844.17,-242.84"/>
</a>
</g>
</g>
<!-- Node2&#45;&gt;Node3 -->
<g id="edge2_Node000002_Node000003" class="edge">
<title>Node2&#45;&gt;Node3</title>
<g id="a_edge2_Node000002_Node000003"><a xlink:title=" ">
<path fill="none" stroke="#63b8ff" d="M379.09,-115.34C464.82,-106.06 685.66,-82.16 785.61,-71.34"/>
<polygon fill="#63b8ff" stroke="#63b8ff" points="785.83,-74.84 795.4,-70.28 785.08,-67.88 785.83,-74.84"/>
</a>
</g>
</g>
<!-- Node2&#45;&gt;Node6 -->
<g id="edge5_Node000002_Node000006" class="edge">
<title>Node2&#45;&gt;Node6</title>
<g id="a_edge5_Node000002_Node000006"><a xlink:title=" ">
<path fill="none" stroke="#63b8ff" d="M309.15,-112.86C259.02,-103.87 166.06,-87.21 105.41,-76.33"/>
<polygon fill="#63b8ff" stroke="#63b8ff" points="106.06,-72.89 95.6,-74.57 104.82,-79.78 106.06,-72.89"/>
</a>
</g>
</g>
<!-- Node9 -->
<g id="Node000009" class="node">
<title>Node9</title>
<g id="a_Node000009"><a xlink:title=" ">
<polygon fill="#e0e0e0" stroke="#999999" points="441.6,-74.5 380.6,-74.5 380.6,-55.25 441.6,-55.25 441.6,-74.5"/>
<text text-anchor="middle" x="411.1" y="-61" font-family="Helvetica,sans-Serif" font-size="10.00">type_traits</text>
</a>
</g>
</g>
<!-- Node2&#45;&gt;Node9 -->
<g id="edge8_Node000002_Node000009" class="edge">
<title>Node2&#45;&gt;Node9</title>
<g id="a_edge8_Node000002_Node000009"><a xlink:title=" ">
<path fill="none" stroke="#63b8ff" d="M355.46,-110.09C365.15,-102.4 379.3,-91.15 390.9,-81.93"/>
<polygon fill="#63b8ff" stroke="#63b8ff" points="393.06,-84.68 398.71,-75.72 388.71,-79.2 393.06,-84.68"/>
</a>
</g>
</g>
<!-- Node10 -->
<g id="Node000010" class="node">
<title>Node10</title>
<g id="a_Node000010"><a xlink:title=" ">
<polygon fill="#e0e0e0" stroke="#999999" points="616.35,-74.5 577.85,-74.5 577.85,-55.25 616.35,-55.25 616.35,-74.5"/>
<text text-anchor="middle" x="597.1" y="-61" font-family="Helvetica,sans-Serif" font-size="10.00">utility</text>
</a>
</g>
</g>
<!-- Node2&#45;&gt;Node10 -->
<g id="edge9_Node000002_Node000010" class="edge">
<title>Node2&#45;&gt;Node10</title>
<g id="a_edge9_Node000002_Node000010"><a xlink:title=" ">
<path fill="none" stroke="#63b8ff" d="M379.01,-111.78C428.75,-101.31 519.19,-82.27 566.46,-72.32"/>
<polygon fill="#63b8ff" stroke="#63b8ff" points="566.95,-75.8 576.02,-70.31 565.51,-68.95 566.95,-75.8"/>
</a>
</g>
</g>
<!-- Node11 -->
<g id="Node000011" class="node">
<title>Node11</title>
<g id="a_Node000011"><a xlink:title=" ">
<polygon fill="#e0e0e0" stroke="#999999" points="362.72,-74.5 317.47,-74.5 317.47,-55.25 362.72,-55.25 362.72,-74.5"/>
<text text-anchor="middle" x="340.1" y="-61" font-family="Helvetica,sans-Serif" font-size="10.00">variant</text>
</a>
</g>
</g>
<!-- Node2&#45;&gt;Node11 -->
<g id="edge10_Node000002_Node000011" class="edge">
<title>Node2&#45;&gt;Node11</title>
<g id="a_edge10_Node000002_Node000011"><a xlink:title=" ">
<path fill="none" stroke="#63b8ff" d="M343.44,-110.33C342.94,-103.74 342.24,-94.46 341.61,-86.07"/>
<polygon fill="#63b8ff" stroke="#63b8ff" points="345.12,-86.08 340.88,-76.37 338.14,-86.6 345.12,-86.08"/>
</a>
</g>
</g>
<!-- Node4 -->
<g id="Node000004" class="node">
<title>Node4</title>
<g id="a_Node000004"><a xlink:title=" ">
<polygon fill="#e0e0e0" stroke="#999999" points="826.22,-19.25 783.97,-19.25 783.97,0 826.22,0 826.22,-19.25"/>
<text text-anchor="middle" x="805.1" y="-5.75" font-family="Helvetica,sans-Serif" font-size="10.00">cstdio</text>
</a>
</g>
</g>
<!-- Node3&#45;&gt;Node4 -->
<g id="edge3_Node000003_Node000004" class="edge">
<title>Node3&#45;&gt;Node4</title>
<g id="a_edge3_Node000003_Node000004"><a xlink:title=" ">
<path fill="none" stroke="#63b8ff" d="M830.98,-55.08C826.92,-48.11 821.1,-38.12 816.01,-29.37"/>
<polygon fill="#63b8ff" stroke="#63b8ff" points="819.14,-27.8 811.09,-20.92 813.09,-31.32 819.14,-27.8"/>
</a>
</g>
</g>
<!-- Node5 -->
<g id="Node000005" class="node">
<title>Node5</title>
<g id="a_Node000005"><a xlink:title=" ">
<polygon fill="#e0e0e0" stroke="#999999" points="888.35,-19.25 843.85,-19.25 843.85,0 888.35,0 888.35,-19.25"/>
<text text-anchor="middle" x="866.1" y="-5.75" font-family="Helvetica,sans-Serif" font-size="10.00">cstdlib</text>
</a>
</g>
</g>
<!-- Node3&#45;&gt;Node5 -->
<g id="edge4_Node000003_Node000005" class="edge">
<title>Node3&#45;&gt;Node5</title>
<g id="a_edge4_Node000003_Node000005"><a xlink:title=" ">
<path fill="none" stroke="#63b8ff" d="M841.05,-55.08C844.98,-48.11 850.61,-38.12 855.53,-29.37"/>
<polygon fill="#63b8ff" stroke="#63b8ff" points="858.43,-31.36 860.29,-20.93 852.33,-27.92 858.43,-31.36"/>
</a>
</g>
</g>
<!-- Node7 -->
<g id="Node000007" class="node">
<title>Node7</title>
<g id="a_Node000007"><a xlink:title=" ">
<polygon fill="#e0e0e0" stroke="#999999" points="248.22,-19.25 199.97,-19.25 199.97,0 248.22,0 248.22,-19.25"/>
<text text-anchor="middle" x="224.1" y="-5.75" font-family="Helvetica,sans-Serif" font-size="10.00">cstddef</text>
</a>
</g>
</g>
<!-- Node6&#45;&gt;Node7 -->
<g id="edge6_Node000006_Node000007" class="edge">
<title>Node6&#45;&gt;Node7</title>
<g id="a_edge6_Node000006_Node000007"><a xlink:title=" ">
<path fill="none" stroke="#63b8ff" d="M77.12,-54.84C108,-45.55 156.07,-31.09 188.76,-21.25"/>
<polygon fill="#63b8ff" stroke="#63b8ff" points="189.62,-24.65 198.18,-18.42 187.6,-17.95 189.62,-24.65"/>
</a>
</g>
</g>
<!-- Node8 -->
<g id="Node000008" class="node">
<title>Node8</title>
<g id="a_Node000008"><a xlink:title=" ">
<polygon fill="#e0e0e0" stroke="#999999" points="69.72,-19.25 24.47,-19.25 24.47,0 69.72,0 69.72,-19.25"/>
<text text-anchor="middle" x="47.1" y="-5.75" font-family="Helvetica,sans-Serif" font-size="10.00">cstdint</text>
</a>
</g>
</g>
<!-- Node6&#45;&gt;Node8 -->
<g id="edge7_Node000006_Node000008" class="edge">
<title>Node6&#45;&gt;Node8</title>
<g id="a_edge7_Node000006_Node000008"><a xlink:title=" ">
<path fill="none" stroke="#63b8ff" d="M47.1,-55.08C47.1,-48.57 47.1,-39.42 47.1,-31.12"/>
<polygon fill="#63b8ff" stroke="#63b8ff" points="50.6,-31.12 47.1,-21.12 43.6,-31.12 50.6,-31.12"/>
</a>
</g>
</g>
<!-- Node12&#45;&gt;Node2 -->
<g id="edge18_Node000012_Node000002" class="edge">
<title>Node12&#45;&gt;Node2</title>
<g id="a_edge18_Node000012_Node000002"><a xlink:title=" ">
<path fill="none" stroke="#63b8ff" d="M602.92,-167.85C549.41,-158.19 449.16,-140.09 390.37,-129.48"/>
<polygon fill="#63b8ff" stroke="#63b8ff" points="391.14,-126.06 380.68,-127.73 389.89,-132.95 391.14,-126.06"/>
</a>
</g>
</g>
<!-- Node12&#45;&gt;Node3 -->
<g id="edge12_Node000012_Node000003" class="edge">
<title>Node12&#45;&gt;Node3</title>
<g id="a_edge12_Node000012_Node000003"><a xlink:title=" ">
<path fill="none" stroke="#63b8ff" d="M673.09,-165.29C698.14,-157.78 732.51,-145.77 760.1,-129.75 782.56,-116.7 804.92,-96.88 819.51,-82.78"/>
<polygon fill="#63b8ff" stroke="#63b8ff" points="821.79,-85.44 826.44,-75.92 816.87,-80.46 821.79,-85.44"/>
</a>
</g>
</g>
<!-- Node12&#45;&gt;Node6 -->
<g id="edge13_Node000012_Node000006" class="edge">
<title>Node12&#45;&gt;Node6</title>
<g id="a_edge13_Node000012_Node000006"><a xlink:title=" ">
<path fill="none" stroke="#63b8ff" d="M603.25,-171.04C541.15,-164.96 409.71,-150.73 300.1,-129.75 224.97,-115.37 138.88,-92.17 88.98,-78.04"/>
<polygon fill="#63b8ff" stroke="#63b8ff" points="90.03,-74.7 79.45,-75.33 88.11,-81.44 90.03,-74.7"/>
</a>
</g>
</g>
<!-- Node12&#45;&gt;Node9 -->
<g id="edge16_Node000012_Node000009" class="edge">
<title>Node12&#45;&gt;Node9</title>
<g id="a_edge16_Node000012_Node000009"><a xlink:title=" ">
<path fill="none" stroke="#63b8ff" d="M620.05,-165.31C580.23,-146.36 487.96,-102.45 440.48,-79.86"/>
<polygon fill="#63b8ff" stroke="#63b8ff" points="442.15,-76.78 431.62,-75.64 439.14,-83.1 442.15,-76.78"/>
</a>
</g>
</g>
<!-- Node12&#45;&gt;Node10 -->
<g id="edge17_Node000012_Node000010" class="edge">
<title>Node12&#45;&gt;Node10</title>
<g id="a_edge17_Node000012_Node000010"><a xlink:title=" ">
<path fill="none" stroke="#63b8ff" d="M633.83,-165.38C628.79,-156.53 621.24,-142.53 616.1,-129.75 610.27,-115.27 605.31,-98.32 601.92,-85.51"/>
<polygon fill="#63b8ff" stroke="#63b8ff" points="605.41,-85.02 599.55,-76.2 598.62,-86.75 605.41,-85.02"/>
</a>
</g>
</g>
<!-- Node13 -->
<g id="Node000013" class="node">
<title>Node13</title>
<g id="a_Node000013"><a xlink:title=" ">
<polygon fill="#e0e0e0" stroke="#999999" points="683.1,-129.75 625.1,-129.75 625.1,-110.5 683.1,-110.5 683.1,-129.75"/>
<text text-anchor="middle" x="654.1" y="-116.25" font-family="Helvetica,sans-Serif" font-size="10.00">functional</text>
</a>
</g>
</g>
<!-- Node12&#45;&gt;Node13 -->
<g id="edge14_Node000012_Node000013" class="edge">
<title>Node12&#45;&gt;Node13</title>
<g id="a_edge14_Node000012_Node000013"><a xlink:title=" ">
<path fill="none" stroke="#63b8ff" d="M641.57,-165.58C643.45,-158.92 646.11,-149.49 648.49,-141.03"/>
<polygon fill="#63b8ff" stroke="#63b8ff" points="651.81,-142.14 651.16,-131.57 645.07,-140.24 651.81,-142.14"/>
</a>
</g>
</g>
<!-- Node14 -->
<g id="Node000014" class="node">
<title>Node14</title>
<g id="a_Node000014"><a xlink:title=" ">
<polygon fill="#e0e0e0" stroke="#999999" points="750.97,-129.75 701.22,-129.75 701.22,-110.5 750.97,-110.5 750.97,-129.75"/>
<text text-anchor="middle" x="726.1" y="-116.25" font-family="Helvetica,sans-Serif" font-size="10.00">optional</text>
</a>
</g>
</g>
<!-- Node12&#45;&gt;Node14 -->
<g id="edge15_Node000012_Node000014" class="edge">
<title>Node12&#45;&gt;Node14</title>
<g id="a_edge15_Node000012_Node000014"><a xlink:title=" ">
<path fill="none" stroke="#63b8ff" d="M653.85,-165.34C666.98,-157.31 686.42,-145.41 701.83,-135.98"/>
<polygon fill="#63b8ff" stroke="#63b8ff" points="703.27,-139.2 709.97,-130.99 699.62,-133.23 703.27,-139.2"/>
</a>
</g>
</g>
<!-- Node15&#45;&gt;Node2 -->
<g id="edge21_Node000015_Node000002" class="edge">
<title>Node15&#45;&gt;Node2</title>
<g id="a_edge21_Node000015_Node000002"><a xlink:title=" ">
<path fill="none" stroke="#63b8ff" d="M203.76,-165.34C231.44,-156.62 273.59,-143.34 304.47,-133.61"/>
<polygon fill="#63b8ff" stroke="#63b8ff" points="305.36,-137 313.84,-130.66 303.25,-130.32 305.36,-137"/>
</a>
</g>
</g>
<!-- Node15&#45;&gt;Node3 -->
<g id="edge20_Node000015_Node000003" class="edge">
<title>Node15&#45;&gt;Node3</title>
<g id="a_edge20_Node000015_Node000003"><a xlink:title=" ">
<path fill="none" stroke="#63b8ff" d="M208.33,-168.92C316.2,-151.21 657.06,-95.26 786.01,-74.1"/>
<polygon fill="#63b8ff" stroke="#63b8ff" points="786.3,-77.6 795.6,-72.52 785.17,-70.69 786.3,-77.6"/>
</a>
</g>
</g>
<!-- Node15&#45;&gt;Node6 -->
<g id="edge22_Node000015_Node000006" class="edge">
<title>Node15&#45;&gt;Node6</title>
<g id="a_edge22_Node000015_Node000006"><a xlink:title=" ">
<path fill="none" stroke="#63b8ff" d="M142.08,-169.56C101.09,-162.84 34.75,-149.21 20.1,-129.75 9.51,-115.68 19.83,-96.84 30.63,-83.27"/>
<polygon fill="#63b8ff" stroke="#63b8ff" points="33.03,-85.84 36.93,-75.99 27.74,-81.26 33.03,-85.84"/>
</a>
</g>
</g>
<!-- Node15&#45;&gt;Node7 -->
<g id="edge23_Node000015_Node000007" class="edge">
<title>Node15&#45;&gt;Node7</title>
<g id="a_edge23_Node000015_Node000007"><a xlink:title=" ">
<path fill="none" stroke="#63b8ff" d="M177.73,-165.57C185.34,-140.14 207.5,-66.1 218.19,-30.37"/>
<polygon fill="#63b8ff" stroke="#63b8ff" points="221.5,-31.51 221.01,-20.92 214.8,-29.5 221.5,-31.51"/>
</a>
</g>
</g>
<!-- Node15&#45;&gt;Node9 -->
<g id="edge26_Node000015_Node000009" class="edge">
<title>Node15&#45;&gt;Node9</title>
<g id="a_edge26_Node000015_Node000009"><a xlink:title=" ">
<path fill="none" stroke="#63b8ff" d="M191.44,-165.42C215.1,-152.6 260.4,-128.58 300.1,-110.5 325.32,-99.01 354.41,-87.37 376.48,-78.87"/>
<polygon fill="#63b8ff" stroke="#63b8ff" points="377.51,-82.22 385.6,-75.38 375.01,-75.68 377.51,-82.22"/>
</a>
</g>
</g>
<!-- Node16 -->
<g id="Node000016" class="node">
<title>Node16</title>
<g id="a_Node000016"><a xlink:title=" ">
<polygon fill="#e0e0e0" stroke="#999999" points="138.72,-129.75 93.47,-129.75 93.47,-110.5 138.72,-110.5 138.72,-129.75"/>
<text text-anchor="middle" x="116.1" y="-116.25" font-family="Helvetica,sans-Serif" font-size="10.00">cstring</text>
</a>
</g>
</g>
<!-- Node15&#45;&gt;Node16 -->
<g id="edge24_Node000015_Node000016" class="edge">
<title>Node15&#45;&gt;Node16</title>
<g id="a_edge24_Node000015_Node000016"><a xlink:title=" ">
<path fill="none" stroke="#63b8ff" d="M165.09,-165.34C156.73,-157.8 144.6,-146.85 134.5,-137.73"/>
<polygon fill="#63b8ff" stroke="#63b8ff" points="136.85,-135.14 127.08,-131.04 132.16,-140.34 136.85,-135.14"/>
</a>
</g>
</g>
<!-- Node17 -->
<g id="Node000017" class="node">
<title>Node17</title>
<g id="a_Node000017"><a xlink:title=" ">
<polygon fill="#e0e0e0" stroke="#999999" points="75.1,-129.75 29.1,-129.75 29.1,-110.5 75.1,-110.5 75.1,-129.75"/>
<text text-anchor="middle" x="52.1" y="-116.25" font-family="Helvetica,sans-Serif" font-size="10.00">iterator</text>
</a>
</g>
</g>
<!-- Node15&#45;&gt;Node17 -->
<g id="edge25_Node000015_Node000017" class="edge">
<title>Node15&#45;&gt;Node17</title>
<g id="a_edge25_Node000015_Node000017"><a xlink:title=" ">
<path fill="none" stroke="#63b8ff" d="M154.23,-165.34C134.79,-156.93 105.55,-144.27 83.33,-134.65"/>
<polygon fill="#63b8ff" stroke="#63b8ff" points="85.02,-131.56 74.45,-130.8 82.24,-137.99 85.02,-131.56"/>
</a>
</g>
</g>
<!-- Node18&#45;&gt;Node2 -->
<g id="edge29_Node000018_Node000002" class="edge">
<title>Node18&#45;&gt;Node2</title>
<g id="a_edge29_Node000018_Node000002"><a xlink:title=" ">
<path fill="none" stroke="#63b8ff" d="M404.9,-222.57C381.98,-216.57 357.04,-205.49 343.1,-185 334.4,-172.22 335.47,-154.43 338.25,-140.87"/>
<polygon fill="#63b8ff" stroke="#63b8ff" points="341.6,-141.89 340.67,-131.33 334.82,-140.16 341.6,-141.89"/>
</a>
</g>
</g>
<!-- Node18&#45;&gt;Node3 -->
<g id="edge28_Node000018_Node000003" class="edge">
<title>Node18&#45;&gt;Node3</title>
<g id="a_edge28_Node000018_Node000003"><a xlink:title=" ">
<path fill="none" stroke="#63b8ff" d="M507.18,-226.7C577.82,-220.14 705.8,-198.84 787.1,-129.75 802.54,-116.62 816.21,-97.87 825.16,-84.08"/>
<polygon fill="#63b8ff" stroke="#63b8ff" points="827.91,-86.29 830.24,-75.96 821.97,-82.58 827.91,-86.29"/>
</a>
</g>
</g>
<!-- Node18&#45;&gt;Node6 -->
<g id="edge31_Node000018_Node000006" class="edge">
<title>Node18&#45;&gt;Node6</title>
<g id="a_edge31_Node000018_Node000006"><a xlink:title=" ">
<path fill="none" stroke="#63b8ff" d="M405.07,-227.16C340.59,-223.01 226.73,-212.21 133.1,-185 76.33,-168.5 44.06,-179.48 12.1,-129.75 2.11,-114.22 14.91,-95.62 27.74,-82.51"/>
<polygon fill="#63b8ff" stroke="#63b8ff" points="29.97,-85.22 34.84,-75.82 25.16,-80.13 29.97,-85.22"/>
</a>
</g>
</g>
<!-- Node18&#45;&gt;Node7 -->
<g id="edge32_Node000018_Node000007" class="edge">
<title>Node18&#45;&gt;Node7</title>
<g id="a_edge32_Node000018_Node000007"><a xlink:title=" ">
<path fill="none" stroke="#63b8ff" d="M409.78,-220.56C385.02,-213.91 355.17,-202.86 333.1,-185 279.98,-142.04 245.36,-65.87 231.27,-30.14"/>
<polygon fill="#63b8ff" stroke="#63b8ff" points="234.66,-29.19 227.82,-21.1 228.12,-31.69 234.66,-29.19"/>
</a>
</g>
</g>
<!-- Node18&#45;&gt;Node9 -->
<g id="edge35_Node000018_Node000009" class="edge">
<title>Node18&#45;&gt;Node9</title>
<g id="a_edge35_Node000018_Node000009"><a xlink:title=" ">
<path fill="none" stroke="#63b8ff" d="M424.24,-220.64C406.72,-213.88 386.49,-202.69 376.1,-185 371.76,-177.62 374.66,-174.18 376.1,-165.75 376.79,-161.65 394.02,-113.36 404.04,-85.46"/>
<polygon fill="#63b8ff" stroke="#63b8ff" points="407.22,-86.96 407.32,-76.36 400.64,-84.59 407.22,-86.96"/>
</a>
</g>
</g>
<!-- Node18&#45;&gt;Node10 -->
<g id="edge36_Node000018_Node000010" class="edge">
<title>Node18&#45;&gt;Node10</title>
<g id="a_edge36_Node000018_Node000010"><a xlink:title=" ">
<path fill="none" stroke="#63b8ff" d="M471.82,-220.54C485.13,-212.36 504.21,-199.43 518.1,-185 548.24,-153.68 574.12,-109.45 587.46,-84.64"/>
<polygon fill="#63b8ff" stroke="#63b8ff" points="590.41,-86.54 591.97,-76.06 584.22,-83.28 590.41,-86.54"/>
</a>
</g>
</g>
<!-- Node18&#45;&gt;Node12 -->
<g id="edge30_Node000018_Node000012" class="edge">
<title>Node18&#45;&gt;Node12</title>
<g id="a_edge30_Node000018_Node000012"><a xlink:title=" ">
<path fill="none" stroke="#63b8ff" d="M487.14,-220.59C517.37,-211.79 563.55,-198.36 597.06,-188.61"/>
<polygon fill="#63b8ff" stroke="#63b8ff" points="597.82,-192.03 606.45,-185.88 595.87,-185.31 597.82,-192.03"/>
</a>
</g>
</g>
<!-- Node19 -->
<g id="Node000019" class="node">
<title>Node19</title>
<g id="a_Node000019"><a xlink:title=" ">
<polygon fill="#e0e0e0" stroke="#999999" points="456.85,-185 385.35,-185 385.35,-165.75 456.85,-165.75 456.85,-185"/>
<text text-anchor="middle" x="421.1" y="-171.5" font-family="Helvetica,sans-Serif" font-size="10.00">initializer_list</text>
</a>
</g>
</g>
<!-- Node18&#45;&gt;Node19 -->
<g id="edge33_Node000018_Node000019" class="edge">
<title>Node18&#45;&gt;Node19</title>
<g id="a_edge33_Node000018_Node000019"><a xlink:title=" ">
<path fill="none" stroke="#63b8ff" d="M450.32,-220.83C445.68,-213.78 439.02,-203.65 433.23,-194.83"/>
<polygon fill="#63b8ff" stroke="#63b8ff" points="436.25,-193.06 427.83,-186.62 430.4,-196.9 436.25,-193.06"/>
</a>
</g>
</g>
<!-- Node20 -->
<g id="Node000020" class="node">
<title>Node20</title>
<g id="a_Node000020"><a xlink:title=" ">
<polygon fill="#e0e0e0" stroke="#999999" points="509.1,-185 475.1,-185 475.1,-165.75 509.1,-165.75 509.1,-185"/>
<text text-anchor="middle" x="492.1" y="-171.5" font-family="Helvetica,sans-Serif" font-size="10.00">new</text>
</a>
</g>
</g>
<!-- Node18&#45;&gt;Node20 -->
<g id="edge34_Node000018_Node000020" class="edge">
<title>Node18&#45;&gt;Node20</title>
<g id="a_edge34_Node000018_Node000020"><a xlink:title=" ">
<path fill="none" stroke="#63b8ff" d="M462.04,-220.83C466.81,-213.78 473.66,-203.65 479.62,-194.83"/>
<polygon fill="#63b8ff" stroke="#63b8ff" points="482.47,-196.86 485.17,-186.61 476.67,-192.94 482.47,-196.86"/>
</a>
</g>
</g>
<!-- Node21&#45;&gt;Node3 -->
<g id="edge39_Node000021_Node000003" class="edge">
<title>Node21&#45;&gt;Node3</title>
<g id="a_edge39_Node000021_Node000003"><a xlink:title=" ">
<path fill="none" stroke="#63b8ff" d="M791.35,-224.07C836.66,-217.47 901.81,-204.79 917.1,-185 944.81,-149.13 892.68,-104.34 859.87,-81.24"/>
<polygon fill="#63b8ff" stroke="#63b8ff" points="861.9,-78.39 851.67,-75.65 857.96,-84.17 861.9,-78.39"/>
</a>
</g>
</g>
<!-- Node21&#45;&gt;Node7 -->
<g id="edge42_Node000021_Node000007" class="edge">
<title>Node21&#45;&gt;Node7</title>
<g id="a_edge42_Node000021_Node000007"><a xlink:title=" ">
<path fill="none" stroke="#63b8ff" d="M753.14,-220.81C763.15,-208.37 782.16,-185.01 799.1,-165.75 840.01,-119.22 926.41,-100.52 884.1,-55.25 841.27,-9.43 391.03,-9.31 259.8,-10.27"/>
<polygon fill="#63b8ff" stroke="#63b8ff" points="259.95,-6.76 249.98,-10.34 260.01,-13.76 259.95,-6.76"/>
</a>
</g>
</g>
<!-- Node21&#45;&gt;Node9 -->
<g id="edge43_Node000021_Node000009" class="edge">
<title>Node21&#45;&gt;Node9</title>
<g id="a_edge43_Node000021_Node000009"><a xlink:title=" ">
<path fill="none" stroke="#63b8ff" d="M703.68,-220.55C672.54,-213.09 629.66,-201.13 594.1,-185 552.38,-166.09 545.5,-154.72 507.1,-129.75 481.91,-113.38 453.28,-94.26 433.88,-81.23"/>
<polygon fill="#63b8ff" stroke="#63b8ff" points="435.9,-78.37 425.65,-75.7 431.99,-84.18 435.9,-78.37"/>
</a>
</g>
</g>
<!-- Node21&#45;&gt;Node10 -->
<g id="edge44_Node000021_Node000010" class="edge">
<title>Node21&#45;&gt;Node10</title>
<g id="a_edge44_Node000021_Node000010"><a xlink:title=" ">
<path fill="none" stroke="#63b8ff" d="M748.67,-220.8C755.61,-196.25 773.3,-127.8 760.1,-110.5 744.15,-89.6 670.63,-76.09 627.98,-69.87"/>
<polygon fill="#63b8ff" stroke="#63b8ff" points="628.47,-66.4 618.08,-68.48 627.5,-73.34 628.47,-66.4"/>
</a>
</g>
</g>
<!-- Node21&#45;&gt;Node12 -->
<g id="edge38_Node000021_Node000012" class="edge">
<title>Node21&#45;&gt;Node12</title>
<g id="a_edge38_Node000021_Node000012"><a xlink:title=" ">
<path fill="none" stroke="#63b8ff" d="M727.95,-220.59C711.42,-212.37 686.75,-200.09 667.6,-190.56"/>
<polygon fill="#63b8ff" stroke="#63b8ff" points="669.2,-187.45 658.69,-186.13 666.08,-193.72 669.2,-187.45"/>
</a>
</g>
</g>
<!-- Node22 -->
<g id="Node000022" class="node">
<title>Node22</title>
<g id="a_Node000022"><a xlink:title=" ">
<polygon fill="#e0e0e0" stroke="#999999" points="844.6,-185 807.6,-185 807.6,-165.75 844.6,-165.75 844.6,-185"/>
<text text-anchor="middle" x="826.1" y="-171.5" font-family="Helvetica,sans-Serif" font-size="10.00">array</text>
</a>
</g>
</g>
<!-- Node21&#45;&gt;Node22 -->
<g id="edge40_Node000021_Node000022" class="edge">
<title>Node21&#45;&gt;Node22</title>
<g id="a_edge40_Node000021_Node000022"><a xlink:title=" ">
<path fill="none" stroke="#63b8ff" d="M759.67,-220.59C771.51,-212.71 788.93,-201.11 802.97,-191.77"/>
<polygon fill="#63b8ff" stroke="#63b8ff" points="804.81,-194.75 811.2,-186.29 800.94,-188.92 804.81,-194.75"/>
</a>
</g>
</g>
<!-- Node23 -->
<g id="Node000023" class="node">
<title>Node23</title>
<g id="a_Node000023"><a xlink:title=" ">
<polygon fill="#e0e0e0" stroke="#999999" points="907.72,-185 862.47,-185 862.47,-165.75 907.72,-165.75 907.72,-185"/>
<text text-anchor="middle" x="885.1" y="-171.5" font-family="Helvetica,sans-Serif" font-size="10.00">atomic</text>
</a>
</g>
</g>
<!-- Node21&#45;&gt;Node23 -->
<g id="edge41_Node000021_Node000023" class="edge">
<title>Node21&#45;&gt;Node23</title>
<g id="a_edge41_Node000021_Node000023"><a xlink:title=" ">
<path fill="none" stroke="#63b8ff" d="M769.68,-220.59C792.21,-211.96 826.41,-198.86 851.73,-189.16"/>
<polygon fill="#63b8ff" stroke="#63b8ff" points="852.83,-192.49 860.91,-185.64 850.32,-185.95 852.83,-192.49"/>
</a>
</g>
</g>
<!-- Node24&#45;&gt;Node10 -->
<g id="edge48_Node000024_Node000010" class="edge">
<title>Node24&#45;&gt;Node10</title>
<g id="a_edge48_Node000024_Node000010"><a xlink:title=" ">
<path fill="none" stroke="#63b8ff" d="M899.82,-220.79C911.45,-207.9 929.24,-183.55 917.1,-165.75 883.78,-116.91 701.76,-82.68 628.08,-70.64"/>
<polygon fill="#63b8ff" stroke="#63b8ff" points="628.75,-67.2 618.32,-69.07 627.64,-74.11 628.75,-67.2"/>
</a>
</g>
</g>
<!-- Node24&#45;&gt;Node12 -->
<g id="edge46_Node000024_Node000012" class="edge">
<title>Node24&#45;&gt;Node12</title>
<g id="a_edge46_Node000024_Node000012"><a xlink:title=" ">
<path fill="none" stroke="#63b8ff" d="M854.99,-222C810.64,-212.62 735.29,-196.7 686.36,-186.36"/>
<polygon fill="#63b8ff" stroke="#63b8ff" points="687.12,-182.95 676.62,-184.3 685.68,-189.8 687.12,-182.95"/>
</a>
</g>
</g>
<!-- Node25 -->
<g id="Node000025" class="node">
<title>Node25</title>
<g id="a_Node000025"><a xlink:title=" ">
<polygon fill="#e0e0e0" stroke="#999999" points="1044.22,-185 1001.97,-185 1001.97,-165.75 1044.22,-165.75 1044.22,-185"/>
<text text-anchor="middle" x="1023.1" y="-171.5" font-family="Helvetica,sans-Serif" font-size="10.00">mutex</text>
</a>
</g>
</g>
<!-- Node24&#45;&gt;Node25 -->
<g id="edge47_Node000024_Node000025" class="edge">
<title>Node24&#45;&gt;Node25</title>
<g id="a_edge47_Node000024_Node000025"><a xlink:title=" ">
<path fill="none" stroke="#63b8ff" d="M913.49,-220.59C934.79,-212 967.07,-198.98 991.09,-189.29"/>
<polygon fill="#63b8ff" stroke="#63b8ff" points="992.1,-192.65 1000.07,-185.66 989.49,-186.16 992.1,-192.65"/>
</a>
</g>
</g>
</g>
</svg>

<g id="navigator" transform="translate(0 0)" fill="#404254">
  <rect fill="#f2f5e9" fill-opacity="0.5" stroke="#606060" stroke-width=".5" x="0" y="0" width="60" height="60"/>
  <use id="zoomplus" xlink:href="#zoomPlus" x="17" y="9" onmousedown="handleZoom(evt,'in')"/>
  <use id="zoomminus" xlink:href="#zoomMin" x="42" y="9" onmousedown="handleZoom(evt,'out')"/>
  <use id="reset" xlink:href="#resetDef" x="30" y="36" onmousedown="handleReset()"/>
   <use id="arrowup" xlink:href="#arrowUp" x="0" y="0" onmousedown="handlePan(0,-1)"/>
  <use id="arrowright" xlink:href="#arrowRight" x="0" y="0" onmousedown="handlePan(1,0)"/>
  <use id="arrowdown" xlink:href="#arrowDown" x="0" y="0" onmousedown="handlePan(0,1)"/>
  <use id="arrowleft" xlink:href="#arrowLeft" x="0" y="0" onmousedown="handlePan(-1,0)"/>
</g>
<svg viewBox="0 0 15 15" width="100%" height="30px" preserveAspectRatio="xMaxYMin meet">
 <g id="arrow_out" transform="scale(0.3 0.3)">
  <a xlink:href="prelude_8h__incl_org.svg" target="_base">
   <rect id="button" ry="5" rx="5" y="6" x="6" height="38" width="38"
        fill="#f2f5e9" fill-opacity="0.5" stroke="#606060" stroke-width="1.0"/>
   <path id="arrow"
     d="M 11.500037,31.436501 C 11.940474,20.09759 22.043105,11.32322 32.158766,21.979434 L 37.068811,17.246167 C 37.068811,17.246167 37.088388,32 37.088388,32 L 22.160133,31.978069 C 22.160133,31.978069 26.997745,27.140456 26.997745,27.140456 C 18.528582,18.264221 13.291696,25.230495 11.500037,31.436501 z"
     style="fill:#404040;"/>
  </a>
 </g>
</svg>

<style type='text/css'>
<![CDATA[
[data-mouse-over-selected='false'] { opacity: 0.7; }
[data-mouse-over-selected='true']  { opacity: 1.0; }
]]>
</style>
<script type="application/ecmascript"><![CDATA[
document.addEventListener('DOMContentLoaded', (event) => {
  highlightEdges();
  highlightAdjacentNodes();
});
]]></script>
</svg>
