<?xml version="1.0" encoding="UTF-8" standalone="no"?>
<!DOCTYPE svg PUBLIC "-//W3C//DTD SVG 1.1//EN"
 "http://www.w3.org/Graphics/SVG/1.1/DTD/svg11.dtd">
<!-- Generated by graphviz version 12.2.0 (20241103.1931)
 -->
<!-- Title: crab/prelude.h Pages: 1 -->
<svg width="1135pt" height="304pt"
 viewBox="0.00 0.00 1134.96 303.50" xmlns="http://www.w3.org/2000/svg" xmlns:xlink="http://www.w3.org/1999/xlink">
<g id="graph0" class="graph" transform="scale(1 1) rotate(0) translate(4 299.5)">
<title>crab/prelude.h</title>
<!-- Node1 -->
<g id="Node000001" class="node">
<title>Node1</title>
<g id="a_Node000001"><a xlink:title="Single&#45;include header for all CrabLib types.">
<polygon fill="#999999" stroke="#666666" points="630.5,-295.5 553.75,-295.5 553.75,-276.25 630.5,-276.25 630.5,-295.5"/>
<text text-anchor="middle" x="592.12" y="-282" font-family="Helvetica,sans-Serif" font-size="10.00">crab/prelude.h</text>
</a>
</g>
</g>
<!-- Node2 -->
<g id="Node000002" class="node">
<title>Node2</title>
<g id="a_Node000002"><a xlink:href="result_8h.html" target="_top" xlink:title="Rust&#45;inspired Result&lt;T, E&gt; type for error handling without exceptions.">
<polygon fill="white" stroke="#666666" points="379.75,-129.75 310.5,-129.75 310.5,-110.5 379.75,-110.5 379.75,-129.75"/>
<text text-anchor="middle" x="345.12" y="-116.25" font-family="Helvetica,sans-Serif" font-size="10.00">crab/result.h</text>
</a>
</g>
</g>
<!-- Node1&#45;&gt;Node2 -->
<g id="edge1_Node000001_Node000002" class="edge">
<title>Node1&#45;&gt;Node2</title>
<g id="a_edge1_Node000001_Node000002"><a xlink:title=" ">
<path fill="none" stroke="#63b8ff" d="M553.51,-280.08C516.83,-274.39 460.94,-262.69 417.12,-240.25 383.07,-222.81 368.91,-218.87 351.12,-185 344.06,-171.55 342.82,-154.3 343.2,-141.11"/>
<polygon fill="#63b8ff" stroke="#63b8ff" points="346.67,-141.7 343.83,-131.49 339.69,-141.24 346.67,-141.7"/>
</a>
</g>
</g>
<!-- Node3 -->
<g id="Node000003" class="node">
<title>Node3</title>
<g id="a_Node000003"><a xlink:href="macros_8h.html" target="_top" xlink:title="CrabLib assertion and utility macros.">
<polygon fill="white" stroke="#666666" points="980.87,-74.5 903.37,-74.5 903.37,-55.25 980.87,-55.25 980.87,-74.5"/>
<text text-anchor="middle" x="942.12" y="-61" font-family="Helvetica,sans-Serif" font-size="10.00">crab/macros.h</text>
</a>
</g>
</g>
<!-- Node1&#45;&gt;Node3 -->
<g id="edge51_Node000001_Node000003" class="edge">
<title>Node1&#45;&gt;Node3</title>
<g id="a_edge51_Node000001_Node000003"><a xlink:title=" ">
<path fill="none" stroke="#63b8ff" d="M630.76,-284.28C743.38,-281.57 1066.82,-266.71 1122.12,-185 1138.19,-161.26 1108.77,-121.3 1096.12,-110.5 1067.14,-85.77 1025.13,-74.73 992.31,-69.8"/>
<polygon fill="#63b8ff" stroke="#63b8ff" points="992.99,-66.37 982.62,-68.51 992.07,-73.3 992.99,-66.37"/>
</a>
</g>
</g>
<!-- Node6 -->
<g id="Node000006" class="node">
<title>Node6</title>
<g id="a_Node000006"><a xlink:href="error__types_8h.html" target="_top" xlink:title="Common error types for CrabLib Result&lt;T, E&gt;.">
<polygon fill="white" stroke="#666666" points="113.75,-74.5 20.5,-74.5 20.5,-55.25 113.75,-55.25 113.75,-74.5"/>
<text text-anchor="middle" x="67.12" y="-61" font-family="Helvetica,sans-Serif" font-size="10.00">crab/error_types.h</text>
</a>
</g>
</g>
<!-- Node1&#45;&gt;Node6 -->
<g id="edge52_Node000001_Node000006" class="edge">
<title>Node1&#45;&gt;Node6</title>
<g id="a_edge52_Node000001_Node000006"><a xlink:title=" ">
<path fill="none" stroke="#63b8ff" d="M553.42,-285.58C462.52,-285.59 230.71,-275.98 67.12,-185 29.48,-164.06 -14.52,-148.84 5.12,-110.5 11.74,-97.59 24.02,-87.57 35.91,-80.32"/>
<polygon fill="#63b8ff" stroke="#63b8ff" points="37.33,-83.54 44.36,-75.62 33.92,-77.42 37.33,-83.54"/>
</a>
</g>
</g>
<!-- Node12 -->
<g id="Node000012" class="node">
<title>Node12</title>
<g id="a_Node000012"><a xlink:href="option_8h.html" target="_top" xlink:title="Ergonomic Option&lt;T&gt; type with Rust&#45;inspired monadic interface.">
<polygon fill="white" stroke="#666666" points="837.87,-185 766.37,-185 766.37,-165.75 837.87,-165.75 837.87,-185"/>
<text text-anchor="middle" x="802.12" y="-171.5" font-family="Helvetica,sans-Serif" font-size="10.00">crab/option.h</text>
</a>
</g>
</g>
<!-- Node1&#45;&gt;Node12 -->
<g id="edge11_Node000001_Node000012" class="edge">
<title>Node1&#45;&gt;Node12</title>
<g id="a_edge11_Node000001_Node000012"><a xlink:title=" ">
<path fill="none" stroke="#63b8ff" d="M622.09,-275.81C646.48,-267.9 681.43,-255.34 710.12,-240.25 736.4,-226.43 764.07,-206.36 782.12,-192.43"/>
<polygon fill="#63b8ff" stroke="#63b8ff" points="784.18,-195.25 789.89,-186.33 779.86,-189.75 784.18,-195.25"/>
</a>
</g>
</g>
<!-- Node15 -->
<g id="Node000015" class="node">
<title>Node15</title>
<g id="a_Node000015"><a xlink:href="slice_8h.html" target="_top" xlink:title="Bounds&#45;checked non&#45;owning view for contiguous memory.">
<polygon fill="white" stroke="#666666" points="238.87,-185 173.37,-185 173.37,-165.75 238.87,-165.75 238.87,-185"/>
<text text-anchor="middle" x="206.12" y="-171.5" font-family="Helvetica,sans-Serif" font-size="10.00">crab/slice.h</text>
</a>
</g>
</g>
<!-- Node1&#45;&gt;Node15 -->
<g id="edge19_Node000001_Node000015" class="edge">
<title>Node1&#45;&gt;Node15</title>
<g id="a_edge19_Node000001_Node000015"><a xlink:title=" ">
<path fill="none" stroke="#63b8ff" d="M553.45,-285.14C494.55,-284.24 379.84,-277.32 291.12,-240.25 264.64,-229.18 238.97,-208 222.9,-193.07"/>
<polygon fill="#63b8ff" stroke="#63b8ff" points="225.34,-190.56 215.7,-186.17 220.5,-195.61 225.34,-190.56"/>
</a>
</g>
</g>
<!-- Node18 -->
<g id="Node000018" class="node">
<title>Node18</title>
<g id="a_Node000018"><a xlink:href="static__vector_8h.html" target="_top" xlink:title="Fixed&#45;capacity vector with stack allocation (no heap).">
<polygon fill="white" stroke="#666666" points="527.87,-240.25 426.37,-240.25 426.37,-221 527.87,-221 527.87,-240.25"/>
<text text-anchor="middle" x="477.12" y="-226.75" font-family="Helvetica,sans-Serif" font-size="10.00">crab/static_vector.h</text>
</a>
</g>
</g>
<!-- Node1&#45;&gt;Node18 -->
<g id="edge27_Node000001_Node000018" class="edge">
<title>Node1&#45;&gt;Node18</title>
<g id="a_edge27_Node000001_Node000018"><a xlink:title=" ">
<path fill="none" stroke="#63b8ff" d="M572.61,-275.84C554.61,-267.5 527.6,-255 506.9,-245.41"/>
<polygon fill="#63b8ff" stroke="#63b8ff" points="508.65,-242.36 498.1,-241.34 505.7,-248.72 508.65,-242.36"/>
</a>
</g>
</g>
<!-- Node21 -->
<g id="Node000021" class="node">
<title>Node21</title>
<g id="a_Node000021"><a xlink:href="ring__buffer_8h.html" target="_top" xlink:title="Lock&#45;free SPSC (Single Producer Single Consumer) ring buffer.">
<polygon fill="white" stroke="#666666" points="701.25,-240.25 611,-240.25 611,-221 701.25,-221 701.25,-240.25"/>
<text text-anchor="middle" x="656.12" y="-226.75" font-family="Helvetica,sans-Serif" font-size="10.00">crab/ring_buffer.h</text>
</a>
</g>
</g>
<!-- Node1&#45;&gt;Node21 -->
<g id="edge37_Node000001_Node000021" class="edge">
<title>Node1&#45;&gt;Node21</title>
<g id="a_edge37_Node000001_Node000021"><a xlink:title=" ">
<path fill="none" stroke="#63b8ff" d="M602.98,-275.84C612.23,-268.15 625.75,-256.9 636.83,-247.68"/>
<polygon fill="#63b8ff" stroke="#63b8ff" points="638.81,-250.58 644.26,-241.49 634.34,-245.2 638.81,-250.58"/>
</a>
</g>
</g>
<!-- Node23 -->
<g id="Node000023" class="node">
<title>Node23</title>
<g id="a_Node000023"><a xlink:href="mutex_8h.html" target="_top" xlink:title="Rust&#45;style data&#45;owning Mutex&lt;T&gt;.">
<polygon fill="white" stroke="#666666" points="974.87,-240.25 903.37,-240.25 903.37,-221 974.87,-221 974.87,-240.25"/>
<text text-anchor="middle" x="939.12" y="-226.75" font-family="Helvetica,sans-Serif" font-size="10.00">crab/mutex.h</text>
</a>
</g>
</g>
<!-- Node1&#45;&gt;Node23 -->
<g id="edge45_Node000001_Node000023" class="edge">
<title>Node1&#45;&gt;Node23</title>
<g id="a_edge45_Node000001_Node000023"><a xlink:title=" ">
<path fill="none" stroke="#63b8ff" d="M630.92,-278.92C695,-269.09 822.73,-249.49 891.94,-238.87"/>
<polygon fill="#63b8ff" stroke="#63b8ff" points="892.08,-242.39 901.43,-237.41 891.02,-235.47 892.08,-242.39"/>
</a>
</g>
</g>
<!-- Node2&#45;&gt;Node3 -->
<g id="edge2_Node000002_Node000003" class="edge">
<title>Node2&#45;&gt;Node3</title>
<g id="a_edge2_Node000002_Node000003"><a xlink:title=" ">
<path fill="none" stroke="#63b8ff" d="M380.24,-115.99C481.47,-106.96 774.14,-80.86 892.03,-70.34"/>
<polygon fill="#63b8ff" stroke="#63b8ff" points="892.06,-73.85 901.71,-69.48 891.44,-66.88 892.06,-73.85"/>
</a>
</g>
</g>
<!-- Node2&#45;&gt;Node6 -->
<g id="edge5_Node000002_Node000006" class="edge">
<title>Node2&#45;&gt;Node6</title>
<g id="a_edge5_Node000002_Node000006"><a xlink:title=" ">
<path fill="none" stroke="#63b8ff" d="M310.2,-112.43C263.81,-103.55 181.24,-87.73 125.35,-77.03"/>
<polygon fill="#63b8ff" stroke="#63b8ff" points="126.17,-73.62 115.69,-75.18 124.85,-80.5 126.17,-73.62"/>
</a>
</g>
</g>
<!-- Node9 -->
<g id="Node000009" class="node">
<title>Node9</title>
<g id="a_Node000009"><a xlink:title=" ">
<polygon fill="#e0e0e0" stroke="#999999" points="442.62,-74.5 381.62,-74.5 381.62,-55.25 442.62,-55.25 442.62,-74.5"/>
<text text-anchor="middle" x="412.12" y="-61" font-family="Helvetica,sans-Serif" font-size="10.00">type_traits</text>
</a>
</g>
</g>
<!-- Node2&#45;&gt;Node9 -->
<g id="edge8_Node000002_Node000009" class="edge">
<title>Node2&#45;&gt;Node9</title>
<g id="a_edge8_Node000002_Node000009"><a xlink:title=" ">
<path fill="none" stroke="#63b8ff" d="M356.49,-110.09C366.17,-102.4 380.32,-91.15 391.93,-81.93"/>
<polygon fill="#63b8ff" stroke="#63b8ff" points="394.09,-84.68 399.74,-75.72 389.73,-79.2 394.09,-84.68"/>
</a>
</g>
</g>
<!-- Node10 -->
<g id="Node000010" class="node">
<title>Node10</title>
<g id="a_Node000010"><a xlink:title=" ">
<polygon fill="#e0e0e0" stroke="#999999" points="665.37,-74.5 626.87,-74.5 626.87,-55.25 665.37,-55.25 665.37,-74.5"/>
<text text-anchor="middle" x="646.12" y="-61" font-family="Helvetica,sans-Serif" font-size="10.00">utility</text>
</a>
</g>
</g>
<!-- Node2&#45;&gt;Node10 -->
<g id="edge9_Node000002_Node000010" class="edge">
<title>Node2&#45;&gt;Node10</title>
<g id="a_edge9_Node000002_Node000010"><a xlink:title=" ">
<path fill="none" stroke="#63b8ff" d="M380.24,-112.91C439.75,-102.39 559.39,-81.22 615.62,-71.27"/>
<polygon fill="#63b8ff" stroke="#63b8ff" points="615.88,-74.78 625.12,-69.59 614.66,-67.89 615.88,-74.78"/>
</a>
</g>
</g>
<!-- Node11 -->
<g id="Node000011" class="node">
<title>Node11</title>
<g id="a_Node000011"><a xlink:title=" ">
<polygon fill="#e0e0e0" stroke="#999999" points="363.75,-74.5 318.5,-74.5 318.5,-55.25 363.75,-55.25 363.75,-74.5"/>
<text text-anchor="middle" x="341.12" y="-61" font-family="Helvetica,sans-Serif" font-size="10.00">variant</text>
</a>
</g>
</g>
<!-- Node2&#45;&gt;Node11 -->
<g id="edge10_Node000002_Node000011" class="edge">
<title>Node2&#45;&gt;Node11</title>
<g id="a_edge10_Node000002_Node000011"><a xlink:title=" ">
<path fill="none" stroke="#63b8ff" d="M344.46,-110.33C343.97,-103.74 343.27,-94.46 342.64,-86.07"/>
<polygon fill="#63b8ff" stroke="#63b8ff" points="346.15,-86.08 341.91,-76.37 339.17,-86.6 346.15,-86.08"/>
</a>
</g>
</g>
<!-- Node4 -->
<g id="Node000004" class="node">
<title>Node4</title>
<g id="a_Node000004"><a xlink:title=" ">
<polygon fill="#e0e0e0" stroke="#999999" points="932.25,-19.25 890,-19.25 890,0 932.25,0 932.25,-19.25"/>
<text text-anchor="middle" x="911.12" y="-5.75" font-family="Helvetica,sans-Serif" font-size="10.00">cstdio</text>
</a>
</g>
</g>
<!-- Node3&#45;&gt;Node4 -->
<g id="edge3_Node000003_Node000004" class="edge">
<title>Node3&#45;&gt;Node4</title>
<g id="a_edge3_Node000003_Node000004"><a xlink:title=" ">
<path fill="none" stroke="#63b8ff" d="M937,-55.08C932.94,-48.11 927.13,-38.12 922.04,-29.37"/>
<polygon fill="#63b8ff" stroke="#63b8ff" points="925.17,-27.8 917.11,-20.92 919.12,-31.32 925.17,-27.8"/>
</a>
</g>
</g>
<!-- Node5 -->
<g id="Node000005" class="node">
<title>Node5</title>
<g id="a_Node000005"><a xlink:title=" ">
<polygon fill="#e0e0e0" stroke="#999999" points="994.37,-19.25 949.87,-19.25 949.87,0 994.37,0 994.37,-19.25"/>
<text text-anchor="middle" x="972.12" y="-5.75" font-family="Helvetica,sans-Serif" font-size="10.00">cstdlib</text>
</a>
</g>
</g>
<!-- Node3&#45;&gt;Node5 -->
<g id="edge4_Node000003_Node000005" class="edge">
<title>Node3&#45;&gt;Node5</title>
<g id="a_edge4_Node000003_Node000005"><a xlink:title=" ">
<path fill="none" stroke="#63b8ff" d="M947.08,-55.08C951,-48.11 956.63,-38.12 961.56,-29.37"/>
<polygon fill="#63b8ff" stroke="#63b8ff" points="964.46,-31.36 966.32,-20.93 958.36,-27.92 964.46,-31.36"/>
</a>
</g>
</g>
<!-- Node7 -->
<g id="Node000007" class="node">
<title>Node7</title>
<g id="a_Node000007"><a xlink:title=" ">
<polygon fill="#e0e0e0" stroke="#999999" points="268.25,-19.25 220,-19.25 220,0 268.25,0 268.25,-19.25"/>
<text text-anchor="middle" x="244.12" y="-5.75" font-family="Helvetica,sans-Serif" font-size="10.00">cstddef</text>
</a>
</g>
</g>
<!-- Node6&#45;&gt;Node7 -->
<g id="edge6_Node000006_Node000007" class="edge">
<title>Node6&#45;&gt;Node7</title>
<g id="a_edge6_Node000006_Node000007"><a xlink:title=" ">
<path fill="none" stroke="#63b8ff" d="M97.15,-54.84C128.03,-45.55 176.1,-31.09 208.79,-21.25"/>
<polygon fill="#63b8ff" stroke="#63b8ff" points="209.64,-24.65 218.21,-18.42 207.63,-17.95 209.64,-24.65"/>
</a>
</g>
</g>
<!-- Node8 -->
<g id="Node000008" class="node">
<title>Node8</title>
<g id="a_Node000008"><a xlink:title=" ">
<polygon fill="#e0e0e0" stroke="#999999" points="89.75,-19.25 44.5,-19.25 44.5,0 89.75,0 89.75,-19.25"/>
<text text-anchor="middle" x="67.12" y="-5.75" font-family="Helvetica,sans-Serif" font-size="10.00">cstdint</text>
</a>
</g>
</g>
<!-- Node6&#45;&gt;Node8 -->
<g id="edge7_Node000006_Node000008" class="edge">
<title>Node6&#45;&gt;Node8</title>
<g id="a_edge7_Node000006_Node000008"><a xlink:title=" ">
<path fill="none" stroke="#63b8ff" d="M67.12,-55.08C67.12,-48.57 67.12,-39.42 67.12,-31.12"/>
<polygon fill="#63b8ff" stroke="#63b8ff" points="70.62,-31.12 67.12,-21.12 63.62,-31.12 70.62,-31.12"/>
</a>
</g>
</g>
<!-- Node12&#45;&gt;Node2 -->
<g id="edge18_Node000012_Node000002" class="edge">
<title>Node12&#45;&gt;Node2</title>
<g id="a_edge18_Node000012_Node000002"><a xlink:title=" ">
<path fill="none" stroke="#63b8ff" d="M766.15,-167.06C763.44,-166.59 760.74,-166.15 758.12,-165.75 625.53,-145.63 467.65,-131.19 391.18,-124.8"/>
<polygon fill="#63b8ff" stroke="#63b8ff" points="391.83,-121.34 381.57,-124 391.25,-128.32 391.83,-121.34"/>
</a>
</g>
</g>
<!-- Node12&#45;&gt;Node3 -->
<g id="edge12_Node000012_Node000003" class="edge">
<title>Node12&#45;&gt;Node3</title>
<g id="a_edge12_Node000012_Node000003"><a xlink:title=" ">
<path fill="none" stroke="#63b8ff" d="M813.58,-165.5C837.27,-147.14 891.91,-104.79 921.76,-81.66"/>
<polygon fill="#63b8ff" stroke="#63b8ff" points="923.55,-84.7 929.31,-75.8 919.26,-79.16 923.55,-84.7"/>
</a>
</g>
</g>
<!-- Node12&#45;&gt;Node6 -->
<g id="edge13_Node000012_Node000006" class="edge">
<title>Node12&#45;&gt;Node6</title>
<g id="a_edge13_Node000012_Node000006"><a xlink:title=" ">
<path fill="none" stroke="#63b8ff" d="M766.16,-166.98C763.45,-166.52 760.74,-166.11 758.12,-165.75 556.27,-138.11 501.84,-164.73 301.12,-129.75 230.56,-117.45 150.47,-93.3 104.66,-78.47"/>
<polygon fill="#63b8ff" stroke="#63b8ff" points="105.81,-75.17 95.21,-75.39 103.63,-81.82 105.81,-75.17"/>
</a>
</g>
</g>
<!-- Node12&#45;&gt;Node9 -->
<g id="edge16_Node000012_Node000009" class="edge">
<title>Node12&#45;&gt;Node9</title>
<g id="a_edge16_Node000012_Node000009"><a xlink:title=" ">
<path fill="none" stroke="#63b8ff" d="M769.54,-165.31C698.96,-145.67 532.01,-99.23 453.85,-77.48"/>
<polygon fill="#63b8ff" stroke="#63b8ff" points="455.01,-74.17 444.44,-74.87 453.14,-80.92 455.01,-74.17"/>
</a>
</g>
</g>
<!-- Node12&#45;&gt;Node10 -->
<g id="edge17_Node000012_Node000010" class="edge">
<title>Node12&#45;&gt;Node10</title>
<g id="a_edge17_Node000012_Node000010"><a xlink:title=" ">
<path fill="none" stroke="#63b8ff" d="M773.99,-165.29C753.2,-157.75 724.86,-145.7 703.12,-129.75 685.57,-116.88 669.45,-97.83 658.86,-83.88"/>
<polygon fill="#63b8ff" stroke="#63b8ff" points="661.82,-82 653.09,-76.01 656.18,-86.14 661.82,-82"/>
</a>
</g>
</g>
<!-- Node13 -->
<g id="Node000013" class="node">
<title>Node13</title>
<g id="a_Node000013"><a xlink:title=" ">
<polygon fill="#e0e0e0" stroke="#999999" points="770.12,-129.75 712.12,-129.75 712.12,-110.5 770.12,-110.5 770.12,-129.75"/>
<text text-anchor="middle" x="741.12" y="-116.25" font-family="Helvetica,sans-Serif" font-size="10.00">functional</text>
</a>
</g>
</g>
<!-- Node12&#45;&gt;Node13 -->
<g id="edge14_Node000012_Node000013" class="edge">
<title>Node12&#45;&gt;Node13</title>
<g id="a_edge14_Node000012_Node000013"><a xlink:title=" ">
<path fill="none" stroke="#63b8ff" d="M791.77,-165.34C783.05,-157.72 770.33,-146.62 759.83,-137.45"/>
<polygon fill="#63b8ff" stroke="#63b8ff" points="762.29,-134.96 752.46,-131.02 757.69,-140.23 762.29,-134.96"/>
</a>
</g>
</g>
<!-- Node14 -->
<g id="Node000014" class="node">
<title>Node14</title>
<g id="a_Node000014"><a xlink:title=" ">
<polygon fill="#e0e0e0" stroke="#999999" points="838,-129.75 788.25,-129.75 788.25,-110.5 838,-110.5 838,-129.75"/>
<text text-anchor="middle" x="813.12" y="-116.25" font-family="Helvetica,sans-Serif" font-size="10.00">optional</text>
</a>
</g>
</g>
<!-- Node12&#45;&gt;Node14 -->
<g id="edge15_Node000012_Node000014" class="edge">
<title>Node12&#45;&gt;Node14</title>
<g id="a_edge15_Node000012_Node000014"><a xlink:title=" ">
<path fill="none" stroke="#63b8ff" d="M803.94,-165.58C805.3,-158.99 807.22,-149.71 808.95,-141.32"/>
<polygon fill="#63b8ff" stroke="#63b8ff" points="812.37,-142.09 810.96,-131.59 805.51,-140.68 812.37,-142.09"/>
</a>
</g>
</g>
<!-- Node15&#45;&gt;Node2 -->
<g id="edge21_Node000015_Node000002" class="edge">
<title>Node15&#45;&gt;Node2</title>
<g id="a_edge21_Node000015_Node000002"><a xlink:title=" ">
<path fill="none" stroke="#63b8ff" d="M229.7,-165.34C251.97,-156.81 285.61,-143.92 310.84,-134.26"/>
<polygon fill="#63b8ff" stroke="#63b8ff" points="311.93,-137.59 320.01,-130.74 309.42,-131.05 311.93,-137.59"/>
</a>
</g>
</g>
<!-- Node15&#45;&gt;Node3 -->
<g id="edge20_Node000015_Node000003" class="edge">
<title>Node15&#45;&gt;Node3</title>
<g id="a_edge20_Node000015_Node000003"><a xlink:title=" ">
<path fill="none" stroke="#63b8ff" d="M239.18,-169.5C356.16,-152.26 751.09,-94.04 891.81,-73.29"/>
<polygon fill="#63b8ff" stroke="#63b8ff" points="892.18,-76.78 901.56,-71.85 891.16,-69.85 892.18,-76.78"/>
</a>
</g>
</g>
<!-- Node15&#45;&gt;Node6 -->
<g id="edge22_Node000015_Node000006" class="edge">
<title>Node15&#45;&gt;Node6</title>
<g id="a_edge22_Node000015_Node000006"><a xlink:title=" ">
<path fill="none" stroke="#63b8ff" d="M172.95,-171.22C124.91,-165.89 39.67,-153.31 21.12,-129.75 8.5,-113.72 26.26,-94.65 43.25,-81.55"/>
<polygon fill="#63b8ff" stroke="#63b8ff" points="45.12,-84.51 51.18,-75.83 41.02,-78.84 45.12,-84.51"/>
</a>
</g>
</g>
<!-- Node15&#45;&gt;Node7 -->
<g id="edge23_Node000015_Node000007" class="edge">
<title>Node15&#45;&gt;Node7</title>
<g id="a_edge23_Node000015_Node000007"><a xlink:title=" ">
<path fill="none" stroke="#63b8ff" d="M208.17,-165.57C214.07,-140.14 231.25,-66.1 239.54,-30.37"/>
<polygon fill="#63b8ff" stroke="#63b8ff" points="242.88,-31.48 241.73,-20.95 236.06,-29.9 242.88,-31.48"/>
</a>
</g>
</g>
<!-- Node15&#45;&gt;Node9 -->
<g id="edge26_Node000015_Node000009" class="edge">
<title>Node15&#45;&gt;Node9</title>
<g id="a_edge26_Node000015_Node000009"><a xlink:title=" ">
<path fill="none" stroke="#63b8ff" d="M217.91,-165.26C235.39,-152.02 269.51,-127.24 301.12,-110.5 324.67,-98.03 352.51,-86.84 374.41,-78.79"/>
<polygon fill="#63b8ff" stroke="#63b8ff" points="375.31,-82.19 383.53,-75.5 372.93,-75.61 375.31,-82.19"/>
</a>
</g>
</g>
<!-- Node16 -->
<g id="Node000016" class="node">
<title>Node16</title>
<g id="a_Node000016"><a xlink:title=" ">
<polygon fill="#e0e0e0" stroke="#999999" points="75.75,-129.75 30.5,-129.75 30.5,-110.5 75.75,-110.5 75.75,-129.75"/>
<text text-anchor="middle" x="53.12" y="-116.25" font-family="Helvetica,sans-Serif" font-size="10.00">cstring</text>
</a>
</g>
</g>
<!-- Node15&#45;&gt;Node16 -->
<g id="edge24_Node000015_Node000016" class="edge">
<title>Node15&#45;&gt;Node16</title>
<g id="a_edge24_Node000015_Node000016"><a xlink:title=" ">
<path fill="none" stroke="#63b8ff" d="M180.17,-165.34C154.43,-156.38 114.87,-142.61 86.74,-132.82"/>
<polygon fill="#63b8ff" stroke="#63b8ff" points="88.22,-129.63 77.63,-129.65 85.92,-136.25 88.22,-129.63"/>
</a>
</g>
</g>
<!-- Node17 -->
<g id="Node000017" class="node">
<title>Node17</title>
<g id="a_Node000017"><a xlink:title=" ">
<polygon fill="#e0e0e0" stroke="#999999" points="140.12,-129.75 94.12,-129.75 94.12,-110.5 140.12,-110.5 140.12,-129.75"/>
<text text-anchor="middle" x="117.12" y="-116.25" font-family="Helvetica,sans-Serif" font-size="10.00">iterator</text>
</a>
</g>
</g>
<!-- Node15&#45;&gt;Node17 -->
<g id="edge25_Node000015_Node000017" class="edge">
<title>Node15&#45;&gt;Node17</title>
<g id="a_edge25_Node000015_Node000017"><a xlink:title=" ">
<path fill="none" stroke="#63b8ff" d="M191.03,-165.34C177.6,-157.31 157.71,-145.41 141.95,-135.98"/>
<polygon fill="#63b8ff" stroke="#63b8ff" points="143.97,-133.11 133.59,-130.98 140.38,-139.12 143.97,-133.11"/>
</a>
</g>
</g>
<!-- Node18&#45;&gt;Node2 -->
<g id="edge29_Node000018_Node000002" class="edge">
<title>Node18&#45;&gt;Node2</title>
<g id="a_edge29_Node000018_Node000002"><a xlink:title=" ">
<path fill="none" stroke="#63b8ff" d="M431.65,-220.5C409.58,-213.97 384.21,-203.03 367.12,-185 355.88,-173.14 350.36,-155.26 347.66,-141.44"/>
<polygon fill="#63b8ff" stroke="#63b8ff" points="351.14,-141 346.13,-131.66 344.22,-142.08 351.14,-141"/>
</a>
</g>
</g>
<!-- Node18&#45;&gt;Node3 -->
<g id="edge28_Node000018_Node000003" class="edge">
<title>Node18&#45;&gt;Node3</title>
<g id="a_edge28_Node000018_Node000003"><a xlink:title=" ">
<path fill="none" stroke="#63b8ff" d="M528.36,-225.61C623.41,-217.85 819.86,-200.21 847.12,-185 888.76,-161.77 918.86,-112.2 933.03,-84.89"/>
<polygon fill="#63b8ff" stroke="#63b8ff" points="936.11,-86.56 937.44,-76.05 929.84,-83.44 936.11,-86.56"/>
</a>
</g>
</g>
<!-- Node18&#45;&gt;Node6 -->
<g id="edge31_Node000018_Node000006" class="edge">
<title>Node18&#45;&gt;Node6</title>
<g id="a_edge31_Node000018_Node000006"><a xlink:title=" ">
<path fill="none" stroke="#63b8ff" d="M426.18,-227.02C315.7,-220.14 60.21,-197.12 13.12,-129.75 0.8,-112.11 20.83,-93.5 39.89,-80.94"/>
<polygon fill="#63b8ff" stroke="#63b8ff" points="41.63,-83.98 48.31,-75.76 37.96,-78.02 41.63,-83.98"/>
</a>
</g>
</g>
<!-- Node18&#45;&gt;Node7 -->
<g id="edge32_Node000018_Node000007" class="edge">
<title>Node18&#45;&gt;Node7</title>
<g id="a_edge32_Node000018_Node000007"><a xlink:title=" ">
<path fill="none" stroke="#63b8ff" d="M435.89,-220.55C410.06,-213.58 376.9,-202.18 351.12,-185 294.03,-146.95 262.18,-67.04 249.98,-30.11"/>
<polygon fill="#63b8ff" stroke="#63b8ff" points="253.39,-29.28 247.04,-20.8 246.71,-31.39 253.39,-29.28"/>
</a>
</g>
</g>
<!-- Node18&#45;&gt;Node9 -->
<g id="edge35_Node000018_Node000009" class="edge">
<title>Node18&#45;&gt;Node9</title>
<g id="a_edge35_Node000018_Node000009"><a xlink:title=" ">
<path fill="none" stroke="#63b8ff" d="M447.2,-220.64C430.15,-213.81 410.23,-202.54 400.12,-185 382.2,-153.89 393.92,-110.53 403.45,-85.61"/>
<polygon fill="#63b8ff" stroke="#63b8ff" points="406.67,-86.98 407.24,-76.4 400.2,-84.32 406.67,-86.98"/>
</a>
</g>
</g>
<!-- Node18&#45;&gt;Node10 -->
<g id="edge36_Node000018_Node000010" class="edge">
<title>Node18&#45;&gt;Node10</title>
<g id="a_edge36_Node000018_Node000010"><a xlink:title=" ">
<path fill="none" stroke="#63b8ff" d="M483.23,-220.92C492.34,-208.21 510.32,-184.07 528.12,-165.75 559.52,-133.44 600.48,-100.56 624.96,-81.75"/>
<polygon fill="#63b8ff" stroke="#63b8ff" points="627.03,-84.57 632.87,-75.73 622.79,-79 627.03,-84.57"/>
</a>
</g>
</g>
<!-- Node18&#45;&gt;Node12 -->
<g id="edge30_Node000018_Node000012" class="edge">
<title>Node18&#45;&gt;Node12</title>
<g id="a_edge30_Node000018_Node000012"><a xlink:title=" ">
<path fill="none" stroke="#63b8ff" d="M528.23,-222.07C582.25,-213.97 670.22,-200.41 755,-185.51"/>
<polygon fill="#63b8ff" stroke="#63b8ff" points="755.4,-188.99 764.63,-183.8 754.18,-182.1 755.4,-188.99"/>
</a>
</g>
</g>
<!-- Node19 -->
<g id="Node000019" class="node">
<title>Node19</title>
<g id="a_Node000019"><a xlink:title=" ">
<polygon fill="#e0e0e0" stroke="#999999" points="480.87,-185 409.37,-185 409.37,-165.75 480.87,-165.75 480.87,-185"/>
<text text-anchor="middle" x="445.12" y="-171.5" font-family="Helvetica,sans-Serif" font-size="10.00">initializer_list</text>
</a>
</g>
</g>
<!-- Node18&#45;&gt;Node19 -->
<g id="edge33_Node000018_Node000019" class="edge">
<title>Node18&#45;&gt;Node19</title>
<g id="a_edge33_Node000018_Node000019"><a xlink:title=" ">
<path fill="none" stroke="#63b8ff" d="M471.84,-220.83C467.65,-213.86 461.64,-203.87 456.39,-195.12"/>
<polygon fill="#63b8ff" stroke="#63b8ff" points="459.45,-193.43 451.3,-186.66 453.45,-197.03 459.45,-193.43"/>
</a>
</g>
</g>
<!-- Node20 -->
<g id="Node000020" class="node">
<title>Node20</title>
<g id="a_Node000020"><a xlink:title=" ">
<polygon fill="#e0e0e0" stroke="#999999" points="571.12,-185 537.12,-185 537.12,-165.75 571.12,-165.75 571.12,-185"/>
<text text-anchor="middle" x="554.12" y="-171.5" font-family="Helvetica,sans-Serif" font-size="10.00">new</text>
</a>
</g>
</g>
<!-- Node18&#45;&gt;Node20 -->
<g id="edge34_Node000018_Node000020" class="edge">
<title>Node18&#45;&gt;Node20</title>
<g id="a_edge34_Node000018_Node000020"><a xlink:title=" ">
<path fill="none" stroke="#63b8ff" d="M490.18,-220.59C501.58,-212.71 518.35,-201.11 531.86,-191.77"/>
<polygon fill="#63b8ff" stroke="#63b8ff" points="533.52,-194.88 539.75,-186.31 529.54,-189.12 533.52,-194.88"/>
</a>
</g>
</g>
<!-- Node21&#45;&gt;Node3 -->
<g id="edge39_Node000021_Node000003" class="edge">
<title>Node21&#45;&gt;Node3</title>
<g id="a_edge39_Node000021_Node000003"><a xlink:title=" ">
<path fill="none" stroke="#63b8ff" d="M701.47,-227.98C771.68,-224.55 902.23,-214.3 937.12,-185 963.29,-163.02 961.3,-144.28 956.12,-110.5 954.85,-102.18 952.31,-93.28 949.74,-85.63"/>
<polygon fill="#63b8ff" stroke="#63b8ff" points="953.07,-84.54 946.37,-76.33 946.49,-86.93 953.07,-84.54"/>
</a>
</g>
</g>
<!-- Node21&#45;&gt;Node7 -->
<g id="edge41_Node000021_Node000007" class="edge">
<title>Node21&#45;&gt;Node7</title>
<g id="a_edge41_Node000021_Node000007"><a xlink:title=" ">
<path fill="none" stroke="#63b8ff" d="M650.36,-220.72C641.7,-207.75 624.42,-183.3 606.12,-165.75 545.32,-107.44 529.15,-89.36 452.12,-55.25 394.99,-29.95 322.52,-18.6 279.94,-13.81"/>
<polygon fill="#63b8ff" stroke="#63b8ff" points="280.32,-10.33 270.01,-12.76 279.59,-17.29 280.32,-10.33"/>
</a>
</g>
</g>
<!-- Node21&#45;&gt;Node9 -->
<g id="edge43_Node000021_Node000009" class="edge">
<title>Node21&#45;&gt;Node9</title>
<g id="a_edge43_Node000021_Node000009"><a xlink:title=" ">
<path fill="none" stroke="#63b8ff" d="M646.69,-220.83C632.71,-208 605.42,-183.72 580.12,-165.75 532.7,-132.06 473.44,-98.7 439.48,-80.34"/>
<polygon fill="#63b8ff" stroke="#63b8ff" points="441.18,-77.28 430.72,-75.64 437.87,-83.45 441.18,-77.28"/>
</a>
</g>
</g>
<!-- Node21&#45;&gt;Node10 -->
<g id="edge44_Node000021_Node000010" class="edge">
<title>Node21&#45;&gt;Node10</title>
<g id="a_edge44_Node000021_Node000010"><a xlink:title=" ">
<path fill="none" stroke="#63b8ff" d="M655.59,-220.82C654.04,-195.5 649.55,-122 647.36,-86.09"/>
<polygon fill="#63b8ff" stroke="#63b8ff" points="650.86,-86 646.76,-76.23 643.87,-86.43 650.86,-86"/>
</a>
</g>
</g>
<!-- Node21&#45;&gt;Node12 -->
<g id="edge38_Node000021_Node000012" class="edge">
<title>Node21&#45;&gt;Node12</title>
<g id="a_edge38_Node000021_Node000012"><a xlink:title=" ">
<path fill="none" stroke="#63b8ff" d="M680.89,-220.59C704.38,-212.02 739.93,-199.06 766.47,-189.38"/>
<polygon fill="#63b8ff" stroke="#63b8ff" points="767.62,-192.69 775.81,-185.97 765.22,-186.11 767.62,-192.69"/>
</a>
</g>
</g>
<!-- Node21&#45;&gt;Node20 -->
<g id="edge42_Node000021_Node000020" class="edge">
<title>Node21&#45;&gt;Node20</title>
<g id="a_edge42_Node000021_Node000020"><a xlink:title=" ">
<path fill="none" stroke="#63b8ff" d="M638.82,-220.59C623.14,-212.41 599.77,-200.21 581.55,-190.69"/>
<polygon fill="#63b8ff" stroke="#63b8ff" points="583.34,-187.68 572.85,-186.15 580.1,-193.88 583.34,-187.68"/>
</a>
</g>
</g>
<!-- Node22 -->
<g id="Node000022" class="node">
<title>Node22</title>
<g id="a_Node000022"><a xlink:title=" ">
<polygon fill="#e0e0e0" stroke="#999999" points="748.75,-185 703.5,-185 703.5,-165.75 748.75,-165.75 748.75,-185"/>
<text text-anchor="middle" x="726.12" y="-171.5" font-family="Helvetica,sans-Serif" font-size="10.00">atomic</text>
</a>
</g>
</g>
<!-- Node21&#45;&gt;Node22 -->
<g id="edge40_Node000021_Node000022" class="edge">
<title>Node21&#45;&gt;Node22</title>
<g id="a_edge40_Node000021_Node000022"><a xlink:title=" ">
<path fill="none" stroke="#63b8ff" d="M668,-220.59C678.22,-212.82 693.19,-201.42 705.39,-192.15"/>
<polygon fill="#63b8ff" stroke="#63b8ff" points="707.38,-195.03 713.22,-186.19 703.14,-189.46 707.38,-195.03"/>
</a>
</g>
</g>
<!-- Node23&#45;&gt;Node3 -->
<g id="edge47_Node000023_Node000003" class="edge">
<title>Node23&#45;&gt;Node3</title>
<g id="a_edge47_Node000023_Node000003"><a xlink:title=" ">
<path fill="none" stroke="#63b8ff" d="M975.37,-224.97C1019.06,-218.52 1088.57,-205.32 1104.12,-185 1142.18,-135.29 1047.41,-96.76 987.24,-78.15"/>
<polygon fill="#63b8ff" stroke="#63b8ff" points="988.48,-74.87 977.9,-75.34 986.47,-81.57 988.48,-74.87"/>
</a>
</g>
</g>
<!-- Node23&#45;&gt;Node10 -->
<g id="edge50_Node000023_Node000010" class="edge">
<title>Node23&#45;&gt;Node10</title>
<g id="a_edge50_Node000023_Node000010"><a xlink:title=" ">
<path fill="none" stroke="#63b8ff" d="M935.01,-220.74C924.14,-198.33 892.34,-139.22 847.12,-110.5 793.98,-76.75 718.83,-68.32 677.1,-66.34"/>
<polygon fill="#63b8ff" stroke="#63b8ff" points="677.41,-62.85 667.29,-65.98 677.15,-69.84 677.41,-62.85"/>
</a>
</g>
</g>
<!-- Node23&#45;&gt;Node12 -->
<g id="edge46_Node000023_Node000012" class="edge">
<title>Node23&#45;&gt;Node12</title>
<g id="a_edge46_Node000023_Node000012"><a xlink:title=" ">
<path fill="none" stroke="#63b8ff" d="M915.88,-220.59C893.94,-212.06 860.77,-199.17 835.91,-189.51"/>
<polygon fill="#63b8ff" stroke="#63b8ff" points="837.48,-186.36 826.89,-186 834.94,-192.89 837.48,-186.36"/>
</a>
</g>
</g>
<!-- Node24 -->
<g id="Node000024" class="node">
<title>Node24</title>
<g id="a_Node000024"><a xlink:title=" ">
<polygon fill="#e0e0e0" stroke="#999999" points="1034.75,-185 989.5,-185 989.5,-165.75 1034.75,-165.75 1034.75,-185"/>
<text text-anchor="middle" x="1012.12" y="-171.5" font-family="Helvetica,sans-Serif" font-size="10.00">chrono</text>
</a>
</g>
</g>
<!-- Node23&#45;&gt;Node24 -->
<g id="edge48_Node000023_Node000024" class="edge">
<title>Node23&#45;&gt;Node24</title>
<g id="a_edge48_Node000023_Node000024"><a xlink:title=" ">
<path fill="none" stroke="#63b8ff" d="M951.51,-220.59C962.27,-212.74 978.09,-201.2 990.88,-191.87"/>
<polygon fill="#63b8ff" stroke="#63b8ff" points="992.68,-194.89 998.7,-186.17 988.56,-189.23 992.68,-194.89"/>
</a>
</g>
</g>
<!-- Node25 -->
<g id="Node000025" class="node">
<title>Node25</title>
<g id="a_Node000025"><a xlink:title=" ">
<polygon fill="#e0e0e0" stroke="#999999" points="1095.25,-185 1053,-185 1053,-165.75 1095.25,-165.75 1095.25,-185"/>
<text text-anchor="middle" x="1074.12" y="-171.5" font-family="Helvetica,sans-Serif" font-size="10.00">mutex</text>
</a>
</g>
</g>
<!-- Node23&#45;&gt;Node25 -->
<g id="edge49_Node000023_Node000025" class="edge">
<title>Node23&#45;&gt;Node25</title>
<g id="a_edge49_Node000023_Node000025"><a xlink:title=" ">
<path fill="none" stroke="#63b8ff" d="M962.02,-220.59C984.07,-211.89 1017.62,-198.66 1042.27,-188.94"/>
<polygon fill="#63b8ff" stroke="#63b8ff" points="1043.47,-192.23 1051.48,-185.3 1040.9,-185.72 1043.47,-192.23"/>
</a>
</g>
</g>
</g>
</svg>
