<?xml version="1.0" encoding="UTF-8" standalone="no"?>
<!DOCTYPE svg PUBLIC "-//W3C//DTD SVG 1.1//EN"
 "http://www.w3.org/Graphics/SVG/1.1/DTD/svg11.dtd">
<!-- Generated by graphviz version 12.2.0 (20241103.1931)
 -->
<!-- Title: crab/result.h Pages: 1 -->
<svg width="429pt" height="138pt"
 viewBox="0.00 0.00 428.75 137.75" xmlns="http://www.w3.org/2000/svg" xmlns:xlink="http://www.w3.org/1999/xlink">
<g id="graph0" class="graph" transform="scale(1 1) rotate(0) translate(4 133.75)">
<title>crab/result.h</title>
<!-- Node1 -->
<g id="Node000001" class="node">
<title>Node1</title>
<g id="a_Node000001"><a xlink:title="Rust&#45;inspired Result&lt;T, E&gt; type for error handling without exceptions.">
<polygon fill="#999999" stroke="#666666" points="304.75,-129.75 235.5,-129.75 235.5,-110.5 304.75,-110.5 304.75,-129.75"/>
<text text-anchor="middle" x="270.12" y="-116.25" font-family="Helvetica,sans-Serif" font-size="10.00">crab/result.h</text>
</a>
</g>
</g>
<!-- Node2 -->
<g id="Node000002" class="node">
<title>Node2</title>
<g id="a_Node000002"><a xlink:href="macros_8h.html" target="_top" xlink:title="CrabLib assertion and utility macros.">
<polygon fill="white" stroke="#666666" points="110.88,-74.5 33.38,-74.5 33.38,-55.25 110.88,-55.25 110.88,-74.5"/>
<text text-anchor="middle" x="72.12" y="-61" font-family="Helvetica,sans-Serif" font-size="10.00">crab/macros.h</text>
</a>
</g>
</g>
<!-- Node1&#45;&gt;Node2 -->
<g id="edge1_Node000001_Node000002" class="edge">
<title>Node1&#45;&gt;Node2</title>
<g id="a_edge1_Node000001_Node000002"><a xlink:title=" ">
<path fill="none" stroke="#63b8ff" d="M236.54,-110.09C203.54,-101.22 153,-87.62 116.66,-77.85"/>
<polygon fill="#63b8ff" stroke="#63b8ff" points="117.91,-74.56 107.34,-75.35 116.09,-81.32 117.91,-74.56"/>
</a>
</g>
</g>
<!-- Node5 -->
<g id="Node000005" class="node">
<title>Node5</title>
<g id="a_Node000005"><a xlink:href="error__types_8h.html" target="_top" xlink:title="Common error types for CrabLib Result&lt;T, E&gt;.">
<polygon fill="white" stroke="#666666" points="221.75,-74.5 128.5,-74.5 128.5,-55.25 221.75,-55.25 221.75,-74.5"/>
<text text-anchor="middle" x="175.12" y="-61" font-family="Helvetica,sans-Serif" font-size="10.00">crab/error_types.h</text>
</a>
</g>
</g>
<!-- Node1&#45;&gt;Node5 -->
<g id="edge4_Node000001_Node000005" class="edge">
<title>Node1&#45;&gt;Node5</title>
<g id="a_edge4_Node000001_Node000005"><a xlink:title=" ">
<path fill="none" stroke="#63b8ff" d="M254.01,-110.09C239.54,-101.98 218.05,-89.93 201.14,-80.46"/>
<polygon fill="#63b8ff" stroke="#63b8ff" points="203.07,-77.53 192.64,-75.69 199.65,-83.64 203.07,-77.53"/>
</a>
</g>
</g>
<!-- Node8 -->
<g id="Node000008" class="node">
<title>Node8</title>
<g id="a_Node000008"><a xlink:title=" ">
<polygon fill="#e0e0e0" stroke="#999999" points="300.62,-74.5 239.62,-74.5 239.62,-55.25 300.62,-55.25 300.62,-74.5"/>
<text text-anchor="middle" x="270.12" y="-61" font-family="Helvetica,sans-Serif" font-size="10.00">type_traits</text>
</a>
</g>
</g>
<!-- Node1&#45;&gt;Node8 -->
<g id="edge7_Node000001_Node000008" class="edge">
<title>Node1&#45;&gt;Node8</title>
<g id="a_edge7_Node000001_Node000008"><a xlink:title=" ">
<path fill="none" stroke="#63b8ff" d="M270.12,-110.33C270.12,-103.82 270.12,-94.67 270.12,-86.37"/>
<polygon fill="#63b8ff" stroke="#63b8ff" points="273.63,-86.37 270.13,-76.37 266.63,-86.37 273.63,-86.37"/>
</a>
</g>
</g>
<!-- Node9 -->
<g id="Node000009" class="node">
<title>Node9</title>
<g id="a_Node000009"><a xlink:title=" ">
<polygon fill="#e0e0e0" stroke="#999999" points="357.38,-74.5 318.88,-74.5 318.88,-55.25 357.38,-55.25 357.38,-74.5"/>
<text text-anchor="middle" x="338.12" y="-61" font-family="Helvetica,sans-Serif" font-size="10.00">utility</text>
</a>
</g>
</g>
<!-- Node1&#45;&gt;Node9 -->
<g id="edge8_Node000001_Node000009" class="edge">
<title>Node1&#45;&gt;Node9</title>
<g id="a_edge8_Node000001_Node000009"><a xlink:title=" ">
<path fill="none" stroke="#63b8ff" d="M281.66,-110.09C291.59,-102.32 306.14,-90.92 317.98,-81.65"/>
<polygon fill="#63b8ff" stroke="#63b8ff" points="319.85,-84.63 325.57,-75.71 315.54,-79.12 319.85,-84.63"/>
</a>
</g>
</g>
<!-- Node10 -->
<g id="Node000010" class="node">
<title>Node10</title>
<g id="a_Node000010"><a xlink:title=" ">
<polygon fill="#e0e0e0" stroke="#999999" points="420.75,-74.5 375.5,-74.5 375.5,-55.25 420.75,-55.25 420.75,-74.5"/>
<text text-anchor="middle" x="398.12" y="-61" font-family="Helvetica,sans-Serif" font-size="10.00">variant</text>
</a>
</g>
</g>
<!-- Node1&#45;&gt;Node10 -->
<g id="edge9_Node000001_Node000010" class="edge">
<title>Node1&#45;&gt;Node10</title>
<g id="a_edge9_Node000001_Node000010"><a xlink:title=" ">
<path fill="none" stroke="#63b8ff" d="M291.84,-110.09C312.16,-101.64 342.77,-88.9 365.93,-79.27"/>
<polygon fill="#63b8ff" stroke="#63b8ff" points="367.02,-82.61 374.91,-75.53 364.33,-76.14 367.02,-82.61"/>
</a>
</g>
</g>
<!-- Node3 -->
<g id="Node000003" class="node">
<title>Node3</title>
<g id="a_Node000003"><a xlink:title=" ">
<polygon fill="#e0e0e0" stroke="#999999" points="42.25,-19.25 0,-19.25 0,0 42.25,0 42.25,-19.25"/>
<text text-anchor="middle" x="21.12" y="-5.75" font-family="Helvetica,sans-Serif" font-size="10.00">cstdio</text>
</a>
</g>
</g>
<!-- Node2&#45;&gt;Node3 -->
<g id="edge2_Node000002_Node000003" class="edge">
<title>Node2&#45;&gt;Node3</title>
<g id="a_edge2_Node000002_Node000003"><a xlink:title=" ">
<path fill="none" stroke="#63b8ff" d="M63.7,-55.08C56.59,-47.65 46.18,-36.79 37.44,-27.66"/>
<polygon fill="#63b8ff" stroke="#63b8ff" points="40.22,-25.5 30.78,-20.7 35.17,-30.35 40.22,-25.5"/>
</a>
</g>
</g>
<!-- Node4 -->
<g id="Node000004" class="node">
<title>Node4</title>
<g id="a_Node000004"><a xlink:title=" ">
<polygon fill="#e0e0e0" stroke="#999999" points="104.38,-19.25 59.88,-19.25 59.88,0 104.38,0 104.38,-19.25"/>
<text text-anchor="middle" x="82.12" y="-5.75" font-family="Helvetica,sans-Serif" font-size="10.00">cstdlib</text>
</a>
</g>
</g>
<!-- Node2&#45;&gt;Node4 -->
<g id="edge3_Node000002_Node000004" class="edge">
<title>Node2&#45;&gt;Node4</title>
<g id="a_edge3_Node000002_Node000004"><a xlink:title=" ">
<path fill="none" stroke="#63b8ff" d="M73.78,-55.08C75.01,-48.49 76.76,-39.21 78.33,-30.82"/>
<polygon fill="#63b8ff" stroke="#63b8ff" points="81.75,-31.57 80.16,-21.1 74.87,-30.28 81.75,-31.57"/>
</a>
</g>
</g>
<!-- Node6 -->
<g id="Node000006" class="node">
<title>Node6</title>
<g id="a_Node000006"><a xlink:title=" ">
<polygon fill="#e0e0e0" stroke="#999999" points="189.25,-19.25 141,-19.25 141,0 189.25,0 189.25,-19.25"/>
<text text-anchor="middle" x="165.12" y="-5.75" font-family="Helvetica,sans-Serif" font-size="10.00">cstddef</text>
</a>
</g>
</g>
<!-- Node5&#45;&gt;Node6 -->
<g id="edge5_Node000005_Node000006" class="edge">
<title>Node5&#45;&gt;Node6</title>
<g id="a_edge5_Node000005_Node000006"><a xlink:title=" ">
<path fill="none" stroke="#63b8ff" d="M173.47,-55.08C172.24,-48.49 170.49,-39.21 168.92,-30.82"/>
<polygon fill="#63b8ff" stroke="#63b8ff" points="172.38,-30.28 167.09,-21.1 165.5,-31.57 172.38,-30.28"/>
</a>
</g>
</g>
<!-- Node7 -->
<g id="Node000007" class="node">
<title>Node7</title>
<g id="a_Node000007"><a xlink:title=" ">
<polygon fill="#e0e0e0" stroke="#999999" points="252.75,-19.25 207.5,-19.25 207.5,0 252.75,0 252.75,-19.25"/>
<text text-anchor="middle" x="230.12" y="-5.75" font-family="Helvetica,sans-Serif" font-size="10.00">cstdint</text>
</a>
</g>
</g>
<!-- Node5&#45;&gt;Node7 -->
<g id="edge6_Node000005_Node000007" class="edge">
<title>Node5&#45;&gt;Node7</title>
<g id="a_edge6_Node000005_Node000007"><a xlink:title=" ">
<path fill="none" stroke="#63b8ff" d="M184.21,-55.08C191.96,-47.57 203.34,-36.56 212.82,-27.38"/>
<polygon fill="#63b8ff" stroke="#63b8ff" points="215.01,-30.13 219.76,-20.66 210.14,-25.1 215.01,-30.13"/>
</a>
</g>
</g>
</g>
</svg>
