<?xml version="1.0" encoding="UTF-8" standalone="no"?>
<!DOCTYPE svg PUBLIC "-//W3C//DTD SVG 1.1//EN"
 "http://www.w3.org/Graphics/SVG/1.1/DTD/svg11.dtd">
<!-- Generated by graphviz version 12.2.0 (20241103.1931)
 -->
<!-- Title: crab/result.h Pages: 1 -->
<svg width="468pt" height="193pt"
 viewBox="0.00 0.00 467.50 193.00" xmlns="http://www.w3.org/2000/svg" xmlns:xlink="http://www.w3.org/1999/xlink">

<svg id="main" version="1.1" xmlns="http://www.w3.org/2000/svg" xmlns:xlink="http://www.w3.org/1999/xlink" xml:space="preserve">

<style type="text/css"><![CDATA[
.node, .edge {opacity: 0.7;}
.node.selected, .edge.selected {opacity: 1;}
.edge:hover path { stroke: red; }
.edge:hover polygon { stroke: red; fill: red; }
]]></style>
<script type="application/ecmascript" xlink:href="svg.min.js"/>
<svg id="graph" class="graph">
<g id="graph0" class="graph" transform="scale(1 1) rotate(0) translate(4 189)">
<title>crab/result.h</title>
<!-- Node1 -->
<g id="Node000001" class="node">
<title>Node1</title>
<g id="a_Node000001"><a xlink:title="Rust&#45;inspired Result&lt;T, E&gt; type for error handling without exceptions.">
<polygon fill="#999999" stroke="#666666" points="380.38,-185 311.12,-185 311.12,-165.75 380.38,-165.75 380.38,-185"/>
<text text-anchor="middle" x="345.75" y="-171.5" font-family="Helvetica,sans-Serif" font-size="10.00">crab/result.h</text>
</a>
</g>
</g>
<!-- Node2 -->
<g id="Node000002" class="node">
<title>Node2</title>
<g id="a_Node000002"><a xlink:href="option_8h.html" target="_top" xlink:title="Ergonomic Option&lt;T&gt; type with Rust&#45;inspired monadic interface.">
<polygon fill="white" stroke="#666666" points="208.5,-129.75 137,-129.75 137,-110.5 208.5,-110.5 208.5,-129.75"/>
<text text-anchor="middle" x="172.75" y="-116.25" font-family="Helvetica,sans-Serif" font-size="10.00">crab/option.h</text>
</a>
</g>
</g>
<!-- Node1&#45;&gt;Node2 -->
<g id="edge1_Node000001_Node000002" class="edge">
<title>Node1&#45;&gt;Node2</title>
<g id="a_edge1_Node000001_Node000002"><a xlink:title=" ">
<path fill="none" stroke="#63b8ff" d="M305.76,-162.07C274.15,-152.34 230.75,-138.98 202.24,-130.2"/>
<polygon fill="#63b8ff" stroke="#63b8ff" points="304.37,-165.3 314.96,-164.9 306.43,-158.61 304.37,-165.3"/>
</a>
</g>
</g>
<!-- Node4 -->
<g id="Node000004" class="node">
<title>Node4</title>
<g id="a_Node000004"><a xlink:href="prelude_8h.html" target="_top" xlink:title="Single&#45;include header for all CrabLib types.">
<polygon fill="white" stroke="#666666" points="268.12,-19.25 191.38,-19.25 191.38,0 268.12,0 268.12,-19.25"/>
<text text-anchor="middle" x="229.75" y="-5.75" font-family="Helvetica,sans-Serif" font-size="10.00">crab/prelude.h</text>
</a>
</g>
</g>
<!-- Node1&#45;&gt;Node4 -->
<g id="edge9_Node000001_Node000004" class="edge">
<title>Node1&#45;&gt;Node4</title>
<g id="a_edge9_Node000001_Node000004"><a xlink:title=" ">
<path fill="none" stroke="#63b8ff" d="M352.33,-154.48C359.4,-129.06 367.12,-84.82 346.75,-55.25 329.3,-29.92 295.39,-18.96 268.56,-14.22"/>
<polygon fill="#63b8ff" stroke="#63b8ff" points="349.04,-153.27 349.47,-163.85 355.73,-155.31 349.04,-153.27"/>
</a>
</g>
</g>
<!-- Node6 -->
<g id="Node000006" class="node">
<title>Node6</title>
<g id="a_Node000006"><a xlink:href="static__vector_8h.html" target="_top" xlink:title="Fixed&#45;capacity vector with stack allocation (no heap).">
<polygon fill="white" stroke="#666666" points="337.5,-74.5 236,-74.5 236,-55.25 337.5,-55.25 337.5,-74.5"/>
<text text-anchor="middle" x="286.75" y="-61" font-family="Helvetica,sans-Serif" font-size="10.00">crab/static_vector.h</text>
</a>
</g>
</g>
<!-- Node1&#45;&gt;Node6 -->
<g id="edge12_Node000001_Node000006" class="edge">
<title>Node1&#45;&gt;Node6</title>
<g id="a_edge12_Node000001_Node000006"><a xlink:title=" ">
<path fill="none" stroke="#63b8ff" d="M335.57,-155.65C322.75,-132.08 301.25,-92.54 291.64,-74.88"/>
<polygon fill="#63b8ff" stroke="#63b8ff" points="332.35,-157.05 340.2,-164.17 338.5,-153.71 332.35,-157.05"/>
</a>
</g>
</g>
<!-- Node7 -->
<g id="Node000007" class="node">
<title>Node7</title>
<g id="a_Node000007"><a xlink:href="slice_8h.html" target="_top" xlink:title="Bounds&#45;checked non&#45;owning view for contiguous memory.">
<polygon fill="white" stroke="#666666" points="459.5,-129.75 394,-129.75 394,-110.5 459.5,-110.5 459.5,-129.75"/>
<text text-anchor="middle" x="426.75" y="-116.25" font-family="Helvetica,sans-Serif" font-size="10.00">crab/slice.h</text>
</a>
</g>
</g>
<!-- Node1&#45;&gt;Node7 -->
<g id="edge10_Node000001_Node000007" class="edge">
<title>Node1&#45;&gt;Node7</title>
<g id="a_edge10_Node000001_Node000007"><a xlink:title=" ">
<path fill="none" stroke="#63b8ff" d="M369.09,-159.03C383.29,-149.7 400.94,-138.1 412.94,-130.2"/>
<polygon fill="#63b8ff" stroke="#63b8ff" points="367.19,-156.09 360.76,-164.51 371.03,-161.94 367.19,-156.09"/>
</a>
</g>
</g>
<!-- Node3 -->
<g id="Node000003" class="node">
<title>Node3</title>
<g id="a_Node000003"><a xlink:href="mutex_8h.html" target="_top" xlink:title="Rust&#45;style data&#45;owning Mutex&lt;T&gt;.">
<polygon fill="white" stroke="#666666" points="71.5,-74.5 0,-74.5 0,-55.25 71.5,-55.25 71.5,-74.5"/>
<text text-anchor="middle" x="35.75" y="-61" font-family="Helvetica,sans-Serif" font-size="10.00">crab/mutex.h</text>
</a>
</g>
</g>
<!-- Node2&#45;&gt;Node3 -->
<g id="edge2_Node000002_Node000003" class="edge">
<title>Node2&#45;&gt;Node3</title>
<g id="a_edge2_Node000002_Node000003"><a xlink:title=" ">
<path fill="none" stroke="#63b8ff" d="M139.09,-106.04C114.26,-96.39 81.09,-83.5 59.1,-74.95"/>
<polygon fill="#63b8ff" stroke="#63b8ff" points="137.51,-109.18 148.1,-109.54 140.05,-102.66 137.51,-109.18"/>
</a>
</g>
</g>
<!-- Node2&#45;&gt;Node4 -->
<g id="edge4_Node000002_Node000004" class="edge">
<title>Node2&#45;&gt;Node4</title>
<g id="a_edge4_Node000002_Node000004"><a xlink:title=" ">
<path fill="none" stroke="#63b8ff" d="M145.67,-104.16C126.69,-91.67 106.7,-73.08 118.75,-55.25 134.8,-31.5 165.8,-20.39 190.97,-15.19"/>
<polygon fill="#63b8ff" stroke="#63b8ff" points="143.68,-107.05 154.03,-109.31 147.35,-101.09 143.68,-107.05"/>
</a>
</g>
</g>
<!-- Node5 -->
<g id="Node000005" class="node">
<title>Node5</title>
<g id="a_Node000005"><a xlink:href="ring__buffer_8h.html" target="_top" xlink:title="Lock&#45;free SPSC (Single Producer Single Consumer) ring buffer.">
<polygon fill="white" stroke="#666666" points="217.88,-74.5 127.62,-74.5 127.62,-55.25 217.88,-55.25 217.88,-74.5"/>
<text text-anchor="middle" x="172.75" y="-61" font-family="Helvetica,sans-Serif" font-size="10.00">crab/ring_buffer.h</text>
</a>
</g>
</g>
<!-- Node2&#45;&gt;Node5 -->
<g id="edge5_Node000002_Node000005" class="edge">
<title>Node2&#45;&gt;Node5</title>
<g id="a_edge5_Node000002_Node000005"><a xlink:title=" ">
<path fill="none" stroke="#63b8ff" d="M172.75,-98.88C172.75,-90.59 172.75,-81.42 172.75,-74.86"/>
<polygon fill="#63b8ff" stroke="#63b8ff" points="169.25,-98.82 172.75,-108.82 176.25,-98.82 169.25,-98.82"/>
</a>
</g>
</g>
<!-- Node2&#45;&gt;Node6 -->
<g id="edge7_Node000002_Node000006" class="edge">
<title>Node2&#45;&gt;Node6</title>
<g id="a_edge7_Node000002_Node000006"><a xlink:title=" ">
<path fill="none" stroke="#63b8ff" d="M202.44,-105.26C222.9,-95.7 249.52,-83.27 267.32,-74.95"/>
<polygon fill="#63b8ff" stroke="#63b8ff" points="201.04,-102.05 193.46,-109.45 204,-108.39 201.04,-102.05"/>
</a>
</g>
</g>
<!-- Node3&#45;&gt;Node4 -->
<g id="edge3_Node000003_Node000004" class="edge">
<title>Node3&#45;&gt;Node4</title>
<g id="a_edge3_Node000003_Node000004"><a xlink:title=" ">
<path fill="none" stroke="#63b8ff" d="M79.67,-51.82C115.19,-42.07 164.43,-28.55 196.68,-19.7"/>
<polygon fill="#63b8ff" stroke="#63b8ff" points="78.84,-48.42 70.12,-54.44 80.69,-55.17 78.84,-48.42"/>
</a>
</g>
</g>
<!-- Node5&#45;&gt;Node4 -->
<g id="edge6_Node000005_Node000004" class="edge">
<title>Node5&#45;&gt;Node4</title>
<g id="a_edge6_Node000005_Node000004"><a xlink:title=" ">
<path fill="none" stroke="#63b8ff" d="M190.7,-47.11C200.48,-37.97 212.19,-27.03 220.22,-19.52"/>
<polygon fill="#63b8ff" stroke="#63b8ff" points="188.44,-44.42 183.53,-53.81 193.22,-49.54 188.44,-44.42"/>
</a>
</g>
</g>
<!-- Node6&#45;&gt;Node4 -->
<g id="edge8_Node000006_Node000004" class="edge">
<title>Node6&#45;&gt;Node4</title>
<g id="a_edge8_Node000006_Node000004"><a xlink:title=" ">
<path fill="none" stroke="#63b8ff" d="M268.8,-47.11C259.02,-37.97 247.31,-27.03 239.28,-19.52"/>
<polygon fill="#63b8ff" stroke="#63b8ff" points="266.28,-49.54 275.97,-53.81 271.06,-44.42 266.28,-49.54"/>
</a>
</g>
</g>
<!-- Node7&#45;&gt;Node4 -->
<g id="edge11_Node000007_Node000004" class="edge">
<title>Node7&#45;&gt;Node4</title>
<g id="a_edge11_Node000007_Node000004"><a xlink:title=" ">
<path fill="none" stroke="#63b8ff" d="M417.39,-100.47C409.28,-86.13 396.26,-66.86 379.75,-55.25 346.41,-31.81 300.64,-20.52 268.46,-15.19"/>
<polygon fill="#63b8ff" stroke="#63b8ff" points="414.1,-101.75 421.89,-108.93 420.28,-98.46 414.1,-101.75"/>
</a>
</g>
</g>
</g>
</svg>
</svg>

<style type='text/css'>
<![CDATA[
[data-mouse-over-selected='false'] { opacity: 0.7; }
[data-mouse-over-selected='true']  { opacity: 1.0; }
]]>
</style>
<script type="application/ecmascript"><![CDATA[
document.addEventListener('DOMContentLoaded', (event) => {
  highlightEdges();
  highlightAdjacentNodes();
});
]]></script>
</svg>
