<?xml version="1.0" encoding="UTF-8" standalone="no"?>
<!DOCTYPE svg PUBLIC "-//W3C//DTD SVG 1.1//EN"
 "http://www.w3.org/Graphics/SVG/1.1/DTD/svg11.dtd">
<!-- Generated by graphviz version 12.2.0 (20241103.1931)
 -->
<!-- Title: crab/slice.h Pages: 1 -->
<svg width="585pt" height="193pt"
 viewBox="0.00 0.00 585.12 193.00" xmlns="http://www.w3.org/2000/svg" xmlns:xlink="http://www.w3.org/1999/xlink">
<g id="graph0" class="graph" transform="scale(1 1) rotate(0) translate(4 189)">
<title>crab/slice.h</title>
<!-- Node1 -->
<g id="Node000001" class="node">
<title>Node1</title>
<g id="a_Node000001"><a xlink:title="Bounds&#45;checked non&#45;owning view for contiguous memory.">
<polygon fill="#999999" stroke="#666666" points="412.88,-185 347.38,-185 347.38,-165.75 412.88,-165.75 412.88,-185"/>
<text text-anchor="middle" x="380.12" y="-171.5" font-family="Helvetica,sans-Serif" font-size="10.00">crab/slice.h</text>
</a>
</g>
</g>
<!-- Node2 -->
<g id="Node000002" class="node">
<title>Node2</title>
<g id="a_Node000002"><a xlink:href="macros_8h.html" target="_top" xlink:title="CrabLib assertion and utility macros.">
<polygon fill="white" stroke="#666666" points="100.88,-74.5 23.38,-74.5 23.38,-55.25 100.88,-55.25 100.88,-74.5"/>
<text text-anchor="middle" x="62.12" y="-61" font-family="Helvetica,sans-Serif" font-size="10.00">crab/macros.h</text>
</a>
</g>
</g>
<!-- Node1&#45;&gt;Node2 -->
<g id="edge1_Node000001_Node000002" class="edge">
<title>Node1&#45;&gt;Node2</title>
<g id="a_edge1_Node000001_Node000002"><a xlink:title=" ">
<path fill="none" stroke="#63b8ff" d="M346.97,-166.86C313.18,-158.88 259.43,-145.28 214.12,-129.75 170.47,-114.79 121.53,-93.34 91.26,-79.51"/>
<polygon fill="#63b8ff" stroke="#63b8ff" points="92.92,-76.42 82.37,-75.42 89.99,-82.78 92.92,-76.42"/>
</a>
</g>
</g>
<!-- Node5 -->
<g id="Node000005" class="node">
<title>Node5</title>
<g id="a_Node000005"><a xlink:href="result_8h.html" target="_top" xlink:title="Rust&#45;inspired Result&lt;T, E&gt; type for error handling without exceptions.">
<polygon fill="white" stroke="#666666" points="325.75,-129.75 256.5,-129.75 256.5,-110.5 325.75,-110.5 325.75,-129.75"/>
<text text-anchor="middle" x="291.12" y="-116.25" font-family="Helvetica,sans-Serif" font-size="10.00">crab/result.h</text>
</a>
</g>
</g>
<!-- Node1&#45;&gt;Node5 -->
<g id="edge4_Node000001_Node000005" class="edge">
<title>Node1&#45;&gt;Node5</title>
<g id="a_edge4_Node000001_Node000005"><a xlink:title=" ">
<path fill="none" stroke="#63b8ff" d="M365.03,-165.34C351.6,-157.31 331.71,-145.41 315.95,-135.98"/>
<polygon fill="#63b8ff" stroke="#63b8ff" points="317.97,-133.11 307.6,-130.98 314.38,-139.12 317.97,-133.11"/>
</a>
</g>
</g>
<!-- Node6 -->
<g id="Node000006" class="node">
<title>Node6</title>
<g id="a_Node000006"><a xlink:href="error__types_8h.html" target="_top" xlink:title="Common error types for CrabLib Result&lt;T, E&gt;.">
<polygon fill="white" stroke="#666666" points="211.75,-74.5 118.5,-74.5 118.5,-55.25 211.75,-55.25 211.75,-74.5"/>
<text text-anchor="middle" x="165.12" y="-61" font-family="Helvetica,sans-Serif" font-size="10.00">crab/error_types.h</text>
</a>
</g>
</g>
<!-- Node1&#45;&gt;Node6 -->
<g id="edge12_Node000001_Node000006" class="edge">
<title>Node1&#45;&gt;Node6</title>
<g id="a_edge12_Node000001_Node000006"><a xlink:title=" ">
<path fill="none" stroke="#63b8ff" d="M346.88,-166.57C319.17,-159.3 279.2,-146.97 247.12,-129.75 222.94,-116.76 198.54,-96.65 182.72,-82.47"/>
<polygon fill="#63b8ff" stroke="#63b8ff" points="185.32,-80.11 175.58,-75.93 180.59,-85.27 185.32,-80.11"/>
</a>
</g>
</g>
<!-- Node7 -->
<g id="Node000007" class="node">
<title>Node7</title>
<g id="a_Node000007"><a xlink:title=" ">
<polygon fill="#e0e0e0" stroke="#999999" points="358.25,-19.25 310,-19.25 310,0 358.25,0 358.25,-19.25"/>
<text text-anchor="middle" x="334.12" y="-5.75" font-family="Helvetica,sans-Serif" font-size="10.00">cstddef</text>
</a>
</g>
</g>
<!-- Node1&#45;&gt;Node7 -->
<g id="edge13_Node000001_Node000007" class="edge">
<title>Node1&#45;&gt;Node7</title>
<g id="a_edge13_Node000001_Node000007"><a xlink:title=" ">
<path fill="none" stroke="#63b8ff" d="M388.02,-165.43C405.25,-144.79 442.9,-92.72 420.12,-55.25 409.08,-37.07 387.96,-25.96 369.41,-19.38"/>
<polygon fill="#63b8ff" stroke="#63b8ff" points="370.63,-16.09 360.04,-16.38 368.5,-22.76 370.63,-16.09"/>
</a>
</g>
</g>
<!-- Node9 -->
<g id="Node000009" class="node">
<title>Node9</title>
<g id="a_Node000009"><a xlink:title=" ">
<polygon fill="#e0e0e0" stroke="#999999" points="410.62,-74.5 349.62,-74.5 349.62,-55.25 410.62,-55.25 410.62,-74.5"/>
<text text-anchor="middle" x="380.12" y="-61" font-family="Helvetica,sans-Serif" font-size="10.00">type_traits</text>
</a>
</g>
</g>
<!-- Node1&#45;&gt;Node9 -->
<g id="edge16_Node000001_Node000009" class="edge">
<title>Node1&#45;&gt;Node9</title>
<g id="a_edge16_Node000001_Node000009"><a xlink:title=" ">
<path fill="none" stroke="#63b8ff" d="M380.12,-165.5C380.12,-148.25 380.12,-109.83 380.12,-86.06"/>
<polygon fill="#63b8ff" stroke="#63b8ff" points="383.63,-86.39 380.13,-76.39 376.63,-86.39 383.63,-86.39"/>
</a>
</g>
</g>
<!-- Node12 -->
<g id="Node000012" class="node">
<title>Node12</title>
<g id="a_Node000012"><a xlink:title=" ">
<polygon fill="#e0e0e0" stroke="#999999" points="512.75,-129.75 467.5,-129.75 467.5,-110.5 512.75,-110.5 512.75,-129.75"/>
<text text-anchor="middle" x="490.12" y="-116.25" font-family="Helvetica,sans-Serif" font-size="10.00">cstring</text>
</a>
</g>
</g>
<!-- Node1&#45;&gt;Node12 -->
<g id="edge14_Node000001_Node000012" class="edge">
<title>Node1&#45;&gt;Node12</title>
<g id="a_edge14_Node000001_Node000012"><a xlink:title=" ">
<path fill="none" stroke="#63b8ff" d="M398.79,-165.34C415.85,-157.08 441.37,-144.73 461.1,-135.18"/>
<polygon fill="#63b8ff" stroke="#63b8ff" points="462.54,-138.37 470.01,-130.86 459.49,-132.07 462.54,-138.37"/>
</a>
</g>
</g>
<!-- Node13 -->
<g id="Node000013" class="node">
<title>Node13</title>
<g id="a_Node000013"><a xlink:title=" ">
<polygon fill="#e0e0e0" stroke="#999999" points="577.12,-129.75 531.12,-129.75 531.12,-110.5 577.12,-110.5 577.12,-129.75"/>
<text text-anchor="middle" x="554.12" y="-116.25" font-family="Helvetica,sans-Serif" font-size="10.00">iterator</text>
</a>
</g>
</g>
<!-- Node1&#45;&gt;Node13 -->
<g id="edge15_Node000001_Node000013" class="edge">
<title>Node1&#45;&gt;Node13</title>
<g id="a_edge15_Node000001_Node000013"><a xlink:title=" ">
<path fill="none" stroke="#63b8ff" d="M409.64,-165.34C440.26,-155.97 488.07,-141.34 520.22,-131.5"/>
<polygon fill="#63b8ff" stroke="#63b8ff" points="520.89,-134.95 529.43,-128.68 518.85,-128.26 520.89,-134.95"/>
</a>
</g>
</g>
<!-- Node3 -->
<g id="Node000003" class="node">
<title>Node3</title>
<g id="a_Node000003"><a xlink:title=" ">
<polygon fill="#e0e0e0" stroke="#999999" points="42.25,-19.25 0,-19.25 0,0 42.25,0 42.25,-19.25"/>
<text text-anchor="middle" x="21.12" y="-5.75" font-family="Helvetica,sans-Serif" font-size="10.00">cstdio</text>
</a>
</g>
</g>
<!-- Node2&#45;&gt;Node3 -->
<g id="edge2_Node000002_Node000003" class="edge">
<title>Node2&#45;&gt;Node3</title>
<g id="a_edge2_Node000002_Node000003"><a xlink:title=" ">
<path fill="none" stroke="#63b8ff" d="M55.35,-55.08C49.81,-47.88 41.78,-37.46 34.9,-28.51"/>
<polygon fill="#63b8ff" stroke="#63b8ff" points="37.84,-26.6 28.97,-20.81 32.29,-30.87 37.84,-26.6"/>
</a>
</g>
</g>
<!-- Node4 -->
<g id="Node000004" class="node">
<title>Node4</title>
<g id="a_Node000004"><a xlink:title=" ">
<polygon fill="#e0e0e0" stroke="#999999" points="104.38,-19.25 59.88,-19.25 59.88,0 104.38,0 104.38,-19.25"/>
<text text-anchor="middle" x="82.12" y="-5.75" font-family="Helvetica,sans-Serif" font-size="10.00">cstdlib</text>
</a>
</g>
</g>
<!-- Node2&#45;&gt;Node4 -->
<g id="edge3_Node000002_Node000004" class="edge">
<title>Node2&#45;&gt;Node4</title>
<g id="a_edge3_Node000002_Node000004"><a xlink:title=" ">
<path fill="none" stroke="#63b8ff" d="M65.43,-55.08C67.96,-48.34 71.55,-38.77 74.76,-30.24"/>
<polygon fill="#63b8ff" stroke="#63b8ff" points="77.98,-31.62 78.22,-21.03 71.43,-29.16 77.98,-31.62"/>
</a>
</g>
</g>
<!-- Node5&#45;&gt;Node2 -->
<g id="edge5_Node000005_Node000002" class="edge">
<title>Node5&#45;&gt;Node2</title>
<g id="a_edge5_Node000005_Node000002"><a xlink:title=" ">
<path fill="none" stroke="#63b8ff" d="M256.34,-111.04C217.9,-102.1 155.65,-87.62 112.02,-77.48"/>
<polygon fill="#63b8ff" stroke="#63b8ff" points="113.08,-74.13 102.55,-75.27 111.49,-80.95 113.08,-74.13"/>
</a>
</g>
</g>
<!-- Node5&#45;&gt;Node6 -->
<g id="edge6_Node000005_Node000006" class="edge">
<title>Node5&#45;&gt;Node6</title>
<g id="a_edge6_Node000005_Node000006"><a xlink:title=" ">
<path fill="none" stroke="#63b8ff" d="M269.75,-110.09C249.84,-101.68 219.89,-89.02 197.12,-79.4"/>
<polygon fill="#63b8ff" stroke="#63b8ff" points="198.57,-76.21 188,-75.54 195.85,-82.66 198.57,-76.21"/>
</a>
</g>
</g>
<!-- Node5&#45;&gt;Node9 -->
<g id="edge9_Node000005_Node000009" class="edge">
<title>Node5&#45;&gt;Node9</title>
<g id="a_edge9_Node000005_Node000009"><a xlink:title=" ">
<path fill="none" stroke="#63b8ff" d="M306.22,-110.09C319.65,-102.06 339.54,-90.16 355.3,-80.73"/>
<polygon fill="#63b8ff" stroke="#63b8ff" points="356.87,-83.87 363.65,-75.73 353.28,-77.86 356.87,-83.87"/>
</a>
</g>
</g>
<!-- Node10 -->
<g id="Node000010" class="node">
<title>Node10</title>
<g id="a_Node000010"><a xlink:title=" ">
<polygon fill="#e0e0e0" stroke="#999999" points="268.38,-74.5 229.88,-74.5 229.88,-55.25 268.38,-55.25 268.38,-74.5"/>
<text text-anchor="middle" x="249.12" y="-61" font-family="Helvetica,sans-Serif" font-size="10.00">utility</text>
</a>
</g>
</g>
<!-- Node5&#45;&gt;Node10 -->
<g id="edge10_Node000005_Node000010" class="edge">
<title>Node5&#45;&gt;Node10</title>
<g id="a_edge10_Node000005_Node000010"><a xlink:title=" ">
<path fill="none" stroke="#63b8ff" d="M284.19,-110.33C278.51,-103.13 270.29,-92.71 263.23,-83.76"/>
<polygon fill="#63b8ff" stroke="#63b8ff" points="266.09,-81.73 257.15,-76.05 260.59,-86.07 266.09,-81.73"/>
</a>
</g>
</g>
<!-- Node11 -->
<g id="Node000011" class="node">
<title>Node11</title>
<g id="a_Node000011"><a xlink:title=" ">
<polygon fill="#e0e0e0" stroke="#999999" points="331.75,-74.5 286.5,-74.5 286.5,-55.25 331.75,-55.25 331.75,-74.5"/>
<text text-anchor="middle" x="309.12" y="-61" font-family="Helvetica,sans-Serif" font-size="10.00">variant</text>
</a>
</g>
</g>
<!-- Node5&#45;&gt;Node11 -->
<g id="edge11_Node000005_Node000011" class="edge">
<title>Node5&#45;&gt;Node11</title>
<g id="a_edge11_Node000005_Node000011"><a xlink:title=" ">
<path fill="none" stroke="#63b8ff" d="M294.1,-110.33C296.38,-103.59 299.61,-94.02 302.49,-85.49"/>
<polygon fill="#63b8ff" stroke="#63b8ff" points="305.72,-86.89 305.6,-76.29 299.09,-84.65 305.72,-86.89"/>
</a>
</g>
</g>
<!-- Node6&#45;&gt;Node7 -->
<g id="edge7_Node000006_Node000007" class="edge">
<title>Node6&#45;&gt;Node7</title>
<g id="a_edge7_Node000006_Node000007"><a xlink:title=" ">
<path fill="none" stroke="#63b8ff" d="M193.79,-54.84C222.81,-45.7 267.74,-31.54 298.91,-21.72"/>
<polygon fill="#63b8ff" stroke="#63b8ff" points="299.78,-25.12 308.27,-18.77 297.68,-18.44 299.78,-25.12"/>
</a>
</g>
</g>
<!-- Node8 -->
<g id="Node000008" class="node">
<title>Node8</title>
<g id="a_Node000008"><a xlink:title=" ">
<polygon fill="#e0e0e0" stroke="#999999" points="187.75,-19.25 142.5,-19.25 142.5,0 187.75,0 187.75,-19.25"/>
<text text-anchor="middle" x="165.12" y="-5.75" font-family="Helvetica,sans-Serif" font-size="10.00">cstdint</text>
</a>
</g>
</g>
<!-- Node6&#45;&gt;Node8 -->
<g id="edge8_Node000006_Node000008" class="edge">
<title>Node6&#45;&gt;Node8</title>
<g id="a_edge8_Node000006_Node000008"><a xlink:title=" ">
<path fill="none" stroke="#63b8ff" d="M165.12,-55.08C165.12,-48.57 165.12,-39.42 165.12,-31.12"/>
<polygon fill="#63b8ff" stroke="#63b8ff" points="168.63,-31.12 165.13,-21.12 161.63,-31.12 168.63,-31.12"/>
</a>
</g>
</g>
</g>
</svg>
