<?xml version="1.0" encoding="UTF-8" standalone="no"?>
<!DOCTYPE svg PUBLIC "-//W3C//DTD SVG 1.1//EN"
 "http://www.w3.org/Graphics/SVG/1.1/DTD/svg11.dtd">
<!-- Generated by graphviz version 12.2.0 (20241103.1931)
 -->
<!-- Title: crab/static_vector.h Pages: 1 -->
<svg width="792pt" height="248pt"
 viewBox="0.00 0.00 792.12 248.25" xmlns="http://www.w3.org/2000/svg" xmlns:xlink="http://www.w3.org/1999/xlink">
<g id="graph0" class="graph" transform="scale(1 1) rotate(0) translate(4 244.25)">
<title>crab/static_vector.h</title>
<!-- Node1 -->
<g id="Node000001" class="node">
<title>Node1</title>
<g id="a_Node000001"><a xlink:title="Fixed&#45;capacity vector with stack allocation (no heap).">
<polygon fill="#999999" stroke="#666666" points="425.88,-240.25 324.38,-240.25 324.38,-221 425.88,-221 425.88,-240.25"/>
<text text-anchor="middle" x="375.12" y="-226.75" font-family="Helvetica,sans-Serif" font-size="10.00">crab/static_vector.h</text>
</a>
</g>
</g>
<!-- Node2 -->
<g id="Node000002" class="node">
<title>Node2</title>
<g id="a_Node000002"><a xlink:href="macros_8h.html" target="_top" xlink:title="CrabLib assertion and utility macros.">
<polygon fill="white" stroke="#666666" points="109.88,-74.5 32.38,-74.5 32.38,-55.25 109.88,-55.25 109.88,-74.5"/>
<text text-anchor="middle" x="71.12" y="-61" font-family="Helvetica,sans-Serif" font-size="10.00">crab/macros.h</text>
</a>
</g>
</g>
<!-- Node1&#45;&gt;Node2 -->
<g id="edge1_Node000001_Node000002" class="edge">
<title>Node1&#45;&gt;Node2</title>
<g id="a_edge1_Node000001_Node000002"><a xlink:title=" ">
<path fill="none" stroke="#63b8ff" d="M323.9,-226.45C258.69,-221.44 150.78,-209.63 120.12,-185 89.27,-160.21 77.66,-112.77 73.43,-85.84"/>
<polygon fill="#63b8ff" stroke="#63b8ff" points="76.94,-85.7 72.13,-76.26 70.01,-86.64 76.94,-85.7"/>
</a>
</g>
</g>
<!-- Node5 -->
<g id="Node000005" class="node">
<title>Node5</title>
<g id="a_Node000005"><a xlink:href="result_8h.html" target="_top" xlink:title="Rust&#45;inspired Result&lt;T, E&gt; type for error handling without exceptions.">
<polygon fill="white" stroke="#666666" points="345.75,-129.75 276.5,-129.75 276.5,-110.5 345.75,-110.5 345.75,-129.75"/>
<text text-anchor="middle" x="311.12" y="-116.25" font-family="Helvetica,sans-Serif" font-size="10.00">crab/result.h</text>
</a>
</g>
</g>
<!-- Node1&#45;&gt;Node5 -->
<g id="edge4_Node000001_Node000005" class="edge">
<title>Node1&#45;&gt;Node5</title>
<g id="a_edge4_Node000001_Node000005"><a xlink:title=" ">
<path fill="none" stroke="#63b8ff" d="M363.13,-220.62C352.97,-212.39 338.71,-199.35 330.12,-185 322.02,-171.46 317.16,-154.21 314.38,-141.06"/>
<polygon fill="#63b8ff" stroke="#63b8ff" points="317.86,-140.63 312.6,-131.43 310.98,-141.91 317.86,-140.63"/>
</a>
</g>
</g>
<!-- Node6 -->
<g id="Node000006" class="node">
<title>Node6</title>
<g id="a_Node000006"><a xlink:href="error__types_8h.html" target="_top" xlink:title="Common error types for CrabLib Result&lt;T, E&gt;.">
<polygon fill="white" stroke="#666666" points="266.75,-74.5 173.5,-74.5 173.5,-55.25 266.75,-55.25 266.75,-74.5"/>
<text text-anchor="middle" x="220.12" y="-61" font-family="Helvetica,sans-Serif" font-size="10.00">crab/error_types.h</text>
</a>
</g>
</g>
<!-- Node1&#45;&gt;Node6 -->
<g id="edge20_Node000001_Node000006" class="edge">
<title>Node1&#45;&gt;Node6</title>
<g id="a_edge20_Node000001_Node000006"><a xlink:title=" ">
<path fill="none" stroke="#63b8ff" d="M357.97,-220.55C330.56,-205.26 276.75,-171.84 245.12,-129.75 235.27,-116.63 228.78,-99.12 224.89,-85.76"/>
<polygon fill="#63b8ff" stroke="#63b8ff" points="228.34,-85.13 222.41,-76.35 221.57,-86.92 228.34,-85.13"/>
</a>
</g>
</g>
<!-- Node7 -->
<g id="Node000007" class="node">
<title>Node7</title>
<g id="a_Node000007"><a xlink:title=" ">
<polygon fill="#e0e0e0" stroke="#999999" points="176.25,-19.25 128,-19.25 128,0 176.25,0 176.25,-19.25"/>
<text text-anchor="middle" x="152.12" y="-5.75" font-family="Helvetica,sans-Serif" font-size="10.00">cstddef</text>
</a>
</g>
</g>
<!-- Node1&#45;&gt;Node7 -->
<g id="edge21_Node000001_Node000007" class="edge">
<title>Node1&#45;&gt;Node7</title>
<g id="a_edge21_Node000001_Node000007"><a xlink:title=" ">
<path fill="none" stroke="#63b8ff" d="M348.57,-220.61C327.83,-212.89 298.83,-200.57 276.12,-185 218.45,-145.45 196.97,-136.23 164.12,-74.5 156.9,-60.91 153.96,-43.67 152.8,-30.52"/>
<polygon fill="#63b8ff" stroke="#63b8ff" points="156.32,-30.72 152.24,-20.94 149.33,-31.13 156.32,-30.72"/>
</a>
</g>
</g>
<!-- Node9 -->
<g id="Node000009" class="node">
<title>Node9</title>
<g id="a_Node000009"><a xlink:title=" ">
<polygon fill="#e0e0e0" stroke="#999999" points="586.62,-74.5 525.62,-74.5 525.62,-55.25 586.62,-55.25 586.62,-74.5"/>
<text text-anchor="middle" x="556.12" y="-61" font-family="Helvetica,sans-Serif" font-size="10.00">type_traits</text>
</a>
</g>
</g>
<!-- Node1&#45;&gt;Node9 -->
<g id="edge24_Node000001_Node000009" class="edge">
<title>Node1&#45;&gt;Node9</title>
<g id="a_edge24_Node000001_Node000009"><a xlink:title=" ">
<path fill="none" stroke="#63b8ff" d="M426.3,-225.55C458.97,-220.55 500.44,-209.49 529.12,-185 557.67,-160.64 559.65,-113.03 558.16,-85.96"/>
<polygon fill="#63b8ff" stroke="#63b8ff" points="561.67,-86.02 557.39,-76.32 554.69,-86.57 561.67,-86.02"/>
</a>
</g>
</g>
<!-- Node10 -->
<g id="Node000010" class="node">
<title>Node10</title>
<g id="a_Node000010"><a xlink:title=" ">
<polygon fill="#e0e0e0" stroke="#999999" points="393.38,-74.5 354.88,-74.5 354.88,-55.25 393.38,-55.25 393.38,-74.5"/>
<text text-anchor="middle" x="374.12" y="-61" font-family="Helvetica,sans-Serif" font-size="10.00">utility</text>
</a>
</g>
</g>
<!-- Node1&#45;&gt;Node10 -->
<g id="edge25_Node000001_Node000010" class="edge">
<title>Node1&#45;&gt;Node10</title>
<g id="a_edge25_Node000001_Node000010"><a xlink:title=" ">
<path fill="none" stroke="#63b8ff" d="M409.44,-220.6C468.06,-203.52 577.47,-163.37 537.12,-110.5 521.18,-89.6 447.66,-76.09 405.01,-69.87"/>
<polygon fill="#63b8ff" stroke="#63b8ff" points="405.5,-66.4 395.11,-68.48 404.53,-73.34 405.5,-66.4"/>
</a>
</g>
</g>
<!-- Node12 -->
<g id="Node000012" class="node">
<title>Node12</title>
<g id="a_Node000012"><a xlink:href="option_8h.html" target="_top" xlink:title="Ergonomic Option&lt;T&gt; type with Rust&#45;inspired monadic interface.">
<polygon fill="white" stroke="#666666" points="410.88,-185 339.38,-185 339.38,-165.75 410.88,-165.75 410.88,-185"/>
<text text-anchor="middle" x="375.12" y="-171.5" font-family="Helvetica,sans-Serif" font-size="10.00">crab/option.h</text>
</a>
</g>
</g>
<!-- Node1&#45;&gt;Node12 -->
<g id="edge12_Node000001_Node000012" class="edge">
<title>Node1&#45;&gt;Node12</title>
<g id="a_edge12_Node000001_Node000012"><a xlink:title=" ">
<path fill="none" stroke="#63b8ff" d="M375.12,-220.83C375.12,-214.32 375.12,-205.17 375.12,-196.87"/>
<polygon fill="#63b8ff" stroke="#63b8ff" points="378.63,-196.87 375.13,-186.87 371.63,-196.87 378.63,-196.87"/>
</a>
</g>
</g>
<!-- Node15 -->
<g id="Node000015" class="node">
<title>Node15</title>
<g id="a_Node000015"><a xlink:title=" ">
<polygon fill="#e0e0e0" stroke="#999999" points="731.88,-185 660.38,-185 660.38,-165.75 731.88,-165.75 731.88,-185"/>
<text text-anchor="middle" x="696.12" y="-171.5" font-family="Helvetica,sans-Serif" font-size="10.00">initializer_list</text>
</a>
</g>
</g>
<!-- Node1&#45;&gt;Node15 -->
<g id="edge22_Node000001_Node000015" class="edge">
<title>Node1&#45;&gt;Node15</title>
<g id="a_edge22_Node000001_Node000015"><a xlink:title=" ">
<path fill="none" stroke="#63b8ff" d="M426.34,-221.31C480.85,-212.43 569.6,-197.9 646.12,-185 647.11,-184.83 648.11,-184.66 649.12,-184.49"/>
<polygon fill="#63b8ff" stroke="#63b8ff" points="649.32,-188.01 658.59,-182.88 648.14,-181.11 649.32,-188.01"/>
</a>
</g>
</g>
<!-- Node16 -->
<g id="Node000016" class="node">
<title>Node16</title>
<g id="a_Node000016"><a xlink:title=" ">
<polygon fill="#e0e0e0" stroke="#999999" points="784.12,-185 750.12,-185 750.12,-165.75 784.12,-165.75 784.12,-185"/>
<text text-anchor="middle" x="767.12" y="-171.5" font-family="Helvetica,sans-Serif" font-size="10.00">new</text>
</a>
</g>
</g>
<!-- Node1&#45;&gt;Node16 -->
<g id="edge23_Node000001_Node000016" class="edge">
<title>Node1&#45;&gt;Node16</title>
<g id="a_edge23_Node000001_Node000016"><a xlink:title=" ">
<path fill="none" stroke="#63b8ff" d="M426.29,-226.61C495.33,-221.84 622.17,-210.58 738.42,-185.2"/>
<polygon fill="#63b8ff" stroke="#63b8ff" points="739.16,-188.62 748.16,-183.03 737.64,-181.79 739.16,-188.62"/>
</a>
</g>
</g>
<!-- Node3 -->
<g id="Node000003" class="node">
<title>Node3</title>
<g id="a_Node000003"><a xlink:title=" ">
<polygon fill="#e0e0e0" stroke="#999999" points="42.25,-19.25 0,-19.25 0,0 42.25,0 42.25,-19.25"/>
<text text-anchor="middle" x="21.12" y="-5.75" font-family="Helvetica,sans-Serif" font-size="10.00">cstdio</text>
</a>
</g>
</g>
<!-- Node2&#45;&gt;Node3 -->
<g id="edge2_Node000002_Node000003" class="edge">
<title>Node2&#45;&gt;Node3</title>
<g id="a_edge2_Node000002_Node000003"><a xlink:title=" ">
<path fill="none" stroke="#63b8ff" d="M62.87,-55.08C55.96,-47.73 45.9,-37.01 37.39,-27.94"/>
<polygon fill="#63b8ff" stroke="#63b8ff" points="39.99,-25.61 30.6,-20.71 34.89,-30.4 39.99,-25.61"/>
</a>
</g>
</g>
<!-- Node4 -->
<g id="Node000004" class="node">
<title>Node4</title>
<g id="a_Node000004"><a xlink:title=" ">
<polygon fill="#e0e0e0" stroke="#999999" points="104.38,-19.25 59.88,-19.25 59.88,0 104.38,0 104.38,-19.25"/>
<text text-anchor="middle" x="82.12" y="-5.75" font-family="Helvetica,sans-Serif" font-size="10.00">cstdlib</text>
</a>
</g>
</g>
<!-- Node2&#45;&gt;Node4 -->
<g id="edge3_Node000002_Node000004" class="edge">
<title>Node2&#45;&gt;Node4</title>
<g id="a_edge3_Node000002_Node000004"><a xlink:title=" ">
<path fill="none" stroke="#63b8ff" d="M72.94,-55.08C74.3,-48.49 76.22,-39.21 77.95,-30.82"/>
<polygon fill="#63b8ff" stroke="#63b8ff" points="81.37,-31.59 79.96,-21.09 74.51,-30.18 81.37,-31.59"/>
</a>
</g>
</g>
<!-- Node5&#45;&gt;Node2 -->
<g id="edge5_Node000005_Node000002" class="edge">
<title>Node5&#45;&gt;Node2</title>
<g id="a_edge5_Node000005_Node000002"><a xlink:title=" ">
<path fill="none" stroke="#63b8ff" d="M276.23,-111.38C235.39,-102.32 167.47,-87.25 121.06,-76.95"/>
<polygon fill="#63b8ff" stroke="#63b8ff" points="122.05,-73.59 111.53,-74.84 120.53,-80.42 122.05,-73.59"/>
</a>
</g>
</g>
<!-- Node5&#45;&gt;Node6 -->
<g id="edge6_Node000005_Node000006" class="edge">
<title>Node5&#45;&gt;Node6</title>
<g id="a_edge6_Node000005_Node000006"><a xlink:title=" ">
<path fill="none" stroke="#63b8ff" d="M295.69,-110.09C281.96,-102.06 261.63,-90.16 245.51,-80.73"/>
<polygon fill="#63b8ff" stroke="#63b8ff" points="247.34,-77.75 236.94,-75.72 243.81,-83.79 247.34,-77.75"/>
</a>
</g>
</g>
<!-- Node5&#45;&gt;Node9 -->
<g id="edge9_Node000005_Node000009" class="edge">
<title>Node5&#45;&gt;Node9</title>
<g id="a_edge9_Node000005_Node000009"><a xlink:title=" ">
<path fill="none" stroke="#63b8ff" d="M346.23,-111.5C390.6,-101.85 466.89,-85.27 514.25,-74.98"/>
<polygon fill="#63b8ff" stroke="#63b8ff" points="514.84,-78.43 523.87,-72.89 513.35,-71.59 514.84,-78.43"/>
</a>
</g>
</g>
<!-- Node5&#45;&gt;Node10 -->
<g id="edge10_Node000005_Node000010" class="edge">
<title>Node5&#45;&gt;Node10</title>
<g id="a_edge10_Node000005_Node000010"><a xlink:title=" ">
<path fill="none" stroke="#63b8ff" d="M321.81,-110.09C330.83,-102.47 343.96,-91.37 354.81,-82.2"/>
<polygon fill="#63b8ff" stroke="#63b8ff" points="357.06,-84.88 362.44,-75.75 352.54,-79.53 357.06,-84.88"/>
</a>
</g>
</g>
<!-- Node11 -->
<g id="Node000011" class="node">
<title>Node11</title>
<g id="a_Node000011"><a xlink:title=" ">
<polygon fill="#e0e0e0" stroke="#999999" points="333.75,-74.5 288.5,-74.5 288.5,-55.25 333.75,-55.25 333.75,-74.5"/>
<text text-anchor="middle" x="311.12" y="-61" font-family="Helvetica,sans-Serif" font-size="10.00">variant</text>
</a>
</g>
</g>
<!-- Node5&#45;&gt;Node11 -->
<g id="edge11_Node000005_Node000011" class="edge">
<title>Node5&#45;&gt;Node11</title>
<g id="a_edge11_Node000005_Node000011"><a xlink:title=" ">
<path fill="none" stroke="#63b8ff" d="M311.12,-110.33C311.12,-103.82 311.12,-94.67 311.12,-86.37"/>
<polygon fill="#63b8ff" stroke="#63b8ff" points="314.63,-86.37 311.13,-76.37 307.63,-86.37 314.63,-86.37"/>
</a>
</g>
</g>
<!-- Node6&#45;&gt;Node7 -->
<g id="edge7_Node000006_Node000007" class="edge">
<title>Node6&#45;&gt;Node7</title>
<g id="a_edge7_Node000006_Node000007"><a xlink:title=" ">
<path fill="none" stroke="#63b8ff" d="M208.59,-54.84C198.66,-47.07 184.11,-35.67 172.27,-26.4"/>
<polygon fill="#63b8ff" stroke="#63b8ff" points="174.71,-23.87 164.68,-20.46 170.4,-29.38 174.71,-23.87"/>
</a>
</g>
</g>
<!-- Node8 -->
<g id="Node000008" class="node">
<title>Node8</title>
<g id="a_Node000008"><a xlink:title=" ">
<polygon fill="#e0e0e0" stroke="#999999" points="242.75,-19.25 197.5,-19.25 197.5,0 242.75,0 242.75,-19.25"/>
<text text-anchor="middle" x="220.12" y="-5.75" font-family="Helvetica,sans-Serif" font-size="10.00">cstdint</text>
</a>
</g>
</g>
<!-- Node6&#45;&gt;Node8 -->
<g id="edge8_Node000006_Node000008" class="edge">
<title>Node6&#45;&gt;Node8</title>
<g id="a_edge8_Node000006_Node000008"><a xlink:title=" ">
<path fill="none" stroke="#63b8ff" d="M220.12,-55.08C220.12,-48.57 220.12,-39.42 220.12,-31.12"/>
<polygon fill="#63b8ff" stroke="#63b8ff" points="223.63,-31.12 220.13,-21.12 216.63,-31.12 223.63,-31.12"/>
</a>
</g>
</g>
<!-- Node12&#45;&gt;Node2 -->
<g id="edge13_Node000012_Node000002" class="edge">
<title>Node12&#45;&gt;Node2</title>
<g id="a_edge13_Node000012_Node000002"><a xlink:title=" ">
<path fill="none" stroke="#63b8ff" d="M348.18,-165.31C321.85,-156.41 280.65,-142.37 245.12,-129.75 196.69,-112.55 140.97,-91.95 105.9,-78.89"/>
<polygon fill="#63b8ff" stroke="#63b8ff" points="107.29,-75.67 96.69,-75.45 104.84,-82.23 107.29,-75.67"/>
</a>
</g>
</g>
<!-- Node12&#45;&gt;Node5 -->
<g id="edge19_Node000012_Node000005" class="edge">
<title>Node12&#45;&gt;Node5</title>
<g id="a_edge19_Node000012_Node000005"><a xlink:title=" ">
<path fill="none" stroke="#63b8ff" d="M364.27,-165.34C355.02,-157.65 341.5,-146.4 330.42,-137.18"/>
<polygon fill="#63b8ff" stroke="#63b8ff" points="332.91,-134.7 322.98,-130.99 328.43,-140.08 332.91,-134.7"/>
</a>
</g>
</g>
<!-- Node12&#45;&gt;Node6 -->
<g id="edge14_Node000012_Node000006" class="edge">
<title>Node12&#45;&gt;Node6</title>
<g id="a_edge14_Node000012_Node000006"><a xlink:title=" ">
<path fill="none" stroke="#63b8ff" d="M340.25,-165.28C317.76,-158.2 288.77,-146.69 267.12,-129.75 251.56,-117.56 238.66,-98.95 230.34,-84.95"/>
<polygon fill="#63b8ff" stroke="#63b8ff" points="233.4,-83.24 225.43,-76.25 227.3,-86.68 233.4,-83.24"/>
</a>
</g>
</g>
<!-- Node12&#45;&gt;Node9 -->
<g id="edge17_Node000012_Node000009" class="edge">
<title>Node12&#45;&gt;Node9</title>
<g id="a_edge17_Node000012_Node000009"><a xlink:title=" ">
<path fill="none" stroke="#63b8ff" d="M411.3,-174.1C447.81,-171.85 503.47,-162.72 537.12,-129.75 548.77,-118.34 553.35,-100.15 555.12,-86.09"/>
<polygon fill="#63b8ff" stroke="#63b8ff" points="558.6,-86.42 555.94,-76.16 551.63,-85.84 558.6,-86.42"/>
</a>
</g>
</g>
<!-- Node12&#45;&gt;Node10 -->
<g id="edge18_Node000012_Node000010" class="edge">
<title>Node12&#45;&gt;Node10</title>
<g id="a_edge18_Node000012_Node000010"><a xlink:title=" ">
<path fill="none" stroke="#63b8ff" d="M375.04,-165.5C374.88,-148.25 374.53,-109.83 374.31,-86.06"/>
<polygon fill="#63b8ff" stroke="#63b8ff" points="377.81,-86.36 374.22,-76.39 370.81,-86.42 377.81,-86.36"/>
</a>
</g>
</g>
<!-- Node13 -->
<g id="Node000013" class="node">
<title>Node13</title>
<g id="a_Node000013"><a xlink:title=" ">
<polygon fill="#e0e0e0" stroke="#999999" points="460.12,-129.75 402.12,-129.75 402.12,-110.5 460.12,-110.5 460.12,-129.75"/>
<text text-anchor="middle" x="431.12" y="-116.25" font-family="Helvetica,sans-Serif" font-size="10.00">functional</text>
</a>
</g>
</g>
<!-- Node12&#45;&gt;Node13 -->
<g id="edge15_Node000012_Node000013" class="edge">
<title>Node12&#45;&gt;Node13</title>
<g id="a_edge15_Node000012_Node000013"><a xlink:title=" ">
<path fill="none" stroke="#63b8ff" d="M384.62,-165.34C392.56,-157.8 404.07,-146.85 413.66,-137.73"/>
<polygon fill="#63b8ff" stroke="#63b8ff" points="415.83,-140.49 420.67,-131.07 411.01,-135.42 415.83,-140.49"/>
</a>
</g>
</g>
<!-- Node14 -->
<g id="Node000014" class="node">
<title>Node14</title>
<g id="a_Node000014"><a xlink:title=" ">
<polygon fill="#e0e0e0" stroke="#999999" points="528,-129.75 478.25,-129.75 478.25,-110.5 528,-110.5 528,-129.75"/>
<text text-anchor="middle" x="503.12" y="-116.25" font-family="Helvetica,sans-Serif" font-size="10.00">optional</text>
</a>
</g>
</g>
<!-- Node12&#45;&gt;Node14 -->
<g id="edge16_Node000012_Node000014" class="edge">
<title>Node12&#45;&gt;Node14</title>
<g id="a_edge16_Node000012_Node000014"><a xlink:title=" ">
<path fill="none" stroke="#63b8ff" d="M396.84,-165.34C417.16,-156.89 447.77,-144.15 470.93,-134.52"/>
<polygon fill="#63b8ff" stroke="#63b8ff" points="472.02,-137.86 479.91,-130.78 469.33,-131.39 472.02,-137.86"/>
</a>
</g>
</g>
</g>
</svg>
